G04 #@! TF.GenerationSoftware,KiCad,Pcbnew,(5.1.4-0-10_14)*
G04 #@! TF.CreationDate,2019-11-09T17:54:15-08:00*
G04 #@! TF.ProjectId,esp32-generic-board,65737033-322d-4676-956e-657269632d62,rev?*
G04 #@! TF.SameCoordinates,Original*
G04 #@! TF.FileFunction,Legend,Top*
G04 #@! TF.FilePolarity,Positive*
%FSLAX46Y46*%
G04 Gerber Fmt 4.6, Leading zero omitted, Abs format (unit mm)*
G04 Created by KiCad (PCBNEW (5.1.4-0-10_14)) date 2019-11-09 17:54:15*
%MOMM*%
%LPD*%
G04 APERTURE LIST*
%ADD10C,0.152400*%
%ADD11C,0.120000*%
%ADD12C,0.100000*%
%ADD13C,0.150000*%
G04 APERTURE END LIST*
D10*
X7975600Y-47710271D02*
X7939314Y-47782842D01*
X7939314Y-47891700D01*
X7975600Y-48000557D01*
X8048171Y-48073128D01*
X8120742Y-48109414D01*
X8265885Y-48145700D01*
X8374742Y-48145700D01*
X8519885Y-48109414D01*
X8592457Y-48073128D01*
X8665028Y-48000557D01*
X8701314Y-47891700D01*
X8701314Y-47819128D01*
X8665028Y-47710271D01*
X8628742Y-47673985D01*
X8374742Y-47673985D01*
X8374742Y-47819128D01*
X8701314Y-47347414D02*
X7939314Y-47347414D01*
X8701314Y-46911985D01*
X7939314Y-46911985D01*
X8701314Y-46549128D02*
X7939314Y-46549128D01*
X7939314Y-46367700D01*
X7975600Y-46258842D01*
X8048171Y-46186271D01*
X8120742Y-46149985D01*
X8265885Y-46113700D01*
X8374742Y-46113700D01*
X8519885Y-46149985D01*
X8592457Y-46186271D01*
X8665028Y-46258842D01*
X8701314Y-46367700D01*
X8701314Y-46549128D01*
X4002314Y-48236414D02*
X4764314Y-47982414D01*
X4002314Y-47728414D01*
X4728028Y-47184128D02*
X4764314Y-47256700D01*
X4764314Y-47401842D01*
X4728028Y-47474414D01*
X4655457Y-47510700D01*
X4365171Y-47510700D01*
X4292600Y-47474414D01*
X4256314Y-47401842D01*
X4256314Y-47256700D01*
X4292600Y-47184128D01*
X4365171Y-47147842D01*
X4437742Y-47147842D01*
X4510314Y-47510700D01*
X4764314Y-46893842D02*
X4256314Y-46494700D01*
X4256314Y-46893842D02*
X4764314Y-46494700D01*
X4256314Y-46313271D02*
X4256314Y-46022985D01*
X4002314Y-46204414D02*
X4655457Y-46204414D01*
X4728028Y-46168128D01*
X4764314Y-46095557D01*
X4764314Y-46022985D01*
D11*
X-60000Y-48320000D02*
X2600000Y-48320000D01*
X-60000Y-2540000D02*
X-60000Y-48320000D01*
X2600000Y-2540000D02*
X2600000Y-48320000D01*
X-60000Y-2540000D02*
X2600000Y-2540000D01*
X-60000Y-1270000D02*
X-60000Y60000D01*
X-60000Y60000D02*
X1270000Y60000D01*
X21093500Y-52415000D02*
X22593500Y-52415000D01*
X13093500Y-52415000D02*
X13093500Y-53935000D01*
X13093500Y-52415000D02*
X14593500Y-52415000D01*
X22593500Y-55435000D02*
X22593500Y-59675000D01*
X22593500Y-52415000D02*
X22593500Y-53935000D01*
X13093500Y-55435000D02*
X13093500Y-59675000D01*
X25460000Y-48320000D02*
X24130000Y-48320000D01*
X25460000Y-46990000D02*
X25460000Y-48320000D01*
X25460000Y-45720000D02*
X22800000Y-45720000D01*
X22800000Y-45720000D02*
X22800000Y60000D01*
X25460000Y-45720000D02*
X25460000Y60000D01*
X25460000Y60000D02*
X22800000Y60000D01*
X20309578Y-39000500D02*
X19792422Y-39000500D01*
X20309578Y-37580500D02*
X19792422Y-37580500D01*
X5534922Y-28713500D02*
X6052078Y-28713500D01*
X5534922Y-27293500D02*
X6052078Y-27293500D01*
X7037000Y-21824422D02*
X7037000Y-22341578D01*
X8457000Y-21824422D02*
X8457000Y-22341578D01*
X5441422Y-33453000D02*
X5958578Y-33453000D01*
X5441422Y-34873000D02*
X5958578Y-34873000D01*
X9259500Y-21790922D02*
X9259500Y-22308078D01*
X10679500Y-21790922D02*
X10679500Y-22308078D01*
X5536000Y-41255422D02*
X5536000Y-41772578D01*
X4116000Y-41255422D02*
X4116000Y-41772578D01*
X19438500Y-23049500D02*
X19438500Y-20364500D01*
X19438500Y-20364500D02*
X17518500Y-20364500D01*
X17518500Y-20364500D02*
X17518500Y-23049500D01*
X15042000Y-20349500D02*
X15042000Y-23034500D01*
X16962000Y-20349500D02*
X15042000Y-20349500D01*
X16962000Y-23034500D02*
X16962000Y-20349500D01*
X10398000Y-49776000D02*
X2398000Y-49776000D01*
X2398000Y-49776000D02*
X2398000Y-62876000D01*
D12*
X10398000Y-62876000D02*
X2398000Y-62876000D01*
X10398000Y-49776000D02*
X10398000Y-62876000D01*
D11*
X10333000Y-36246500D02*
X9733000Y-36246500D01*
X11033000Y-32796500D02*
X11033000Y-35596500D01*
X9733000Y-32146500D02*
X10333000Y-32146500D01*
X9033000Y-35596500D02*
X9033000Y-32796500D01*
X9033000Y-32846500D02*
G75*
G02X9733000Y-32146500I700000J0D01*
G01*
X10333000Y-32146500D02*
G75*
G02X11033000Y-32846500I0J-700000D01*
G01*
X11033000Y-35546500D02*
G75*
G02X10333000Y-36246500I-700000J0D01*
G01*
X9733000Y-36246500D02*
G75*
G02X9033000Y-35546500I0J700000D01*
G01*
X16029000Y-40977000D02*
X16029000Y-40032000D01*
X16029000Y-40032000D02*
X21309000Y-40032000D01*
X21309000Y-40032000D02*
X21309000Y-40977000D01*
X16029000Y-44367000D02*
X16029000Y-45312000D01*
X16029000Y-45312000D02*
X21309000Y-45312000D01*
X21309000Y-45312000D02*
X21309000Y-44367000D01*
X14775922Y-50153500D02*
X15293078Y-50153500D01*
X14775922Y-51573500D02*
X15293078Y-51573500D01*
X20236922Y-51573500D02*
X20754078Y-51573500D01*
X20236922Y-50153500D02*
X20754078Y-50153500D01*
X19927500Y-22308078D02*
X19927500Y-21790922D01*
X21347500Y-22308078D02*
X21347500Y-21790922D01*
X14553000Y-22293078D02*
X14553000Y-21775922D01*
X13133000Y-22293078D02*
X13133000Y-21775922D01*
X4306500Y-22341578D02*
X4306500Y-21824422D01*
X5726500Y-22341578D02*
X5726500Y-21824422D01*
X6721500Y-29441500D02*
X4921500Y-29441500D01*
X4921500Y-32661500D02*
X7371500Y-32661500D01*
X10817500Y-39209000D02*
X7597500Y-39209000D01*
X11707500Y-43468000D02*
X7597500Y-43468000D01*
X3580000Y-18053500D02*
X3580000Y-18833500D01*
X3580000Y-18833500D02*
X4580000Y-18833500D01*
X21820000Y-18053500D02*
X21820000Y-18833500D01*
X21820000Y-18833500D02*
X20820000Y-18833500D01*
X3580000Y6911500D02*
X21820000Y6911500D01*
X21820000Y6911500D02*
X21820000Y491500D01*
X3580000Y6911500D02*
X3580000Y491500D01*
X3580000Y491500D02*
X3200000Y491500D01*
X13133000Y-41358078D02*
X13133000Y-40840922D01*
X14553000Y-41358078D02*
X14553000Y-40840922D01*
X17145000Y-35476500D02*
X19095000Y-35476500D01*
X17145000Y-35476500D02*
X15195000Y-35476500D01*
X17145000Y-25356500D02*
X19095000Y-25356500D01*
X17145000Y-25356500D02*
X13695000Y-25356500D01*
D13*
X17958642Y-38417500D02*
X17994928Y-38453785D01*
X18031214Y-38562642D01*
X18031214Y-38635214D01*
X17994928Y-38744071D01*
X17922357Y-38816642D01*
X17849785Y-38852928D01*
X17704642Y-38889214D01*
X17595785Y-38889214D01*
X17450642Y-38852928D01*
X17378071Y-38816642D01*
X17305500Y-38744071D01*
X17269214Y-38635214D01*
X17269214Y-38562642D01*
X17305500Y-38453785D01*
X17341785Y-38417500D01*
X18031214Y-37691785D02*
X18031214Y-38127214D01*
X18031214Y-37909500D02*
X17269214Y-37909500D01*
X17378071Y-37982071D01*
X17450642Y-38054642D01*
X17486928Y-38127214D01*
X5651500Y-26815142D02*
X5615214Y-26851428D01*
X5506357Y-26887714D01*
X5433785Y-26887714D01*
X5324928Y-26851428D01*
X5252357Y-26778857D01*
X5216071Y-26706285D01*
X5179785Y-26561142D01*
X5179785Y-26452285D01*
X5216071Y-26307142D01*
X5252357Y-26234571D01*
X5324928Y-26162000D01*
X5433785Y-26125714D01*
X5506357Y-26125714D01*
X5615214Y-26162000D01*
X5651500Y-26198285D01*
X5941785Y-26198285D02*
X5978071Y-26162000D01*
X6050642Y-26125714D01*
X6232071Y-26125714D01*
X6304642Y-26162000D01*
X6340928Y-26198285D01*
X6377214Y-26270857D01*
X6377214Y-26343428D01*
X6340928Y-26452285D01*
X5905500Y-26887714D01*
X6377214Y-26887714D01*
X7683500Y-24783142D02*
X7647214Y-24819428D01*
X7538357Y-24855714D01*
X7465785Y-24855714D01*
X7356928Y-24819428D01*
X7284357Y-24746857D01*
X7248071Y-24674285D01*
X7211785Y-24529142D01*
X7211785Y-24420285D01*
X7248071Y-24275142D01*
X7284357Y-24202571D01*
X7356928Y-24130000D01*
X7465785Y-24093714D01*
X7538357Y-24093714D01*
X7647214Y-24130000D01*
X7683500Y-24166285D01*
X7937500Y-24093714D02*
X8409214Y-24093714D01*
X8155214Y-24384000D01*
X8264071Y-24384000D01*
X8336642Y-24420285D01*
X8372928Y-24456571D01*
X8409214Y-24529142D01*
X8409214Y-24710571D01*
X8372928Y-24783142D01*
X8336642Y-24819428D01*
X8264071Y-24855714D01*
X8046357Y-24855714D01*
X7973785Y-24819428D01*
X7937500Y-24783142D01*
X5558000Y-36340142D02*
X5521714Y-36376428D01*
X5412857Y-36412714D01*
X5340285Y-36412714D01*
X5231428Y-36376428D01*
X5158857Y-36303857D01*
X5122571Y-36231285D01*
X5086285Y-36086142D01*
X5086285Y-35977285D01*
X5122571Y-35832142D01*
X5158857Y-35759571D01*
X5231428Y-35687000D01*
X5340285Y-35650714D01*
X5412857Y-35650714D01*
X5521714Y-35687000D01*
X5558000Y-35723285D01*
X6211142Y-35904714D02*
X6211142Y-36412714D01*
X6029714Y-35614428D02*
X5848285Y-36158714D01*
X6320000Y-36158714D01*
X9842500Y-24783142D02*
X9806214Y-24819428D01*
X9697357Y-24855714D01*
X9624785Y-24855714D01*
X9515928Y-24819428D01*
X9443357Y-24746857D01*
X9407071Y-24674285D01*
X9370785Y-24529142D01*
X9370785Y-24420285D01*
X9407071Y-24275142D01*
X9443357Y-24202571D01*
X9515928Y-24130000D01*
X9624785Y-24093714D01*
X9697357Y-24093714D01*
X9806214Y-24130000D01*
X9842500Y-24166285D01*
X10531928Y-24093714D02*
X10169071Y-24093714D01*
X10132785Y-24456571D01*
X10169071Y-24420285D01*
X10241642Y-24384000D01*
X10423071Y-24384000D01*
X10495642Y-24420285D01*
X10531928Y-24456571D01*
X10568214Y-24529142D01*
X10568214Y-24710571D01*
X10531928Y-24783142D01*
X10495642Y-24819428D01*
X10423071Y-24855714D01*
X10241642Y-24855714D01*
X10169071Y-24819428D01*
X10132785Y-24783142D01*
X4635500Y-39388142D02*
X4599214Y-39424428D01*
X4490357Y-39460714D01*
X4417785Y-39460714D01*
X4308928Y-39424428D01*
X4236357Y-39351857D01*
X4200071Y-39279285D01*
X4163785Y-39134142D01*
X4163785Y-39025285D01*
X4200071Y-38880142D01*
X4236357Y-38807571D01*
X4308928Y-38735000D01*
X4417785Y-38698714D01*
X4490357Y-38698714D01*
X4599214Y-38735000D01*
X4635500Y-38771285D01*
X5288642Y-38698714D02*
X5143500Y-38698714D01*
X5070928Y-38735000D01*
X5034642Y-38771285D01*
X4962071Y-38880142D01*
X4925785Y-39025285D01*
X4925785Y-39315571D01*
X4962071Y-39388142D01*
X4998357Y-39424428D01*
X5070928Y-39460714D01*
X5216071Y-39460714D01*
X5288642Y-39424428D01*
X5324928Y-39388142D01*
X5361214Y-39315571D01*
X5361214Y-39134142D01*
X5324928Y-39061571D01*
X5288642Y-39025285D01*
X5216071Y-38989000D01*
X5070928Y-38989000D01*
X4998357Y-39025285D01*
X4962071Y-39061571D01*
X4925785Y-39134142D01*
X17979571Y-24855714D02*
X17979571Y-24093714D01*
X18161000Y-24093714D01*
X18269857Y-24130000D01*
X18342428Y-24202571D01*
X18378714Y-24275142D01*
X18415000Y-24420285D01*
X18415000Y-24529142D01*
X18378714Y-24674285D01*
X18342428Y-24746857D01*
X18269857Y-24819428D01*
X18161000Y-24855714D01*
X17979571Y-24855714D01*
X19140714Y-24855714D02*
X18705285Y-24855714D01*
X18923000Y-24855714D02*
X18923000Y-24093714D01*
X18850428Y-24202571D01*
X18777857Y-24275142D01*
X18705285Y-24311428D01*
X15439571Y-24840714D02*
X15439571Y-24078714D01*
X15621000Y-24078714D01*
X15729857Y-24115000D01*
X15802428Y-24187571D01*
X15838714Y-24260142D01*
X15875000Y-24405285D01*
X15875000Y-24514142D01*
X15838714Y-24659285D01*
X15802428Y-24731857D01*
X15729857Y-24804428D01*
X15621000Y-24840714D01*
X15439571Y-24840714D01*
X16165285Y-24151285D02*
X16201571Y-24115000D01*
X16274142Y-24078714D01*
X16455571Y-24078714D01*
X16528142Y-24115000D01*
X16564428Y-24151285D01*
X16600714Y-24223857D01*
X16600714Y-24296428D01*
X16564428Y-24405285D01*
X16129000Y-24840714D01*
X16600714Y-24840714D01*
X8429171Y-31002514D02*
X8683171Y-31764514D01*
X8937171Y-31002514D01*
X9191171Y-31764514D02*
X9191171Y-31002514D01*
X9191171Y-31292800D02*
X9263742Y-31256514D01*
X9408885Y-31256514D01*
X9481457Y-31292800D01*
X9517742Y-31329085D01*
X9554028Y-31401657D01*
X9554028Y-31619371D01*
X9517742Y-31691942D01*
X9481457Y-31728228D01*
X9408885Y-31764514D01*
X9263742Y-31764514D01*
X9191171Y-31728228D01*
X10207171Y-31256514D02*
X10207171Y-31764514D01*
X9880600Y-31256514D02*
X9880600Y-31655657D01*
X9916885Y-31728228D01*
X9989457Y-31764514D01*
X10098314Y-31764514D01*
X10170885Y-31728228D01*
X10207171Y-31691942D01*
X10896600Y-31728228D02*
X10824028Y-31764514D01*
X10678885Y-31764514D01*
X10606314Y-31728228D01*
X10570028Y-31691942D01*
X10533742Y-31619371D01*
X10533742Y-31401657D01*
X10570028Y-31329085D01*
X10606314Y-31292800D01*
X10678885Y-31256514D01*
X10824028Y-31256514D01*
X10896600Y-31292800D01*
X11223171Y-31764514D02*
X11223171Y-31002514D01*
X11295742Y-31474228D02*
X11513457Y-31764514D01*
X11513457Y-31256514D02*
X11223171Y-31546800D01*
X8875485Y-36476214D02*
X9129485Y-37238214D01*
X9383485Y-36476214D01*
X9927771Y-37201928D02*
X9855200Y-37238214D01*
X9710057Y-37238214D01*
X9637485Y-37201928D01*
X9601200Y-37129357D01*
X9601200Y-36839071D01*
X9637485Y-36766500D01*
X9710057Y-36730214D01*
X9855200Y-36730214D01*
X9927771Y-36766500D01*
X9964057Y-36839071D01*
X9964057Y-36911642D01*
X9601200Y-36984214D01*
X10218057Y-37238214D02*
X10617200Y-36730214D01*
X10218057Y-36730214D02*
X10617200Y-37238214D01*
X10798628Y-36730214D02*
X11088914Y-36730214D01*
X10907485Y-36476214D02*
X10907485Y-37129357D01*
X10943771Y-37201928D01*
X11016342Y-37238214D01*
X11088914Y-37238214D01*
X21172714Y-46482000D02*
X21172714Y-46844857D01*
X20410714Y-46844857D01*
X21172714Y-45828857D02*
X21172714Y-46264285D01*
X21172714Y-46046571D02*
X20410714Y-46046571D01*
X20519571Y-46119142D01*
X20592142Y-46191714D01*
X20628428Y-46264285D01*
X12225500Y-51271714D02*
X11971500Y-50908857D01*
X11790071Y-51271714D02*
X11790071Y-50509714D01*
X12080357Y-50509714D01*
X12152928Y-50546000D01*
X12189214Y-50582285D01*
X12225500Y-50654857D01*
X12225500Y-50763714D01*
X12189214Y-50836285D01*
X12152928Y-50872571D01*
X12080357Y-50908857D01*
X11790071Y-50908857D01*
X12951214Y-51271714D02*
X12515785Y-51271714D01*
X12733500Y-51271714D02*
X12733500Y-50509714D01*
X12660928Y-50618571D01*
X12588357Y-50691142D01*
X12515785Y-50727428D01*
X22987000Y-51271714D02*
X22733000Y-50908857D01*
X22551571Y-51271714D02*
X22551571Y-50509714D01*
X22841857Y-50509714D01*
X22914428Y-50546000D01*
X22950714Y-50582285D01*
X22987000Y-50654857D01*
X22987000Y-50763714D01*
X22950714Y-50836285D01*
X22914428Y-50872571D01*
X22841857Y-50908857D01*
X22551571Y-50908857D01*
X23277285Y-50582285D02*
X23313571Y-50546000D01*
X23386142Y-50509714D01*
X23567571Y-50509714D01*
X23640142Y-50546000D01*
X23676428Y-50582285D01*
X23712714Y-50654857D01*
X23712714Y-50727428D01*
X23676428Y-50836285D01*
X23241000Y-51271714D01*
X23712714Y-51271714D01*
X20574000Y-24870714D02*
X20320000Y-24507857D01*
X20138571Y-24870714D02*
X20138571Y-24108714D01*
X20428857Y-24108714D01*
X20501428Y-24145000D01*
X20537714Y-24181285D01*
X20574000Y-24253857D01*
X20574000Y-24362714D01*
X20537714Y-24435285D01*
X20501428Y-24471571D01*
X20428857Y-24507857D01*
X20138571Y-24507857D01*
X20828000Y-24108714D02*
X21299714Y-24108714D01*
X21045714Y-24399000D01*
X21154571Y-24399000D01*
X21227142Y-24435285D01*
X21263428Y-24471571D01*
X21299714Y-24544142D01*
X21299714Y-24725571D01*
X21263428Y-24798142D01*
X21227142Y-24834428D01*
X21154571Y-24870714D01*
X20936857Y-24870714D01*
X20864285Y-24834428D01*
X20828000Y-24798142D01*
X13716000Y-24840714D02*
X13462000Y-24477857D01*
X13280571Y-24840714D02*
X13280571Y-24078714D01*
X13570857Y-24078714D01*
X13643428Y-24115000D01*
X13679714Y-24151285D01*
X13716000Y-24223857D01*
X13716000Y-24332714D01*
X13679714Y-24405285D01*
X13643428Y-24441571D01*
X13570857Y-24477857D01*
X13280571Y-24477857D01*
X14369142Y-24332714D02*
X14369142Y-24840714D01*
X14187714Y-24042428D02*
X14006285Y-24586714D01*
X14478000Y-24586714D01*
X4889500Y-24855714D02*
X4635500Y-24492857D01*
X4454071Y-24855714D02*
X4454071Y-24093714D01*
X4744357Y-24093714D01*
X4816928Y-24130000D01*
X4853214Y-24166285D01*
X4889500Y-24238857D01*
X4889500Y-24347714D01*
X4853214Y-24420285D01*
X4816928Y-24456571D01*
X4744357Y-24492857D01*
X4454071Y-24492857D01*
X5578928Y-24093714D02*
X5216071Y-24093714D01*
X5179785Y-24456571D01*
X5216071Y-24420285D01*
X5288642Y-24384000D01*
X5470071Y-24384000D01*
X5542642Y-24420285D01*
X5578928Y-24456571D01*
X5615214Y-24529142D01*
X5615214Y-24710571D01*
X5578928Y-24783142D01*
X5542642Y-24819428D01*
X5470071Y-24855714D01*
X5288642Y-24855714D01*
X5216071Y-24819428D01*
X5179785Y-24783142D01*
X13652500Y-39037142D02*
X13616214Y-39073428D01*
X13507357Y-39109714D01*
X13434785Y-39109714D01*
X13325928Y-39073428D01*
X13253357Y-39000857D01*
X13217071Y-38928285D01*
X13180785Y-38783142D01*
X13180785Y-38674285D01*
X13217071Y-38529142D01*
X13253357Y-38456571D01*
X13325928Y-38384000D01*
X13434785Y-38347714D01*
X13507357Y-38347714D01*
X13616214Y-38384000D01*
X13652500Y-38420285D01*
X13906500Y-38347714D02*
X14414500Y-38347714D01*
X14087928Y-39109714D01*
X18913928Y-36095214D02*
X18913928Y-36712071D01*
X18950214Y-36784642D01*
X18986500Y-36820928D01*
X19059071Y-36857214D01*
X19204214Y-36857214D01*
X19276785Y-36820928D01*
X19313071Y-36784642D01*
X19349357Y-36712071D01*
X19349357Y-36095214D01*
X19639642Y-36095214D02*
X20111357Y-36095214D01*
X19857357Y-36385500D01*
X19966214Y-36385500D01*
X20038785Y-36421785D01*
X20075071Y-36458071D01*
X20111357Y-36530642D01*
X20111357Y-36712071D01*
X20075071Y-36784642D01*
X20038785Y-36820928D01*
X19966214Y-36857214D01*
X19748500Y-36857214D01*
X19675928Y-36820928D01*
X19639642Y-36784642D01*
M02*
