M48
; DRILL file {KiCad (5.1.4-0-10_14)} date Saturday, November 09, 2019 at 05:54:18 PM
; FORMAT={-:-/ absolute / metric / decimal}
; #@! TF.CreationDate,2019-11-09T17:54:18-08:00
; #@! TF.GenerationSoftware,Kicad,Pcbnew,(5.1.4-0-10_14)
; #@! TF.FileFunction,Plated,1,2,PTH
FMAT,2
METRIC
T1C0.400
T2C1.000
T3C1.100
%
G90
G05
T1
X3.365Y-32.829
X6.096Y-25.654
X6.286Y-9.588
X6.35Y-21.526
X6.413Y-7.048
X6.413Y-10.858
X6.413Y-13.398
X7.026Y-15.25
X7.154Y-14.207
X8.445Y-44.45
X9.144Y-12.573
X9.283Y-28.575
X9.97Y-44.45
X10.252Y-15.073
X10.706Y-16.05
X10.846Y-25.366
X11.303Y-14.605
X11.385Y-36.341
X11.62Y-47.688
X11.646Y-29.059
X11.807Y-38.322
X11.811Y-34.163
X11.811Y-34.163
X12.614Y-15.938
X12.672Y-30.152
X13.018Y-45.276
X13.019Y-26.854
X13.249Y-27.9
X13.538Y-15.095
X13.589Y-25.082
X13.779Y-38.291
X14.091Y-16.166
X14.738Y-46.439
X14.973Y-23.863
X15.811Y-16.51
X16.161Y-10.604
X16.189Y-31.445
X16.192Y-46.228
X16.256Y-24.257
X16.319Y-56.325
X16.383Y-14.287
X16.413Y-15.651
X16.573Y-26.289
X16.7Y-4.826
X16.734Y-11.787
X16.864Y-12.778
X16.989Y-32.387
X17.018Y-20.002
X17.145Y-55.597
X17.145Y-28.497
X17.209Y-49.53
X17.413Y-15.302
X17.453Y-29.951
X17.462Y-6.794
X17.743Y-14.358
X18.056Y-20.005
X18.911Y-15.298
X19.367Y-55.88
X19.6Y-16.025
X20.002Y-24.511
X22.225Y-25.463
X22.797Y-10.097
T2
X1.27Y-1.27
X1.27Y-3.81
X1.27Y-8.89
X1.27Y-11.43
X1.27Y-19.05
X1.27Y-21.59
X1.27Y-26.67
X1.27Y-29.21
X1.27Y-31.75
X1.27Y-34.29
X1.27Y-36.83
X1.27Y-39.37
X1.27Y-41.91
X1.27Y-44.45
X1.27Y-46.99
X24.13Y-1.27
X1.27Y-13.97
X24.13Y-3.81
X24.13Y-6.35
X24.13Y-8.89
X24.13Y-11.43
X24.13Y-13.97
X1.27Y-6.35
X24.13Y-16.51
X24.13Y-19.05
X24.13Y-21.59
X24.13Y-24.13
X24.13Y-26.67
X24.13Y-29.21
X24.13Y-31.75
X1.27Y-16.51
X24.13Y-34.29
X24.13Y-36.83
X24.13Y-39.37
X24.13Y-41.91
X24.13Y-44.45
X24.13Y-46.99
X1.27Y-24.13
T3
X13.353Y-60.625
X13.713Y-54.675
X21.973Y-54.675
X22.333Y-60.625
T0
M30
