G04 #@! TF.GenerationSoftware,KiCad,Pcbnew,(5.1.4-0-10_14)*
G04 #@! TF.CreationDate,2019-11-09T17:54:15-08:00*
G04 #@! TF.ProjectId,esp32-generic-board,65737033-322d-4676-956e-657269632d62,rev?*
G04 #@! TF.SameCoordinates,Original*
G04 #@! TF.FileFunction,Legend,Bot*
G04 #@! TF.FilePolarity,Positive*
%FSLAX46Y46*%
G04 Gerber Fmt 4.6, Leading zero omitted, Abs format (unit mm)*
G04 Created by KiCad (PCBNEW (5.1.4-0-10_14)) date 2019-11-09 17:54:15*
%MOMM*%
%LPD*%
G04 APERTURE LIST*
%ADD10C,0.152400*%
G04 APERTURE END LIST*
D10*
X22310997Y-47311128D02*
X22202140Y-47347414D01*
X22020711Y-47347414D01*
X21948140Y-47311128D01*
X21911854Y-47274842D01*
X21875568Y-47202271D01*
X21875568Y-47129700D01*
X21911854Y-47057128D01*
X21948140Y-47020842D01*
X22020711Y-46984557D01*
X22165854Y-46948271D01*
X22238425Y-46911985D01*
X22274711Y-46875700D01*
X22310997Y-46803128D01*
X22310997Y-46730557D01*
X22274711Y-46657985D01*
X22238425Y-46621700D01*
X22165854Y-46585414D01*
X21984425Y-46585414D01*
X21875568Y-46621700D01*
X21113568Y-47274842D02*
X21149854Y-47311128D01*
X21258711Y-47347414D01*
X21331282Y-47347414D01*
X21440140Y-47311128D01*
X21512711Y-47238557D01*
X21548997Y-47165985D01*
X21585282Y-47020842D01*
X21585282Y-46911985D01*
X21548997Y-46766842D01*
X21512711Y-46694271D01*
X21440140Y-46621700D01*
X21331282Y-46585414D01*
X21258711Y-46585414D01*
X21149854Y-46621700D01*
X21113568Y-46657985D01*
X20786997Y-47347414D02*
X20786997Y-46585414D01*
X20351568Y-47347414D02*
X20678140Y-46911985D01*
X20351568Y-46585414D02*
X20786997Y-47020842D01*
X19480711Y-46549128D02*
X20133854Y-47528842D01*
X18791282Y-47274842D02*
X18827568Y-47311128D01*
X18936425Y-47347414D01*
X19008997Y-47347414D01*
X19117854Y-47311128D01*
X19190425Y-47238557D01*
X19226711Y-47165985D01*
X19262997Y-47020842D01*
X19262997Y-46911985D01*
X19226711Y-46766842D01*
X19190425Y-46694271D01*
X19117854Y-46621700D01*
X19008997Y-46585414D01*
X18936425Y-46585414D01*
X18827568Y-46621700D01*
X18791282Y-46657985D01*
X18101854Y-47347414D02*
X18464711Y-47347414D01*
X18464711Y-46585414D01*
X17847854Y-47347414D02*
X17847854Y-46585414D01*
X17412425Y-47347414D02*
X17738997Y-46911985D01*
X17412425Y-46585414D02*
X17847854Y-47020842D01*
X22323697Y-44758428D02*
X22214840Y-44794714D01*
X22033411Y-44794714D01*
X21960840Y-44758428D01*
X21924554Y-44722142D01*
X21888268Y-44649571D01*
X21888268Y-44577000D01*
X21924554Y-44504428D01*
X21960840Y-44468142D01*
X22033411Y-44431857D01*
X22178554Y-44395571D01*
X22251125Y-44359285D01*
X22287411Y-44323000D01*
X22323697Y-44250428D01*
X22323697Y-44177857D01*
X22287411Y-44105285D01*
X22251125Y-44069000D01*
X22178554Y-44032714D01*
X21997125Y-44032714D01*
X21888268Y-44069000D01*
X21561697Y-44794714D02*
X21561697Y-44032714D01*
X21380268Y-44032714D01*
X21271411Y-44069000D01*
X21198840Y-44141571D01*
X21162554Y-44214142D01*
X21126268Y-44359285D01*
X21126268Y-44468142D01*
X21162554Y-44613285D01*
X21198840Y-44685857D01*
X21271411Y-44758428D01*
X21380268Y-44794714D01*
X21561697Y-44794714D01*
X20654554Y-44032714D02*
X20509411Y-44032714D01*
X20436840Y-44069000D01*
X20364268Y-44141571D01*
X20327982Y-44286714D01*
X20327982Y-44540714D01*
X20364268Y-44685857D01*
X20436840Y-44758428D01*
X20509411Y-44794714D01*
X20654554Y-44794714D01*
X20727125Y-44758428D01*
X20799697Y-44685857D01*
X20835982Y-44540714D01*
X20835982Y-44286714D01*
X20799697Y-44141571D01*
X20727125Y-44069000D01*
X20654554Y-44032714D01*
X19457125Y-43996428D02*
X20110268Y-44976142D01*
X19239411Y-44758428D02*
X19130554Y-44794714D01*
X18949125Y-44794714D01*
X18876554Y-44758428D01*
X18840268Y-44722142D01*
X18803982Y-44649571D01*
X18803982Y-44577000D01*
X18840268Y-44504428D01*
X18876554Y-44468142D01*
X18949125Y-44431857D01*
X19094268Y-44395571D01*
X19166840Y-44359285D01*
X19203125Y-44323000D01*
X19239411Y-44250428D01*
X19239411Y-44177857D01*
X19203125Y-44105285D01*
X19166840Y-44069000D01*
X19094268Y-44032714D01*
X18912840Y-44032714D01*
X18803982Y-44069000D01*
X18477411Y-44794714D02*
X18477411Y-44032714D01*
X18295982Y-44032714D01*
X18187125Y-44069000D01*
X18114554Y-44141571D01*
X18078268Y-44214142D01*
X18041982Y-44359285D01*
X18041982Y-44468142D01*
X18078268Y-44613285D01*
X18114554Y-44685857D01*
X18187125Y-44758428D01*
X18295982Y-44794714D01*
X18477411Y-44794714D01*
X17570268Y-44032714D02*
X17497697Y-44032714D01*
X17425125Y-44069000D01*
X17388840Y-44105285D01*
X17352554Y-44177857D01*
X17316268Y-44323000D01*
X17316268Y-44504428D01*
X17352554Y-44649571D01*
X17388840Y-44722142D01*
X17425125Y-44758428D01*
X17497697Y-44794714D01*
X17570268Y-44794714D01*
X17642840Y-44758428D01*
X17679125Y-44722142D01*
X17715411Y-44649571D01*
X17751697Y-44504428D01*
X17751697Y-44323000D01*
X17715411Y-44177857D01*
X17679125Y-44105285D01*
X17642840Y-44069000D01*
X17570268Y-44032714D01*
X22349097Y-42231128D02*
X22240240Y-42267414D01*
X22058811Y-42267414D01*
X21986240Y-42231128D01*
X21949954Y-42194842D01*
X21913668Y-42122271D01*
X21913668Y-42049700D01*
X21949954Y-41977128D01*
X21986240Y-41940842D01*
X22058811Y-41904557D01*
X22203954Y-41868271D01*
X22276525Y-41831985D01*
X22312811Y-41795700D01*
X22349097Y-41723128D01*
X22349097Y-41650557D01*
X22312811Y-41577985D01*
X22276525Y-41541700D01*
X22203954Y-41505414D01*
X22022525Y-41505414D01*
X21913668Y-41541700D01*
X21587097Y-42267414D02*
X21587097Y-41505414D01*
X21405668Y-41505414D01*
X21296811Y-41541700D01*
X21224240Y-41614271D01*
X21187954Y-41686842D01*
X21151668Y-41831985D01*
X21151668Y-41940842D01*
X21187954Y-42085985D01*
X21224240Y-42158557D01*
X21296811Y-42231128D01*
X21405668Y-42267414D01*
X21587097Y-42267414D01*
X20825097Y-42267414D02*
X20825097Y-41505414D01*
X19917954Y-41469128D02*
X20571097Y-42448842D01*
X19700240Y-42231128D02*
X19591382Y-42267414D01*
X19409954Y-42267414D01*
X19337382Y-42231128D01*
X19301097Y-42194842D01*
X19264811Y-42122271D01*
X19264811Y-42049700D01*
X19301097Y-41977128D01*
X19337382Y-41940842D01*
X19409954Y-41904557D01*
X19555097Y-41868271D01*
X19627668Y-41831985D01*
X19663954Y-41795700D01*
X19700240Y-41723128D01*
X19700240Y-41650557D01*
X19663954Y-41577985D01*
X19627668Y-41541700D01*
X19555097Y-41505414D01*
X19373668Y-41505414D01*
X19264811Y-41541700D01*
X18938240Y-42267414D02*
X18938240Y-41505414D01*
X18756811Y-41505414D01*
X18647954Y-41541700D01*
X18575382Y-41614271D01*
X18539097Y-41686842D01*
X18502811Y-41831985D01*
X18502811Y-41940842D01*
X18539097Y-42085985D01*
X18575382Y-42158557D01*
X18647954Y-42231128D01*
X18756811Y-42267414D01*
X18938240Y-42267414D01*
X17777097Y-42267414D02*
X18212525Y-42267414D01*
X17994811Y-42267414D02*
X17994811Y-41505414D01*
X18067382Y-41614271D01*
X18139954Y-41686842D01*
X18212525Y-41723128D01*
X22312811Y-39740114D02*
X22312811Y-38978114D01*
X21804811Y-38978114D02*
X21659668Y-38978114D01*
X21587097Y-39014400D01*
X21514525Y-39086971D01*
X21478240Y-39232114D01*
X21478240Y-39486114D01*
X21514525Y-39631257D01*
X21587097Y-39703828D01*
X21659668Y-39740114D01*
X21804811Y-39740114D01*
X21877382Y-39703828D01*
X21949954Y-39631257D01*
X21986240Y-39486114D01*
X21986240Y-39232114D01*
X21949954Y-39086971D01*
X21877382Y-39014400D01*
X21804811Y-38978114D01*
X20752525Y-39740114D02*
X21187954Y-39740114D01*
X20970240Y-39740114D02*
X20970240Y-38978114D01*
X21042811Y-39086971D01*
X21115382Y-39159542D01*
X21187954Y-39195828D01*
X20063097Y-38978114D02*
X20425954Y-38978114D01*
X20462240Y-39340971D01*
X20425954Y-39304685D01*
X20353382Y-39268400D01*
X20171954Y-39268400D01*
X20099382Y-39304685D01*
X20063097Y-39340971D01*
X20026811Y-39413542D01*
X20026811Y-39594971D01*
X20063097Y-39667542D01*
X20099382Y-39703828D01*
X20171954Y-39740114D01*
X20353382Y-39740114D01*
X20425954Y-39703828D01*
X20462240Y-39667542D01*
X22312811Y-37187414D02*
X22312811Y-36425414D01*
X21804811Y-36425414D02*
X21659668Y-36425414D01*
X21587097Y-36461700D01*
X21514525Y-36534271D01*
X21478240Y-36679414D01*
X21478240Y-36933414D01*
X21514525Y-37078557D01*
X21587097Y-37151128D01*
X21659668Y-37187414D01*
X21804811Y-37187414D01*
X21877382Y-37151128D01*
X21949954Y-37078557D01*
X21986240Y-36933414D01*
X21986240Y-36679414D01*
X21949954Y-36534271D01*
X21877382Y-36461700D01*
X21804811Y-36425414D01*
X21187954Y-36497985D02*
X21151668Y-36461700D01*
X21079097Y-36425414D01*
X20897668Y-36425414D01*
X20825097Y-36461700D01*
X20788811Y-36497985D01*
X20752525Y-36570557D01*
X20752525Y-36643128D01*
X20788811Y-36751985D01*
X21224240Y-37187414D01*
X20752525Y-37187414D01*
X22287411Y-34634714D02*
X22287411Y-33872714D01*
X21779411Y-33872714D02*
X21634268Y-33872714D01*
X21561697Y-33909000D01*
X21489125Y-33981571D01*
X21452840Y-34126714D01*
X21452840Y-34380714D01*
X21489125Y-34525857D01*
X21561697Y-34598428D01*
X21634268Y-34634714D01*
X21779411Y-34634714D01*
X21851982Y-34598428D01*
X21924554Y-34525857D01*
X21960840Y-34380714D01*
X21960840Y-34126714D01*
X21924554Y-33981571D01*
X21851982Y-33909000D01*
X21779411Y-33872714D01*
X20981125Y-33872714D02*
X20908554Y-33872714D01*
X20835982Y-33909000D01*
X20799697Y-33945285D01*
X20763411Y-34017857D01*
X20727125Y-34163000D01*
X20727125Y-34344428D01*
X20763411Y-34489571D01*
X20799697Y-34562142D01*
X20835982Y-34598428D01*
X20908554Y-34634714D01*
X20981125Y-34634714D01*
X21053697Y-34598428D01*
X21089982Y-34562142D01*
X21126268Y-34489571D01*
X21162554Y-34344428D01*
X21162554Y-34163000D01*
X21126268Y-34017857D01*
X21089982Y-33945285D01*
X21053697Y-33909000D01*
X20981125Y-33872714D01*
X22287411Y-32120114D02*
X22287411Y-31358114D01*
X21779411Y-31358114D02*
X21634268Y-31358114D01*
X21561697Y-31394400D01*
X21489125Y-31466971D01*
X21452840Y-31612114D01*
X21452840Y-31866114D01*
X21489125Y-32011257D01*
X21561697Y-32083828D01*
X21634268Y-32120114D01*
X21779411Y-32120114D01*
X21851982Y-32083828D01*
X21924554Y-32011257D01*
X21960840Y-31866114D01*
X21960840Y-31612114D01*
X21924554Y-31466971D01*
X21851982Y-31394400D01*
X21779411Y-31358114D01*
X20799697Y-31612114D02*
X20799697Y-32120114D01*
X20981125Y-31321828D02*
X21162554Y-31866114D01*
X20690840Y-31866114D01*
X22300111Y-29580114D02*
X22300111Y-28818114D01*
X21792111Y-28818114D02*
X21646968Y-28818114D01*
X21574397Y-28854400D01*
X21501825Y-28926971D01*
X21465540Y-29072114D01*
X21465540Y-29326114D01*
X21501825Y-29471257D01*
X21574397Y-29543828D01*
X21646968Y-29580114D01*
X21792111Y-29580114D01*
X21864682Y-29543828D01*
X21937254Y-29471257D01*
X21973540Y-29326114D01*
X21973540Y-29072114D01*
X21937254Y-28926971D01*
X21864682Y-28854400D01*
X21792111Y-28818114D01*
X20739825Y-29580114D02*
X21175254Y-29580114D01*
X20957540Y-29580114D02*
X20957540Y-28818114D01*
X21030111Y-28926971D01*
X21102682Y-28999542D01*
X21175254Y-29035828D01*
X20086682Y-28818114D02*
X20231825Y-28818114D01*
X20304397Y-28854400D01*
X20340682Y-28890685D01*
X20413254Y-28999542D01*
X20449540Y-29144685D01*
X20449540Y-29434971D01*
X20413254Y-29507542D01*
X20376968Y-29543828D01*
X20304397Y-29580114D01*
X20159254Y-29580114D01*
X20086682Y-29543828D01*
X20050397Y-29507542D01*
X20014111Y-29434971D01*
X20014111Y-29253542D01*
X20050397Y-29180971D01*
X20086682Y-29144685D01*
X20159254Y-29108400D01*
X20304397Y-29108400D01*
X20376968Y-29144685D01*
X20413254Y-29180971D01*
X20449540Y-29253542D01*
X22300111Y-27027414D02*
X22300111Y-26265414D01*
X21792111Y-26265414D02*
X21646968Y-26265414D01*
X21574397Y-26301700D01*
X21501825Y-26374271D01*
X21465540Y-26519414D01*
X21465540Y-26773414D01*
X21501825Y-26918557D01*
X21574397Y-26991128D01*
X21646968Y-27027414D01*
X21792111Y-27027414D01*
X21864682Y-26991128D01*
X21937254Y-26918557D01*
X21973540Y-26773414D01*
X21973540Y-26519414D01*
X21937254Y-26374271D01*
X21864682Y-26301700D01*
X21792111Y-26265414D01*
X20739825Y-27027414D02*
X21175254Y-27027414D01*
X20957540Y-27027414D02*
X20957540Y-26265414D01*
X21030111Y-26374271D01*
X21102682Y-26446842D01*
X21175254Y-26483128D01*
X20485825Y-26265414D02*
X19977825Y-26265414D01*
X20304397Y-27027414D01*
X22312811Y-24474714D02*
X22312811Y-23712714D01*
X21804811Y-23712714D02*
X21659668Y-23712714D01*
X21587097Y-23749000D01*
X21514525Y-23821571D01*
X21478240Y-23966714D01*
X21478240Y-24220714D01*
X21514525Y-24365857D01*
X21587097Y-24438428D01*
X21659668Y-24474714D01*
X21804811Y-24474714D01*
X21877382Y-24438428D01*
X21949954Y-24365857D01*
X21986240Y-24220714D01*
X21986240Y-23966714D01*
X21949954Y-23821571D01*
X21877382Y-23749000D01*
X21804811Y-23712714D01*
X20788811Y-23712714D02*
X21151668Y-23712714D01*
X21187954Y-24075571D01*
X21151668Y-24039285D01*
X21079097Y-24003000D01*
X20897668Y-24003000D01*
X20825097Y-24039285D01*
X20788811Y-24075571D01*
X20752525Y-24148142D01*
X20752525Y-24329571D01*
X20788811Y-24402142D01*
X20825097Y-24438428D01*
X20897668Y-24474714D01*
X21079097Y-24474714D01*
X21151668Y-24438428D01*
X21187954Y-24402142D01*
X22312811Y-21947414D02*
X22312811Y-21185414D01*
X21804811Y-21185414D02*
X21659668Y-21185414D01*
X21587097Y-21221700D01*
X21514525Y-21294271D01*
X21478240Y-21439414D01*
X21478240Y-21693414D01*
X21514525Y-21838557D01*
X21587097Y-21911128D01*
X21659668Y-21947414D01*
X21804811Y-21947414D01*
X21877382Y-21911128D01*
X21949954Y-21838557D01*
X21986240Y-21693414D01*
X21986240Y-21439414D01*
X21949954Y-21294271D01*
X21877382Y-21221700D01*
X21804811Y-21185414D01*
X20752525Y-21947414D02*
X21187954Y-21947414D01*
X20970240Y-21947414D02*
X20970240Y-21185414D01*
X21042811Y-21294271D01*
X21115382Y-21366842D01*
X21187954Y-21403128D01*
X20317097Y-21511985D02*
X20389668Y-21475700D01*
X20425954Y-21439414D01*
X20462240Y-21366842D01*
X20462240Y-21330557D01*
X20425954Y-21257985D01*
X20389668Y-21221700D01*
X20317097Y-21185414D01*
X20171954Y-21185414D01*
X20099382Y-21221700D01*
X20063097Y-21257985D01*
X20026811Y-21330557D01*
X20026811Y-21366842D01*
X20063097Y-21439414D01*
X20099382Y-21475700D01*
X20171954Y-21511985D01*
X20317097Y-21511985D01*
X20389668Y-21548271D01*
X20425954Y-21584557D01*
X20462240Y-21657128D01*
X20462240Y-21802271D01*
X20425954Y-21874842D01*
X20389668Y-21911128D01*
X20317097Y-21947414D01*
X20171954Y-21947414D01*
X20099382Y-21911128D01*
X20063097Y-21874842D01*
X20026811Y-21802271D01*
X20026811Y-21657128D01*
X20063097Y-21584557D01*
X20099382Y-21548271D01*
X20171954Y-21511985D01*
X22287411Y-19420114D02*
X22287411Y-18658114D01*
X21779411Y-18658114D02*
X21634268Y-18658114D01*
X21561697Y-18694400D01*
X21489125Y-18766971D01*
X21452840Y-18912114D01*
X21452840Y-19166114D01*
X21489125Y-19311257D01*
X21561697Y-19383828D01*
X21634268Y-19420114D01*
X21779411Y-19420114D01*
X21851982Y-19383828D01*
X21924554Y-19311257D01*
X21960840Y-19166114D01*
X21960840Y-18912114D01*
X21924554Y-18766971D01*
X21851982Y-18694400D01*
X21779411Y-18658114D01*
X20727125Y-19420114D02*
X21162554Y-19420114D01*
X20944840Y-19420114D02*
X20944840Y-18658114D01*
X21017411Y-18766971D01*
X21089982Y-18839542D01*
X21162554Y-18875828D01*
X20364268Y-19420114D02*
X20219125Y-19420114D01*
X20146554Y-19383828D01*
X20110268Y-19347542D01*
X20037697Y-19238685D01*
X20001411Y-19093542D01*
X20001411Y-18803257D01*
X20037697Y-18730685D01*
X20073982Y-18694400D01*
X20146554Y-18658114D01*
X20291697Y-18658114D01*
X20364268Y-18694400D01*
X20400554Y-18730685D01*
X20436840Y-18803257D01*
X20436840Y-18984685D01*
X20400554Y-19057257D01*
X20364268Y-19093542D01*
X20291697Y-19129828D01*
X20146554Y-19129828D01*
X20073982Y-19093542D01*
X20037697Y-19057257D01*
X20001411Y-18984685D01*
X21888268Y-16141700D02*
X21960840Y-16105414D01*
X22069697Y-16105414D01*
X22178554Y-16141700D01*
X22251125Y-16214271D01*
X22287411Y-16286842D01*
X22323697Y-16431985D01*
X22323697Y-16540842D01*
X22287411Y-16685985D01*
X22251125Y-16758557D01*
X22178554Y-16831128D01*
X22069697Y-16867414D01*
X21997125Y-16867414D01*
X21888268Y-16831128D01*
X21851982Y-16794842D01*
X21851982Y-16540842D01*
X21997125Y-16540842D01*
X21525411Y-16867414D02*
X21525411Y-16105414D01*
X21089982Y-16867414D01*
X21089982Y-16105414D01*
X20727125Y-16867414D02*
X20727125Y-16105414D01*
X20545697Y-16105414D01*
X20436840Y-16141700D01*
X20364268Y-16214271D01*
X20327982Y-16286842D01*
X20291697Y-16431985D01*
X20291697Y-16540842D01*
X20327982Y-16685985D01*
X20364268Y-16758557D01*
X20436840Y-16831128D01*
X20545697Y-16867414D01*
X20727125Y-16867414D01*
X22287411Y-14314714D02*
X22287411Y-13552714D01*
X21779411Y-13552714D02*
X21634268Y-13552714D01*
X21561697Y-13589000D01*
X21489125Y-13661571D01*
X21452840Y-13806714D01*
X21452840Y-14060714D01*
X21489125Y-14205857D01*
X21561697Y-14278428D01*
X21634268Y-14314714D01*
X21779411Y-14314714D01*
X21851982Y-14278428D01*
X21924554Y-14205857D01*
X21960840Y-14060714D01*
X21960840Y-13806714D01*
X21924554Y-13661571D01*
X21851982Y-13589000D01*
X21779411Y-13552714D01*
X21162554Y-13625285D02*
X21126268Y-13589000D01*
X21053697Y-13552714D01*
X20872268Y-13552714D01*
X20799697Y-13589000D01*
X20763411Y-13625285D01*
X20727125Y-13697857D01*
X20727125Y-13770428D01*
X20763411Y-13879285D01*
X21198840Y-14314714D01*
X20727125Y-14314714D01*
X20001411Y-14314714D02*
X20436840Y-14314714D01*
X20219125Y-14314714D02*
X20219125Y-13552714D01*
X20291697Y-13661571D01*
X20364268Y-13734142D01*
X20436840Y-13770428D01*
X22312811Y-11787414D02*
X22312811Y-11025414D01*
X21804811Y-11025414D02*
X21659668Y-11025414D01*
X21587097Y-11061700D01*
X21514525Y-11134271D01*
X21478240Y-11279414D01*
X21478240Y-11533414D01*
X21514525Y-11678557D01*
X21587097Y-11751128D01*
X21659668Y-11787414D01*
X21804811Y-11787414D01*
X21877382Y-11751128D01*
X21949954Y-11678557D01*
X21986240Y-11533414D01*
X21986240Y-11279414D01*
X21949954Y-11134271D01*
X21877382Y-11061700D01*
X21804811Y-11025414D01*
X21224240Y-11025414D02*
X20752525Y-11025414D01*
X21006525Y-11315700D01*
X20897668Y-11315700D01*
X20825097Y-11351985D01*
X20788811Y-11388271D01*
X20752525Y-11460842D01*
X20752525Y-11642271D01*
X20788811Y-11714842D01*
X20825097Y-11751128D01*
X20897668Y-11787414D01*
X21115382Y-11787414D01*
X21187954Y-11751128D01*
X21224240Y-11714842D01*
X19881668Y-10989128D02*
X20534811Y-11968842D01*
X19192240Y-11787414D02*
X19446240Y-11424557D01*
X19627668Y-11787414D02*
X19627668Y-11025414D01*
X19337382Y-11025414D01*
X19264811Y-11061700D01*
X19228525Y-11097985D01*
X19192240Y-11170557D01*
X19192240Y-11279414D01*
X19228525Y-11351985D01*
X19264811Y-11388271D01*
X19337382Y-11424557D01*
X19627668Y-11424557D01*
X18938240Y-11025414D02*
X18430240Y-11787414D01*
X18430240Y-11025414D02*
X18938240Y-11787414D01*
X22300111Y-9222014D02*
X22300111Y-8460014D01*
X21792111Y-8460014D02*
X21646968Y-8460014D01*
X21574397Y-8496300D01*
X21501825Y-8568871D01*
X21465540Y-8714014D01*
X21465540Y-8968014D01*
X21501825Y-9113157D01*
X21574397Y-9185728D01*
X21646968Y-9222014D01*
X21792111Y-9222014D01*
X21864682Y-9185728D01*
X21937254Y-9113157D01*
X21973540Y-8968014D01*
X21973540Y-8714014D01*
X21937254Y-8568871D01*
X21864682Y-8496300D01*
X21792111Y-8460014D01*
X20739825Y-9222014D02*
X21175254Y-9222014D01*
X20957540Y-9222014D02*
X20957540Y-8460014D01*
X21030111Y-8568871D01*
X21102682Y-8641442D01*
X21175254Y-8677728D01*
X19868968Y-8423728D02*
X20522111Y-9403442D01*
X19723825Y-8460014D02*
X19288397Y-8460014D01*
X19506111Y-9222014D02*
X19506111Y-8460014D01*
X19106968Y-8460014D02*
X18598968Y-9222014D01*
X18598968Y-8460014D02*
X19106968Y-9222014D01*
X22300111Y-6694714D02*
X22300111Y-5932714D01*
X21792111Y-5932714D02*
X21646968Y-5932714D01*
X21574397Y-5969000D01*
X21501825Y-6041571D01*
X21465540Y-6186714D01*
X21465540Y-6440714D01*
X21501825Y-6585857D01*
X21574397Y-6658428D01*
X21646968Y-6694714D01*
X21792111Y-6694714D01*
X21864682Y-6658428D01*
X21937254Y-6585857D01*
X21973540Y-6440714D01*
X21973540Y-6186714D01*
X21937254Y-6041571D01*
X21864682Y-5969000D01*
X21792111Y-5932714D01*
X21175254Y-6005285D02*
X21138968Y-5969000D01*
X21066397Y-5932714D01*
X20884968Y-5932714D01*
X20812397Y-5969000D01*
X20776111Y-6005285D01*
X20739825Y-6077857D01*
X20739825Y-6150428D01*
X20776111Y-6259285D01*
X21211540Y-6694714D01*
X20739825Y-6694714D01*
X20449540Y-6005285D02*
X20413254Y-5969000D01*
X20340682Y-5932714D01*
X20159254Y-5932714D01*
X20086682Y-5969000D01*
X20050397Y-6005285D01*
X20014111Y-6077857D01*
X20014111Y-6150428D01*
X20050397Y-6259285D01*
X20485825Y-6694714D01*
X20014111Y-6694714D01*
X22312811Y-4180114D02*
X22312811Y-3418114D01*
X21804811Y-3418114D02*
X21659668Y-3418114D01*
X21587097Y-3454400D01*
X21514525Y-3526971D01*
X21478240Y-3672114D01*
X21478240Y-3926114D01*
X21514525Y-4071257D01*
X21587097Y-4143828D01*
X21659668Y-4180114D01*
X21804811Y-4180114D01*
X21877382Y-4143828D01*
X21949954Y-4071257D01*
X21986240Y-3926114D01*
X21986240Y-3672114D01*
X21949954Y-3526971D01*
X21877382Y-3454400D01*
X21804811Y-3418114D01*
X21187954Y-3490685D02*
X21151668Y-3454400D01*
X21079097Y-3418114D01*
X20897668Y-3418114D01*
X20825097Y-3454400D01*
X20788811Y-3490685D01*
X20752525Y-3563257D01*
X20752525Y-3635828D01*
X20788811Y-3744685D01*
X21224240Y-4180114D01*
X20752525Y-4180114D01*
X20498525Y-3418114D02*
X20026811Y-3418114D01*
X20280811Y-3708400D01*
X20171954Y-3708400D01*
X20099382Y-3744685D01*
X20063097Y-3780971D01*
X20026811Y-3853542D01*
X20026811Y-4034971D01*
X20063097Y-4107542D01*
X20099382Y-4143828D01*
X20171954Y-4180114D01*
X20389668Y-4180114D01*
X20462240Y-4143828D01*
X20498525Y-4107542D01*
X21913668Y-901700D02*
X21986240Y-865414D01*
X22095097Y-865414D01*
X22203954Y-901700D01*
X22276525Y-974271D01*
X22312811Y-1046842D01*
X22349097Y-1191985D01*
X22349097Y-1300842D01*
X22312811Y-1445985D01*
X22276525Y-1518557D01*
X22203954Y-1591128D01*
X22095097Y-1627414D01*
X22022525Y-1627414D01*
X21913668Y-1591128D01*
X21877382Y-1554842D01*
X21877382Y-1300842D01*
X22022525Y-1300842D01*
X21550811Y-1627414D02*
X21550811Y-865414D01*
X21115382Y-1627414D01*
X21115382Y-865414D01*
X20752525Y-1627414D02*
X20752525Y-865414D01*
X20571097Y-865414D01*
X20462240Y-901700D01*
X20389668Y-974271D01*
X20353382Y-1046842D01*
X20317097Y-1191985D01*
X20317097Y-1300842D01*
X20353382Y-1445985D01*
X20389668Y-1518557D01*
X20462240Y-1591128D01*
X20571097Y-1627414D01*
X20752525Y-1627414D01*
X3702231Y-46585414D02*
X4065088Y-46585414D01*
X4101374Y-46948271D01*
X4065088Y-46911985D01*
X3992517Y-46875700D01*
X3811088Y-46875700D01*
X3738517Y-46911985D01*
X3702231Y-46948271D01*
X3665945Y-47020842D01*
X3665945Y-47202271D01*
X3702231Y-47274842D01*
X3738517Y-47311128D01*
X3811088Y-47347414D01*
X3992517Y-47347414D01*
X4065088Y-47311128D01*
X4101374Y-47274842D01*
X3448231Y-46585414D02*
X3194231Y-47347414D01*
X2940231Y-46585414D01*
X8129088Y-44796528D02*
X8020231Y-44832814D01*
X7838802Y-44832814D01*
X7766231Y-44796528D01*
X7729945Y-44760242D01*
X7693660Y-44687671D01*
X7693660Y-44615100D01*
X7729945Y-44542528D01*
X7766231Y-44506242D01*
X7838802Y-44469957D01*
X7983945Y-44433671D01*
X8056517Y-44397385D01*
X8092802Y-44361100D01*
X8129088Y-44288528D01*
X8129088Y-44215957D01*
X8092802Y-44143385D01*
X8056517Y-44107100D01*
X7983945Y-44070814D01*
X7802517Y-44070814D01*
X7693660Y-44107100D01*
X6931660Y-44760242D02*
X6967945Y-44796528D01*
X7076802Y-44832814D01*
X7149374Y-44832814D01*
X7258231Y-44796528D01*
X7330802Y-44723957D01*
X7367088Y-44651385D01*
X7403374Y-44506242D01*
X7403374Y-44397385D01*
X7367088Y-44252242D01*
X7330802Y-44179671D01*
X7258231Y-44107100D01*
X7149374Y-44070814D01*
X7076802Y-44070814D01*
X6967945Y-44107100D01*
X6931660Y-44143385D01*
X6641374Y-44796528D02*
X6532517Y-44832814D01*
X6351088Y-44832814D01*
X6278517Y-44796528D01*
X6242231Y-44760242D01*
X6205945Y-44687671D01*
X6205945Y-44615100D01*
X6242231Y-44542528D01*
X6278517Y-44506242D01*
X6351088Y-44469957D01*
X6496231Y-44433671D01*
X6568802Y-44397385D01*
X6605088Y-44361100D01*
X6641374Y-44288528D01*
X6641374Y-44215957D01*
X6605088Y-44143385D01*
X6568802Y-44107100D01*
X6496231Y-44070814D01*
X6314802Y-44070814D01*
X6205945Y-44107100D01*
X5335088Y-44034528D02*
X5988231Y-45014242D01*
X4645660Y-44760242D02*
X4681945Y-44796528D01*
X4790802Y-44832814D01*
X4863374Y-44832814D01*
X4972231Y-44796528D01*
X5044802Y-44723957D01*
X5081088Y-44651385D01*
X5117374Y-44506242D01*
X5117374Y-44397385D01*
X5081088Y-44252242D01*
X5044802Y-44179671D01*
X4972231Y-44107100D01*
X4863374Y-44070814D01*
X4790802Y-44070814D01*
X4681945Y-44107100D01*
X4645660Y-44143385D01*
X4319088Y-44832814D02*
X4319088Y-44070814D01*
X4065088Y-44615100D01*
X3811088Y-44070814D01*
X3811088Y-44832814D01*
X3448231Y-44832814D02*
X3448231Y-44070814D01*
X3266802Y-44070814D01*
X3157945Y-44107100D01*
X3085374Y-44179671D01*
X3049088Y-44252242D01*
X3012802Y-44397385D01*
X3012802Y-44506242D01*
X3049088Y-44651385D01*
X3085374Y-44723957D01*
X3157945Y-44796528D01*
X3266802Y-44832814D01*
X3448231Y-44832814D01*
X8092802Y-42231128D02*
X7983945Y-42267414D01*
X7802517Y-42267414D01*
X7729945Y-42231128D01*
X7693660Y-42194842D01*
X7657374Y-42122271D01*
X7657374Y-42049700D01*
X7693660Y-41977128D01*
X7729945Y-41940842D01*
X7802517Y-41904557D01*
X7947660Y-41868271D01*
X8020231Y-41831985D01*
X8056517Y-41795700D01*
X8092802Y-41723128D01*
X8092802Y-41650557D01*
X8056517Y-41577985D01*
X8020231Y-41541700D01*
X7947660Y-41505414D01*
X7766231Y-41505414D01*
X7657374Y-41541700D01*
X7403374Y-41505414D02*
X7221945Y-42267414D01*
X7076802Y-41723128D01*
X6931660Y-42267414D01*
X6750231Y-41505414D01*
X6459945Y-42267414D02*
X6459945Y-41505414D01*
X6169660Y-41505414D01*
X6097088Y-41541700D01*
X6060802Y-41577985D01*
X6024517Y-41650557D01*
X6024517Y-41759414D01*
X6060802Y-41831985D01*
X6097088Y-41868271D01*
X6169660Y-41904557D01*
X6459945Y-41904557D01*
X5153660Y-41469128D02*
X5806802Y-42448842D01*
X4935945Y-42231128D02*
X4827088Y-42267414D01*
X4645660Y-42267414D01*
X4573088Y-42231128D01*
X4536802Y-42194842D01*
X4500517Y-42122271D01*
X4500517Y-42049700D01*
X4536802Y-41977128D01*
X4573088Y-41940842D01*
X4645660Y-41904557D01*
X4790802Y-41868271D01*
X4863374Y-41831985D01*
X4899660Y-41795700D01*
X4935945Y-41723128D01*
X4935945Y-41650557D01*
X4899660Y-41577985D01*
X4863374Y-41541700D01*
X4790802Y-41505414D01*
X4609374Y-41505414D01*
X4500517Y-41541700D01*
X4173945Y-42267414D02*
X4173945Y-41505414D01*
X3992517Y-41505414D01*
X3883660Y-41541700D01*
X3811088Y-41614271D01*
X3774802Y-41686842D01*
X3738517Y-41831985D01*
X3738517Y-41940842D01*
X3774802Y-42085985D01*
X3811088Y-42158557D01*
X3883660Y-42231128D01*
X3992517Y-42267414D01*
X4173945Y-42267414D01*
X3484517Y-41505414D02*
X3012802Y-41505414D01*
X3266802Y-41795700D01*
X3157945Y-41795700D01*
X3085374Y-41831985D01*
X3049088Y-41868271D01*
X3012802Y-41940842D01*
X3012802Y-42122271D01*
X3049088Y-42194842D01*
X3085374Y-42231128D01*
X3157945Y-42267414D01*
X3375660Y-42267414D01*
X3448231Y-42231128D01*
X3484517Y-42194842D01*
X8020231Y-39716528D02*
X7911374Y-39752814D01*
X7729945Y-39752814D01*
X7657374Y-39716528D01*
X7621088Y-39680242D01*
X7584802Y-39607671D01*
X7584802Y-39535100D01*
X7621088Y-39462528D01*
X7657374Y-39426242D01*
X7729945Y-39389957D01*
X7875088Y-39353671D01*
X7947660Y-39317385D01*
X7983945Y-39281100D01*
X8020231Y-39208528D01*
X8020231Y-39135957D01*
X7983945Y-39063385D01*
X7947660Y-39027100D01*
X7875088Y-38990814D01*
X7693660Y-38990814D01*
X7584802Y-39027100D01*
X7258231Y-39752814D02*
X7258231Y-38990814D01*
X7258231Y-39353671D02*
X6822802Y-39353671D01*
X6822802Y-39752814D02*
X6822802Y-38990814D01*
X6459945Y-39752814D02*
X6459945Y-38990814D01*
X6278517Y-38990814D01*
X6169660Y-39027100D01*
X6097088Y-39099671D01*
X6060802Y-39172242D01*
X6024517Y-39317385D01*
X6024517Y-39426242D01*
X6060802Y-39571385D01*
X6097088Y-39643957D01*
X6169660Y-39716528D01*
X6278517Y-39752814D01*
X6459945Y-39752814D01*
X5153660Y-38954528D02*
X5806802Y-39934242D01*
X4935945Y-39716528D02*
X4827088Y-39752814D01*
X4645660Y-39752814D01*
X4573088Y-39716528D01*
X4536802Y-39680242D01*
X4500517Y-39607671D01*
X4500517Y-39535100D01*
X4536802Y-39462528D01*
X4573088Y-39426242D01*
X4645660Y-39389957D01*
X4790802Y-39353671D01*
X4863374Y-39317385D01*
X4899660Y-39281100D01*
X4935945Y-39208528D01*
X4935945Y-39135957D01*
X4899660Y-39063385D01*
X4863374Y-39027100D01*
X4790802Y-38990814D01*
X4609374Y-38990814D01*
X4500517Y-39027100D01*
X4173945Y-39752814D02*
X4173945Y-38990814D01*
X3992517Y-38990814D01*
X3883660Y-39027100D01*
X3811088Y-39099671D01*
X3774802Y-39172242D01*
X3738517Y-39317385D01*
X3738517Y-39426242D01*
X3774802Y-39571385D01*
X3811088Y-39643957D01*
X3883660Y-39716528D01*
X3992517Y-39752814D01*
X4173945Y-39752814D01*
X3448231Y-39063385D02*
X3411945Y-39027100D01*
X3339374Y-38990814D01*
X3157945Y-38990814D01*
X3085374Y-39027100D01*
X3049088Y-39063385D01*
X3012802Y-39135957D01*
X3012802Y-39208528D01*
X3049088Y-39317385D01*
X3484517Y-39752814D01*
X3012802Y-39752814D01*
X5298802Y-37225514D02*
X5298802Y-36463514D01*
X4790802Y-36463514D02*
X4645660Y-36463514D01*
X4573088Y-36499800D01*
X4500517Y-36572371D01*
X4464231Y-36717514D01*
X4464231Y-36971514D01*
X4500517Y-37116657D01*
X4573088Y-37189228D01*
X4645660Y-37225514D01*
X4790802Y-37225514D01*
X4863374Y-37189228D01*
X4935945Y-37116657D01*
X4972231Y-36971514D01*
X4972231Y-36717514D01*
X4935945Y-36572371D01*
X4863374Y-36499800D01*
X4790802Y-36463514D01*
X3738517Y-37225514D02*
X4173945Y-37225514D01*
X3956231Y-37225514D02*
X3956231Y-36463514D01*
X4028802Y-36572371D01*
X4101374Y-36644942D01*
X4173945Y-36681228D01*
X3484517Y-36463514D02*
X3012802Y-36463514D01*
X3266802Y-36753800D01*
X3157945Y-36753800D01*
X3085374Y-36790085D01*
X3049088Y-36826371D01*
X3012802Y-36898942D01*
X3012802Y-37080371D01*
X3049088Y-37152942D01*
X3085374Y-37189228D01*
X3157945Y-37225514D01*
X3375660Y-37225514D01*
X3448231Y-37189228D01*
X3484517Y-37152942D01*
X4609374Y-33947100D02*
X4681945Y-33910814D01*
X4790802Y-33910814D01*
X4899660Y-33947100D01*
X4972231Y-34019671D01*
X5008517Y-34092242D01*
X5044802Y-34237385D01*
X5044802Y-34346242D01*
X5008517Y-34491385D01*
X4972231Y-34563957D01*
X4899660Y-34636528D01*
X4790802Y-34672814D01*
X4718231Y-34672814D01*
X4609374Y-34636528D01*
X4573088Y-34600242D01*
X4573088Y-34346242D01*
X4718231Y-34346242D01*
X4246517Y-34672814D02*
X4246517Y-33910814D01*
X3811088Y-34672814D01*
X3811088Y-33910814D01*
X3448231Y-34672814D02*
X3448231Y-33910814D01*
X3266802Y-33910814D01*
X3157945Y-33947100D01*
X3085374Y-34019671D01*
X3049088Y-34092242D01*
X3012802Y-34237385D01*
X3012802Y-34346242D01*
X3049088Y-34491385D01*
X3085374Y-34563957D01*
X3157945Y-34636528D01*
X3266802Y-34672814D01*
X3448231Y-34672814D01*
X5298802Y-32120114D02*
X5298802Y-31358114D01*
X4790802Y-31358114D02*
X4645660Y-31358114D01*
X4573088Y-31394400D01*
X4500517Y-31466971D01*
X4464231Y-31612114D01*
X4464231Y-31866114D01*
X4500517Y-32011257D01*
X4573088Y-32083828D01*
X4645660Y-32120114D01*
X4790802Y-32120114D01*
X4863374Y-32083828D01*
X4935945Y-32011257D01*
X4972231Y-31866114D01*
X4972231Y-31612114D01*
X4935945Y-31466971D01*
X4863374Y-31394400D01*
X4790802Y-31358114D01*
X3738517Y-32120114D02*
X4173945Y-32120114D01*
X3956231Y-32120114D02*
X3956231Y-31358114D01*
X4028802Y-31466971D01*
X4101374Y-31539542D01*
X4173945Y-31575828D01*
X3448231Y-31430685D02*
X3411945Y-31394400D01*
X3339374Y-31358114D01*
X3157945Y-31358114D01*
X3085374Y-31394400D01*
X3049088Y-31430685D01*
X3012802Y-31503257D01*
X3012802Y-31575828D01*
X3049088Y-31684685D01*
X3484517Y-32120114D01*
X3012802Y-32120114D01*
X5311502Y-29580114D02*
X5311502Y-28818114D01*
X4803502Y-28818114D02*
X4658360Y-28818114D01*
X4585788Y-28854400D01*
X4513217Y-28926971D01*
X4476931Y-29072114D01*
X4476931Y-29326114D01*
X4513217Y-29471257D01*
X4585788Y-29543828D01*
X4658360Y-29580114D01*
X4803502Y-29580114D01*
X4876074Y-29543828D01*
X4948645Y-29471257D01*
X4984931Y-29326114D01*
X4984931Y-29072114D01*
X4948645Y-28926971D01*
X4876074Y-28854400D01*
X4803502Y-28818114D01*
X3751217Y-29580114D02*
X4186645Y-29580114D01*
X3968931Y-29580114D02*
X3968931Y-28818114D01*
X4041502Y-28926971D01*
X4114074Y-28999542D01*
X4186645Y-29035828D01*
X3098074Y-29072114D02*
X3098074Y-29580114D01*
X3279502Y-28781828D02*
X3460931Y-29326114D01*
X2989217Y-29326114D01*
X5311502Y-27040114D02*
X5311502Y-26278114D01*
X4803502Y-26278114D02*
X4658360Y-26278114D01*
X4585788Y-26314400D01*
X4513217Y-26386971D01*
X4476931Y-26532114D01*
X4476931Y-26786114D01*
X4513217Y-26931257D01*
X4585788Y-27003828D01*
X4658360Y-27040114D01*
X4803502Y-27040114D01*
X4876074Y-27003828D01*
X4948645Y-26931257D01*
X4984931Y-26786114D01*
X4984931Y-26532114D01*
X4948645Y-26386971D01*
X4876074Y-26314400D01*
X4803502Y-26278114D01*
X4186645Y-26350685D02*
X4150360Y-26314400D01*
X4077788Y-26278114D01*
X3896360Y-26278114D01*
X3823788Y-26314400D01*
X3787502Y-26350685D01*
X3751217Y-26423257D01*
X3751217Y-26495828D01*
X3787502Y-26604685D01*
X4222931Y-27040114D01*
X3751217Y-27040114D01*
X3497217Y-26278114D02*
X2989217Y-26278114D01*
X3315788Y-27040114D01*
X5324202Y-24512814D02*
X5324202Y-23750814D01*
X4816202Y-23750814D02*
X4671060Y-23750814D01*
X4598488Y-23787100D01*
X4525917Y-23859671D01*
X4489631Y-24004814D01*
X4489631Y-24258814D01*
X4525917Y-24403957D01*
X4598488Y-24476528D01*
X4671060Y-24512814D01*
X4816202Y-24512814D01*
X4888774Y-24476528D01*
X4961345Y-24403957D01*
X4997631Y-24258814D01*
X4997631Y-24004814D01*
X4961345Y-23859671D01*
X4888774Y-23787100D01*
X4816202Y-23750814D01*
X4199345Y-23823385D02*
X4163060Y-23787100D01*
X4090488Y-23750814D01*
X3909060Y-23750814D01*
X3836488Y-23787100D01*
X3800202Y-23823385D01*
X3763917Y-23895957D01*
X3763917Y-23968528D01*
X3800202Y-24077385D01*
X4235631Y-24512814D01*
X3763917Y-24512814D01*
X3110774Y-23750814D02*
X3255917Y-23750814D01*
X3328488Y-23787100D01*
X3364774Y-23823385D01*
X3437345Y-23932242D01*
X3473631Y-24077385D01*
X3473631Y-24367671D01*
X3437345Y-24440242D01*
X3401060Y-24476528D01*
X3328488Y-24512814D01*
X3183345Y-24512814D01*
X3110774Y-24476528D01*
X3074488Y-24440242D01*
X3038202Y-24367671D01*
X3038202Y-24186242D01*
X3074488Y-24113671D01*
X3110774Y-24077385D01*
X3183345Y-24041100D01*
X3328488Y-24041100D01*
X3401060Y-24077385D01*
X3437345Y-24113671D01*
X3473631Y-24186242D01*
X5311502Y-21960114D02*
X5311502Y-21198114D01*
X4803502Y-21198114D02*
X4658360Y-21198114D01*
X4585788Y-21234400D01*
X4513217Y-21306971D01*
X4476931Y-21452114D01*
X4476931Y-21706114D01*
X4513217Y-21851257D01*
X4585788Y-21923828D01*
X4658360Y-21960114D01*
X4803502Y-21960114D01*
X4876074Y-21923828D01*
X4948645Y-21851257D01*
X4984931Y-21706114D01*
X4984931Y-21452114D01*
X4948645Y-21306971D01*
X4876074Y-21234400D01*
X4803502Y-21198114D01*
X4186645Y-21270685D02*
X4150360Y-21234400D01*
X4077788Y-21198114D01*
X3896360Y-21198114D01*
X3823788Y-21234400D01*
X3787502Y-21270685D01*
X3751217Y-21343257D01*
X3751217Y-21415828D01*
X3787502Y-21524685D01*
X4222931Y-21960114D01*
X3751217Y-21960114D01*
X3061788Y-21198114D02*
X3424645Y-21198114D01*
X3460931Y-21560971D01*
X3424645Y-21524685D01*
X3352074Y-21488400D01*
X3170645Y-21488400D01*
X3098074Y-21524685D01*
X3061788Y-21560971D01*
X3025502Y-21633542D01*
X3025502Y-21814971D01*
X3061788Y-21887542D01*
X3098074Y-21923828D01*
X3170645Y-21960114D01*
X3352074Y-21960114D01*
X3424645Y-21923828D01*
X3460931Y-21887542D01*
X5311502Y-19420114D02*
X5311502Y-18658114D01*
X4803502Y-18658114D02*
X4658360Y-18658114D01*
X4585788Y-18694400D01*
X4513217Y-18766971D01*
X4476931Y-18912114D01*
X4476931Y-19166114D01*
X4513217Y-19311257D01*
X4585788Y-19383828D01*
X4658360Y-19420114D01*
X4803502Y-19420114D01*
X4876074Y-19383828D01*
X4948645Y-19311257D01*
X4984931Y-19166114D01*
X4984931Y-18912114D01*
X4948645Y-18766971D01*
X4876074Y-18694400D01*
X4803502Y-18658114D01*
X4222931Y-18658114D02*
X3751217Y-18658114D01*
X4005217Y-18948400D01*
X3896360Y-18948400D01*
X3823788Y-18984685D01*
X3787502Y-19020971D01*
X3751217Y-19093542D01*
X3751217Y-19274971D01*
X3787502Y-19347542D01*
X3823788Y-19383828D01*
X3896360Y-19420114D01*
X4114074Y-19420114D01*
X4186645Y-19383828D01*
X4222931Y-19347542D01*
X3497217Y-18658114D02*
X3025502Y-18658114D01*
X3279502Y-18948400D01*
X3170645Y-18948400D01*
X3098074Y-18984685D01*
X3061788Y-19020971D01*
X3025502Y-19093542D01*
X3025502Y-19274971D01*
X3061788Y-19347542D01*
X3098074Y-19383828D01*
X3170645Y-19420114D01*
X3388360Y-19420114D01*
X3460931Y-19383828D01*
X3497217Y-19347542D01*
X5324202Y-16892814D02*
X5324202Y-16130814D01*
X4816202Y-16130814D02*
X4671060Y-16130814D01*
X4598488Y-16167100D01*
X4525917Y-16239671D01*
X4489631Y-16384814D01*
X4489631Y-16638814D01*
X4525917Y-16783957D01*
X4598488Y-16856528D01*
X4671060Y-16892814D01*
X4816202Y-16892814D01*
X4888774Y-16856528D01*
X4961345Y-16783957D01*
X4997631Y-16638814D01*
X4997631Y-16384814D01*
X4961345Y-16239671D01*
X4888774Y-16167100D01*
X4816202Y-16130814D01*
X4235631Y-16130814D02*
X3763917Y-16130814D01*
X4017917Y-16421100D01*
X3909060Y-16421100D01*
X3836488Y-16457385D01*
X3800202Y-16493671D01*
X3763917Y-16566242D01*
X3763917Y-16747671D01*
X3800202Y-16820242D01*
X3836488Y-16856528D01*
X3909060Y-16892814D01*
X4126774Y-16892814D01*
X4199345Y-16856528D01*
X4235631Y-16820242D01*
X3473631Y-16203385D02*
X3437345Y-16167100D01*
X3364774Y-16130814D01*
X3183345Y-16130814D01*
X3110774Y-16167100D01*
X3074488Y-16203385D01*
X3038202Y-16275957D01*
X3038202Y-16348528D01*
X3074488Y-16457385D01*
X3509917Y-16892814D01*
X3038202Y-16892814D01*
X5324202Y-14352814D02*
X5324202Y-13590814D01*
X4816202Y-13590814D02*
X4671060Y-13590814D01*
X4598488Y-13627100D01*
X4525917Y-13699671D01*
X4489631Y-13844814D01*
X4489631Y-14098814D01*
X4525917Y-14243957D01*
X4598488Y-14316528D01*
X4671060Y-14352814D01*
X4816202Y-14352814D01*
X4888774Y-14316528D01*
X4961345Y-14243957D01*
X4997631Y-14098814D01*
X4997631Y-13844814D01*
X4961345Y-13699671D01*
X4888774Y-13627100D01*
X4816202Y-13590814D01*
X4235631Y-13590814D02*
X3763917Y-13590814D01*
X4017917Y-13881100D01*
X3909060Y-13881100D01*
X3836488Y-13917385D01*
X3800202Y-13953671D01*
X3763917Y-14026242D01*
X3763917Y-14207671D01*
X3800202Y-14280242D01*
X3836488Y-14316528D01*
X3909060Y-14352814D01*
X4126774Y-14352814D01*
X4199345Y-14316528D01*
X4235631Y-14280242D01*
X3074488Y-13590814D02*
X3437345Y-13590814D01*
X3473631Y-13953671D01*
X3437345Y-13917385D01*
X3364774Y-13881100D01*
X3183345Y-13881100D01*
X3110774Y-13917385D01*
X3074488Y-13953671D01*
X3038202Y-14026242D01*
X3038202Y-14207671D01*
X3074488Y-14280242D01*
X3110774Y-14316528D01*
X3183345Y-14352814D01*
X3364774Y-14352814D01*
X3437345Y-14316528D01*
X3473631Y-14280242D01*
X5324202Y-11800114D02*
X5324202Y-11038114D01*
X4816202Y-11038114D02*
X4671060Y-11038114D01*
X4598488Y-11074400D01*
X4525917Y-11146971D01*
X4489631Y-11292114D01*
X4489631Y-11546114D01*
X4525917Y-11691257D01*
X4598488Y-11763828D01*
X4671060Y-11800114D01*
X4816202Y-11800114D01*
X4888774Y-11763828D01*
X4961345Y-11691257D01*
X4997631Y-11546114D01*
X4997631Y-11292114D01*
X4961345Y-11146971D01*
X4888774Y-11074400D01*
X4816202Y-11038114D01*
X4235631Y-11038114D02*
X3763917Y-11038114D01*
X4017917Y-11328400D01*
X3909060Y-11328400D01*
X3836488Y-11364685D01*
X3800202Y-11400971D01*
X3763917Y-11473542D01*
X3763917Y-11654971D01*
X3800202Y-11727542D01*
X3836488Y-11763828D01*
X3909060Y-11800114D01*
X4126774Y-11800114D01*
X4199345Y-11763828D01*
X4235631Y-11727542D01*
X3110774Y-11292114D02*
X3110774Y-11800114D01*
X3292202Y-11001828D02*
X3473631Y-11546114D01*
X3001917Y-11546114D01*
X9279345Y-9236528D02*
X9170488Y-9272814D01*
X8989059Y-9272814D01*
X8916488Y-9236528D01*
X8880202Y-9200242D01*
X8843917Y-9127671D01*
X8843917Y-9055100D01*
X8880202Y-8982528D01*
X8916488Y-8946242D01*
X8989059Y-8909957D01*
X9134202Y-8873671D01*
X9206774Y-8837385D01*
X9243059Y-8801100D01*
X9279345Y-8728528D01*
X9279345Y-8655957D01*
X9243059Y-8583385D01*
X9206774Y-8547100D01*
X9134202Y-8510814D01*
X8952774Y-8510814D01*
X8843917Y-8547100D01*
X8517345Y-8873671D02*
X8263345Y-8873671D01*
X8154488Y-9272814D02*
X8517345Y-9272814D01*
X8517345Y-8510814D01*
X8154488Y-8510814D01*
X7827917Y-9272814D02*
X7827917Y-8510814D01*
X7392488Y-9272814D01*
X7392488Y-8510814D01*
X7065917Y-9236528D02*
X6957059Y-9272814D01*
X6775631Y-9272814D01*
X6703059Y-9236528D01*
X6666774Y-9200242D01*
X6630488Y-9127671D01*
X6630488Y-9055100D01*
X6666774Y-8982528D01*
X6703059Y-8946242D01*
X6775631Y-8909957D01*
X6920774Y-8873671D01*
X6993345Y-8837385D01*
X7029631Y-8801100D01*
X7065917Y-8728528D01*
X7065917Y-8655957D01*
X7029631Y-8583385D01*
X6993345Y-8547100D01*
X6920774Y-8510814D01*
X6739345Y-8510814D01*
X6630488Y-8547100D01*
X6158774Y-8510814D02*
X6013631Y-8510814D01*
X5941059Y-8547100D01*
X5868488Y-8619671D01*
X5832202Y-8764814D01*
X5832202Y-9018814D01*
X5868488Y-9163957D01*
X5941059Y-9236528D01*
X6013631Y-9272814D01*
X6158774Y-9272814D01*
X6231345Y-9236528D01*
X6303917Y-9163957D01*
X6340202Y-9018814D01*
X6340202Y-8764814D01*
X6303917Y-8619671D01*
X6231345Y-8547100D01*
X6158774Y-8510814D01*
X5070202Y-9272814D02*
X5324202Y-8909957D01*
X5505631Y-9272814D02*
X5505631Y-8510814D01*
X5215345Y-8510814D01*
X5142774Y-8547100D01*
X5106488Y-8583385D01*
X5070202Y-8655957D01*
X5070202Y-8764814D01*
X5106488Y-8837385D01*
X5142774Y-8873671D01*
X5215345Y-8909957D01*
X5505631Y-8909957D01*
X4925059Y-9345385D02*
X4344488Y-9345385D01*
X4271917Y-8510814D02*
X4017917Y-9272814D01*
X3763917Y-8510814D01*
X3509917Y-9272814D02*
X3509917Y-8510814D01*
X3074488Y-9272814D01*
X3074488Y-8510814D01*
X9217659Y-6709228D02*
X9108802Y-6745514D01*
X8927374Y-6745514D01*
X8854802Y-6709228D01*
X8818517Y-6672942D01*
X8782231Y-6600371D01*
X8782231Y-6527800D01*
X8818517Y-6455228D01*
X8854802Y-6418942D01*
X8927374Y-6382657D01*
X9072517Y-6346371D01*
X9145088Y-6310085D01*
X9181374Y-6273800D01*
X9217659Y-6201228D01*
X9217659Y-6128657D01*
X9181374Y-6056085D01*
X9145088Y-6019800D01*
X9072517Y-5983514D01*
X8891088Y-5983514D01*
X8782231Y-6019800D01*
X8455659Y-6346371D02*
X8201659Y-6346371D01*
X8092802Y-6745514D02*
X8455659Y-6745514D01*
X8455659Y-5983514D01*
X8092802Y-5983514D01*
X7766231Y-6745514D02*
X7766231Y-5983514D01*
X7330802Y-6745514D01*
X7330802Y-5983514D01*
X7004231Y-6709228D02*
X6895374Y-6745514D01*
X6713945Y-6745514D01*
X6641374Y-6709228D01*
X6605088Y-6672942D01*
X6568802Y-6600371D01*
X6568802Y-6527800D01*
X6605088Y-6455228D01*
X6641374Y-6418942D01*
X6713945Y-6382657D01*
X6859088Y-6346371D01*
X6931659Y-6310085D01*
X6967945Y-6273800D01*
X7004231Y-6201228D01*
X7004231Y-6128657D01*
X6967945Y-6056085D01*
X6931659Y-6019800D01*
X6859088Y-5983514D01*
X6677659Y-5983514D01*
X6568802Y-6019800D01*
X6097088Y-5983514D02*
X5951945Y-5983514D01*
X5879374Y-6019800D01*
X5806802Y-6092371D01*
X5770517Y-6237514D01*
X5770517Y-6491514D01*
X5806802Y-6636657D01*
X5879374Y-6709228D01*
X5951945Y-6745514D01*
X6097088Y-6745514D01*
X6169659Y-6709228D01*
X6242231Y-6636657D01*
X6278517Y-6491514D01*
X6278517Y-6237514D01*
X6242231Y-6092371D01*
X6169659Y-6019800D01*
X6097088Y-5983514D01*
X5008517Y-6745514D02*
X5262517Y-6382657D01*
X5443945Y-6745514D02*
X5443945Y-5983514D01*
X5153659Y-5983514D01*
X5081088Y-6019800D01*
X5044802Y-6056085D01*
X5008517Y-6128657D01*
X5008517Y-6237514D01*
X5044802Y-6310085D01*
X5081088Y-6346371D01*
X5153659Y-6382657D01*
X5443945Y-6382657D01*
X4863374Y-6818085D02*
X4282802Y-6818085D01*
X4210231Y-5983514D02*
X3956231Y-6745514D01*
X3702231Y-5983514D01*
X3448231Y-6745514D02*
X3448231Y-5983514D01*
X3157945Y-5983514D01*
X3085374Y-6019800D01*
X3049088Y-6056085D01*
X3012802Y-6128657D01*
X3012802Y-6237514D01*
X3049088Y-6310085D01*
X3085374Y-6346371D01*
X3157945Y-6382657D01*
X3448231Y-6382657D01*
X4173945Y-3780971D02*
X3919945Y-3780971D01*
X3811088Y-4180114D02*
X4173945Y-4180114D01*
X4173945Y-3418114D01*
X3811088Y-3418114D01*
X3484517Y-4180114D02*
X3484517Y-3418114D01*
X3049088Y-4180114D01*
X3049088Y-3418114D01*
X4774474Y-890814D02*
X4302760Y-890814D01*
X4556760Y-1181100D01*
X4447902Y-1181100D01*
X4375331Y-1217385D01*
X4339045Y-1253671D01*
X4302760Y-1326242D01*
X4302760Y-1507671D01*
X4339045Y-1580242D01*
X4375331Y-1616528D01*
X4447902Y-1652814D01*
X4665617Y-1652814D01*
X4738188Y-1616528D01*
X4774474Y-1580242D01*
X4085045Y-890814D02*
X3831045Y-1652814D01*
X3577045Y-890814D01*
X3395617Y-890814D02*
X2923902Y-890814D01*
X3177902Y-1181100D01*
X3069045Y-1181100D01*
X2996474Y-1217385D01*
X2960188Y-1253671D01*
X2923902Y-1326242D01*
X2923902Y-1507671D01*
X2960188Y-1580242D01*
X2996474Y-1616528D01*
X3069045Y-1652814D01*
X3286760Y-1652814D01*
X3359331Y-1616528D01*
X3395617Y-1580242D01*
X4265385Y-61673740D02*
X3648528Y-61673740D01*
X3575957Y-61710025D01*
X3539671Y-61746311D01*
X3503385Y-61818882D01*
X3503385Y-61927740D01*
X3539671Y-62000311D01*
X3793671Y-61673740D02*
X3757385Y-61746311D01*
X3757385Y-61891454D01*
X3793671Y-61964025D01*
X3829957Y-62000311D01*
X3902528Y-62036597D01*
X4120242Y-62036597D01*
X4192814Y-62000311D01*
X4229100Y-61964025D01*
X4265385Y-61891454D01*
X4265385Y-61746311D01*
X4229100Y-61673740D01*
X3757385Y-61310882D02*
X4265385Y-61310882D01*
X4519385Y-61310882D02*
X4483100Y-61347168D01*
X4446814Y-61310882D01*
X4483100Y-61274597D01*
X4519385Y-61310882D01*
X4446814Y-61310882D01*
X4265385Y-61056882D02*
X4265385Y-60766597D01*
X4519385Y-60948025D02*
X3866242Y-60948025D01*
X3793671Y-60911740D01*
X3757385Y-60839168D01*
X3757385Y-60766597D01*
X3757385Y-60512597D02*
X4519385Y-60512597D01*
X3757385Y-60186025D02*
X4156528Y-60186025D01*
X4229100Y-60222311D01*
X4265385Y-60294882D01*
X4265385Y-60403740D01*
X4229100Y-60476311D01*
X4192814Y-60512597D01*
X4265385Y-59496597D02*
X3757385Y-59496597D01*
X4265385Y-59823168D02*
X3866242Y-59823168D01*
X3793671Y-59786882D01*
X3757385Y-59714311D01*
X3757385Y-59605454D01*
X3793671Y-59532882D01*
X3829957Y-59496597D01*
X3757385Y-59133740D02*
X4519385Y-59133740D01*
X4229100Y-59133740D02*
X4265385Y-59061168D01*
X4265385Y-58916025D01*
X4229100Y-58843454D01*
X4192814Y-58807168D01*
X4120242Y-58770882D01*
X3902528Y-58770882D01*
X3829957Y-58807168D01*
X3793671Y-58843454D01*
X3757385Y-58916025D01*
X3757385Y-59061168D01*
X3793671Y-59133740D01*
X3829957Y-58444311D02*
X3793671Y-58408025D01*
X3757385Y-58444311D01*
X3793671Y-58480597D01*
X3829957Y-58444311D01*
X3757385Y-58444311D01*
X3793671Y-57754882D02*
X3757385Y-57827454D01*
X3757385Y-57972597D01*
X3793671Y-58045168D01*
X3829957Y-58081454D01*
X3902528Y-58117740D01*
X4120242Y-58117740D01*
X4192814Y-58081454D01*
X4229100Y-58045168D01*
X4265385Y-57972597D01*
X4265385Y-57827454D01*
X4229100Y-57754882D01*
X3757385Y-57319454D02*
X3793671Y-57392025D01*
X3829957Y-57428311D01*
X3902528Y-57464597D01*
X4120242Y-57464597D01*
X4192814Y-57428311D01*
X4229100Y-57392025D01*
X4265385Y-57319454D01*
X4265385Y-57210597D01*
X4229100Y-57138025D01*
X4192814Y-57101740D01*
X4120242Y-57065454D01*
X3902528Y-57065454D01*
X3829957Y-57101740D01*
X3793671Y-57138025D01*
X3757385Y-57210597D01*
X3757385Y-57319454D01*
X3757385Y-56738882D02*
X4265385Y-56738882D01*
X4192814Y-56738882D02*
X4229100Y-56702597D01*
X4265385Y-56630025D01*
X4265385Y-56521168D01*
X4229100Y-56448597D01*
X4156528Y-56412311D01*
X3757385Y-56412311D01*
X4156528Y-56412311D02*
X4229100Y-56376025D01*
X4265385Y-56303454D01*
X4265385Y-56194597D01*
X4229100Y-56122025D01*
X4156528Y-56085740D01*
X3757385Y-56085740D01*
X4555671Y-55178597D02*
X3575957Y-55831740D01*
X3757385Y-54815740D02*
X3793671Y-54888311D01*
X3866242Y-54924597D01*
X4519385Y-54924597D01*
X3757385Y-54525454D02*
X4265385Y-54525454D01*
X4519385Y-54525454D02*
X4483100Y-54561740D01*
X4446814Y-54525454D01*
X4483100Y-54489168D01*
X4519385Y-54525454D01*
X4446814Y-54525454D01*
X4265385Y-54235168D02*
X3757385Y-54053740D01*
X4265385Y-53872311D02*
X3757385Y-54053740D01*
X3575957Y-54126311D01*
X3539671Y-54162597D01*
X3503385Y-54235168D01*
X3757385Y-53255454D02*
X4156528Y-53255454D01*
X4229100Y-53291740D01*
X4265385Y-53364311D01*
X4265385Y-53509454D01*
X4229100Y-53582025D01*
X3793671Y-53255454D02*
X3757385Y-53328025D01*
X3757385Y-53509454D01*
X3793671Y-53582025D01*
X3866242Y-53618311D01*
X3938814Y-53618311D01*
X4011385Y-53582025D01*
X4047671Y-53509454D01*
X4047671Y-53328025D01*
X4083957Y-53255454D01*
X4265385Y-52892597D02*
X3757385Y-52892597D01*
X4192814Y-52892597D02*
X4229100Y-52856311D01*
X4265385Y-52783740D01*
X4265385Y-52674882D01*
X4229100Y-52602311D01*
X4156528Y-52566025D01*
X3757385Y-52566025D01*
X3757385Y-51876597D02*
X4156528Y-51876597D01*
X4229100Y-51912882D01*
X4265385Y-51985454D01*
X4265385Y-52130597D01*
X4229100Y-52203168D01*
X3793671Y-51876597D02*
X3757385Y-51949168D01*
X3757385Y-52130597D01*
X3793671Y-52203168D01*
X3866242Y-52239454D01*
X3938814Y-52239454D01*
X4011385Y-52203168D01*
X4047671Y-52130597D01*
X4047671Y-51949168D01*
X4083957Y-51876597D01*
X4265385Y-51187168D02*
X3648528Y-51187168D01*
X3575957Y-51223454D01*
X3539671Y-51259740D01*
X3503385Y-51332311D01*
X3503385Y-51441168D01*
X3539671Y-51513740D01*
X3793671Y-51187168D02*
X3757385Y-51259740D01*
X3757385Y-51404882D01*
X3793671Y-51477454D01*
X3829957Y-51513740D01*
X3902528Y-51550025D01*
X4120242Y-51550025D01*
X4192814Y-51513740D01*
X4229100Y-51477454D01*
X4265385Y-51404882D01*
X4265385Y-51259740D01*
X4229100Y-51187168D01*
X3793671Y-50534025D02*
X3757385Y-50606597D01*
X3757385Y-50751740D01*
X3793671Y-50824311D01*
X3866242Y-50860597D01*
X4156528Y-50860597D01*
X4229100Y-50824311D01*
X4265385Y-50751740D01*
X4265385Y-50606597D01*
X4229100Y-50534025D01*
X4156528Y-50497740D01*
X4083957Y-50497740D01*
X4011385Y-50860597D01*
X4555671Y-49626882D02*
X3575957Y-50280025D01*
X2498271Y-61710025D02*
X2461985Y-61782597D01*
X2461985Y-61927740D01*
X2498271Y-62000311D01*
X2570842Y-62036597D01*
X2861128Y-62036597D01*
X2933700Y-62000311D01*
X2969985Y-61927740D01*
X2969985Y-61782597D01*
X2933700Y-61710025D01*
X2861128Y-61673740D01*
X2788557Y-61673740D01*
X2715985Y-62036597D01*
X2498271Y-61383454D02*
X2461985Y-61310882D01*
X2461985Y-61165740D01*
X2498271Y-61093168D01*
X2570842Y-61056882D01*
X2607128Y-61056882D01*
X2679700Y-61093168D01*
X2715985Y-61165740D01*
X2715985Y-61274597D01*
X2752271Y-61347168D01*
X2824842Y-61383454D01*
X2861128Y-61383454D01*
X2933700Y-61347168D01*
X2969985Y-61274597D01*
X2969985Y-61165740D01*
X2933700Y-61093168D01*
X2969985Y-60730311D02*
X2207985Y-60730311D01*
X2933700Y-60730311D02*
X2969985Y-60657740D01*
X2969985Y-60512597D01*
X2933700Y-60440025D01*
X2897414Y-60403740D01*
X2824842Y-60367454D01*
X2607128Y-60367454D01*
X2534557Y-60403740D01*
X2498271Y-60440025D01*
X2461985Y-60512597D01*
X2461985Y-60657740D01*
X2498271Y-60730311D01*
X3223985Y-60113454D02*
X3223985Y-59641740D01*
X2933700Y-59895740D01*
X2933700Y-59786882D01*
X2897414Y-59714311D01*
X2861128Y-59678025D01*
X2788557Y-59641740D01*
X2607128Y-59641740D01*
X2534557Y-59678025D01*
X2498271Y-59714311D01*
X2461985Y-59786882D01*
X2461985Y-60004597D01*
X2498271Y-60077168D01*
X2534557Y-60113454D01*
X3151414Y-59351454D02*
X3187700Y-59315168D01*
X3223985Y-59242597D01*
X3223985Y-59061168D01*
X3187700Y-58988597D01*
X3151414Y-58952311D01*
X3078842Y-58916025D01*
X3006271Y-58916025D01*
X2897414Y-58952311D01*
X2461985Y-59387740D01*
X2461985Y-58916025D01*
X2752271Y-58589454D02*
X2752271Y-58008882D01*
X2969985Y-57319454D02*
X2353128Y-57319454D01*
X2280557Y-57355740D01*
X2244271Y-57392025D01*
X2207985Y-57464597D01*
X2207985Y-57573454D01*
X2244271Y-57646025D01*
X2498271Y-57319454D02*
X2461985Y-57392025D01*
X2461985Y-57537168D01*
X2498271Y-57609740D01*
X2534557Y-57646025D01*
X2607128Y-57682311D01*
X2824842Y-57682311D01*
X2897414Y-57646025D01*
X2933700Y-57609740D01*
X2969985Y-57537168D01*
X2969985Y-57392025D01*
X2933700Y-57319454D01*
X2498271Y-56666311D02*
X2461985Y-56738882D01*
X2461985Y-56884025D01*
X2498271Y-56956597D01*
X2570842Y-56992882D01*
X2861128Y-56992882D01*
X2933700Y-56956597D01*
X2969985Y-56884025D01*
X2969985Y-56738882D01*
X2933700Y-56666311D01*
X2861128Y-56630025D01*
X2788557Y-56630025D01*
X2715985Y-56992882D01*
X2969985Y-56303454D02*
X2461985Y-56303454D01*
X2897414Y-56303454D02*
X2933700Y-56267168D01*
X2969985Y-56194597D01*
X2969985Y-56085740D01*
X2933700Y-56013168D01*
X2861128Y-55976882D01*
X2461985Y-55976882D01*
X2498271Y-55323740D02*
X2461985Y-55396311D01*
X2461985Y-55541454D01*
X2498271Y-55614025D01*
X2570842Y-55650311D01*
X2861128Y-55650311D01*
X2933700Y-55614025D01*
X2969985Y-55541454D01*
X2969985Y-55396311D01*
X2933700Y-55323740D01*
X2861128Y-55287454D01*
X2788557Y-55287454D01*
X2715985Y-55650311D01*
X2461985Y-54960882D02*
X2969985Y-54960882D01*
X2824842Y-54960882D02*
X2897414Y-54924597D01*
X2933700Y-54888311D01*
X2969985Y-54815740D01*
X2969985Y-54743168D01*
X2461985Y-54489168D02*
X2969985Y-54489168D01*
X3223985Y-54489168D02*
X3187700Y-54525454D01*
X3151414Y-54489168D01*
X3187700Y-54452882D01*
X3223985Y-54489168D01*
X3151414Y-54489168D01*
X2498271Y-53799740D02*
X2461985Y-53872311D01*
X2461985Y-54017454D01*
X2498271Y-54090025D01*
X2534557Y-54126311D01*
X2607128Y-54162597D01*
X2824842Y-54162597D01*
X2897414Y-54126311D01*
X2933700Y-54090025D01*
X2969985Y-54017454D01*
X2969985Y-53872311D01*
X2933700Y-53799740D01*
X2752271Y-53473168D02*
X2752271Y-52892597D01*
X2461985Y-52529740D02*
X3223985Y-52529740D01*
X2933700Y-52529740D02*
X2969985Y-52457168D01*
X2969985Y-52312025D01*
X2933700Y-52239454D01*
X2897414Y-52203168D01*
X2824842Y-52166882D01*
X2607128Y-52166882D01*
X2534557Y-52203168D01*
X2498271Y-52239454D01*
X2461985Y-52312025D01*
X2461985Y-52457168D01*
X2498271Y-52529740D01*
X2461985Y-51731454D02*
X2498271Y-51804025D01*
X2534557Y-51840311D01*
X2607128Y-51876597D01*
X2824842Y-51876597D01*
X2897414Y-51840311D01*
X2933700Y-51804025D01*
X2969985Y-51731454D01*
X2969985Y-51622597D01*
X2933700Y-51550025D01*
X2897414Y-51513740D01*
X2824842Y-51477454D01*
X2607128Y-51477454D01*
X2534557Y-51513740D01*
X2498271Y-51550025D01*
X2461985Y-51622597D01*
X2461985Y-51731454D01*
X2461985Y-50824311D02*
X2861128Y-50824311D01*
X2933700Y-50860597D01*
X2969985Y-50933168D01*
X2969985Y-51078311D01*
X2933700Y-51150882D01*
X2498271Y-50824311D02*
X2461985Y-50896882D01*
X2461985Y-51078311D01*
X2498271Y-51150882D01*
X2570842Y-51187168D01*
X2643414Y-51187168D01*
X2715985Y-51150882D01*
X2752271Y-51078311D01*
X2752271Y-50896882D01*
X2788557Y-50824311D01*
X2461985Y-50461454D02*
X2969985Y-50461454D01*
X2824842Y-50461454D02*
X2897414Y-50425168D01*
X2933700Y-50388882D01*
X2969985Y-50316311D01*
X2969985Y-50243740D01*
X2461985Y-49663168D02*
X3223985Y-49663168D01*
X2498271Y-49663168D02*
X2461985Y-49735740D01*
X2461985Y-49880882D01*
X2498271Y-49953454D01*
X2534557Y-49989740D01*
X2607128Y-50026025D01*
X2824842Y-50026025D01*
X2897414Y-49989740D01*
X2933700Y-49953454D01*
X2969985Y-49880882D01*
X2969985Y-49735740D01*
X2933700Y-49663168D01*
X1674585Y-62072882D02*
X1166585Y-61891454D01*
X1674585Y-61710025D01*
X1856014Y-61456025D02*
X1892300Y-61419740D01*
X1928585Y-61347168D01*
X1928585Y-61165740D01*
X1892300Y-61093168D01*
X1856014Y-61056882D01*
X1783442Y-61020597D01*
X1710871Y-61020597D01*
X1602014Y-61056882D01*
X1166585Y-61492311D01*
X1166585Y-61020597D01*
X1239157Y-60694025D02*
X1202871Y-60657740D01*
X1166585Y-60694025D01*
X1202871Y-60730311D01*
X1239157Y-60694025D01*
X1166585Y-60694025D01*
X1928585Y-60186025D02*
X1928585Y-60113454D01*
X1892300Y-60040882D01*
X1856014Y-60004597D01*
X1783442Y-59968311D01*
X1638300Y-59932025D01*
X1456871Y-59932025D01*
X1311728Y-59968311D01*
X1239157Y-60004597D01*
X1202871Y-60040882D01*
X1166585Y-60113454D01*
X1166585Y-60186025D01*
X1202871Y-60258597D01*
X1239157Y-60294882D01*
X1311728Y-60331168D01*
X1456871Y-60367454D01*
X1638300Y-60367454D01*
X1783442Y-60331168D01*
X1856014Y-60294882D01*
X1892300Y-60258597D01*
X1928585Y-60186025D01*
M02*
