G04 #@! TF.GenerationSoftware,KiCad,Pcbnew,(5.1.4-0-10_14)*
G04 #@! TF.CreationDate,2019-11-01T18:28:51-07:00*
G04 #@! TF.ProjectId,esp32-generic-board,65737033-322d-4676-956e-657269632d62,rev?*
G04 #@! TF.SameCoordinates,Original*
G04 #@! TF.FileFunction,Copper,L1,Top*
G04 #@! TF.FilePolarity,Positive*
%FSLAX46Y46*%
G04 Gerber Fmt 4.6, Leading zero omitted, Abs format (unit mm)*
G04 Created by KiCad (PCBNEW (5.1.4-0-10_14)) date 2019-11-01 18:28:51*
%MOMM*%
%LPD*%
G04 APERTURE LIST*
%ADD10R,1.700000X1.700000*%
%ADD11O,1.700000X1.700000*%
%ADD12C,1.400000*%
%ADD13R,0.300000X0.700000*%
%ADD14C,0.100000*%
%ADD15C,0.975000*%
%ADD16R,2.000000X3.500000*%
%ADD17R,2.000000X6.000000*%
%ADD18C,0.500000*%
%ADD19R,1.500000X1.000000*%
%ADD20R,1.903000X2.790000*%
%ADD21R,1.060000X0.650000*%
%ADD22R,1.651000X2.845000*%
%ADD23R,0.889000X0.305000*%
%ADD24R,1.750000X0.450000*%
%ADD25R,5.000000X5.000000*%
%ADD26R,2.000000X0.900000*%
%ADD27R,0.900000X2.000000*%
%ADD28C,0.800000*%
%ADD29C,0.508000*%
%ADD30C,0.381000*%
%ADD31C,0.254000*%
%ADD32C,0.406400*%
G04 APERTURE END LIST*
D10*
X1270000Y-1270000D03*
D11*
X1270000Y-3810000D03*
X1270000Y-6350000D03*
X1270000Y-8890000D03*
X1270000Y-11430000D03*
X1270000Y-13970000D03*
X1270000Y-16510000D03*
X1270000Y-19050000D03*
X1270000Y-21590000D03*
X1270000Y-24130000D03*
X1270000Y-26670000D03*
X1270000Y-29210000D03*
X1270000Y-31750000D03*
X1270000Y-34290000D03*
X1270000Y-36830000D03*
X1270000Y-39370000D03*
X1270000Y-41910000D03*
X1270000Y-44450000D03*
X1270000Y-46990000D03*
D12*
X13713500Y-54675000D03*
D13*
X15093500Y-52765000D03*
X15593500Y-52765000D03*
X16093500Y-52765000D03*
X16593500Y-52765000D03*
X17093500Y-52765000D03*
X17593500Y-52765000D03*
X18093500Y-52765000D03*
X20593500Y-52765000D03*
X19593500Y-52765000D03*
X19093500Y-52765000D03*
X18593500Y-52765000D03*
X20093500Y-52765000D03*
X20343500Y-54465000D03*
D12*
X21973500Y-54675000D03*
X22333500Y-60625000D03*
X13353500Y-60625000D03*
D13*
X19843500Y-54465000D03*
X19343500Y-54465000D03*
X18843500Y-54465000D03*
X18343500Y-54465000D03*
X17843500Y-54465000D03*
X17343500Y-54465000D03*
X16843500Y-54465000D03*
X16343500Y-54465000D03*
X15843500Y-54465000D03*
X15343500Y-54465000D03*
X14843500Y-54465000D03*
D11*
X24130000Y-1270000D03*
X24130000Y-3810000D03*
X24130000Y-6350000D03*
X24130000Y-8890000D03*
X24130000Y-11430000D03*
X24130000Y-13970000D03*
X24130000Y-16510000D03*
X24130000Y-19050000D03*
X24130000Y-21590000D03*
X24130000Y-24130000D03*
X24130000Y-26670000D03*
X24130000Y-29210000D03*
X24130000Y-31750000D03*
X24130000Y-34290000D03*
X24130000Y-36830000D03*
X24130000Y-39370000D03*
X24130000Y-41910000D03*
X24130000Y-44450000D03*
D10*
X24130000Y-46990000D03*
D14*
G36*
X21715642Y-37845674D02*
G01*
X21739303Y-37849184D01*
X21762507Y-37854996D01*
X21785029Y-37863054D01*
X21806653Y-37873282D01*
X21827170Y-37885579D01*
X21846383Y-37899829D01*
X21864107Y-37915893D01*
X21880171Y-37933617D01*
X21894421Y-37952830D01*
X21906718Y-37973347D01*
X21916946Y-37994971D01*
X21925004Y-38017493D01*
X21930816Y-38040697D01*
X21934326Y-38064358D01*
X21935500Y-38088250D01*
X21935500Y-39000750D01*
X21934326Y-39024642D01*
X21930816Y-39048303D01*
X21925004Y-39071507D01*
X21916946Y-39094029D01*
X21906718Y-39115653D01*
X21894421Y-39136170D01*
X21880171Y-39155383D01*
X21864107Y-39173107D01*
X21846383Y-39189171D01*
X21827170Y-39203421D01*
X21806653Y-39215718D01*
X21785029Y-39225946D01*
X21762507Y-39234004D01*
X21739303Y-39239816D01*
X21715642Y-39243326D01*
X21691750Y-39244500D01*
X21204250Y-39244500D01*
X21180358Y-39243326D01*
X21156697Y-39239816D01*
X21133493Y-39234004D01*
X21110971Y-39225946D01*
X21089347Y-39215718D01*
X21068830Y-39203421D01*
X21049617Y-39189171D01*
X21031893Y-39173107D01*
X21015829Y-39155383D01*
X21001579Y-39136170D01*
X20989282Y-39115653D01*
X20979054Y-39094029D01*
X20970996Y-39071507D01*
X20965184Y-39048303D01*
X20961674Y-39024642D01*
X20960500Y-39000750D01*
X20960500Y-38088250D01*
X20961674Y-38064358D01*
X20965184Y-38040697D01*
X20970996Y-38017493D01*
X20979054Y-37994971D01*
X20989282Y-37973347D01*
X21001579Y-37952830D01*
X21015829Y-37933617D01*
X21031893Y-37915893D01*
X21049617Y-37899829D01*
X21068830Y-37885579D01*
X21089347Y-37873282D01*
X21110971Y-37863054D01*
X21133493Y-37854996D01*
X21156697Y-37849184D01*
X21180358Y-37845674D01*
X21204250Y-37844500D01*
X21691750Y-37844500D01*
X21715642Y-37845674D01*
X21715642Y-37845674D01*
G37*
D15*
X21448000Y-38544500D03*
D14*
G36*
X19840642Y-37845674D02*
G01*
X19864303Y-37849184D01*
X19887507Y-37854996D01*
X19910029Y-37863054D01*
X19931653Y-37873282D01*
X19952170Y-37885579D01*
X19971383Y-37899829D01*
X19989107Y-37915893D01*
X20005171Y-37933617D01*
X20019421Y-37952830D01*
X20031718Y-37973347D01*
X20041946Y-37994971D01*
X20050004Y-38017493D01*
X20055816Y-38040697D01*
X20059326Y-38064358D01*
X20060500Y-38088250D01*
X20060500Y-39000750D01*
X20059326Y-39024642D01*
X20055816Y-39048303D01*
X20050004Y-39071507D01*
X20041946Y-39094029D01*
X20031718Y-39115653D01*
X20019421Y-39136170D01*
X20005171Y-39155383D01*
X19989107Y-39173107D01*
X19971383Y-39189171D01*
X19952170Y-39203421D01*
X19931653Y-39215718D01*
X19910029Y-39225946D01*
X19887507Y-39234004D01*
X19864303Y-39239816D01*
X19840642Y-39243326D01*
X19816750Y-39244500D01*
X19329250Y-39244500D01*
X19305358Y-39243326D01*
X19281697Y-39239816D01*
X19258493Y-39234004D01*
X19235971Y-39225946D01*
X19214347Y-39215718D01*
X19193830Y-39203421D01*
X19174617Y-39189171D01*
X19156893Y-39173107D01*
X19140829Y-39155383D01*
X19126579Y-39136170D01*
X19114282Y-39115653D01*
X19104054Y-39094029D01*
X19095996Y-39071507D01*
X19090184Y-39048303D01*
X19086674Y-39024642D01*
X19085500Y-39000750D01*
X19085500Y-38088250D01*
X19086674Y-38064358D01*
X19090184Y-38040697D01*
X19095996Y-38017493D01*
X19104054Y-37994971D01*
X19114282Y-37973347D01*
X19126579Y-37952830D01*
X19140829Y-37933617D01*
X19156893Y-37915893D01*
X19174617Y-37899829D01*
X19193830Y-37885579D01*
X19214347Y-37873282D01*
X19235971Y-37863054D01*
X19258493Y-37854996D01*
X19281697Y-37849184D01*
X19305358Y-37845674D01*
X19329250Y-37844500D01*
X19816750Y-37844500D01*
X19840642Y-37845674D01*
X19840642Y-37845674D01*
G37*
D15*
X19573000Y-38544500D03*
D14*
G36*
X6998642Y-27304674D02*
G01*
X7022303Y-27308184D01*
X7045507Y-27313996D01*
X7068029Y-27322054D01*
X7089653Y-27332282D01*
X7110170Y-27344579D01*
X7129383Y-27358829D01*
X7147107Y-27374893D01*
X7163171Y-27392617D01*
X7177421Y-27411830D01*
X7189718Y-27432347D01*
X7199946Y-27453971D01*
X7208004Y-27476493D01*
X7213816Y-27499697D01*
X7217326Y-27523358D01*
X7218500Y-27547250D01*
X7218500Y-28459750D01*
X7217326Y-28483642D01*
X7213816Y-28507303D01*
X7208004Y-28530507D01*
X7199946Y-28553029D01*
X7189718Y-28574653D01*
X7177421Y-28595170D01*
X7163171Y-28614383D01*
X7147107Y-28632107D01*
X7129383Y-28648171D01*
X7110170Y-28662421D01*
X7089653Y-28674718D01*
X7068029Y-28684946D01*
X7045507Y-28693004D01*
X7022303Y-28698816D01*
X6998642Y-28702326D01*
X6974750Y-28703500D01*
X6487250Y-28703500D01*
X6463358Y-28702326D01*
X6439697Y-28698816D01*
X6416493Y-28693004D01*
X6393971Y-28684946D01*
X6372347Y-28674718D01*
X6351830Y-28662421D01*
X6332617Y-28648171D01*
X6314893Y-28632107D01*
X6298829Y-28614383D01*
X6284579Y-28595170D01*
X6272282Y-28574653D01*
X6262054Y-28553029D01*
X6253996Y-28530507D01*
X6248184Y-28507303D01*
X6244674Y-28483642D01*
X6243500Y-28459750D01*
X6243500Y-27547250D01*
X6244674Y-27523358D01*
X6248184Y-27499697D01*
X6253996Y-27476493D01*
X6262054Y-27453971D01*
X6272282Y-27432347D01*
X6284579Y-27411830D01*
X6298829Y-27392617D01*
X6314893Y-27374893D01*
X6332617Y-27358829D01*
X6351830Y-27344579D01*
X6372347Y-27332282D01*
X6393971Y-27322054D01*
X6416493Y-27313996D01*
X6439697Y-27308184D01*
X6463358Y-27304674D01*
X6487250Y-27303500D01*
X6974750Y-27303500D01*
X6998642Y-27304674D01*
X6998642Y-27304674D01*
G37*
D15*
X6731000Y-28003500D03*
D14*
G36*
X5123642Y-27304674D02*
G01*
X5147303Y-27308184D01*
X5170507Y-27313996D01*
X5193029Y-27322054D01*
X5214653Y-27332282D01*
X5235170Y-27344579D01*
X5254383Y-27358829D01*
X5272107Y-27374893D01*
X5288171Y-27392617D01*
X5302421Y-27411830D01*
X5314718Y-27432347D01*
X5324946Y-27453971D01*
X5333004Y-27476493D01*
X5338816Y-27499697D01*
X5342326Y-27523358D01*
X5343500Y-27547250D01*
X5343500Y-28459750D01*
X5342326Y-28483642D01*
X5338816Y-28507303D01*
X5333004Y-28530507D01*
X5324946Y-28553029D01*
X5314718Y-28574653D01*
X5302421Y-28595170D01*
X5288171Y-28614383D01*
X5272107Y-28632107D01*
X5254383Y-28648171D01*
X5235170Y-28662421D01*
X5214653Y-28674718D01*
X5193029Y-28684946D01*
X5170507Y-28693004D01*
X5147303Y-28698816D01*
X5123642Y-28702326D01*
X5099750Y-28703500D01*
X4612250Y-28703500D01*
X4588358Y-28702326D01*
X4564697Y-28698816D01*
X4541493Y-28693004D01*
X4518971Y-28684946D01*
X4497347Y-28674718D01*
X4476830Y-28662421D01*
X4457617Y-28648171D01*
X4439893Y-28632107D01*
X4423829Y-28614383D01*
X4409579Y-28595170D01*
X4397282Y-28574653D01*
X4387054Y-28553029D01*
X4378996Y-28530507D01*
X4373184Y-28507303D01*
X4369674Y-28483642D01*
X4368500Y-28459750D01*
X4368500Y-27547250D01*
X4369674Y-27523358D01*
X4373184Y-27499697D01*
X4378996Y-27476493D01*
X4387054Y-27453971D01*
X4397282Y-27432347D01*
X4409579Y-27411830D01*
X4423829Y-27392617D01*
X4439893Y-27374893D01*
X4457617Y-27358829D01*
X4476830Y-27344579D01*
X4497347Y-27332282D01*
X4518971Y-27322054D01*
X4541493Y-27313996D01*
X4564697Y-27308184D01*
X4588358Y-27304674D01*
X4612250Y-27303500D01*
X5099750Y-27303500D01*
X5123642Y-27304674D01*
X5123642Y-27304674D01*
G37*
D15*
X4856000Y-28003500D03*
D14*
G36*
X8227142Y-22534174D02*
G01*
X8250803Y-22537684D01*
X8274007Y-22543496D01*
X8296529Y-22551554D01*
X8318153Y-22561782D01*
X8338670Y-22574079D01*
X8357883Y-22588329D01*
X8375607Y-22604393D01*
X8391671Y-22622117D01*
X8405921Y-22641330D01*
X8418218Y-22661847D01*
X8428446Y-22683471D01*
X8436504Y-22705993D01*
X8442316Y-22729197D01*
X8445826Y-22752858D01*
X8447000Y-22776750D01*
X8447000Y-23264250D01*
X8445826Y-23288142D01*
X8442316Y-23311803D01*
X8436504Y-23335007D01*
X8428446Y-23357529D01*
X8418218Y-23379153D01*
X8405921Y-23399670D01*
X8391671Y-23418883D01*
X8375607Y-23436607D01*
X8357883Y-23452671D01*
X8338670Y-23466921D01*
X8318153Y-23479218D01*
X8296529Y-23489446D01*
X8274007Y-23497504D01*
X8250803Y-23503316D01*
X8227142Y-23506826D01*
X8203250Y-23508000D01*
X7290750Y-23508000D01*
X7266858Y-23506826D01*
X7243197Y-23503316D01*
X7219993Y-23497504D01*
X7197471Y-23489446D01*
X7175847Y-23479218D01*
X7155330Y-23466921D01*
X7136117Y-23452671D01*
X7118393Y-23436607D01*
X7102329Y-23418883D01*
X7088079Y-23399670D01*
X7075782Y-23379153D01*
X7065554Y-23357529D01*
X7057496Y-23335007D01*
X7051684Y-23311803D01*
X7048174Y-23288142D01*
X7047000Y-23264250D01*
X7047000Y-22776750D01*
X7048174Y-22752858D01*
X7051684Y-22729197D01*
X7057496Y-22705993D01*
X7065554Y-22683471D01*
X7075782Y-22661847D01*
X7088079Y-22641330D01*
X7102329Y-22622117D01*
X7118393Y-22604393D01*
X7136117Y-22588329D01*
X7155330Y-22574079D01*
X7175847Y-22561782D01*
X7197471Y-22551554D01*
X7219993Y-22543496D01*
X7243197Y-22537684D01*
X7266858Y-22534174D01*
X7290750Y-22533000D01*
X8203250Y-22533000D01*
X8227142Y-22534174D01*
X8227142Y-22534174D01*
G37*
D15*
X7747000Y-23020500D03*
D14*
G36*
X8227142Y-20659174D02*
G01*
X8250803Y-20662684D01*
X8274007Y-20668496D01*
X8296529Y-20676554D01*
X8318153Y-20686782D01*
X8338670Y-20699079D01*
X8357883Y-20713329D01*
X8375607Y-20729393D01*
X8391671Y-20747117D01*
X8405921Y-20766330D01*
X8418218Y-20786847D01*
X8428446Y-20808471D01*
X8436504Y-20830993D01*
X8442316Y-20854197D01*
X8445826Y-20877858D01*
X8447000Y-20901750D01*
X8447000Y-21389250D01*
X8445826Y-21413142D01*
X8442316Y-21436803D01*
X8436504Y-21460007D01*
X8428446Y-21482529D01*
X8418218Y-21504153D01*
X8405921Y-21524670D01*
X8391671Y-21543883D01*
X8375607Y-21561607D01*
X8357883Y-21577671D01*
X8338670Y-21591921D01*
X8318153Y-21604218D01*
X8296529Y-21614446D01*
X8274007Y-21622504D01*
X8250803Y-21628316D01*
X8227142Y-21631826D01*
X8203250Y-21633000D01*
X7290750Y-21633000D01*
X7266858Y-21631826D01*
X7243197Y-21628316D01*
X7219993Y-21622504D01*
X7197471Y-21614446D01*
X7175847Y-21604218D01*
X7155330Y-21591921D01*
X7136117Y-21577671D01*
X7118393Y-21561607D01*
X7102329Y-21543883D01*
X7088079Y-21524670D01*
X7075782Y-21504153D01*
X7065554Y-21482529D01*
X7057496Y-21460007D01*
X7051684Y-21436803D01*
X7048174Y-21413142D01*
X7047000Y-21389250D01*
X7047000Y-20901750D01*
X7048174Y-20877858D01*
X7051684Y-20854197D01*
X7057496Y-20830993D01*
X7065554Y-20808471D01*
X7075782Y-20786847D01*
X7088079Y-20766330D01*
X7102329Y-20747117D01*
X7118393Y-20729393D01*
X7136117Y-20713329D01*
X7155330Y-20699079D01*
X7175847Y-20686782D01*
X7197471Y-20676554D01*
X7219993Y-20668496D01*
X7243197Y-20662684D01*
X7266858Y-20659174D01*
X7290750Y-20658000D01*
X8203250Y-20658000D01*
X8227142Y-20659174D01*
X8227142Y-20659174D01*
G37*
D15*
X7747000Y-21145500D03*
D14*
G36*
X5030142Y-33464174D02*
G01*
X5053803Y-33467684D01*
X5077007Y-33473496D01*
X5099529Y-33481554D01*
X5121153Y-33491782D01*
X5141670Y-33504079D01*
X5160883Y-33518329D01*
X5178607Y-33534393D01*
X5194671Y-33552117D01*
X5208921Y-33571330D01*
X5221218Y-33591847D01*
X5231446Y-33613471D01*
X5239504Y-33635993D01*
X5245316Y-33659197D01*
X5248826Y-33682858D01*
X5250000Y-33706750D01*
X5250000Y-34619250D01*
X5248826Y-34643142D01*
X5245316Y-34666803D01*
X5239504Y-34690007D01*
X5231446Y-34712529D01*
X5221218Y-34734153D01*
X5208921Y-34754670D01*
X5194671Y-34773883D01*
X5178607Y-34791607D01*
X5160883Y-34807671D01*
X5141670Y-34821921D01*
X5121153Y-34834218D01*
X5099529Y-34844446D01*
X5077007Y-34852504D01*
X5053803Y-34858316D01*
X5030142Y-34861826D01*
X5006250Y-34863000D01*
X4518750Y-34863000D01*
X4494858Y-34861826D01*
X4471197Y-34858316D01*
X4447993Y-34852504D01*
X4425471Y-34844446D01*
X4403847Y-34834218D01*
X4383330Y-34821921D01*
X4364117Y-34807671D01*
X4346393Y-34791607D01*
X4330329Y-34773883D01*
X4316079Y-34754670D01*
X4303782Y-34734153D01*
X4293554Y-34712529D01*
X4285496Y-34690007D01*
X4279684Y-34666803D01*
X4276174Y-34643142D01*
X4275000Y-34619250D01*
X4275000Y-33706750D01*
X4276174Y-33682858D01*
X4279684Y-33659197D01*
X4285496Y-33635993D01*
X4293554Y-33613471D01*
X4303782Y-33591847D01*
X4316079Y-33571330D01*
X4330329Y-33552117D01*
X4346393Y-33534393D01*
X4364117Y-33518329D01*
X4383330Y-33504079D01*
X4403847Y-33491782D01*
X4425471Y-33481554D01*
X4447993Y-33473496D01*
X4471197Y-33467684D01*
X4494858Y-33464174D01*
X4518750Y-33463000D01*
X5006250Y-33463000D01*
X5030142Y-33464174D01*
X5030142Y-33464174D01*
G37*
D15*
X4762500Y-34163000D03*
D14*
G36*
X6905142Y-33464174D02*
G01*
X6928803Y-33467684D01*
X6952007Y-33473496D01*
X6974529Y-33481554D01*
X6996153Y-33491782D01*
X7016670Y-33504079D01*
X7035883Y-33518329D01*
X7053607Y-33534393D01*
X7069671Y-33552117D01*
X7083921Y-33571330D01*
X7096218Y-33591847D01*
X7106446Y-33613471D01*
X7114504Y-33635993D01*
X7120316Y-33659197D01*
X7123826Y-33682858D01*
X7125000Y-33706750D01*
X7125000Y-34619250D01*
X7123826Y-34643142D01*
X7120316Y-34666803D01*
X7114504Y-34690007D01*
X7106446Y-34712529D01*
X7096218Y-34734153D01*
X7083921Y-34754670D01*
X7069671Y-34773883D01*
X7053607Y-34791607D01*
X7035883Y-34807671D01*
X7016670Y-34821921D01*
X6996153Y-34834218D01*
X6974529Y-34844446D01*
X6952007Y-34852504D01*
X6928803Y-34858316D01*
X6905142Y-34861826D01*
X6881250Y-34863000D01*
X6393750Y-34863000D01*
X6369858Y-34861826D01*
X6346197Y-34858316D01*
X6322993Y-34852504D01*
X6300471Y-34844446D01*
X6278847Y-34834218D01*
X6258330Y-34821921D01*
X6239117Y-34807671D01*
X6221393Y-34791607D01*
X6205329Y-34773883D01*
X6191079Y-34754670D01*
X6178782Y-34734153D01*
X6168554Y-34712529D01*
X6160496Y-34690007D01*
X6154684Y-34666803D01*
X6151174Y-34643142D01*
X6150000Y-34619250D01*
X6150000Y-33706750D01*
X6151174Y-33682858D01*
X6154684Y-33659197D01*
X6160496Y-33635993D01*
X6168554Y-33613471D01*
X6178782Y-33591847D01*
X6191079Y-33571330D01*
X6205329Y-33552117D01*
X6221393Y-33534393D01*
X6239117Y-33518329D01*
X6258330Y-33504079D01*
X6278847Y-33491782D01*
X6300471Y-33481554D01*
X6322993Y-33473496D01*
X6346197Y-33467684D01*
X6369858Y-33464174D01*
X6393750Y-33463000D01*
X6881250Y-33463000D01*
X6905142Y-33464174D01*
X6905142Y-33464174D01*
G37*
D15*
X6637500Y-34163000D03*
D14*
G36*
X10449642Y-22500674D02*
G01*
X10473303Y-22504184D01*
X10496507Y-22509996D01*
X10519029Y-22518054D01*
X10540653Y-22528282D01*
X10561170Y-22540579D01*
X10580383Y-22554829D01*
X10598107Y-22570893D01*
X10614171Y-22588617D01*
X10628421Y-22607830D01*
X10640718Y-22628347D01*
X10650946Y-22649971D01*
X10659004Y-22672493D01*
X10664816Y-22695697D01*
X10668326Y-22719358D01*
X10669500Y-22743250D01*
X10669500Y-23230750D01*
X10668326Y-23254642D01*
X10664816Y-23278303D01*
X10659004Y-23301507D01*
X10650946Y-23324029D01*
X10640718Y-23345653D01*
X10628421Y-23366170D01*
X10614171Y-23385383D01*
X10598107Y-23403107D01*
X10580383Y-23419171D01*
X10561170Y-23433421D01*
X10540653Y-23445718D01*
X10519029Y-23455946D01*
X10496507Y-23464004D01*
X10473303Y-23469816D01*
X10449642Y-23473326D01*
X10425750Y-23474500D01*
X9513250Y-23474500D01*
X9489358Y-23473326D01*
X9465697Y-23469816D01*
X9442493Y-23464004D01*
X9419971Y-23455946D01*
X9398347Y-23445718D01*
X9377830Y-23433421D01*
X9358617Y-23419171D01*
X9340893Y-23403107D01*
X9324829Y-23385383D01*
X9310579Y-23366170D01*
X9298282Y-23345653D01*
X9288054Y-23324029D01*
X9279996Y-23301507D01*
X9274184Y-23278303D01*
X9270674Y-23254642D01*
X9269500Y-23230750D01*
X9269500Y-22743250D01*
X9270674Y-22719358D01*
X9274184Y-22695697D01*
X9279996Y-22672493D01*
X9288054Y-22649971D01*
X9298282Y-22628347D01*
X9310579Y-22607830D01*
X9324829Y-22588617D01*
X9340893Y-22570893D01*
X9358617Y-22554829D01*
X9377830Y-22540579D01*
X9398347Y-22528282D01*
X9419971Y-22518054D01*
X9442493Y-22509996D01*
X9465697Y-22504184D01*
X9489358Y-22500674D01*
X9513250Y-22499500D01*
X10425750Y-22499500D01*
X10449642Y-22500674D01*
X10449642Y-22500674D01*
G37*
D15*
X9969500Y-22987000D03*
D14*
G36*
X10449642Y-20625674D02*
G01*
X10473303Y-20629184D01*
X10496507Y-20634996D01*
X10519029Y-20643054D01*
X10540653Y-20653282D01*
X10561170Y-20665579D01*
X10580383Y-20679829D01*
X10598107Y-20695893D01*
X10614171Y-20713617D01*
X10628421Y-20732830D01*
X10640718Y-20753347D01*
X10650946Y-20774971D01*
X10659004Y-20797493D01*
X10664816Y-20820697D01*
X10668326Y-20844358D01*
X10669500Y-20868250D01*
X10669500Y-21355750D01*
X10668326Y-21379642D01*
X10664816Y-21403303D01*
X10659004Y-21426507D01*
X10650946Y-21449029D01*
X10640718Y-21470653D01*
X10628421Y-21491170D01*
X10614171Y-21510383D01*
X10598107Y-21528107D01*
X10580383Y-21544171D01*
X10561170Y-21558421D01*
X10540653Y-21570718D01*
X10519029Y-21580946D01*
X10496507Y-21589004D01*
X10473303Y-21594816D01*
X10449642Y-21598326D01*
X10425750Y-21599500D01*
X9513250Y-21599500D01*
X9489358Y-21598326D01*
X9465697Y-21594816D01*
X9442493Y-21589004D01*
X9419971Y-21580946D01*
X9398347Y-21570718D01*
X9377830Y-21558421D01*
X9358617Y-21544171D01*
X9340893Y-21528107D01*
X9324829Y-21510383D01*
X9310579Y-21491170D01*
X9298282Y-21470653D01*
X9288054Y-21449029D01*
X9279996Y-21426507D01*
X9274184Y-21403303D01*
X9270674Y-21379642D01*
X9269500Y-21355750D01*
X9269500Y-20868250D01*
X9270674Y-20844358D01*
X9274184Y-20820697D01*
X9279996Y-20797493D01*
X9288054Y-20774971D01*
X9298282Y-20753347D01*
X9310579Y-20732830D01*
X9324829Y-20713617D01*
X9340893Y-20695893D01*
X9358617Y-20679829D01*
X9377830Y-20665579D01*
X9398347Y-20653282D01*
X9419971Y-20643054D01*
X9442493Y-20634996D01*
X9465697Y-20629184D01*
X9489358Y-20625674D01*
X9513250Y-20624500D01*
X10425750Y-20624500D01*
X10449642Y-20625674D01*
X10449642Y-20625674D01*
G37*
D15*
X9969500Y-21112000D03*
D14*
G36*
X5306142Y-40090174D02*
G01*
X5329803Y-40093684D01*
X5353007Y-40099496D01*
X5375529Y-40107554D01*
X5397153Y-40117782D01*
X5417670Y-40130079D01*
X5436883Y-40144329D01*
X5454607Y-40160393D01*
X5470671Y-40178117D01*
X5484921Y-40197330D01*
X5497218Y-40217847D01*
X5507446Y-40239471D01*
X5515504Y-40261993D01*
X5521316Y-40285197D01*
X5524826Y-40308858D01*
X5526000Y-40332750D01*
X5526000Y-40820250D01*
X5524826Y-40844142D01*
X5521316Y-40867803D01*
X5515504Y-40891007D01*
X5507446Y-40913529D01*
X5497218Y-40935153D01*
X5484921Y-40955670D01*
X5470671Y-40974883D01*
X5454607Y-40992607D01*
X5436883Y-41008671D01*
X5417670Y-41022921D01*
X5397153Y-41035218D01*
X5375529Y-41045446D01*
X5353007Y-41053504D01*
X5329803Y-41059316D01*
X5306142Y-41062826D01*
X5282250Y-41064000D01*
X4369750Y-41064000D01*
X4345858Y-41062826D01*
X4322197Y-41059316D01*
X4298993Y-41053504D01*
X4276471Y-41045446D01*
X4254847Y-41035218D01*
X4234330Y-41022921D01*
X4215117Y-41008671D01*
X4197393Y-40992607D01*
X4181329Y-40974883D01*
X4167079Y-40955670D01*
X4154782Y-40935153D01*
X4144554Y-40913529D01*
X4136496Y-40891007D01*
X4130684Y-40867803D01*
X4127174Y-40844142D01*
X4126000Y-40820250D01*
X4126000Y-40332750D01*
X4127174Y-40308858D01*
X4130684Y-40285197D01*
X4136496Y-40261993D01*
X4144554Y-40239471D01*
X4154782Y-40217847D01*
X4167079Y-40197330D01*
X4181329Y-40178117D01*
X4197393Y-40160393D01*
X4215117Y-40144329D01*
X4234330Y-40130079D01*
X4254847Y-40117782D01*
X4276471Y-40107554D01*
X4298993Y-40099496D01*
X4322197Y-40093684D01*
X4345858Y-40090174D01*
X4369750Y-40089000D01*
X5282250Y-40089000D01*
X5306142Y-40090174D01*
X5306142Y-40090174D01*
G37*
D15*
X4826000Y-40576500D03*
D14*
G36*
X5306142Y-41965174D02*
G01*
X5329803Y-41968684D01*
X5353007Y-41974496D01*
X5375529Y-41982554D01*
X5397153Y-41992782D01*
X5417670Y-42005079D01*
X5436883Y-42019329D01*
X5454607Y-42035393D01*
X5470671Y-42053117D01*
X5484921Y-42072330D01*
X5497218Y-42092847D01*
X5507446Y-42114471D01*
X5515504Y-42136993D01*
X5521316Y-42160197D01*
X5524826Y-42183858D01*
X5526000Y-42207750D01*
X5526000Y-42695250D01*
X5524826Y-42719142D01*
X5521316Y-42742803D01*
X5515504Y-42766007D01*
X5507446Y-42788529D01*
X5497218Y-42810153D01*
X5484921Y-42830670D01*
X5470671Y-42849883D01*
X5454607Y-42867607D01*
X5436883Y-42883671D01*
X5417670Y-42897921D01*
X5397153Y-42910218D01*
X5375529Y-42920446D01*
X5353007Y-42928504D01*
X5329803Y-42934316D01*
X5306142Y-42937826D01*
X5282250Y-42939000D01*
X4369750Y-42939000D01*
X4345858Y-42937826D01*
X4322197Y-42934316D01*
X4298993Y-42928504D01*
X4276471Y-42920446D01*
X4254847Y-42910218D01*
X4234330Y-42897921D01*
X4215117Y-42883671D01*
X4197393Y-42867607D01*
X4181329Y-42849883D01*
X4167079Y-42830670D01*
X4154782Y-42810153D01*
X4144554Y-42788529D01*
X4136496Y-42766007D01*
X4130684Y-42742803D01*
X4127174Y-42719142D01*
X4126000Y-42695250D01*
X4126000Y-42207750D01*
X4127174Y-42183858D01*
X4130684Y-42160197D01*
X4136496Y-42136993D01*
X4144554Y-42114471D01*
X4154782Y-42092847D01*
X4167079Y-42072330D01*
X4181329Y-42053117D01*
X4197393Y-42035393D01*
X4215117Y-42019329D01*
X4234330Y-42005079D01*
X4254847Y-41992782D01*
X4276471Y-41982554D01*
X4298993Y-41974496D01*
X4322197Y-41968684D01*
X4345858Y-41965174D01*
X4369750Y-41964000D01*
X5282250Y-41964000D01*
X5306142Y-41965174D01*
X5306142Y-41965174D01*
G37*
D15*
X4826000Y-42451500D03*
D14*
G36*
X18958642Y-20625674D02*
G01*
X18982303Y-20629184D01*
X19005507Y-20634996D01*
X19028029Y-20643054D01*
X19049653Y-20653282D01*
X19070170Y-20665579D01*
X19089383Y-20679829D01*
X19107107Y-20695893D01*
X19123171Y-20713617D01*
X19137421Y-20732830D01*
X19149718Y-20753347D01*
X19159946Y-20774971D01*
X19168004Y-20797493D01*
X19173816Y-20820697D01*
X19177326Y-20844358D01*
X19178500Y-20868250D01*
X19178500Y-21355750D01*
X19177326Y-21379642D01*
X19173816Y-21403303D01*
X19168004Y-21426507D01*
X19159946Y-21449029D01*
X19149718Y-21470653D01*
X19137421Y-21491170D01*
X19123171Y-21510383D01*
X19107107Y-21528107D01*
X19089383Y-21544171D01*
X19070170Y-21558421D01*
X19049653Y-21570718D01*
X19028029Y-21580946D01*
X19005507Y-21589004D01*
X18982303Y-21594816D01*
X18958642Y-21598326D01*
X18934750Y-21599500D01*
X18022250Y-21599500D01*
X17998358Y-21598326D01*
X17974697Y-21594816D01*
X17951493Y-21589004D01*
X17928971Y-21580946D01*
X17907347Y-21570718D01*
X17886830Y-21558421D01*
X17867617Y-21544171D01*
X17849893Y-21528107D01*
X17833829Y-21510383D01*
X17819579Y-21491170D01*
X17807282Y-21470653D01*
X17797054Y-21449029D01*
X17788996Y-21426507D01*
X17783184Y-21403303D01*
X17779674Y-21379642D01*
X17778500Y-21355750D01*
X17778500Y-20868250D01*
X17779674Y-20844358D01*
X17783184Y-20820697D01*
X17788996Y-20797493D01*
X17797054Y-20774971D01*
X17807282Y-20753347D01*
X17819579Y-20732830D01*
X17833829Y-20713617D01*
X17849893Y-20695893D01*
X17867617Y-20679829D01*
X17886830Y-20665579D01*
X17907347Y-20653282D01*
X17928971Y-20643054D01*
X17951493Y-20634996D01*
X17974697Y-20629184D01*
X17998358Y-20625674D01*
X18022250Y-20624500D01*
X18934750Y-20624500D01*
X18958642Y-20625674D01*
X18958642Y-20625674D01*
G37*
D15*
X18478500Y-21112000D03*
D14*
G36*
X18958642Y-22500674D02*
G01*
X18982303Y-22504184D01*
X19005507Y-22509996D01*
X19028029Y-22518054D01*
X19049653Y-22528282D01*
X19070170Y-22540579D01*
X19089383Y-22554829D01*
X19107107Y-22570893D01*
X19123171Y-22588617D01*
X19137421Y-22607830D01*
X19149718Y-22628347D01*
X19159946Y-22649971D01*
X19168004Y-22672493D01*
X19173816Y-22695697D01*
X19177326Y-22719358D01*
X19178500Y-22743250D01*
X19178500Y-23230750D01*
X19177326Y-23254642D01*
X19173816Y-23278303D01*
X19168004Y-23301507D01*
X19159946Y-23324029D01*
X19149718Y-23345653D01*
X19137421Y-23366170D01*
X19123171Y-23385383D01*
X19107107Y-23403107D01*
X19089383Y-23419171D01*
X19070170Y-23433421D01*
X19049653Y-23445718D01*
X19028029Y-23455946D01*
X19005507Y-23464004D01*
X18982303Y-23469816D01*
X18958642Y-23473326D01*
X18934750Y-23474500D01*
X18022250Y-23474500D01*
X17998358Y-23473326D01*
X17974697Y-23469816D01*
X17951493Y-23464004D01*
X17928971Y-23455946D01*
X17907347Y-23445718D01*
X17886830Y-23433421D01*
X17867617Y-23419171D01*
X17849893Y-23403107D01*
X17833829Y-23385383D01*
X17819579Y-23366170D01*
X17807282Y-23345653D01*
X17797054Y-23324029D01*
X17788996Y-23301507D01*
X17783184Y-23278303D01*
X17779674Y-23254642D01*
X17778500Y-23230750D01*
X17778500Y-22743250D01*
X17779674Y-22719358D01*
X17783184Y-22695697D01*
X17788996Y-22672493D01*
X17797054Y-22649971D01*
X17807282Y-22628347D01*
X17819579Y-22607830D01*
X17833829Y-22588617D01*
X17849893Y-22570893D01*
X17867617Y-22554829D01*
X17886830Y-22540579D01*
X17907347Y-22528282D01*
X17928971Y-22518054D01*
X17951493Y-22509996D01*
X17974697Y-22504184D01*
X17998358Y-22500674D01*
X18022250Y-22499500D01*
X18934750Y-22499500D01*
X18958642Y-22500674D01*
X18958642Y-22500674D01*
G37*
D15*
X18478500Y-22987000D03*
D14*
G36*
X16482142Y-22485674D02*
G01*
X16505803Y-22489184D01*
X16529007Y-22494996D01*
X16551529Y-22503054D01*
X16573153Y-22513282D01*
X16593670Y-22525579D01*
X16612883Y-22539829D01*
X16630607Y-22555893D01*
X16646671Y-22573617D01*
X16660921Y-22592830D01*
X16673218Y-22613347D01*
X16683446Y-22634971D01*
X16691504Y-22657493D01*
X16697316Y-22680697D01*
X16700826Y-22704358D01*
X16702000Y-22728250D01*
X16702000Y-23215750D01*
X16700826Y-23239642D01*
X16697316Y-23263303D01*
X16691504Y-23286507D01*
X16683446Y-23309029D01*
X16673218Y-23330653D01*
X16660921Y-23351170D01*
X16646671Y-23370383D01*
X16630607Y-23388107D01*
X16612883Y-23404171D01*
X16593670Y-23418421D01*
X16573153Y-23430718D01*
X16551529Y-23440946D01*
X16529007Y-23449004D01*
X16505803Y-23454816D01*
X16482142Y-23458326D01*
X16458250Y-23459500D01*
X15545750Y-23459500D01*
X15521858Y-23458326D01*
X15498197Y-23454816D01*
X15474993Y-23449004D01*
X15452471Y-23440946D01*
X15430847Y-23430718D01*
X15410330Y-23418421D01*
X15391117Y-23404171D01*
X15373393Y-23388107D01*
X15357329Y-23370383D01*
X15343079Y-23351170D01*
X15330782Y-23330653D01*
X15320554Y-23309029D01*
X15312496Y-23286507D01*
X15306684Y-23263303D01*
X15303174Y-23239642D01*
X15302000Y-23215750D01*
X15302000Y-22728250D01*
X15303174Y-22704358D01*
X15306684Y-22680697D01*
X15312496Y-22657493D01*
X15320554Y-22634971D01*
X15330782Y-22613347D01*
X15343079Y-22592830D01*
X15357329Y-22573617D01*
X15373393Y-22555893D01*
X15391117Y-22539829D01*
X15410330Y-22525579D01*
X15430847Y-22513282D01*
X15452471Y-22503054D01*
X15474993Y-22494996D01*
X15498197Y-22489184D01*
X15521858Y-22485674D01*
X15545750Y-22484500D01*
X16458250Y-22484500D01*
X16482142Y-22485674D01*
X16482142Y-22485674D01*
G37*
D15*
X16002000Y-22972000D03*
D14*
G36*
X16482142Y-20610674D02*
G01*
X16505803Y-20614184D01*
X16529007Y-20619996D01*
X16551529Y-20628054D01*
X16573153Y-20638282D01*
X16593670Y-20650579D01*
X16612883Y-20664829D01*
X16630607Y-20680893D01*
X16646671Y-20698617D01*
X16660921Y-20717830D01*
X16673218Y-20738347D01*
X16683446Y-20759971D01*
X16691504Y-20782493D01*
X16697316Y-20805697D01*
X16700826Y-20829358D01*
X16702000Y-20853250D01*
X16702000Y-21340750D01*
X16700826Y-21364642D01*
X16697316Y-21388303D01*
X16691504Y-21411507D01*
X16683446Y-21434029D01*
X16673218Y-21455653D01*
X16660921Y-21476170D01*
X16646671Y-21495383D01*
X16630607Y-21513107D01*
X16612883Y-21529171D01*
X16593670Y-21543421D01*
X16573153Y-21555718D01*
X16551529Y-21565946D01*
X16529007Y-21574004D01*
X16505803Y-21579816D01*
X16482142Y-21583326D01*
X16458250Y-21584500D01*
X15545750Y-21584500D01*
X15521858Y-21583326D01*
X15498197Y-21579816D01*
X15474993Y-21574004D01*
X15452471Y-21565946D01*
X15430847Y-21555718D01*
X15410330Y-21543421D01*
X15391117Y-21529171D01*
X15373393Y-21513107D01*
X15357329Y-21495383D01*
X15343079Y-21476170D01*
X15330782Y-21455653D01*
X15320554Y-21434029D01*
X15312496Y-21411507D01*
X15306684Y-21388303D01*
X15303174Y-21364642D01*
X15302000Y-21340750D01*
X15302000Y-20853250D01*
X15303174Y-20829358D01*
X15306684Y-20805697D01*
X15312496Y-20782493D01*
X15320554Y-20759971D01*
X15330782Y-20738347D01*
X15343079Y-20717830D01*
X15357329Y-20698617D01*
X15373393Y-20680893D01*
X15391117Y-20664829D01*
X15410330Y-20650579D01*
X15430847Y-20638282D01*
X15452471Y-20628054D01*
X15474993Y-20619996D01*
X15498197Y-20614184D01*
X15521858Y-20610674D01*
X15545750Y-20609500D01*
X16458250Y-20609500D01*
X16482142Y-20610674D01*
X16482142Y-20610674D01*
G37*
D15*
X16002000Y-21097000D03*
D16*
X4398000Y-61526000D03*
D17*
X4398000Y-52276000D03*
D16*
X8398000Y-61526000D03*
D17*
X8398000Y-52276000D03*
D18*
X10033000Y-35496500D03*
D14*
G36*
X10783000Y-34946500D02*
G01*
X10783000Y-35496500D01*
X10782398Y-35496500D01*
X10782398Y-35521034D01*
X10777588Y-35569865D01*
X10768016Y-35617990D01*
X10753772Y-35664945D01*
X10734995Y-35710278D01*
X10711864Y-35753551D01*
X10684604Y-35794350D01*
X10653476Y-35832279D01*
X10618779Y-35866976D01*
X10580850Y-35898104D01*
X10540051Y-35925364D01*
X10496778Y-35948495D01*
X10451445Y-35967272D01*
X10404490Y-35981516D01*
X10356365Y-35991088D01*
X10307534Y-35995898D01*
X10283000Y-35995898D01*
X10283000Y-35996500D01*
X9783000Y-35996500D01*
X9783000Y-35995898D01*
X9758466Y-35995898D01*
X9709635Y-35991088D01*
X9661510Y-35981516D01*
X9614555Y-35967272D01*
X9569222Y-35948495D01*
X9525949Y-35925364D01*
X9485150Y-35898104D01*
X9447221Y-35866976D01*
X9412524Y-35832279D01*
X9381396Y-35794350D01*
X9354136Y-35753551D01*
X9331005Y-35710278D01*
X9312228Y-35664945D01*
X9297984Y-35617990D01*
X9288412Y-35569865D01*
X9283602Y-35521034D01*
X9283602Y-35496500D01*
X9283000Y-35496500D01*
X9283000Y-34946500D01*
X10783000Y-34946500D01*
X10783000Y-34946500D01*
G37*
D18*
X10033000Y-32896500D03*
D14*
G36*
X9283602Y-32896500D02*
G01*
X9283602Y-32871966D01*
X9288412Y-32823135D01*
X9297984Y-32775010D01*
X9312228Y-32728055D01*
X9331005Y-32682722D01*
X9354136Y-32639449D01*
X9381396Y-32598650D01*
X9412524Y-32560721D01*
X9447221Y-32526024D01*
X9485150Y-32494896D01*
X9525949Y-32467636D01*
X9569222Y-32444505D01*
X9614555Y-32425728D01*
X9661510Y-32411484D01*
X9709635Y-32401912D01*
X9758466Y-32397102D01*
X9783000Y-32397102D01*
X9783000Y-32396500D01*
X10283000Y-32396500D01*
X10283000Y-32397102D01*
X10307534Y-32397102D01*
X10356365Y-32401912D01*
X10404490Y-32411484D01*
X10451445Y-32425728D01*
X10496778Y-32444505D01*
X10540051Y-32467636D01*
X10580850Y-32494896D01*
X10618779Y-32526024D01*
X10653476Y-32560721D01*
X10684604Y-32598650D01*
X10711864Y-32639449D01*
X10734995Y-32682722D01*
X10753772Y-32728055D01*
X10768016Y-32775010D01*
X10777588Y-32823135D01*
X10782398Y-32871966D01*
X10782398Y-32896500D01*
X10783000Y-32896500D01*
X10783000Y-33446500D01*
X9283000Y-33446500D01*
X9283000Y-32896500D01*
X9283602Y-32896500D01*
X9283602Y-32896500D01*
G37*
D19*
X10033000Y-34196500D03*
D20*
X16242500Y-42672000D03*
X21095500Y-42672000D03*
D14*
G36*
X14364642Y-50164674D02*
G01*
X14388303Y-50168184D01*
X14411507Y-50173996D01*
X14434029Y-50182054D01*
X14455653Y-50192282D01*
X14476170Y-50204579D01*
X14495383Y-50218829D01*
X14513107Y-50234893D01*
X14529171Y-50252617D01*
X14543421Y-50271830D01*
X14555718Y-50292347D01*
X14565946Y-50313971D01*
X14574004Y-50336493D01*
X14579816Y-50359697D01*
X14583326Y-50383358D01*
X14584500Y-50407250D01*
X14584500Y-51319750D01*
X14583326Y-51343642D01*
X14579816Y-51367303D01*
X14574004Y-51390507D01*
X14565946Y-51413029D01*
X14555718Y-51434653D01*
X14543421Y-51455170D01*
X14529171Y-51474383D01*
X14513107Y-51492107D01*
X14495383Y-51508171D01*
X14476170Y-51522421D01*
X14455653Y-51534718D01*
X14434029Y-51544946D01*
X14411507Y-51553004D01*
X14388303Y-51558816D01*
X14364642Y-51562326D01*
X14340750Y-51563500D01*
X13853250Y-51563500D01*
X13829358Y-51562326D01*
X13805697Y-51558816D01*
X13782493Y-51553004D01*
X13759971Y-51544946D01*
X13738347Y-51534718D01*
X13717830Y-51522421D01*
X13698617Y-51508171D01*
X13680893Y-51492107D01*
X13664829Y-51474383D01*
X13650579Y-51455170D01*
X13638282Y-51434653D01*
X13628054Y-51413029D01*
X13619996Y-51390507D01*
X13614184Y-51367303D01*
X13610674Y-51343642D01*
X13609500Y-51319750D01*
X13609500Y-50407250D01*
X13610674Y-50383358D01*
X13614184Y-50359697D01*
X13619996Y-50336493D01*
X13628054Y-50313971D01*
X13638282Y-50292347D01*
X13650579Y-50271830D01*
X13664829Y-50252617D01*
X13680893Y-50234893D01*
X13698617Y-50218829D01*
X13717830Y-50204579D01*
X13738347Y-50192282D01*
X13759971Y-50182054D01*
X13782493Y-50173996D01*
X13805697Y-50168184D01*
X13829358Y-50164674D01*
X13853250Y-50163500D01*
X14340750Y-50163500D01*
X14364642Y-50164674D01*
X14364642Y-50164674D01*
G37*
D15*
X14097000Y-50863500D03*
D14*
G36*
X16239642Y-50164674D02*
G01*
X16263303Y-50168184D01*
X16286507Y-50173996D01*
X16309029Y-50182054D01*
X16330653Y-50192282D01*
X16351170Y-50204579D01*
X16370383Y-50218829D01*
X16388107Y-50234893D01*
X16404171Y-50252617D01*
X16418421Y-50271830D01*
X16430718Y-50292347D01*
X16440946Y-50313971D01*
X16449004Y-50336493D01*
X16454816Y-50359697D01*
X16458326Y-50383358D01*
X16459500Y-50407250D01*
X16459500Y-51319750D01*
X16458326Y-51343642D01*
X16454816Y-51367303D01*
X16449004Y-51390507D01*
X16440946Y-51413029D01*
X16430718Y-51434653D01*
X16418421Y-51455170D01*
X16404171Y-51474383D01*
X16388107Y-51492107D01*
X16370383Y-51508171D01*
X16351170Y-51522421D01*
X16330653Y-51534718D01*
X16309029Y-51544946D01*
X16286507Y-51553004D01*
X16263303Y-51558816D01*
X16239642Y-51562326D01*
X16215750Y-51563500D01*
X15728250Y-51563500D01*
X15704358Y-51562326D01*
X15680697Y-51558816D01*
X15657493Y-51553004D01*
X15634971Y-51544946D01*
X15613347Y-51534718D01*
X15592830Y-51522421D01*
X15573617Y-51508171D01*
X15555893Y-51492107D01*
X15539829Y-51474383D01*
X15525579Y-51455170D01*
X15513282Y-51434653D01*
X15503054Y-51413029D01*
X15494996Y-51390507D01*
X15489184Y-51367303D01*
X15485674Y-51343642D01*
X15484500Y-51319750D01*
X15484500Y-50407250D01*
X15485674Y-50383358D01*
X15489184Y-50359697D01*
X15494996Y-50336493D01*
X15503054Y-50313971D01*
X15513282Y-50292347D01*
X15525579Y-50271830D01*
X15539829Y-50252617D01*
X15555893Y-50234893D01*
X15573617Y-50218829D01*
X15592830Y-50204579D01*
X15613347Y-50192282D01*
X15634971Y-50182054D01*
X15657493Y-50173996D01*
X15680697Y-50168184D01*
X15704358Y-50164674D01*
X15728250Y-50163500D01*
X16215750Y-50163500D01*
X16239642Y-50164674D01*
X16239642Y-50164674D01*
G37*
D15*
X15972000Y-50863500D03*
D14*
G36*
X21700642Y-50164674D02*
G01*
X21724303Y-50168184D01*
X21747507Y-50173996D01*
X21770029Y-50182054D01*
X21791653Y-50192282D01*
X21812170Y-50204579D01*
X21831383Y-50218829D01*
X21849107Y-50234893D01*
X21865171Y-50252617D01*
X21879421Y-50271830D01*
X21891718Y-50292347D01*
X21901946Y-50313971D01*
X21910004Y-50336493D01*
X21915816Y-50359697D01*
X21919326Y-50383358D01*
X21920500Y-50407250D01*
X21920500Y-51319750D01*
X21919326Y-51343642D01*
X21915816Y-51367303D01*
X21910004Y-51390507D01*
X21901946Y-51413029D01*
X21891718Y-51434653D01*
X21879421Y-51455170D01*
X21865171Y-51474383D01*
X21849107Y-51492107D01*
X21831383Y-51508171D01*
X21812170Y-51522421D01*
X21791653Y-51534718D01*
X21770029Y-51544946D01*
X21747507Y-51553004D01*
X21724303Y-51558816D01*
X21700642Y-51562326D01*
X21676750Y-51563500D01*
X21189250Y-51563500D01*
X21165358Y-51562326D01*
X21141697Y-51558816D01*
X21118493Y-51553004D01*
X21095971Y-51544946D01*
X21074347Y-51534718D01*
X21053830Y-51522421D01*
X21034617Y-51508171D01*
X21016893Y-51492107D01*
X21000829Y-51474383D01*
X20986579Y-51455170D01*
X20974282Y-51434653D01*
X20964054Y-51413029D01*
X20955996Y-51390507D01*
X20950184Y-51367303D01*
X20946674Y-51343642D01*
X20945500Y-51319750D01*
X20945500Y-50407250D01*
X20946674Y-50383358D01*
X20950184Y-50359697D01*
X20955996Y-50336493D01*
X20964054Y-50313971D01*
X20974282Y-50292347D01*
X20986579Y-50271830D01*
X21000829Y-50252617D01*
X21016893Y-50234893D01*
X21034617Y-50218829D01*
X21053830Y-50204579D01*
X21074347Y-50192282D01*
X21095971Y-50182054D01*
X21118493Y-50173996D01*
X21141697Y-50168184D01*
X21165358Y-50164674D01*
X21189250Y-50163500D01*
X21676750Y-50163500D01*
X21700642Y-50164674D01*
X21700642Y-50164674D01*
G37*
D15*
X21433000Y-50863500D03*
D14*
G36*
X19825642Y-50164674D02*
G01*
X19849303Y-50168184D01*
X19872507Y-50173996D01*
X19895029Y-50182054D01*
X19916653Y-50192282D01*
X19937170Y-50204579D01*
X19956383Y-50218829D01*
X19974107Y-50234893D01*
X19990171Y-50252617D01*
X20004421Y-50271830D01*
X20016718Y-50292347D01*
X20026946Y-50313971D01*
X20035004Y-50336493D01*
X20040816Y-50359697D01*
X20044326Y-50383358D01*
X20045500Y-50407250D01*
X20045500Y-51319750D01*
X20044326Y-51343642D01*
X20040816Y-51367303D01*
X20035004Y-51390507D01*
X20026946Y-51413029D01*
X20016718Y-51434653D01*
X20004421Y-51455170D01*
X19990171Y-51474383D01*
X19974107Y-51492107D01*
X19956383Y-51508171D01*
X19937170Y-51522421D01*
X19916653Y-51534718D01*
X19895029Y-51544946D01*
X19872507Y-51553004D01*
X19849303Y-51558816D01*
X19825642Y-51562326D01*
X19801750Y-51563500D01*
X19314250Y-51563500D01*
X19290358Y-51562326D01*
X19266697Y-51558816D01*
X19243493Y-51553004D01*
X19220971Y-51544946D01*
X19199347Y-51534718D01*
X19178830Y-51522421D01*
X19159617Y-51508171D01*
X19141893Y-51492107D01*
X19125829Y-51474383D01*
X19111579Y-51455170D01*
X19099282Y-51434653D01*
X19089054Y-51413029D01*
X19080996Y-51390507D01*
X19075184Y-51367303D01*
X19071674Y-51343642D01*
X19070500Y-51319750D01*
X19070500Y-50407250D01*
X19071674Y-50383358D01*
X19075184Y-50359697D01*
X19080996Y-50336493D01*
X19089054Y-50313971D01*
X19099282Y-50292347D01*
X19111579Y-50271830D01*
X19125829Y-50252617D01*
X19141893Y-50234893D01*
X19159617Y-50218829D01*
X19178830Y-50204579D01*
X19199347Y-50192282D01*
X19220971Y-50182054D01*
X19243493Y-50173996D01*
X19266697Y-50168184D01*
X19290358Y-50164674D01*
X19314250Y-50163500D01*
X19801750Y-50163500D01*
X19825642Y-50164674D01*
X19825642Y-50164674D01*
G37*
D15*
X19558000Y-50863500D03*
D14*
G36*
X21117642Y-22500674D02*
G01*
X21141303Y-22504184D01*
X21164507Y-22509996D01*
X21187029Y-22518054D01*
X21208653Y-22528282D01*
X21229170Y-22540579D01*
X21248383Y-22554829D01*
X21266107Y-22570893D01*
X21282171Y-22588617D01*
X21296421Y-22607830D01*
X21308718Y-22628347D01*
X21318946Y-22649971D01*
X21327004Y-22672493D01*
X21332816Y-22695697D01*
X21336326Y-22719358D01*
X21337500Y-22743250D01*
X21337500Y-23230750D01*
X21336326Y-23254642D01*
X21332816Y-23278303D01*
X21327004Y-23301507D01*
X21318946Y-23324029D01*
X21308718Y-23345653D01*
X21296421Y-23366170D01*
X21282171Y-23385383D01*
X21266107Y-23403107D01*
X21248383Y-23419171D01*
X21229170Y-23433421D01*
X21208653Y-23445718D01*
X21187029Y-23455946D01*
X21164507Y-23464004D01*
X21141303Y-23469816D01*
X21117642Y-23473326D01*
X21093750Y-23474500D01*
X20181250Y-23474500D01*
X20157358Y-23473326D01*
X20133697Y-23469816D01*
X20110493Y-23464004D01*
X20087971Y-23455946D01*
X20066347Y-23445718D01*
X20045830Y-23433421D01*
X20026617Y-23419171D01*
X20008893Y-23403107D01*
X19992829Y-23385383D01*
X19978579Y-23366170D01*
X19966282Y-23345653D01*
X19956054Y-23324029D01*
X19947996Y-23301507D01*
X19942184Y-23278303D01*
X19938674Y-23254642D01*
X19937500Y-23230750D01*
X19937500Y-22743250D01*
X19938674Y-22719358D01*
X19942184Y-22695697D01*
X19947996Y-22672493D01*
X19956054Y-22649971D01*
X19966282Y-22628347D01*
X19978579Y-22607830D01*
X19992829Y-22588617D01*
X20008893Y-22570893D01*
X20026617Y-22554829D01*
X20045830Y-22540579D01*
X20066347Y-22528282D01*
X20087971Y-22518054D01*
X20110493Y-22509996D01*
X20133697Y-22504184D01*
X20157358Y-22500674D01*
X20181250Y-22499500D01*
X21093750Y-22499500D01*
X21117642Y-22500674D01*
X21117642Y-22500674D01*
G37*
D15*
X20637500Y-22987000D03*
D14*
G36*
X21117642Y-20625674D02*
G01*
X21141303Y-20629184D01*
X21164507Y-20634996D01*
X21187029Y-20643054D01*
X21208653Y-20653282D01*
X21229170Y-20665579D01*
X21248383Y-20679829D01*
X21266107Y-20695893D01*
X21282171Y-20713617D01*
X21296421Y-20732830D01*
X21308718Y-20753347D01*
X21318946Y-20774971D01*
X21327004Y-20797493D01*
X21332816Y-20820697D01*
X21336326Y-20844358D01*
X21337500Y-20868250D01*
X21337500Y-21355750D01*
X21336326Y-21379642D01*
X21332816Y-21403303D01*
X21327004Y-21426507D01*
X21318946Y-21449029D01*
X21308718Y-21470653D01*
X21296421Y-21491170D01*
X21282171Y-21510383D01*
X21266107Y-21528107D01*
X21248383Y-21544171D01*
X21229170Y-21558421D01*
X21208653Y-21570718D01*
X21187029Y-21580946D01*
X21164507Y-21589004D01*
X21141303Y-21594816D01*
X21117642Y-21598326D01*
X21093750Y-21599500D01*
X20181250Y-21599500D01*
X20157358Y-21598326D01*
X20133697Y-21594816D01*
X20110493Y-21589004D01*
X20087971Y-21580946D01*
X20066347Y-21570718D01*
X20045830Y-21558421D01*
X20026617Y-21544171D01*
X20008893Y-21528107D01*
X19992829Y-21510383D01*
X19978579Y-21491170D01*
X19966282Y-21470653D01*
X19956054Y-21449029D01*
X19947996Y-21426507D01*
X19942184Y-21403303D01*
X19938674Y-21379642D01*
X19937500Y-21355750D01*
X19937500Y-20868250D01*
X19938674Y-20844358D01*
X19942184Y-20820697D01*
X19947996Y-20797493D01*
X19956054Y-20774971D01*
X19966282Y-20753347D01*
X19978579Y-20732830D01*
X19992829Y-20713617D01*
X20008893Y-20695893D01*
X20026617Y-20679829D01*
X20045830Y-20665579D01*
X20066347Y-20653282D01*
X20087971Y-20643054D01*
X20110493Y-20634996D01*
X20133697Y-20629184D01*
X20157358Y-20625674D01*
X20181250Y-20624500D01*
X21093750Y-20624500D01*
X21117642Y-20625674D01*
X21117642Y-20625674D01*
G37*
D15*
X20637500Y-21112000D03*
D14*
G36*
X14323142Y-20610674D02*
G01*
X14346803Y-20614184D01*
X14370007Y-20619996D01*
X14392529Y-20628054D01*
X14414153Y-20638282D01*
X14434670Y-20650579D01*
X14453883Y-20664829D01*
X14471607Y-20680893D01*
X14487671Y-20698617D01*
X14501921Y-20717830D01*
X14514218Y-20738347D01*
X14524446Y-20759971D01*
X14532504Y-20782493D01*
X14538316Y-20805697D01*
X14541826Y-20829358D01*
X14543000Y-20853250D01*
X14543000Y-21340750D01*
X14541826Y-21364642D01*
X14538316Y-21388303D01*
X14532504Y-21411507D01*
X14524446Y-21434029D01*
X14514218Y-21455653D01*
X14501921Y-21476170D01*
X14487671Y-21495383D01*
X14471607Y-21513107D01*
X14453883Y-21529171D01*
X14434670Y-21543421D01*
X14414153Y-21555718D01*
X14392529Y-21565946D01*
X14370007Y-21574004D01*
X14346803Y-21579816D01*
X14323142Y-21583326D01*
X14299250Y-21584500D01*
X13386750Y-21584500D01*
X13362858Y-21583326D01*
X13339197Y-21579816D01*
X13315993Y-21574004D01*
X13293471Y-21565946D01*
X13271847Y-21555718D01*
X13251330Y-21543421D01*
X13232117Y-21529171D01*
X13214393Y-21513107D01*
X13198329Y-21495383D01*
X13184079Y-21476170D01*
X13171782Y-21455653D01*
X13161554Y-21434029D01*
X13153496Y-21411507D01*
X13147684Y-21388303D01*
X13144174Y-21364642D01*
X13143000Y-21340750D01*
X13143000Y-20853250D01*
X13144174Y-20829358D01*
X13147684Y-20805697D01*
X13153496Y-20782493D01*
X13161554Y-20759971D01*
X13171782Y-20738347D01*
X13184079Y-20717830D01*
X13198329Y-20698617D01*
X13214393Y-20680893D01*
X13232117Y-20664829D01*
X13251330Y-20650579D01*
X13271847Y-20638282D01*
X13293471Y-20628054D01*
X13315993Y-20619996D01*
X13339197Y-20614184D01*
X13362858Y-20610674D01*
X13386750Y-20609500D01*
X14299250Y-20609500D01*
X14323142Y-20610674D01*
X14323142Y-20610674D01*
G37*
D15*
X13843000Y-21097000D03*
D14*
G36*
X14323142Y-22485674D02*
G01*
X14346803Y-22489184D01*
X14370007Y-22494996D01*
X14392529Y-22503054D01*
X14414153Y-22513282D01*
X14434670Y-22525579D01*
X14453883Y-22539829D01*
X14471607Y-22555893D01*
X14487671Y-22573617D01*
X14501921Y-22592830D01*
X14514218Y-22613347D01*
X14524446Y-22634971D01*
X14532504Y-22657493D01*
X14538316Y-22680697D01*
X14541826Y-22704358D01*
X14543000Y-22728250D01*
X14543000Y-23215750D01*
X14541826Y-23239642D01*
X14538316Y-23263303D01*
X14532504Y-23286507D01*
X14524446Y-23309029D01*
X14514218Y-23330653D01*
X14501921Y-23351170D01*
X14487671Y-23370383D01*
X14471607Y-23388107D01*
X14453883Y-23404171D01*
X14434670Y-23418421D01*
X14414153Y-23430718D01*
X14392529Y-23440946D01*
X14370007Y-23449004D01*
X14346803Y-23454816D01*
X14323142Y-23458326D01*
X14299250Y-23459500D01*
X13386750Y-23459500D01*
X13362858Y-23458326D01*
X13339197Y-23454816D01*
X13315993Y-23449004D01*
X13293471Y-23440946D01*
X13271847Y-23430718D01*
X13251330Y-23418421D01*
X13232117Y-23404171D01*
X13214393Y-23388107D01*
X13198329Y-23370383D01*
X13184079Y-23351170D01*
X13171782Y-23330653D01*
X13161554Y-23309029D01*
X13153496Y-23286507D01*
X13147684Y-23263303D01*
X13144174Y-23239642D01*
X13143000Y-23215750D01*
X13143000Y-22728250D01*
X13144174Y-22704358D01*
X13147684Y-22680697D01*
X13153496Y-22657493D01*
X13161554Y-22634971D01*
X13171782Y-22613347D01*
X13184079Y-22592830D01*
X13198329Y-22573617D01*
X13214393Y-22555893D01*
X13232117Y-22539829D01*
X13251330Y-22525579D01*
X13271847Y-22513282D01*
X13293471Y-22503054D01*
X13315993Y-22494996D01*
X13339197Y-22489184D01*
X13362858Y-22485674D01*
X13386750Y-22484500D01*
X14299250Y-22484500D01*
X14323142Y-22485674D01*
X14323142Y-22485674D01*
G37*
D15*
X13843000Y-22972000D03*
D14*
G36*
X5496642Y-22534174D02*
G01*
X5520303Y-22537684D01*
X5543507Y-22543496D01*
X5566029Y-22551554D01*
X5587653Y-22561782D01*
X5608170Y-22574079D01*
X5627383Y-22588329D01*
X5645107Y-22604393D01*
X5661171Y-22622117D01*
X5675421Y-22641330D01*
X5687718Y-22661847D01*
X5697946Y-22683471D01*
X5706004Y-22705993D01*
X5711816Y-22729197D01*
X5715326Y-22752858D01*
X5716500Y-22776750D01*
X5716500Y-23264250D01*
X5715326Y-23288142D01*
X5711816Y-23311803D01*
X5706004Y-23335007D01*
X5697946Y-23357529D01*
X5687718Y-23379153D01*
X5675421Y-23399670D01*
X5661171Y-23418883D01*
X5645107Y-23436607D01*
X5627383Y-23452671D01*
X5608170Y-23466921D01*
X5587653Y-23479218D01*
X5566029Y-23489446D01*
X5543507Y-23497504D01*
X5520303Y-23503316D01*
X5496642Y-23506826D01*
X5472750Y-23508000D01*
X4560250Y-23508000D01*
X4536358Y-23506826D01*
X4512697Y-23503316D01*
X4489493Y-23497504D01*
X4466971Y-23489446D01*
X4445347Y-23479218D01*
X4424830Y-23466921D01*
X4405617Y-23452671D01*
X4387893Y-23436607D01*
X4371829Y-23418883D01*
X4357579Y-23399670D01*
X4345282Y-23379153D01*
X4335054Y-23357529D01*
X4326996Y-23335007D01*
X4321184Y-23311803D01*
X4317674Y-23288142D01*
X4316500Y-23264250D01*
X4316500Y-22776750D01*
X4317674Y-22752858D01*
X4321184Y-22729197D01*
X4326996Y-22705993D01*
X4335054Y-22683471D01*
X4345282Y-22661847D01*
X4357579Y-22641330D01*
X4371829Y-22622117D01*
X4387893Y-22604393D01*
X4405617Y-22588329D01*
X4424830Y-22574079D01*
X4445347Y-22561782D01*
X4466971Y-22551554D01*
X4489493Y-22543496D01*
X4512697Y-22537684D01*
X4536358Y-22534174D01*
X4560250Y-22533000D01*
X5472750Y-22533000D01*
X5496642Y-22534174D01*
X5496642Y-22534174D01*
G37*
D15*
X5016500Y-23020500D03*
D14*
G36*
X5496642Y-20659174D02*
G01*
X5520303Y-20662684D01*
X5543507Y-20668496D01*
X5566029Y-20676554D01*
X5587653Y-20686782D01*
X5608170Y-20699079D01*
X5627383Y-20713329D01*
X5645107Y-20729393D01*
X5661171Y-20747117D01*
X5675421Y-20766330D01*
X5687718Y-20786847D01*
X5697946Y-20808471D01*
X5706004Y-20830993D01*
X5711816Y-20854197D01*
X5715326Y-20877858D01*
X5716500Y-20901750D01*
X5716500Y-21389250D01*
X5715326Y-21413142D01*
X5711816Y-21436803D01*
X5706004Y-21460007D01*
X5697946Y-21482529D01*
X5687718Y-21504153D01*
X5675421Y-21524670D01*
X5661171Y-21543883D01*
X5645107Y-21561607D01*
X5627383Y-21577671D01*
X5608170Y-21591921D01*
X5587653Y-21604218D01*
X5566029Y-21614446D01*
X5543507Y-21622504D01*
X5520303Y-21628316D01*
X5496642Y-21631826D01*
X5472750Y-21633000D01*
X4560250Y-21633000D01*
X4536358Y-21631826D01*
X4512697Y-21628316D01*
X4489493Y-21622504D01*
X4466971Y-21614446D01*
X4445347Y-21604218D01*
X4424830Y-21591921D01*
X4405617Y-21577671D01*
X4387893Y-21561607D01*
X4371829Y-21543883D01*
X4357579Y-21524670D01*
X4345282Y-21504153D01*
X4335054Y-21482529D01*
X4326996Y-21460007D01*
X4321184Y-21436803D01*
X4317674Y-21413142D01*
X4316500Y-21389250D01*
X4316500Y-20901750D01*
X4317674Y-20877858D01*
X4321184Y-20854197D01*
X4326996Y-20830993D01*
X4335054Y-20808471D01*
X4345282Y-20786847D01*
X4357579Y-20766330D01*
X4371829Y-20747117D01*
X4387893Y-20729393D01*
X4405617Y-20713329D01*
X4424830Y-20699079D01*
X4445347Y-20686782D01*
X4466971Y-20676554D01*
X4489493Y-20668496D01*
X4512697Y-20662684D01*
X4536358Y-20659174D01*
X4560250Y-20658000D01*
X5472750Y-20658000D01*
X5496642Y-20659174D01*
X5496642Y-20659174D01*
G37*
D15*
X5016500Y-21145500D03*
D21*
X6921500Y-32001500D03*
X6921500Y-31051500D03*
X6921500Y-30101500D03*
X4721500Y-30101500D03*
X4721500Y-32001500D03*
D22*
X9207500Y-41338500D03*
D23*
X7100500Y-39588500D03*
X7100500Y-40088500D03*
X7100500Y-40588500D03*
X11314500Y-39588500D03*
X11314500Y-40088500D03*
X11314500Y-40588500D03*
X7100500Y-43088500D03*
X7100500Y-42088500D03*
X7100500Y-41088500D03*
X11314500Y-41088500D03*
X11314500Y-42088500D03*
X11314500Y-43088500D03*
D24*
X13672000Y-27461500D03*
X13672000Y-28111500D03*
X13672000Y-28761500D03*
X13672000Y-29411500D03*
X13672000Y-30061500D03*
X13672000Y-30711500D03*
X13672000Y-31361500D03*
X13672000Y-32011500D03*
X13672000Y-32661500D03*
X13672000Y-33311500D03*
X13672000Y-33961500D03*
X13672000Y-34611500D03*
X13672000Y-35261500D03*
X13672000Y-35911500D03*
X20872000Y-35911500D03*
X20872000Y-35261500D03*
X20872000Y-34611500D03*
X20872000Y-33961500D03*
X20872000Y-33311500D03*
X20872000Y-32661500D03*
X20872000Y-32011500D03*
X20872000Y-31361500D03*
X20872000Y-30711500D03*
X20872000Y-30061500D03*
X20872000Y-29411500D03*
X20872000Y-28761500D03*
X20872000Y-28111500D03*
X20872000Y-27461500D03*
D25*
X11700000Y-8198500D03*
D26*
X4200000Y-698500D03*
X4200000Y-1968500D03*
X4200000Y-3238500D03*
X4200000Y-4508500D03*
X4200000Y-5778500D03*
X4200000Y-7048500D03*
X4200000Y-8318500D03*
X4200000Y-9588500D03*
X4200000Y-10858500D03*
X4200000Y-12128500D03*
X4200000Y-13398500D03*
X4200000Y-14668500D03*
X4200000Y-15938500D03*
X4200000Y-17208500D03*
D27*
X6985000Y-18208500D03*
X8255000Y-18208500D03*
X9525000Y-18208500D03*
X10795000Y-18208500D03*
X12065000Y-18208500D03*
X13335000Y-18208500D03*
X14605000Y-18208500D03*
X15875000Y-18208500D03*
X17145000Y-18208500D03*
X18415000Y-18208500D03*
D26*
X21200000Y-17208500D03*
X21200000Y-15938500D03*
X21200000Y-14668500D03*
X21200000Y-13398500D03*
X21200000Y-12128500D03*
X21200000Y-10858500D03*
X21200000Y-9588500D03*
X21200000Y-8318500D03*
X21200000Y-7048500D03*
X21200000Y-5778500D03*
X21200000Y-4508500D03*
X21200000Y-3238500D03*
X21200000Y-1968500D03*
X21200000Y-698500D03*
D14*
G36*
X14323142Y-41550674D02*
G01*
X14346803Y-41554184D01*
X14370007Y-41559996D01*
X14392529Y-41568054D01*
X14414153Y-41578282D01*
X14434670Y-41590579D01*
X14453883Y-41604829D01*
X14471607Y-41620893D01*
X14487671Y-41638617D01*
X14501921Y-41657830D01*
X14514218Y-41678347D01*
X14524446Y-41699971D01*
X14532504Y-41722493D01*
X14538316Y-41745697D01*
X14541826Y-41769358D01*
X14543000Y-41793250D01*
X14543000Y-42280750D01*
X14541826Y-42304642D01*
X14538316Y-42328303D01*
X14532504Y-42351507D01*
X14524446Y-42374029D01*
X14514218Y-42395653D01*
X14501921Y-42416170D01*
X14487671Y-42435383D01*
X14471607Y-42453107D01*
X14453883Y-42469171D01*
X14434670Y-42483421D01*
X14414153Y-42495718D01*
X14392529Y-42505946D01*
X14370007Y-42514004D01*
X14346803Y-42519816D01*
X14323142Y-42523326D01*
X14299250Y-42524500D01*
X13386750Y-42524500D01*
X13362858Y-42523326D01*
X13339197Y-42519816D01*
X13315993Y-42514004D01*
X13293471Y-42505946D01*
X13271847Y-42495718D01*
X13251330Y-42483421D01*
X13232117Y-42469171D01*
X13214393Y-42453107D01*
X13198329Y-42435383D01*
X13184079Y-42416170D01*
X13171782Y-42395653D01*
X13161554Y-42374029D01*
X13153496Y-42351507D01*
X13147684Y-42328303D01*
X13144174Y-42304642D01*
X13143000Y-42280750D01*
X13143000Y-41793250D01*
X13144174Y-41769358D01*
X13147684Y-41745697D01*
X13153496Y-41722493D01*
X13161554Y-41699971D01*
X13171782Y-41678347D01*
X13184079Y-41657830D01*
X13198329Y-41638617D01*
X13214393Y-41620893D01*
X13232117Y-41604829D01*
X13251330Y-41590579D01*
X13271847Y-41578282D01*
X13293471Y-41568054D01*
X13315993Y-41559996D01*
X13339197Y-41554184D01*
X13362858Y-41550674D01*
X13386750Y-41549500D01*
X14299250Y-41549500D01*
X14323142Y-41550674D01*
X14323142Y-41550674D01*
G37*
D15*
X13843000Y-42037000D03*
D14*
G36*
X14323142Y-39675674D02*
G01*
X14346803Y-39679184D01*
X14370007Y-39684996D01*
X14392529Y-39693054D01*
X14414153Y-39703282D01*
X14434670Y-39715579D01*
X14453883Y-39729829D01*
X14471607Y-39745893D01*
X14487671Y-39763617D01*
X14501921Y-39782830D01*
X14514218Y-39803347D01*
X14524446Y-39824971D01*
X14532504Y-39847493D01*
X14538316Y-39870697D01*
X14541826Y-39894358D01*
X14543000Y-39918250D01*
X14543000Y-40405750D01*
X14541826Y-40429642D01*
X14538316Y-40453303D01*
X14532504Y-40476507D01*
X14524446Y-40499029D01*
X14514218Y-40520653D01*
X14501921Y-40541170D01*
X14487671Y-40560383D01*
X14471607Y-40578107D01*
X14453883Y-40594171D01*
X14434670Y-40608421D01*
X14414153Y-40620718D01*
X14392529Y-40630946D01*
X14370007Y-40639004D01*
X14346803Y-40644816D01*
X14323142Y-40648326D01*
X14299250Y-40649500D01*
X13386750Y-40649500D01*
X13362858Y-40648326D01*
X13339197Y-40644816D01*
X13315993Y-40639004D01*
X13293471Y-40630946D01*
X13271847Y-40620718D01*
X13251330Y-40608421D01*
X13232117Y-40594171D01*
X13214393Y-40578107D01*
X13198329Y-40560383D01*
X13184079Y-40541170D01*
X13171782Y-40520653D01*
X13161554Y-40499029D01*
X13153496Y-40476507D01*
X13147684Y-40453303D01*
X13144174Y-40429642D01*
X13143000Y-40405750D01*
X13143000Y-39918250D01*
X13144174Y-39894358D01*
X13147684Y-39870697D01*
X13153496Y-39847493D01*
X13161554Y-39824971D01*
X13171782Y-39803347D01*
X13184079Y-39782830D01*
X13198329Y-39763617D01*
X13214393Y-39745893D01*
X13232117Y-39729829D01*
X13251330Y-39715579D01*
X13271847Y-39703282D01*
X13293471Y-39693054D01*
X13315993Y-39684996D01*
X13339197Y-39679184D01*
X13362858Y-39675674D01*
X13386750Y-39674500D01*
X14299250Y-39674500D01*
X14323142Y-39675674D01*
X14323142Y-39675674D01*
G37*
D15*
X13843000Y-40162000D03*
D28*
X9271000Y-31686500D03*
X10668000Y-30099000D03*
X8445500Y-44450000D03*
X13779500Y-38290500D03*
X15566792Y-34163000D03*
X6350000Y-21526500D03*
X9144000Y-12573000D03*
X17462500Y-6794500D03*
X22797185Y-10096566D03*
X19367500Y-55880000D03*
X16319500Y-56324500D03*
X11620500Y-47688500D03*
X11811000Y-34163000D03*
X11811000Y-34163000D03*
X18382835Y-34236175D03*
X18605500Y-32702500D03*
X3365500Y-32829500D03*
X6096000Y-25654000D03*
X14738489Y-46438963D03*
X17208500Y-49530000D03*
X16192500Y-46228000D03*
X6413500Y-7048500D03*
X6286500Y-9588500D03*
X6413500Y-10858500D03*
X6413500Y-13398500D03*
X7154227Y-14206931D03*
X7026171Y-15250181D03*
X10252010Y-15073367D03*
X10706021Y-16050219D03*
X11303000Y-14605000D03*
X12182489Y-25247422D03*
X12122011Y-30289268D03*
X16700500Y-4826000D03*
X16161002Y-10603599D03*
X13538331Y-15095004D03*
X13995479Y-26218946D03*
X16733804Y-11786972D03*
X16863862Y-12778490D03*
X16383000Y-14287500D03*
X17743115Y-14357577D03*
X19599996Y-16024779D03*
X18910711Y-15297769D03*
X17413142Y-15301580D03*
X16413160Y-15651160D03*
X15811500Y-16510000D03*
X15903510Y-25493341D03*
X14090511Y-16165830D03*
X12614043Y-15938500D03*
X13017500Y-45275500D03*
X9969500Y-44450000D03*
X11807213Y-38321630D03*
X11385176Y-36341427D03*
X16446500Y-28638500D03*
X15176500Y-24574500D03*
X18732500Y-27178000D03*
X15798967Y-30624158D03*
X17145000Y-55597490D03*
X15800136Y-38524693D03*
X15432830Y-37574779D03*
X18161000Y-30797500D03*
X18056435Y-20004576D03*
D29*
X10874477Y-30543500D02*
X12342477Y-32011500D01*
X12342477Y-32011500D02*
X13672000Y-32011500D01*
X9334500Y-31750000D02*
X9271000Y-31686500D01*
X9334500Y-31813500D02*
X9334500Y-31750000D01*
X10874477Y-30305477D02*
X10668000Y-30099000D01*
X10874477Y-30543500D02*
X10874477Y-30305477D01*
D30*
X9957500Y-40588500D02*
X9207500Y-41338500D01*
X11314500Y-40588500D02*
X9957500Y-40588500D01*
D29*
X13779500Y-40098500D02*
X13843000Y-40162000D01*
X13779500Y-38290500D02*
X13779500Y-40098500D01*
X23558500Y-698500D02*
X24130000Y-1270000D01*
X21200000Y-698500D02*
X23558500Y-698500D01*
X15359500Y-31361500D02*
X14939202Y-31361500D01*
X13672000Y-31361500D02*
X15359500Y-31361500D01*
X20872000Y-28761500D02*
X20872000Y-29411500D01*
X6985000Y-17211298D02*
X7813298Y-16383000D01*
X6985000Y-17211298D02*
X6985000Y-18208500D01*
X22288500Y-29528000D02*
X22288500Y-31724000D01*
X22288500Y-31724000D02*
X22001000Y-32011500D01*
X20872000Y-28761500D02*
X21522000Y-28761500D01*
X21522000Y-28761500D02*
X22288500Y-29528000D01*
X15359500Y-31361500D02*
X15566792Y-31568792D01*
X15566792Y-31568792D02*
X15566792Y-33597315D01*
X15566792Y-33597315D02*
X15566792Y-34163000D01*
D31*
X20872000Y-33961500D02*
X22277500Y-33961500D01*
X22001000Y-32011500D02*
X20872000Y-32011500D01*
X22277500Y-32288000D02*
X22001000Y-32011500D01*
X22277500Y-33961500D02*
X22277500Y-32288000D01*
X21763500Y-54465000D02*
X21973500Y-54675000D01*
X20343500Y-54465000D02*
X21763500Y-54465000D01*
X22673499Y-53468037D02*
X22673499Y-53975001D01*
X20593500Y-52765000D02*
X20593500Y-52565000D01*
X22673499Y-53975001D02*
X21973500Y-54675000D01*
X20593500Y-52565000D02*
X20997500Y-52161000D01*
X20997500Y-52161000D02*
X21366462Y-52161000D01*
X21366462Y-52161000D02*
X22673499Y-53468037D01*
D29*
X20855500Y-52161000D02*
X21366462Y-52161000D01*
X19558000Y-50863500D02*
X20855500Y-52161000D01*
X14703449Y-54675000D02*
X14739499Y-54638950D01*
X13713500Y-54675000D02*
X14703449Y-54675000D01*
D30*
X14843500Y-53861000D02*
X14843500Y-54465000D01*
X15093500Y-52765000D02*
X15093500Y-53539962D01*
X15093500Y-53539962D02*
X14843500Y-53789962D01*
X14843500Y-53789962D02*
X14843500Y-53861000D01*
D31*
X12013000Y-40588500D02*
X11314500Y-40588500D01*
X12020601Y-39608999D02*
X12086001Y-39674399D01*
X11314500Y-39608999D02*
X12020601Y-39608999D01*
X11314500Y-39588500D02*
X11314500Y-39608999D01*
X12086001Y-40515499D02*
X12013000Y-40588500D01*
X12086001Y-39674399D02*
X12086001Y-40515499D01*
D29*
X22797185Y-15177185D02*
X24130000Y-16510000D01*
X22797185Y-10096566D02*
X22797185Y-15177185D01*
X22288500Y-29528000D02*
X22288500Y-19875500D01*
D31*
X4721500Y-28138000D02*
X4856000Y-28003500D01*
X4721500Y-30101500D02*
X4721500Y-28138000D01*
X6137500Y-32001500D02*
X6921500Y-32001500D01*
X6064499Y-31928499D02*
X6137500Y-32001500D01*
X6064499Y-30174501D02*
X6064499Y-31928499D01*
X6137500Y-30101500D02*
X6064499Y-30174501D01*
X6921500Y-30101500D02*
X6137500Y-30101500D01*
X16343500Y-53861000D02*
X16343500Y-54465000D01*
X16593500Y-53369000D02*
X16343500Y-53619000D01*
X16343500Y-53619000D02*
X16343500Y-53861000D01*
X16593500Y-52765000D02*
X16593500Y-53369000D01*
X18843500Y-53861000D02*
X18843500Y-54465000D01*
X18843500Y-53619000D02*
X18843500Y-53861000D01*
X19093500Y-53369000D02*
X18843500Y-53619000D01*
X19093500Y-52765000D02*
X19093500Y-53369000D01*
X18843500Y-55356000D02*
X19367500Y-55880000D01*
X18843500Y-54465000D02*
X18843500Y-55356000D01*
X16343500Y-56300500D02*
X16343500Y-54465000D01*
X16319500Y-56324500D02*
X16343500Y-56300500D01*
D29*
X13716000Y-56324500D02*
X13652500Y-56388000D01*
X16319500Y-56324500D02*
X13716000Y-56324500D01*
X13652500Y-56388000D02*
X12573000Y-56388000D01*
X11620500Y-55435500D02*
X11620500Y-47688500D01*
X12573000Y-56388000D02*
X11620500Y-55435500D01*
X10066500Y-34163000D02*
X10033000Y-34196500D01*
X11811000Y-34163000D02*
X10066500Y-34163000D01*
X7959500Y-30101500D02*
X6921500Y-30101500D01*
X8833770Y-30101500D02*
X7959500Y-30101500D01*
X9936000Y-21145500D02*
X9969500Y-21112000D01*
X7747000Y-21145500D02*
X9936000Y-21145500D01*
X8833770Y-25809512D02*
X8833770Y-30101500D01*
X10525737Y-21668237D02*
X10525737Y-21856455D01*
X9969500Y-21112000D02*
X10525737Y-21668237D01*
X10525737Y-21856455D02*
X11123510Y-22454228D01*
X11123510Y-23519772D02*
X8833770Y-25809512D01*
X11123510Y-22454228D02*
X11123510Y-23519772D01*
X11811000Y-32962576D02*
X8949924Y-30101500D01*
X8949924Y-30101500D02*
X8833770Y-30101500D01*
X11811000Y-34163000D02*
X11811000Y-32962576D01*
X12342999Y-36499701D02*
X12433799Y-36590501D01*
X11811000Y-34163000D02*
X12342999Y-34694999D01*
X12342999Y-34694999D02*
X12342999Y-36499701D01*
X12433799Y-36590501D02*
X16028509Y-36590501D01*
X16028509Y-36590501D02*
X17982836Y-34636174D01*
X17982836Y-34636174D02*
X18382835Y-34236175D01*
D32*
X18602500Y-32639000D02*
X20828000Y-32639000D01*
D29*
X1968500Y-1968500D02*
X4200000Y-1968500D01*
X1270000Y-1270000D02*
X1968500Y-1968500D01*
X4762500Y-32042500D02*
X4721500Y-32001500D01*
X4762500Y-34163000D02*
X4762500Y-32042500D01*
X4699000Y-34163000D02*
X3365500Y-32829500D01*
X4762500Y-34163000D02*
X4699000Y-34163000D01*
X6096000Y-25654000D02*
X5016500Y-24574500D01*
X5016500Y-24574500D02*
X5016500Y-23020500D01*
X3365500Y-32829500D02*
X3365500Y-33395185D01*
D31*
X18478500Y-21112000D02*
X20637500Y-21112000D01*
X19342012Y-28863476D02*
X18005498Y-27526962D01*
X20872000Y-30711500D02*
X19742999Y-30711499D01*
X18478500Y-23574500D02*
X18478500Y-22987000D01*
X19742999Y-30711499D02*
X19342012Y-30310512D01*
X19342012Y-30310512D02*
X19342012Y-28863476D01*
X18005498Y-27526962D02*
X18005498Y-26829038D01*
X18005498Y-26829038D02*
X18478500Y-26356036D01*
X18478500Y-26356036D02*
X18478500Y-23574500D01*
X17551487Y-27715019D02*
X17551487Y-24521487D01*
X19743000Y-31361500D02*
X18888001Y-30506501D01*
X20872000Y-31361500D02*
X19743000Y-31361500D01*
X18888001Y-30506501D02*
X18888001Y-29051533D01*
X17551487Y-24521487D02*
X16558237Y-23528237D01*
X16558237Y-23528237D02*
X16002000Y-22972000D01*
X18888001Y-29051533D02*
X17551487Y-27715019D01*
X16002000Y-21097000D02*
X13843000Y-21097000D01*
X17093500Y-51985000D02*
X17093500Y-52765000D01*
X15972000Y-50863500D02*
X17093500Y-51985000D01*
X15138488Y-46838962D02*
X14738489Y-46438963D01*
X17593500Y-49293974D02*
X15138488Y-46838962D01*
X17593500Y-49526000D02*
X17212500Y-49526000D01*
X17212500Y-49526000D02*
X17208500Y-49530000D01*
X17593500Y-52765000D02*
X17593500Y-49526000D01*
X17593500Y-49526000D02*
X17593500Y-49293974D01*
X18093500Y-48129000D02*
X16192500Y-46228000D01*
X18093500Y-52765000D02*
X18093500Y-48129000D01*
X17416501Y-53787999D02*
X17343500Y-53861000D01*
X17674501Y-53787999D02*
X17416501Y-53787999D01*
X18093500Y-53369000D02*
X17674501Y-53787999D01*
X17343500Y-53861000D02*
X17343500Y-54465000D01*
X18093500Y-52765000D02*
X18093500Y-53369000D01*
X1841500Y-3238500D02*
X1270000Y-3810000D01*
X4200000Y-3238500D02*
X1841500Y-3238500D01*
X1270000Y-6184500D02*
X1270000Y-6350000D01*
X2946000Y-4508500D02*
X1270000Y-6184500D01*
X4200000Y-4508500D02*
X2946000Y-4508500D01*
X2447001Y-7712999D02*
X2119999Y-8040001D01*
X2119999Y-8040001D02*
X1270000Y-8890000D01*
X2447001Y-6762897D02*
X2447001Y-7712999D01*
X3431398Y-5778500D02*
X2447001Y-6762897D01*
X4200000Y-5778500D02*
X3431398Y-5778500D01*
X4200000Y-7048500D02*
X6413500Y-7048500D01*
X4200000Y-8318500D02*
X2946000Y-8318500D01*
X2119999Y-13120001D02*
X1270000Y-13970000D01*
X2662867Y-8601633D02*
X2662867Y-12254963D01*
X2946000Y-8318500D02*
X2662867Y-8601633D01*
X2662867Y-12254963D02*
X2119999Y-12797831D01*
X2119999Y-12797831D02*
X2119999Y-13120001D01*
X4200000Y-9588500D02*
X6286500Y-9588500D01*
X4200000Y-10858500D02*
X6413500Y-10858500D01*
X4200000Y-12621499D02*
X2938399Y-12621499D01*
X4200000Y-12128500D02*
X4200000Y-12621499D01*
X2938399Y-12621499D02*
X2667000Y-12892898D01*
X2667000Y-20193000D02*
X1270000Y-21590000D01*
X2667000Y-12892898D02*
X2667000Y-20193000D01*
X4200000Y-13398500D02*
X6413500Y-13398500D01*
X6507419Y-14668500D02*
X6968988Y-14206931D01*
X6968988Y-14206931D02*
X7154227Y-14206931D01*
X4200000Y-14668500D02*
X6507419Y-14668500D01*
X4200000Y-15938500D02*
X6337852Y-15938500D01*
X6626172Y-15650180D02*
X7026171Y-15250181D01*
X6337852Y-15938500D02*
X6626172Y-15650180D01*
X4200000Y-18487500D02*
X4200000Y-17208500D01*
X4200000Y-18914000D02*
X4200000Y-18487500D01*
X3121010Y-19992990D02*
X4200000Y-18914000D01*
X3111500Y-20390567D02*
X3121010Y-20381057D01*
X3111500Y-29110462D02*
X3111500Y-20390567D01*
X3121010Y-20381057D02*
X3121010Y-19992990D01*
X2603500Y-29618462D02*
X3111500Y-29110462D01*
X2603500Y-29845000D02*
X2603500Y-29618462D01*
X1270000Y-31750000D02*
X2119999Y-30900001D01*
X2119999Y-30900001D02*
X2119999Y-30377499D01*
X2119999Y-30377499D02*
X2095500Y-30353000D01*
X2095500Y-30353000D02*
X2603500Y-29845000D01*
X8255000Y-18208500D02*
X8255000Y-16954500D01*
X10136133Y-15073367D02*
X10252010Y-15073367D01*
X8255000Y-16954500D02*
X10136133Y-15073367D01*
X9525000Y-16954500D02*
X10429281Y-16050219D01*
X9525000Y-18208500D02*
X9525000Y-16954500D01*
X10429281Y-16050219D02*
X10706021Y-16050219D01*
X10795000Y-17037204D02*
X11702999Y-16129205D01*
X11702999Y-16129205D02*
X11702999Y-15004999D01*
X11702999Y-15004999D02*
X11303000Y-14605000D01*
X10795000Y-18208500D02*
X10795000Y-17037204D01*
X12182489Y-19579989D02*
X12182489Y-25247422D01*
X12065000Y-19462500D02*
X12182489Y-19579989D01*
X12065000Y-18208500D02*
X12065000Y-19462500D01*
X24130000Y-3644500D02*
X24130000Y-3810000D01*
X22454000Y-1968500D02*
X24130000Y-3644500D01*
X21200000Y-1968500D02*
X22454000Y-1968500D01*
X21200000Y-3238500D02*
X22454000Y-3238500D01*
X22952999Y-3737499D02*
X22952999Y-4850829D01*
X22454000Y-3238500D02*
X22952999Y-3737499D01*
X22952999Y-4850829D02*
X24130000Y-6027830D01*
X24130000Y-6027830D02*
X24130000Y-6350000D01*
X23280001Y-8040001D02*
X24130000Y-8890000D01*
X22952999Y-5492897D02*
X22952999Y-7712999D01*
X21968602Y-4508500D02*
X22952999Y-5492897D01*
X21200000Y-4508500D02*
X21968602Y-4508500D01*
X22952999Y-7712999D02*
X23280001Y-8040001D01*
X13672000Y-30061500D02*
X12349779Y-30061500D01*
X12349779Y-30061500D02*
X12122011Y-30289268D01*
X20819000Y-4889500D02*
X21200000Y-4508500D01*
X16700500Y-4826000D02*
X20819000Y-4889500D01*
X19946000Y-5778500D02*
X21200000Y-5778500D01*
X18513750Y-7210750D02*
X19946000Y-5778500D01*
X18513750Y-7210750D02*
X16161002Y-9563498D01*
X16161002Y-9563498D02*
X16161002Y-10037914D01*
X16161002Y-10037914D02*
X16161002Y-10603599D01*
X13538331Y-14529319D02*
X13538331Y-15095004D01*
X18513750Y-7210750D02*
X13538331Y-12186169D01*
X13538331Y-12186169D02*
X13538331Y-14529319D01*
X13672000Y-27461500D02*
X13672000Y-26542425D01*
X13672000Y-26542425D02*
X13995479Y-26218946D01*
X16888012Y-10106488D02*
X16888012Y-11067079D01*
X21200000Y-7048500D02*
X19946000Y-7048500D01*
X16733804Y-11221287D02*
X16733804Y-11786972D01*
X16888012Y-11067079D02*
X16733804Y-11221287D01*
X19946000Y-7048500D02*
X16888012Y-10106488D01*
X17263861Y-12378491D02*
X16863862Y-12778490D01*
X21200000Y-9588500D02*
X20053852Y-9588500D01*
X20053852Y-9588500D02*
X17263861Y-12378491D01*
X19946000Y-10858500D02*
X21200000Y-10858500D01*
X18151489Y-12653011D02*
X19946000Y-10858500D01*
X18017489Y-12653011D02*
X16383000Y-14287500D01*
X18151489Y-12653011D02*
X18017489Y-12653011D01*
X21200000Y-12128500D02*
X19946000Y-12128500D01*
X19946000Y-12128500D02*
X18015513Y-14058987D01*
X18015513Y-14085179D02*
X17743115Y-14357577D01*
X18015513Y-14058987D02*
X18015513Y-14085179D01*
X19742093Y-13398500D02*
X18183701Y-14956892D01*
X19034311Y-16024779D02*
X19599996Y-16024779D01*
X21200000Y-13398500D02*
X19742093Y-13398500D01*
X18393941Y-16024779D02*
X19034311Y-16024779D01*
X18183701Y-14956892D02*
X18183701Y-15814539D01*
X18183701Y-15814539D02*
X18393941Y-16024779D01*
X19539980Y-14668500D02*
X19310710Y-14897770D01*
X21200000Y-14668500D02*
X19539980Y-14668500D01*
X19310710Y-14897770D02*
X18910711Y-15297769D01*
X22952999Y-30572999D02*
X23280001Y-30900001D01*
X23280001Y-30900001D02*
X24130000Y-31750000D01*
X22952999Y-16437499D02*
X22952999Y-30572999D01*
X22454000Y-15938500D02*
X22952999Y-16437499D01*
X21200000Y-15938500D02*
X22454000Y-15938500D01*
X18415000Y-18208500D02*
X18415000Y-16954500D01*
X18415000Y-16954500D02*
X17413142Y-15952642D01*
X17413142Y-15952642D02*
X17413142Y-15867265D01*
X17413142Y-15867265D02*
X17413142Y-15301580D01*
X17145000Y-16684819D02*
X17145000Y-18208500D01*
X16413160Y-15651160D02*
X16413160Y-15952979D01*
X16413160Y-15952979D02*
X17145000Y-16684819D01*
X15811500Y-18145000D02*
X15875000Y-18208500D01*
X15811500Y-16510000D02*
X15811500Y-18145000D01*
X13672000Y-28111500D02*
X14801000Y-28111500D01*
X14801000Y-28111500D02*
X15903510Y-27008990D01*
X15903510Y-26059026D02*
X15903510Y-25493341D01*
X15903510Y-27008990D02*
X15903510Y-26059026D01*
X14605000Y-16680319D02*
X14490510Y-16565829D01*
X14605000Y-18208500D02*
X14605000Y-16680319D01*
X14490510Y-16565829D02*
X14090511Y-16165830D01*
X13335000Y-16659457D02*
X13014042Y-16338499D01*
X13335000Y-18208500D02*
X13335000Y-16659457D01*
X13014042Y-16338499D02*
X12614043Y-15938500D01*
D29*
X17032500Y-45275500D02*
X13017500Y-45275500D01*
X19636000Y-42672000D02*
X17032500Y-45275500D01*
X21095500Y-42672000D02*
X19636000Y-42672000D01*
X9969500Y-44433500D02*
X11314500Y-43088500D01*
X9969500Y-44450000D02*
X9969500Y-44433500D01*
D31*
X7937500Y-39950000D02*
X7799000Y-40088500D01*
X8503182Y-38900989D02*
X7937500Y-39466671D01*
X7937500Y-39466671D02*
X7937500Y-39950000D01*
X7799000Y-40088500D02*
X7100500Y-40088500D01*
X10360001Y-39832501D02*
X10360001Y-39316001D01*
X10616000Y-40088500D02*
X10360001Y-39832501D01*
X11314500Y-40088500D02*
X10616000Y-40088500D01*
X9944989Y-38900989D02*
X8503182Y-38900989D01*
X10360001Y-39316001D02*
X9944989Y-38900989D01*
D29*
X4398000Y-50276000D02*
X4398000Y-52276000D01*
X8890500Y-45783500D02*
X4398000Y-50276000D01*
X11169922Y-45783500D02*
X8890500Y-45783500D01*
X11169922Y-45783500D02*
X11169922Y-44710078D01*
X11169922Y-44710078D02*
X13843000Y-42037000D01*
X11366000Y-42037000D02*
X11314500Y-42088500D01*
X13843000Y-42037000D02*
X12509500Y-42037000D01*
X12509500Y-42037000D02*
X11366000Y-42037000D01*
X10877927Y-36341427D02*
X11385176Y-36341427D01*
X10033000Y-35496500D02*
X10877927Y-36341427D01*
X12509500Y-42037000D02*
X12667012Y-41879488D01*
X12667012Y-41879488D02*
X12667012Y-39181429D01*
X12667012Y-39181429D02*
X12207212Y-38721629D01*
X12207212Y-38721629D02*
X11807213Y-38321630D01*
D31*
X22146237Y-37988263D02*
X21590000Y-38544500D01*
X22001000Y-34611500D02*
X22146237Y-34756737D01*
X22146237Y-34756737D02*
X22146237Y-37988263D01*
X20872000Y-34611500D02*
X22001000Y-34611500D01*
X15176500Y-24305500D02*
X13843000Y-22972000D01*
X15176500Y-24574500D02*
X15176500Y-24305500D01*
X20637500Y-25273000D02*
X18732500Y-27178000D01*
X20637500Y-22987000D02*
X20637500Y-25273000D01*
X16446500Y-29976625D02*
X16198966Y-30224159D01*
X16446500Y-28638500D02*
X16446500Y-29976625D01*
X14801000Y-29411500D02*
X15798967Y-30409467D01*
X13672000Y-29411500D02*
X14801000Y-29411500D01*
X16198966Y-30224159D02*
X15798967Y-30624158D01*
X15798967Y-30409467D02*
X15798967Y-30624158D01*
X20872000Y-34611500D02*
X19786309Y-34611500D01*
X16198966Y-31024157D02*
X15798967Y-30624158D01*
X19786309Y-34611500D02*
X18604310Y-33429501D01*
X18256539Y-33429501D02*
X16198966Y-31371928D01*
X18604310Y-33429501D02*
X18256539Y-33429501D01*
X16198966Y-31371928D02*
X16198966Y-31024157D01*
D29*
X5754535Y-40020263D02*
X5382237Y-40020263D01*
X7100500Y-39481999D02*
X6292799Y-39481999D01*
X6292799Y-39481999D02*
X5754535Y-40020263D01*
X9371499Y-37211000D02*
X7100500Y-39481999D01*
X5382237Y-40020263D02*
X4826000Y-40576500D01*
X8828990Y-36668491D02*
X9371499Y-37211000D01*
X8828990Y-33252918D02*
X8828990Y-36668491D01*
X9185408Y-32896500D02*
X8828990Y-33252918D01*
X10033000Y-32896500D02*
X9185408Y-32896500D01*
X9459011Y-37298512D02*
X9371499Y-37211000D01*
X16242500Y-42672000D02*
X16242500Y-40769000D01*
X14633501Y-39160001D02*
X14633501Y-37880579D01*
X14051434Y-37298512D02*
X9459011Y-37298512D01*
X16242500Y-40769000D02*
X14633501Y-39160001D01*
X14633501Y-37880579D02*
X14051434Y-37298512D01*
D31*
X17843500Y-54465000D02*
X17843500Y-55069000D01*
X17315010Y-55597490D02*
X17145000Y-55597490D01*
X17843500Y-55069000D02*
X17315010Y-55597490D01*
X20872000Y-35911500D02*
X18413329Y-35911500D01*
X16200135Y-38124694D02*
X15800136Y-38524693D01*
X18413329Y-35911500D02*
X16200135Y-38124694D01*
X20872000Y-35261500D02*
X18348649Y-35261500D01*
X15998515Y-37574779D02*
X15432830Y-37574779D01*
X18348649Y-35261500D02*
X16035370Y-37574779D01*
X16035370Y-37574779D02*
X15998515Y-37574779D01*
X19307536Y-56896000D02*
X23622000Y-56896000D01*
X23622000Y-56896000D02*
X23939500Y-56578500D01*
X23939500Y-56578500D02*
X23939500Y-53370000D01*
X18343500Y-54465000D02*
X18343500Y-55931964D01*
X23939500Y-53370000D02*
X21989237Y-51419737D01*
X18343500Y-55931964D02*
X19307536Y-56896000D01*
X21989237Y-51419737D02*
X21433000Y-50863500D01*
X5572737Y-20589263D02*
X5016500Y-21145500D01*
X12543000Y-28761500D02*
X11455488Y-27673988D01*
X11455488Y-21964533D02*
X11455488Y-20472488D01*
X5864510Y-20297490D02*
X5572737Y-20589263D01*
X13672000Y-28761500D02*
X12543000Y-28761500D01*
X11704521Y-22213566D02*
X11455488Y-21964533D01*
X11455488Y-24009467D02*
X11704521Y-23760434D01*
X11704521Y-23760434D02*
X11704521Y-22213566D01*
X11455488Y-20472488D02*
X11280490Y-20297490D01*
X11280490Y-20297490D02*
X5864510Y-20297490D01*
X11455488Y-27673988D02*
X11455488Y-24009467D01*
X8156250Y-5940750D02*
X8156250Y-14898078D01*
X6423001Y-16881499D02*
X6273399Y-16881499D01*
X4200000Y-3238500D02*
X5454000Y-3238500D01*
X5454000Y-3238500D02*
X8156250Y-5940750D01*
X5572737Y-17582161D02*
X5572737Y-20589263D01*
X6273399Y-16881499D02*
X5572737Y-17582161D01*
X7800991Y-15253337D02*
X7800991Y-15503509D01*
X8156250Y-14898078D02*
X7800991Y-15253337D01*
X7800991Y-15503509D02*
X6423001Y-16881499D01*
X15001002Y-27911498D02*
X14801000Y-28111500D01*
X16795462Y-27911498D02*
X15001002Y-27911498D01*
X17173502Y-29705820D02*
X17173502Y-28289538D01*
X17173502Y-28289538D02*
X16795462Y-27911498D01*
X17761001Y-30293319D02*
X17173502Y-29705820D01*
X17761001Y-30397501D02*
X17761001Y-30293319D01*
X18161000Y-30797500D02*
X17761001Y-30397501D01*
X21200000Y-17208500D02*
X21200000Y-17912500D01*
X19107924Y-20004576D02*
X18622120Y-20004576D01*
X18622120Y-20004576D02*
X18056435Y-20004576D01*
X21200000Y-17912500D02*
X19107924Y-20004576D01*
D30*
G36*
X5001238Y-20211350D02*
G01*
X4560250Y-20211350D01*
X4425560Y-20224616D01*
X4296045Y-20263904D01*
X4176684Y-20327703D01*
X4072063Y-20413563D01*
X3986203Y-20518184D01*
X3922404Y-20637545D01*
X3883116Y-20767060D01*
X3869850Y-20901750D01*
X3869850Y-21389250D01*
X3883116Y-21523940D01*
X3922404Y-21653455D01*
X3986203Y-21772816D01*
X4072063Y-21877437D01*
X4176684Y-21963297D01*
X4296045Y-22027096D01*
X4425560Y-22066384D01*
X4560250Y-22079650D01*
X5472750Y-22079650D01*
X5607440Y-22066384D01*
X5736955Y-22027096D01*
X5856316Y-21963297D01*
X5960937Y-21877437D01*
X6046797Y-21772816D01*
X6110596Y-21653455D01*
X6149884Y-21523940D01*
X6163150Y-21389250D01*
X6163150Y-20901750D01*
X6159923Y-20868990D01*
X6603577Y-20868990D01*
X6600350Y-20901750D01*
X6600350Y-21389250D01*
X6613616Y-21523940D01*
X6652904Y-21653455D01*
X6716703Y-21772816D01*
X6802419Y-21877262D01*
X6778402Y-21884547D01*
X6657056Y-21949408D01*
X6550696Y-22036696D01*
X6463408Y-22143056D01*
X6398547Y-22264402D01*
X6358606Y-22396070D01*
X6345120Y-22533000D01*
X6348500Y-22718875D01*
X6523125Y-22893500D01*
X7620000Y-22893500D01*
X7620000Y-22873500D01*
X7874000Y-22873500D01*
X7874000Y-22893500D01*
X8970875Y-22893500D01*
X9004375Y-22860000D01*
X9842500Y-22860000D01*
X9842500Y-22840000D01*
X10096500Y-22840000D01*
X10096500Y-22860000D01*
X10116500Y-22860000D01*
X10116500Y-23114000D01*
X10096500Y-23114000D01*
X10096500Y-23134000D01*
X9842500Y-23134000D01*
X9842500Y-23114000D01*
X8745625Y-23114000D01*
X8712125Y-23147500D01*
X7874000Y-23147500D01*
X7874000Y-24031875D01*
X8048625Y-24206500D01*
X8447000Y-24209880D01*
X8583930Y-24196394D01*
X8715598Y-24156453D01*
X8836944Y-24091592D01*
X8878660Y-24057356D01*
X8879556Y-24058092D01*
X9000902Y-24122953D01*
X9132570Y-24162894D01*
X9269500Y-24176380D01*
X9480868Y-24174587D01*
X8364114Y-25291341D01*
X8337467Y-25313210D01*
X8315599Y-25339856D01*
X8315596Y-25339859D01*
X8250179Y-25419569D01*
X8209436Y-25495795D01*
X8185318Y-25540916D01*
X8145377Y-25672583D01*
X8135270Y-25775204D01*
X8135270Y-25775214D01*
X8131892Y-25809512D01*
X8135270Y-25843810D01*
X8135271Y-29403000D01*
X7695671Y-29403000D01*
X7622426Y-29363849D01*
X7538637Y-29338432D01*
X7516477Y-29336250D01*
X7608444Y-29287092D01*
X7714804Y-29199804D01*
X7802092Y-29093444D01*
X7866953Y-28972098D01*
X7906894Y-28840430D01*
X7920380Y-28703500D01*
X7917000Y-28305125D01*
X7742375Y-28130500D01*
X6858000Y-28130500D01*
X6858000Y-28150500D01*
X6604000Y-28150500D01*
X6604000Y-28130500D01*
X6584000Y-28130500D01*
X6584000Y-27876500D01*
X6604000Y-27876500D01*
X6604000Y-26779625D01*
X6858000Y-26779625D01*
X6858000Y-27876500D01*
X7742375Y-27876500D01*
X7917000Y-27701875D01*
X7920380Y-27303500D01*
X7906894Y-27166570D01*
X7866953Y-27034902D01*
X7802092Y-26913556D01*
X7714804Y-26807196D01*
X7608444Y-26719908D01*
X7487098Y-26655047D01*
X7355430Y-26615106D01*
X7218500Y-26601620D01*
X7032625Y-26605000D01*
X6858000Y-26779625D01*
X6604000Y-26779625D01*
X6429375Y-26605000D01*
X6243500Y-26601620D01*
X6106570Y-26615106D01*
X5974902Y-26655047D01*
X5853556Y-26719908D01*
X5747196Y-26807196D01*
X5659908Y-26913556D01*
X5595047Y-27034902D01*
X5587762Y-27058919D01*
X5483316Y-26973203D01*
X5363955Y-26909404D01*
X5234440Y-26870116D01*
X5099750Y-26856850D01*
X4612250Y-26856850D01*
X4477560Y-26870116D01*
X4348045Y-26909404D01*
X4228684Y-26973203D01*
X4124063Y-27059063D01*
X4038203Y-27163684D01*
X3974404Y-27283045D01*
X3935116Y-27412560D01*
X3921850Y-27547250D01*
X3921850Y-28459750D01*
X3935116Y-28594440D01*
X3974404Y-28723955D01*
X4038203Y-28843316D01*
X4124063Y-28947937D01*
X4150001Y-28969223D01*
X4150000Y-29333937D01*
X4104363Y-29338432D01*
X4020574Y-29363849D01*
X3943355Y-29405124D01*
X3875671Y-29460671D01*
X3820124Y-29528355D01*
X3778849Y-29605574D01*
X3753432Y-29689363D01*
X3744850Y-29776500D01*
X3744850Y-30426500D01*
X3753432Y-30513637D01*
X3778849Y-30597426D01*
X3820124Y-30674645D01*
X3875671Y-30742329D01*
X3943355Y-30797876D01*
X4020574Y-30839151D01*
X4104363Y-30864568D01*
X4191500Y-30873150D01*
X5251500Y-30873150D01*
X5338637Y-30864568D01*
X5422426Y-30839151D01*
X5492999Y-30801428D01*
X5493000Y-31301572D01*
X5422426Y-31263849D01*
X5338637Y-31238432D01*
X5251500Y-31229850D01*
X4191500Y-31229850D01*
X4104363Y-31238432D01*
X4020574Y-31263849D01*
X3943355Y-31305124D01*
X3875671Y-31360671D01*
X3820124Y-31428355D01*
X3778849Y-31505574D01*
X3753432Y-31589363D01*
X3744850Y-31676500D01*
X3744850Y-32072552D01*
X3611832Y-32017454D01*
X3448676Y-31985000D01*
X3282324Y-31985000D01*
X3119168Y-32017454D01*
X2965479Y-32081114D01*
X2827163Y-32173534D01*
X2709534Y-32291163D01*
X2617114Y-32429479D01*
X2553454Y-32583168D01*
X2521000Y-32746324D01*
X2521000Y-32912676D01*
X2553454Y-33075832D01*
X2617114Y-33229521D01*
X2667000Y-33304181D01*
X2667000Y-33429494D01*
X2677107Y-33532115D01*
X2717048Y-33663782D01*
X2781910Y-33785128D01*
X2869198Y-33891488D01*
X2975558Y-33978776D01*
X3096904Y-34043637D01*
X3228571Y-34083578D01*
X3365500Y-34097064D01*
X3502430Y-34083578D01*
X3601652Y-34053479D01*
X3828350Y-34280178D01*
X3828350Y-34619250D01*
X3841616Y-34753940D01*
X3880904Y-34883455D01*
X3944703Y-35002816D01*
X4030563Y-35107437D01*
X4135184Y-35193297D01*
X4254545Y-35257096D01*
X4384060Y-35296384D01*
X4518750Y-35309650D01*
X5006250Y-35309650D01*
X5140940Y-35296384D01*
X5270455Y-35257096D01*
X5389816Y-35193297D01*
X5494262Y-35107581D01*
X5501547Y-35131598D01*
X5566408Y-35252944D01*
X5653696Y-35359304D01*
X5760056Y-35446592D01*
X5881402Y-35511453D01*
X6013070Y-35551394D01*
X6150000Y-35564880D01*
X6335875Y-35561500D01*
X6510500Y-35386875D01*
X6510500Y-34290000D01*
X6764500Y-34290000D01*
X6764500Y-35386875D01*
X6939125Y-35561500D01*
X7125000Y-35564880D01*
X7261930Y-35551394D01*
X7393598Y-35511453D01*
X7514944Y-35446592D01*
X7621304Y-35359304D01*
X7708592Y-35252944D01*
X7773453Y-35131598D01*
X7813394Y-34999930D01*
X7826880Y-34863000D01*
X7823500Y-34464625D01*
X7648875Y-34290000D01*
X6764500Y-34290000D01*
X6510500Y-34290000D01*
X6490500Y-34290000D01*
X6490500Y-34036000D01*
X6510500Y-34036000D01*
X6510500Y-34016000D01*
X6764500Y-34016000D01*
X6764500Y-34036000D01*
X7648875Y-34036000D01*
X7823500Y-33861375D01*
X7826880Y-33463000D01*
X7813394Y-33326070D01*
X7773453Y-33194402D01*
X7708592Y-33073056D01*
X7621304Y-32966696D01*
X7514944Y-32879408D01*
X7393598Y-32814547D01*
X7261930Y-32774606D01*
X7247147Y-32773150D01*
X7451500Y-32773150D01*
X7538637Y-32764568D01*
X7622426Y-32739151D01*
X7699645Y-32697876D01*
X7767329Y-32642329D01*
X7822876Y-32574645D01*
X7864151Y-32497426D01*
X7889568Y-32413637D01*
X7898150Y-32326500D01*
X7898150Y-31913554D01*
X7947804Y-31872804D01*
X8035092Y-31766444D01*
X8099953Y-31645098D01*
X8139894Y-31513430D01*
X8153380Y-31376500D01*
X8150000Y-31353125D01*
X7975375Y-31178500D01*
X7048500Y-31178500D01*
X7048500Y-31198500D01*
X6794500Y-31198500D01*
X6794500Y-31178500D01*
X6774500Y-31178500D01*
X6774500Y-30924500D01*
X6794500Y-30924500D01*
X6794500Y-30904500D01*
X7048500Y-30904500D01*
X7048500Y-30924500D01*
X7975375Y-30924500D01*
X8099875Y-30800000D01*
X8660597Y-30800000D01*
X8827657Y-30967061D01*
X8732663Y-31030534D01*
X8615034Y-31148163D01*
X8522614Y-31286479D01*
X8458954Y-31440168D01*
X8426500Y-31603324D01*
X8426500Y-31769676D01*
X8458954Y-31932832D01*
X8522614Y-32086521D01*
X8615034Y-32224837D01*
X8732663Y-32342466D01*
X8747428Y-32352332D01*
X8715754Y-32378326D01*
X8715751Y-32378329D01*
X8689105Y-32400197D01*
X8667237Y-32426843D01*
X8359333Y-32734747D01*
X8332687Y-32756616D01*
X8310819Y-32783262D01*
X8310816Y-32783265D01*
X8245399Y-32862975D01*
X8204696Y-32939125D01*
X8180538Y-32984322D01*
X8140597Y-33115989D01*
X8130490Y-33218610D01*
X8130490Y-33218620D01*
X8127112Y-33252918D01*
X8130490Y-33287216D01*
X8130491Y-36634183D01*
X8127112Y-36668491D01*
X8140598Y-36805420D01*
X8180539Y-36937089D01*
X8245399Y-37058434D01*
X8310816Y-37138144D01*
X8310820Y-37138148D01*
X8332688Y-37164794D01*
X8359333Y-37186661D01*
X8383672Y-37211000D01*
X6811173Y-38783499D01*
X6327096Y-38783499D01*
X6292798Y-38780121D01*
X6258500Y-38783499D01*
X6258490Y-38783499D01*
X6155869Y-38793606D01*
X6024202Y-38833547D01*
X6024200Y-38833548D01*
X5902855Y-38898408D01*
X5823144Y-38963825D01*
X5823136Y-38963833D01*
X5796496Y-38985696D01*
X5774632Y-39012337D01*
X5465207Y-39321763D01*
X5416535Y-39321763D01*
X5382237Y-39318385D01*
X5347939Y-39321763D01*
X5347928Y-39321763D01*
X5245307Y-39331870D01*
X5113640Y-39371811D01*
X5057154Y-39402003D01*
X4992293Y-39436672D01*
X4912583Y-39502089D01*
X4912580Y-39502092D01*
X4885934Y-39523960D01*
X4864066Y-39550606D01*
X4772322Y-39642350D01*
X4369750Y-39642350D01*
X4235060Y-39655616D01*
X4105545Y-39694904D01*
X3986184Y-39758703D01*
X3881563Y-39844563D01*
X3795703Y-39949184D01*
X3731904Y-40068545D01*
X3692616Y-40198060D01*
X3679350Y-40332750D01*
X3679350Y-40820250D01*
X3692616Y-40954940D01*
X3731904Y-41084455D01*
X3795703Y-41203816D01*
X3881419Y-41308262D01*
X3857402Y-41315547D01*
X3736056Y-41380408D01*
X3629696Y-41467696D01*
X3542408Y-41574056D01*
X3477547Y-41695402D01*
X3437606Y-41827070D01*
X3424120Y-41964000D01*
X3427500Y-42149875D01*
X3602125Y-42324500D01*
X4699000Y-42324500D01*
X4699000Y-42304500D01*
X4953000Y-42304500D01*
X4953000Y-42324500D01*
X4973000Y-42324500D01*
X4973000Y-42578500D01*
X4953000Y-42578500D01*
X4953000Y-43462875D01*
X5127625Y-43637500D01*
X5526000Y-43640880D01*
X5662930Y-43627394D01*
X5794598Y-43587453D01*
X5915944Y-43522592D01*
X5992582Y-43459696D01*
X6011353Y-43518608D01*
X6077899Y-43639039D01*
X6166660Y-43744172D01*
X6274227Y-43829969D01*
X6396465Y-43893133D01*
X6528677Y-43931235D01*
X6665781Y-43942812D01*
X6798875Y-43939500D01*
X6973500Y-43764875D01*
X6973500Y-41941500D01*
X7227500Y-41941500D01*
X7227500Y-43764875D01*
X7402125Y-43939500D01*
X7535219Y-43942812D01*
X7672323Y-43931235D01*
X7804535Y-43893133D01*
X7926773Y-43829969D01*
X8034340Y-43744172D01*
X8123101Y-43639039D01*
X8189647Y-43518608D01*
X8214642Y-43440164D01*
X8245070Y-43449394D01*
X8382000Y-43462880D01*
X8905875Y-43459500D01*
X9080500Y-43284875D01*
X9080500Y-41465500D01*
X9060500Y-41465500D01*
X9060500Y-41211500D01*
X9080500Y-41211500D01*
X9080500Y-41191500D01*
X9334500Y-41191500D01*
X9334500Y-41211500D01*
X9354500Y-41211500D01*
X9354500Y-41465500D01*
X9334500Y-41465500D01*
X9334500Y-43284875D01*
X9509125Y-43459500D01*
X9952810Y-43462363D01*
X9790640Y-43624533D01*
X9723168Y-43637954D01*
X9569479Y-43701614D01*
X9431163Y-43794034D01*
X9313534Y-43911663D01*
X9221114Y-44049979D01*
X9157454Y-44203668D01*
X9125000Y-44366824D01*
X9125000Y-44533176D01*
X9157454Y-44696332D01*
X9221114Y-44850021D01*
X9313534Y-44988337D01*
X9410197Y-45085000D01*
X8924797Y-45085000D01*
X8890499Y-45081622D01*
X8856201Y-45085000D01*
X8856191Y-45085000D01*
X8753570Y-45095107D01*
X8621903Y-45135048D01*
X8621901Y-45135049D01*
X8500556Y-45199909D01*
X8424843Y-45262046D01*
X8394197Y-45287197D01*
X8372329Y-45313843D01*
X4856823Y-48829350D01*
X3398000Y-48829350D01*
X3310863Y-48837932D01*
X3227074Y-48863349D01*
X3149855Y-48904624D01*
X3082171Y-48960171D01*
X3026624Y-49027855D01*
X2985349Y-49105074D01*
X2959932Y-49188863D01*
X2951350Y-49276000D01*
X2951350Y-55276000D01*
X2959932Y-55363137D01*
X2985349Y-55446926D01*
X3026624Y-55524145D01*
X3082171Y-55591829D01*
X3149855Y-55647376D01*
X3227074Y-55688651D01*
X3310863Y-55714068D01*
X3398000Y-55722650D01*
X5398000Y-55722650D01*
X5485137Y-55714068D01*
X5568926Y-55688651D01*
X5646145Y-55647376D01*
X5713829Y-55591829D01*
X5769376Y-55524145D01*
X5810651Y-55446926D01*
X5836068Y-55363137D01*
X5844650Y-55276000D01*
X6696120Y-55276000D01*
X6709606Y-55412930D01*
X6749547Y-55544598D01*
X6814408Y-55665944D01*
X6901696Y-55772304D01*
X7008056Y-55859592D01*
X7129402Y-55924453D01*
X7261070Y-55964394D01*
X7398000Y-55977880D01*
X8096375Y-55974500D01*
X8271000Y-55799875D01*
X8271000Y-52403000D01*
X8525000Y-52403000D01*
X8525000Y-55799875D01*
X8699625Y-55974500D01*
X9398000Y-55977880D01*
X9534930Y-55964394D01*
X9666598Y-55924453D01*
X9787944Y-55859592D01*
X9894304Y-55772304D01*
X9981592Y-55665944D01*
X10046453Y-55544598D01*
X10086394Y-55412930D01*
X10099880Y-55276000D01*
X10096500Y-52577625D01*
X9921875Y-52403000D01*
X8525000Y-52403000D01*
X8271000Y-52403000D01*
X6874125Y-52403000D01*
X6699500Y-52577625D01*
X6696120Y-55276000D01*
X5844650Y-55276000D01*
X5844650Y-49817177D01*
X6385827Y-49276000D01*
X6696120Y-49276000D01*
X6699500Y-51974375D01*
X6874125Y-52149000D01*
X8271000Y-52149000D01*
X8271000Y-48752125D01*
X8525000Y-48752125D01*
X8525000Y-52149000D01*
X9921875Y-52149000D01*
X10096500Y-51974375D01*
X10099880Y-49276000D01*
X10086394Y-49139070D01*
X10046453Y-49007402D01*
X9981592Y-48886056D01*
X9894304Y-48779696D01*
X9787944Y-48692408D01*
X9666598Y-48627547D01*
X9534930Y-48587606D01*
X9398000Y-48574120D01*
X8699625Y-48577500D01*
X8525000Y-48752125D01*
X8271000Y-48752125D01*
X8096375Y-48577500D01*
X7398000Y-48574120D01*
X7261070Y-48587606D01*
X7129402Y-48627547D01*
X7008056Y-48692408D01*
X6901696Y-48779696D01*
X6814408Y-48886056D01*
X6749547Y-49007402D01*
X6709606Y-49139070D01*
X6696120Y-49276000D01*
X6385827Y-49276000D01*
X9179828Y-46482000D01*
X11135613Y-46482000D01*
X11169922Y-46485379D01*
X11204230Y-46482000D01*
X11204231Y-46482000D01*
X11306852Y-46471893D01*
X11438519Y-46431952D01*
X11559865Y-46367091D01*
X11666225Y-46279803D01*
X11753513Y-46173443D01*
X11818374Y-46052097D01*
X11858315Y-45920430D01*
X11871801Y-45783500D01*
X11868422Y-45749191D01*
X11868422Y-44999405D01*
X13896679Y-42971150D01*
X14299250Y-42971150D01*
X14433940Y-42957884D01*
X14563455Y-42918596D01*
X14682816Y-42854797D01*
X14787437Y-42768937D01*
X14844350Y-42699588D01*
X14844350Y-44067000D01*
X14852932Y-44154137D01*
X14878349Y-44237926D01*
X14919624Y-44315145D01*
X14975171Y-44382829D01*
X15042855Y-44438376D01*
X15120074Y-44479651D01*
X15203863Y-44505068D01*
X15291000Y-44513650D01*
X16806523Y-44513650D01*
X16743173Y-44577000D01*
X13492181Y-44577000D01*
X13417521Y-44527114D01*
X13263832Y-44463454D01*
X13100676Y-44431000D01*
X12934324Y-44431000D01*
X12771168Y-44463454D01*
X12617479Y-44527114D01*
X12479163Y-44619534D01*
X12361534Y-44737163D01*
X12269114Y-44875479D01*
X12205454Y-45029168D01*
X12173000Y-45192324D01*
X12173000Y-45358676D01*
X12205454Y-45521832D01*
X12269114Y-45675521D01*
X12361534Y-45813837D01*
X12479163Y-45931466D01*
X12617479Y-46023886D01*
X12771168Y-46087546D01*
X12934324Y-46120000D01*
X13100676Y-46120000D01*
X13263832Y-46087546D01*
X13417521Y-46023886D01*
X13492181Y-45974000D01*
X14033496Y-45974000D01*
X13990103Y-46038942D01*
X13926443Y-46192631D01*
X13893989Y-46355787D01*
X13893989Y-46522139D01*
X13926443Y-46685295D01*
X13990103Y-46838984D01*
X14082523Y-46977300D01*
X14200152Y-47094929D01*
X14338468Y-47187349D01*
X14492157Y-47251009D01*
X14655313Y-47283463D01*
X14774767Y-47283463D01*
X16524669Y-49033366D01*
X16460114Y-49129979D01*
X16396454Y-49283668D01*
X16364000Y-49446824D01*
X16364000Y-49613176D01*
X16389625Y-49742003D01*
X16350440Y-49730116D01*
X16215750Y-49716850D01*
X15728250Y-49716850D01*
X15593560Y-49730116D01*
X15464045Y-49769404D01*
X15344684Y-49833203D01*
X15240238Y-49918919D01*
X15232953Y-49894902D01*
X15168092Y-49773556D01*
X15080804Y-49667196D01*
X14974444Y-49579908D01*
X14853098Y-49515047D01*
X14721430Y-49475106D01*
X14584500Y-49461620D01*
X14398625Y-49465000D01*
X14224000Y-49639625D01*
X14224000Y-50736500D01*
X14244000Y-50736500D01*
X14244000Y-50990500D01*
X14224000Y-50990500D01*
X14224000Y-52087375D01*
X14291796Y-52155171D01*
X14290419Y-52157860D01*
X14252802Y-52290211D01*
X14241729Y-52427357D01*
X14245000Y-52463375D01*
X14419623Y-52637998D01*
X14245000Y-52637998D01*
X14245000Y-52655500D01*
X14167711Y-52655500D01*
X14019045Y-52685072D01*
X13879005Y-52743078D01*
X13752973Y-52827291D01*
X13645791Y-52934473D01*
X13561578Y-53060505D01*
X13503572Y-53200545D01*
X13484748Y-53295180D01*
X13369130Y-53312583D01*
X13109953Y-53405945D01*
X12993631Y-53468119D01*
X12937754Y-53719649D01*
X13713500Y-54495395D01*
X13727643Y-54481253D01*
X13907248Y-54660858D01*
X13893105Y-54675000D01*
X13907248Y-54689143D01*
X13727643Y-54868748D01*
X13713500Y-54854605D01*
X13699358Y-54868748D01*
X13519753Y-54689143D01*
X13533895Y-54675000D01*
X12758149Y-53899254D01*
X12506619Y-53955131D01*
X12389370Y-54204414D01*
X12323006Y-54471782D01*
X12319000Y-54557051D01*
X12319000Y-51563500D01*
X12907620Y-51563500D01*
X12921106Y-51700430D01*
X12961047Y-51832098D01*
X13025908Y-51953444D01*
X13113196Y-52059804D01*
X13219556Y-52147092D01*
X13340902Y-52211953D01*
X13472570Y-52251894D01*
X13609500Y-52265380D01*
X13795375Y-52262000D01*
X13970000Y-52087375D01*
X13970000Y-50990500D01*
X13085625Y-50990500D01*
X12911000Y-51165125D01*
X12907620Y-51563500D01*
X12319000Y-51563500D01*
X12319000Y-50163500D01*
X12907620Y-50163500D01*
X12911000Y-50561875D01*
X13085625Y-50736500D01*
X13970000Y-50736500D01*
X13970000Y-49639625D01*
X13795375Y-49465000D01*
X13609500Y-49461620D01*
X13472570Y-49475106D01*
X13340902Y-49515047D01*
X13219556Y-49579908D01*
X13113196Y-49667196D01*
X13025908Y-49773556D01*
X12961047Y-49894902D01*
X12921106Y-50026570D01*
X12907620Y-50163500D01*
X12319000Y-50163500D01*
X12319000Y-48163181D01*
X12368886Y-48088521D01*
X12432546Y-47934832D01*
X12465000Y-47771676D01*
X12465000Y-47605324D01*
X12432546Y-47442168D01*
X12368886Y-47288479D01*
X12276466Y-47150163D01*
X12158837Y-47032534D01*
X12020521Y-46940114D01*
X11866832Y-46876454D01*
X11703676Y-46844000D01*
X11537324Y-46844000D01*
X11374168Y-46876454D01*
X11220479Y-46940114D01*
X11082163Y-47032534D01*
X10964534Y-47150163D01*
X10872114Y-47288479D01*
X10808454Y-47442168D01*
X10776000Y-47605324D01*
X10776000Y-47771676D01*
X10808454Y-47934832D01*
X10872114Y-48088521D01*
X10922001Y-48163182D01*
X10922000Y-55401202D01*
X10918622Y-55435500D01*
X10922000Y-55469798D01*
X10922000Y-55469808D01*
X10932107Y-55572429D01*
X10972048Y-55704096D01*
X10972049Y-55704098D01*
X11036909Y-55825443D01*
X11102326Y-55905153D01*
X11102329Y-55905156D01*
X11124197Y-55931802D01*
X11150844Y-55953671D01*
X12054829Y-56857657D01*
X12076697Y-56884303D01*
X12103343Y-56906171D01*
X12103345Y-56906173D01*
X12183056Y-56971591D01*
X12260327Y-57012893D01*
X12304403Y-57036452D01*
X12436070Y-57076393D01*
X12538691Y-57086500D01*
X12538701Y-57086500D01*
X12572999Y-57089878D01*
X12607297Y-57086500D01*
X13618202Y-57086500D01*
X13652500Y-57089878D01*
X13686798Y-57086500D01*
X13686809Y-57086500D01*
X13789430Y-57076393D01*
X13921097Y-57036452D01*
X13946264Y-57023000D01*
X15844819Y-57023000D01*
X15919479Y-57072886D01*
X16073168Y-57136546D01*
X16236324Y-57169000D01*
X16402676Y-57169000D01*
X16565832Y-57136546D01*
X16719521Y-57072886D01*
X16857837Y-56980466D01*
X16975466Y-56862837D01*
X17067886Y-56724521D01*
X17131546Y-56570832D01*
X17157174Y-56441990D01*
X17228176Y-56441990D01*
X17391332Y-56409536D01*
X17545021Y-56345876D01*
X17683337Y-56253456D01*
X17800966Y-56135827D01*
X17805890Y-56128458D01*
X17812948Y-56151725D01*
X17860840Y-56241324D01*
X17866017Y-56251009D01*
X17937434Y-56338031D01*
X17959244Y-56355930D01*
X18883570Y-57280257D01*
X18901469Y-57302067D01*
X18988491Y-57373484D01*
X19087774Y-57426552D01*
X19195502Y-57459231D01*
X19307536Y-57470265D01*
X19335610Y-57467500D01*
X23593926Y-57467500D01*
X23622000Y-57470265D01*
X23650074Y-57467500D01*
X23734034Y-57459231D01*
X23841762Y-57426552D01*
X23941045Y-57373484D01*
X24028067Y-57302067D01*
X24045970Y-57280252D01*
X24323753Y-57002469D01*
X24345567Y-56984567D01*
X24416984Y-56897545D01*
X24470052Y-56798262D01*
X24502731Y-56690534D01*
X24511000Y-56606574D01*
X24511000Y-56606573D01*
X24513765Y-56578500D01*
X24511000Y-56550426D01*
X24511000Y-53398071D01*
X24513765Y-53369999D01*
X24510262Y-53334437D01*
X24502731Y-53257966D01*
X24470052Y-53150238D01*
X24416984Y-53050955D01*
X24345567Y-52963933D01*
X24323757Y-52946034D01*
X22413203Y-51035481D01*
X22413199Y-51035476D01*
X22367150Y-50989427D01*
X22367150Y-50407250D01*
X22353884Y-50272560D01*
X22314596Y-50143045D01*
X22250797Y-50023684D01*
X22164937Y-49919063D01*
X22060316Y-49833203D01*
X21940955Y-49769404D01*
X21811440Y-49730116D01*
X21676750Y-49716850D01*
X21189250Y-49716850D01*
X21054560Y-49730116D01*
X20925045Y-49769404D01*
X20805684Y-49833203D01*
X20701238Y-49918919D01*
X20693953Y-49894902D01*
X20629092Y-49773556D01*
X20541804Y-49667196D01*
X20435444Y-49579908D01*
X20314098Y-49515047D01*
X20182430Y-49475106D01*
X20045500Y-49461620D01*
X19859625Y-49465000D01*
X19685000Y-49639625D01*
X19685000Y-50736500D01*
X19705000Y-50736500D01*
X19705000Y-50990500D01*
X19685000Y-50990500D01*
X19685000Y-51010500D01*
X19431000Y-51010500D01*
X19431000Y-50990500D01*
X19411000Y-50990500D01*
X19411000Y-50736500D01*
X19431000Y-50736500D01*
X19431000Y-49639625D01*
X19256375Y-49465000D01*
X19070500Y-49461620D01*
X18933570Y-49475106D01*
X18801902Y-49515047D01*
X18680556Y-49579908D01*
X18665000Y-49592675D01*
X18665000Y-48157074D01*
X18667765Y-48129000D01*
X18656731Y-48016966D01*
X18624052Y-47909238D01*
X18570984Y-47809955D01*
X18539569Y-47771676D01*
X18499567Y-47722933D01*
X18477757Y-47705034D01*
X17037000Y-46264278D01*
X17037000Y-46144824D01*
X17004546Y-45981668D01*
X17001505Y-45974325D01*
X17032500Y-45977378D01*
X17066798Y-45974000D01*
X17066809Y-45974000D01*
X17169430Y-45963893D01*
X17301097Y-45923952D01*
X17422443Y-45859091D01*
X17528803Y-45771803D01*
X17550675Y-45745152D01*
X19697350Y-43598478D01*
X19697350Y-44067000D01*
X19705932Y-44154137D01*
X19731349Y-44237926D01*
X19772624Y-44315145D01*
X19828171Y-44382829D01*
X19895855Y-44438376D01*
X19973074Y-44479651D01*
X20056863Y-44505068D01*
X20144000Y-44513650D01*
X22047000Y-44513650D01*
X22134137Y-44505068D01*
X22217926Y-44479651D01*
X22295145Y-44438376D01*
X22362829Y-44382829D01*
X22418376Y-44315145D01*
X22459651Y-44237926D01*
X22485068Y-44154137D01*
X22493650Y-44067000D01*
X22493650Y-41277000D01*
X22485068Y-41189863D01*
X22459651Y-41106074D01*
X22418376Y-41028855D01*
X22362829Y-40961171D01*
X22295145Y-40905624D01*
X22217926Y-40864349D01*
X22134137Y-40838932D01*
X22047000Y-40830350D01*
X20144000Y-40830350D01*
X20056863Y-40838932D01*
X19973074Y-40864349D01*
X19895855Y-40905624D01*
X19828171Y-40961171D01*
X19772624Y-41028855D01*
X19731349Y-41106074D01*
X19705932Y-41189863D01*
X19697350Y-41277000D01*
X19697350Y-41973500D01*
X19670297Y-41973500D01*
X19635999Y-41970122D01*
X19601701Y-41973500D01*
X19601691Y-41973500D01*
X19499070Y-41983607D01*
X19367403Y-42023548D01*
X19367401Y-42023549D01*
X19246056Y-42088409D01*
X19166346Y-42153826D01*
X19166343Y-42153829D01*
X19139697Y-42175697D01*
X19117829Y-42202343D01*
X17640650Y-43679523D01*
X17640650Y-41277000D01*
X17632068Y-41189863D01*
X17606651Y-41106074D01*
X17565376Y-41028855D01*
X17509829Y-40961171D01*
X17442145Y-40905624D01*
X17364926Y-40864349D01*
X17281137Y-40838932D01*
X17194000Y-40830350D01*
X16941000Y-40830350D01*
X16941000Y-40803297D01*
X16944378Y-40768999D01*
X16941000Y-40734701D01*
X16941000Y-40734691D01*
X16930893Y-40632070D01*
X16890952Y-40500403D01*
X16885044Y-40489350D01*
X16826091Y-40379056D01*
X16760674Y-40299345D01*
X16760666Y-40299337D01*
X16738803Y-40272697D01*
X16712162Y-40250834D01*
X15830521Y-39369193D01*
X15883312Y-39369193D01*
X16046468Y-39336739D01*
X16200157Y-39273079D01*
X16242928Y-39244500D01*
X18383620Y-39244500D01*
X18397106Y-39381430D01*
X18437047Y-39513098D01*
X18501908Y-39634444D01*
X18589196Y-39740804D01*
X18695556Y-39828092D01*
X18816902Y-39892953D01*
X18948570Y-39932894D01*
X19085500Y-39946380D01*
X19271375Y-39943000D01*
X19446000Y-39768375D01*
X19446000Y-38671500D01*
X18561625Y-38671500D01*
X18387000Y-38846125D01*
X18383620Y-39244500D01*
X16242928Y-39244500D01*
X16338473Y-39180659D01*
X16456102Y-39063030D01*
X16548522Y-38924714D01*
X16612182Y-38771025D01*
X16644636Y-38607869D01*
X16644636Y-38488415D01*
X17288551Y-37844500D01*
X18383620Y-37844500D01*
X18387000Y-38242875D01*
X18561625Y-38417500D01*
X19446000Y-38417500D01*
X19446000Y-37320625D01*
X19271375Y-37146000D01*
X19085500Y-37142620D01*
X18948570Y-37156106D01*
X18816902Y-37196047D01*
X18695556Y-37260908D01*
X18589196Y-37348196D01*
X18501908Y-37454556D01*
X18437047Y-37575902D01*
X18397106Y-37707570D01*
X18383620Y-37844500D01*
X17288551Y-37844500D01*
X18650052Y-36483000D01*
X19718544Y-36483000D01*
X19748855Y-36507876D01*
X19826074Y-36549151D01*
X19909863Y-36574568D01*
X19997000Y-36583150D01*
X21574738Y-36583150D01*
X21574738Y-37397850D01*
X21204250Y-37397850D01*
X21069560Y-37411116D01*
X20940045Y-37450404D01*
X20820684Y-37514203D01*
X20716238Y-37599919D01*
X20708953Y-37575902D01*
X20644092Y-37454556D01*
X20556804Y-37348196D01*
X20450444Y-37260908D01*
X20329098Y-37196047D01*
X20197430Y-37156106D01*
X20060500Y-37142620D01*
X19874625Y-37146000D01*
X19700000Y-37320625D01*
X19700000Y-38417500D01*
X19720000Y-38417500D01*
X19720000Y-38671500D01*
X19700000Y-38671500D01*
X19700000Y-39768375D01*
X19874625Y-39943000D01*
X20060500Y-39946380D01*
X20197430Y-39932894D01*
X20329098Y-39892953D01*
X20450444Y-39828092D01*
X20556804Y-39740804D01*
X20644092Y-39634444D01*
X20708953Y-39513098D01*
X20716238Y-39489081D01*
X20820684Y-39574797D01*
X20940045Y-39638596D01*
X21069560Y-39677884D01*
X21204250Y-39691150D01*
X21691750Y-39691150D01*
X21826440Y-39677884D01*
X21955955Y-39638596D01*
X22075316Y-39574797D01*
X22179937Y-39488937D01*
X22265797Y-39384316D01*
X22329596Y-39264955D01*
X22368884Y-39135440D01*
X22382150Y-39000750D01*
X22382150Y-38560573D01*
X22530494Y-38412229D01*
X22552304Y-38394330D01*
X22623721Y-38307308D01*
X22676789Y-38208025D01*
X22709468Y-38100297D01*
X22717737Y-38016337D01*
X22720502Y-37988263D01*
X22717737Y-37960189D01*
X22717737Y-34784808D01*
X22720502Y-34756736D01*
X22715488Y-34705828D01*
X22709468Y-34644703D01*
X22676789Y-34536975D01*
X22623721Y-34437692D01*
X22552304Y-34350670D01*
X22530490Y-34332768D01*
X22443083Y-34245361D01*
X22448880Y-34186500D01*
X22445500Y-34170625D01*
X22270875Y-33996000D01*
X21959367Y-33996000D01*
X21917926Y-33973849D01*
X21877217Y-33961500D01*
X21917926Y-33949151D01*
X21959367Y-33927000D01*
X22270875Y-33927000D01*
X22445500Y-33752375D01*
X22448880Y-33736500D01*
X22435394Y-33599570D01*
X22395453Y-33467902D01*
X22330592Y-33346556D01*
X22243304Y-33240196D01*
X22193650Y-33199446D01*
X22193650Y-33086500D01*
X22185068Y-32999363D01*
X22181166Y-32986500D01*
X22185068Y-32973637D01*
X22193650Y-32886500D01*
X22193650Y-32773554D01*
X22243304Y-32732804D01*
X22330592Y-32626444D01*
X22395453Y-32505098D01*
X22435394Y-32373430D01*
X22448880Y-32236500D01*
X22445500Y-32220625D01*
X22270875Y-32046000D01*
X21959367Y-32046000D01*
X21917926Y-32023849D01*
X21877217Y-32011500D01*
X21917926Y-31999151D01*
X21959367Y-31977000D01*
X22270875Y-31977000D01*
X22445500Y-31802375D01*
X22448880Y-31786500D01*
X22435394Y-31649570D01*
X22395453Y-31517902D01*
X22330592Y-31396556D01*
X22243304Y-31290196D01*
X22193650Y-31249446D01*
X22193650Y-31136500D01*
X22185068Y-31049363D01*
X22181166Y-31036500D01*
X22185068Y-31023637D01*
X22193650Y-30936500D01*
X22193650Y-30486500D01*
X22185068Y-30399363D01*
X22181166Y-30386500D01*
X22185068Y-30373637D01*
X22193650Y-30286500D01*
X22193650Y-30173554D01*
X22243304Y-30132804D01*
X22330592Y-30026444D01*
X22381500Y-29931202D01*
X22381500Y-30544915D01*
X22378734Y-30572999D01*
X22389768Y-30685032D01*
X22422447Y-30792760D01*
X22475515Y-30892043D01*
X22482046Y-30900001D01*
X22546933Y-30979066D01*
X22568743Y-30996965D01*
X22903987Y-31332209D01*
X22854231Y-31496234D01*
X22829237Y-31750000D01*
X22854231Y-32003766D01*
X22928252Y-32247780D01*
X23048455Y-32472665D01*
X23210222Y-32669778D01*
X23407335Y-32831545D01*
X23632220Y-32951748D01*
X23857216Y-33020000D01*
X23632220Y-33088252D01*
X23407335Y-33208455D01*
X23210222Y-33370222D01*
X23048455Y-33567335D01*
X22928252Y-33792220D01*
X22854231Y-34036234D01*
X22829237Y-34290000D01*
X22854231Y-34543766D01*
X22928252Y-34787780D01*
X23048455Y-35012665D01*
X23210222Y-35209778D01*
X23407335Y-35371545D01*
X23632220Y-35491748D01*
X23857216Y-35560000D01*
X23632220Y-35628252D01*
X23407335Y-35748455D01*
X23210222Y-35910222D01*
X23048455Y-36107335D01*
X22928252Y-36332220D01*
X22854231Y-36576234D01*
X22829237Y-36830000D01*
X22854231Y-37083766D01*
X22928252Y-37327780D01*
X23048455Y-37552665D01*
X23210222Y-37749778D01*
X23407335Y-37911545D01*
X23632220Y-38031748D01*
X23857216Y-38100000D01*
X23632220Y-38168252D01*
X23407335Y-38288455D01*
X23210222Y-38450222D01*
X23048455Y-38647335D01*
X22928252Y-38872220D01*
X22854231Y-39116234D01*
X22829237Y-39370000D01*
X22854231Y-39623766D01*
X22928252Y-39867780D01*
X23048455Y-40092665D01*
X23210222Y-40289778D01*
X23407335Y-40451545D01*
X23632220Y-40571748D01*
X23857216Y-40640000D01*
X23632220Y-40708252D01*
X23407335Y-40828455D01*
X23210222Y-40990222D01*
X23048455Y-41187335D01*
X22928252Y-41412220D01*
X22854231Y-41656234D01*
X22829237Y-41910000D01*
X22854231Y-42163766D01*
X22928252Y-42407780D01*
X23048455Y-42632665D01*
X23210222Y-42829778D01*
X23407335Y-42991545D01*
X23632220Y-43111748D01*
X23857216Y-43180000D01*
X23632220Y-43248252D01*
X23407335Y-43368455D01*
X23210222Y-43530222D01*
X23048455Y-43727335D01*
X22928252Y-43952220D01*
X22854231Y-44196234D01*
X22829237Y-44450000D01*
X22854231Y-44703766D01*
X22928252Y-44947780D01*
X23048455Y-45172665D01*
X23210222Y-45369778D01*
X23407335Y-45531545D01*
X23632220Y-45651748D01*
X23769363Y-45693350D01*
X23280000Y-45693350D01*
X23192863Y-45701932D01*
X23109074Y-45727349D01*
X23031855Y-45768624D01*
X22964171Y-45824171D01*
X22908624Y-45891855D01*
X22867349Y-45969074D01*
X22841932Y-46052863D01*
X22833350Y-46140000D01*
X22833350Y-47840000D01*
X22841932Y-47927137D01*
X22867349Y-48010926D01*
X22908624Y-48088145D01*
X22964171Y-48155829D01*
X23031855Y-48211376D01*
X23109074Y-48252651D01*
X23192863Y-48278068D01*
X23280000Y-48286650D01*
X24930501Y-48286650D01*
X24930501Y-63030500D01*
X10099307Y-63030500D01*
X10096500Y-61827625D01*
X9921875Y-61653000D01*
X8525000Y-61653000D01*
X8525000Y-61673000D01*
X8271000Y-61673000D01*
X8271000Y-61653000D01*
X6874125Y-61653000D01*
X6699500Y-61827625D01*
X6696693Y-63030500D01*
X5844650Y-63030500D01*
X5844650Y-61580351D01*
X12577754Y-61580351D01*
X12633631Y-61831881D01*
X12882914Y-61949130D01*
X13150282Y-62015494D01*
X13425459Y-62028422D01*
X13697870Y-61987417D01*
X13957047Y-61894055D01*
X14073369Y-61831881D01*
X14129246Y-61580351D01*
X21557754Y-61580351D01*
X21613631Y-61831881D01*
X21862914Y-61949130D01*
X22130282Y-62015494D01*
X22405459Y-62028422D01*
X22677870Y-61987417D01*
X22937047Y-61894055D01*
X23053369Y-61831881D01*
X23109246Y-61580351D01*
X22333500Y-60804605D01*
X21557754Y-61580351D01*
X14129246Y-61580351D01*
X13353500Y-60804605D01*
X12577754Y-61580351D01*
X5844650Y-61580351D01*
X5844650Y-59776000D01*
X6696120Y-59776000D01*
X6699500Y-61224375D01*
X6874125Y-61399000D01*
X8271000Y-61399000D01*
X8271000Y-59252125D01*
X8525000Y-59252125D01*
X8525000Y-61399000D01*
X9921875Y-61399000D01*
X10096500Y-61224375D01*
X10097730Y-60696959D01*
X11950078Y-60696959D01*
X11991083Y-60969370D01*
X12084445Y-61228547D01*
X12146619Y-61344869D01*
X12398149Y-61400746D01*
X13173895Y-60625000D01*
X13533105Y-60625000D01*
X14308851Y-61400746D01*
X14560381Y-61344869D01*
X14677630Y-61095586D01*
X14743994Y-60828218D01*
X14750160Y-60696959D01*
X20930078Y-60696959D01*
X20971083Y-60969370D01*
X21064445Y-61228547D01*
X21126619Y-61344869D01*
X21378149Y-61400746D01*
X22153895Y-60625000D01*
X22513105Y-60625000D01*
X23288851Y-61400746D01*
X23540381Y-61344869D01*
X23657630Y-61095586D01*
X23723994Y-60828218D01*
X23736922Y-60553041D01*
X23695917Y-60280630D01*
X23602555Y-60021453D01*
X23540381Y-59905131D01*
X23288851Y-59849254D01*
X22513105Y-60625000D01*
X22153895Y-60625000D01*
X21378149Y-59849254D01*
X21126619Y-59905131D01*
X21009370Y-60154414D01*
X20943006Y-60421782D01*
X20930078Y-60696959D01*
X14750160Y-60696959D01*
X14756922Y-60553041D01*
X14715917Y-60280630D01*
X14622555Y-60021453D01*
X14560381Y-59905131D01*
X14308851Y-59849254D01*
X13533105Y-60625000D01*
X13173895Y-60625000D01*
X12398149Y-59849254D01*
X12146619Y-59905131D01*
X12029370Y-60154414D01*
X11963006Y-60421782D01*
X11950078Y-60696959D01*
X10097730Y-60696959D01*
X10099880Y-59776000D01*
X10089406Y-59669649D01*
X12577754Y-59669649D01*
X13353500Y-60445395D01*
X14129246Y-59669649D01*
X21557754Y-59669649D01*
X22333500Y-60445395D01*
X23109246Y-59669649D01*
X23053369Y-59418119D01*
X22804086Y-59300870D01*
X22536718Y-59234506D01*
X22261541Y-59221578D01*
X21989130Y-59262583D01*
X21729953Y-59355945D01*
X21613631Y-59418119D01*
X21557754Y-59669649D01*
X14129246Y-59669649D01*
X14073369Y-59418119D01*
X13824086Y-59300870D01*
X13556718Y-59234506D01*
X13281541Y-59221578D01*
X13009130Y-59262583D01*
X12749953Y-59355945D01*
X12633631Y-59418119D01*
X12577754Y-59669649D01*
X10089406Y-59669649D01*
X10086394Y-59639070D01*
X10046453Y-59507402D01*
X9981592Y-59386056D01*
X9894304Y-59279696D01*
X9787944Y-59192408D01*
X9666598Y-59127547D01*
X9534930Y-59087606D01*
X9398000Y-59074120D01*
X8699625Y-59077500D01*
X8525000Y-59252125D01*
X8271000Y-59252125D01*
X8096375Y-59077500D01*
X7398000Y-59074120D01*
X7261070Y-59087606D01*
X7129402Y-59127547D01*
X7008056Y-59192408D01*
X6901696Y-59279696D01*
X6814408Y-59386056D01*
X6749547Y-59507402D01*
X6709606Y-59639070D01*
X6696120Y-59776000D01*
X5844650Y-59776000D01*
X5836068Y-59688863D01*
X5810651Y-59605074D01*
X5769376Y-59527855D01*
X5713829Y-59460171D01*
X5646145Y-59404624D01*
X5568926Y-59363349D01*
X5485137Y-59337932D01*
X5398000Y-59329350D01*
X3398000Y-59329350D01*
X3310863Y-59337932D01*
X3227074Y-59363349D01*
X3149855Y-59404624D01*
X3082171Y-59460171D01*
X3026624Y-59527855D01*
X2985349Y-59605074D01*
X2959932Y-59688863D01*
X2951350Y-59776000D01*
X2951350Y-63030500D01*
X469500Y-63030500D01*
X469500Y-48007667D01*
X547335Y-48071545D01*
X772220Y-48191748D01*
X1016234Y-48265769D01*
X1206411Y-48284500D01*
X1333589Y-48284500D01*
X1523766Y-48265769D01*
X1767780Y-48191748D01*
X1992665Y-48071545D01*
X2189778Y-47909778D01*
X2351545Y-47712665D01*
X2471748Y-47487780D01*
X2545769Y-47243766D01*
X2570763Y-46990000D01*
X2545769Y-46736234D01*
X2471748Y-46492220D01*
X2351545Y-46267335D01*
X2189778Y-46070222D01*
X1992665Y-45908455D01*
X1767780Y-45788252D01*
X1542784Y-45720000D01*
X1767780Y-45651748D01*
X1992665Y-45531545D01*
X2189778Y-45369778D01*
X2351545Y-45172665D01*
X2471748Y-44947780D01*
X2545769Y-44703766D01*
X2570763Y-44450000D01*
X2545769Y-44196234D01*
X2471748Y-43952220D01*
X2351545Y-43727335D01*
X2189778Y-43530222D01*
X1992665Y-43368455D01*
X1767780Y-43248252D01*
X1542784Y-43180000D01*
X1767780Y-43111748D01*
X1992665Y-42991545D01*
X2056691Y-42939000D01*
X3424120Y-42939000D01*
X3437606Y-43075930D01*
X3477547Y-43207598D01*
X3542408Y-43328944D01*
X3629696Y-43435304D01*
X3736056Y-43522592D01*
X3857402Y-43587453D01*
X3989070Y-43627394D01*
X4126000Y-43640880D01*
X4524375Y-43637500D01*
X4699000Y-43462875D01*
X4699000Y-42578500D01*
X3602125Y-42578500D01*
X3427500Y-42753125D01*
X3424120Y-42939000D01*
X2056691Y-42939000D01*
X2189778Y-42829778D01*
X2351545Y-42632665D01*
X2471748Y-42407780D01*
X2545769Y-42163766D01*
X2570763Y-41910000D01*
X2545769Y-41656234D01*
X2471748Y-41412220D01*
X2351545Y-41187335D01*
X2189778Y-40990222D01*
X1992665Y-40828455D01*
X1767780Y-40708252D01*
X1542784Y-40640000D01*
X1767780Y-40571748D01*
X1992665Y-40451545D01*
X2189778Y-40289778D01*
X2351545Y-40092665D01*
X2471748Y-39867780D01*
X2545769Y-39623766D01*
X2570763Y-39370000D01*
X2545769Y-39116234D01*
X2471748Y-38872220D01*
X2351545Y-38647335D01*
X2189778Y-38450222D01*
X1992665Y-38288455D01*
X1767780Y-38168252D01*
X1542784Y-38100000D01*
X1767780Y-38031748D01*
X1992665Y-37911545D01*
X2189778Y-37749778D01*
X2351545Y-37552665D01*
X2471748Y-37327780D01*
X2545769Y-37083766D01*
X2570763Y-36830000D01*
X2545769Y-36576234D01*
X2471748Y-36332220D01*
X2351545Y-36107335D01*
X2189778Y-35910222D01*
X1992665Y-35748455D01*
X1903607Y-35700853D01*
X1923309Y-35693942D01*
X2184651Y-35539511D01*
X2410844Y-35337062D01*
X2593195Y-35094375D01*
X2724696Y-34820777D01*
X2774415Y-34656859D01*
X2637993Y-34417000D01*
X1397000Y-34417000D01*
X1397000Y-34437000D01*
X1143000Y-34437000D01*
X1143000Y-34417000D01*
X1123000Y-34417000D01*
X1123000Y-34163000D01*
X1143000Y-34163000D01*
X1143000Y-34143000D01*
X1397000Y-34143000D01*
X1397000Y-34163000D01*
X2637993Y-34163000D01*
X2774415Y-33923141D01*
X2724696Y-33759223D01*
X2593195Y-33485625D01*
X2410844Y-33242938D01*
X2184651Y-33040489D01*
X1923309Y-32886058D01*
X1903607Y-32879147D01*
X1992665Y-32831545D01*
X2189778Y-32669778D01*
X2351545Y-32472665D01*
X2471748Y-32247780D01*
X2545769Y-32003766D01*
X2570763Y-31750000D01*
X2545769Y-31496234D01*
X2496013Y-31332210D01*
X2504259Y-31323964D01*
X2526066Y-31306068D01*
X2597483Y-31219046D01*
X2650551Y-31119763D01*
X2683230Y-31012035D01*
X2691499Y-30928075D01*
X2691499Y-30928074D01*
X2694264Y-30900002D01*
X2691499Y-30871930D01*
X2691499Y-30565223D01*
X2987758Y-30268965D01*
X3009567Y-30251067D01*
X3080984Y-30164045D01*
X3134052Y-30064762D01*
X3166731Y-29957034D01*
X3175000Y-29873074D01*
X3175000Y-29873073D01*
X3176954Y-29853230D01*
X3495758Y-29534427D01*
X3517567Y-29516529D01*
X3588984Y-29429507D01*
X3642052Y-29330224D01*
X3674731Y-29222496D01*
X3683000Y-29138536D01*
X3683000Y-29138535D01*
X3685765Y-29110463D01*
X3683000Y-29082391D01*
X3683000Y-22776750D01*
X3869850Y-22776750D01*
X3869850Y-23264250D01*
X3883116Y-23398940D01*
X3922404Y-23528455D01*
X3986203Y-23647816D01*
X4072063Y-23752437D01*
X4176684Y-23838297D01*
X4296045Y-23902096D01*
X4318000Y-23908756D01*
X4318000Y-24540201D01*
X4314622Y-24574500D01*
X4318000Y-24608798D01*
X4318000Y-24608808D01*
X4328107Y-24711429D01*
X4366313Y-24837375D01*
X4368049Y-24843098D01*
X4432909Y-24964443D01*
X4498326Y-25044153D01*
X4498329Y-25044156D01*
X4520197Y-25070802D01*
X4546844Y-25092671D01*
X5266436Y-25812264D01*
X5283954Y-25900332D01*
X5347614Y-26054021D01*
X5440034Y-26192337D01*
X5557663Y-26309966D01*
X5695979Y-26402386D01*
X5849668Y-26466046D01*
X6012824Y-26498500D01*
X6179176Y-26498500D01*
X6342332Y-26466046D01*
X6496021Y-26402386D01*
X6634337Y-26309966D01*
X6751966Y-26192337D01*
X6844386Y-26054021D01*
X6908046Y-25900332D01*
X6940500Y-25737176D01*
X6940500Y-25570824D01*
X6908046Y-25407668D01*
X6844386Y-25253979D01*
X6751966Y-25115663D01*
X6634337Y-24998034D01*
X6496021Y-24905614D01*
X6342332Y-24841954D01*
X6254264Y-24824436D01*
X5715000Y-24285173D01*
X5715000Y-23908756D01*
X5736955Y-23902096D01*
X5856316Y-23838297D01*
X5960937Y-23752437D01*
X6046797Y-23647816D01*
X6110596Y-23528455D01*
X6116800Y-23508000D01*
X6345120Y-23508000D01*
X6358606Y-23644930D01*
X6398547Y-23776598D01*
X6463408Y-23897944D01*
X6550696Y-24004304D01*
X6657056Y-24091592D01*
X6778402Y-24156453D01*
X6910070Y-24196394D01*
X7047000Y-24209880D01*
X7445375Y-24206500D01*
X7620000Y-24031875D01*
X7620000Y-23147500D01*
X6523125Y-23147500D01*
X6348500Y-23322125D01*
X6345120Y-23508000D01*
X6116800Y-23508000D01*
X6149884Y-23398940D01*
X6163150Y-23264250D01*
X6163150Y-22776750D01*
X6149884Y-22642060D01*
X6110596Y-22512545D01*
X6046797Y-22393184D01*
X5960937Y-22288563D01*
X5856316Y-22202703D01*
X5736955Y-22138904D01*
X5607440Y-22099616D01*
X5472750Y-22086350D01*
X4560250Y-22086350D01*
X4425560Y-22099616D01*
X4296045Y-22138904D01*
X4176684Y-22202703D01*
X4072063Y-22288563D01*
X3986203Y-22393184D01*
X3922404Y-22512545D01*
X3883116Y-22642060D01*
X3869850Y-22776750D01*
X3683000Y-22776750D01*
X3683000Y-20497182D01*
X3684241Y-20493091D01*
X3692510Y-20409131D01*
X3692510Y-20409129D01*
X3695275Y-20381058D01*
X3692510Y-20352986D01*
X3692510Y-20229712D01*
X4584258Y-19337965D01*
X4606067Y-19320067D01*
X4677484Y-19233045D01*
X4730552Y-19133762D01*
X4763231Y-19026034D01*
X4771500Y-18942074D01*
X4771500Y-18942073D01*
X4774265Y-18914001D01*
X4771500Y-18885929D01*
X4771500Y-18105150D01*
X5001237Y-18105150D01*
X5001238Y-20211350D01*
X5001238Y-20211350D01*
G37*
X5001238Y-20211350D02*
X4560250Y-20211350D01*
X4425560Y-20224616D01*
X4296045Y-20263904D01*
X4176684Y-20327703D01*
X4072063Y-20413563D01*
X3986203Y-20518184D01*
X3922404Y-20637545D01*
X3883116Y-20767060D01*
X3869850Y-20901750D01*
X3869850Y-21389250D01*
X3883116Y-21523940D01*
X3922404Y-21653455D01*
X3986203Y-21772816D01*
X4072063Y-21877437D01*
X4176684Y-21963297D01*
X4296045Y-22027096D01*
X4425560Y-22066384D01*
X4560250Y-22079650D01*
X5472750Y-22079650D01*
X5607440Y-22066384D01*
X5736955Y-22027096D01*
X5856316Y-21963297D01*
X5960937Y-21877437D01*
X6046797Y-21772816D01*
X6110596Y-21653455D01*
X6149884Y-21523940D01*
X6163150Y-21389250D01*
X6163150Y-20901750D01*
X6159923Y-20868990D01*
X6603577Y-20868990D01*
X6600350Y-20901750D01*
X6600350Y-21389250D01*
X6613616Y-21523940D01*
X6652904Y-21653455D01*
X6716703Y-21772816D01*
X6802419Y-21877262D01*
X6778402Y-21884547D01*
X6657056Y-21949408D01*
X6550696Y-22036696D01*
X6463408Y-22143056D01*
X6398547Y-22264402D01*
X6358606Y-22396070D01*
X6345120Y-22533000D01*
X6348500Y-22718875D01*
X6523125Y-22893500D01*
X7620000Y-22893500D01*
X7620000Y-22873500D01*
X7874000Y-22873500D01*
X7874000Y-22893500D01*
X8970875Y-22893500D01*
X9004375Y-22860000D01*
X9842500Y-22860000D01*
X9842500Y-22840000D01*
X10096500Y-22840000D01*
X10096500Y-22860000D01*
X10116500Y-22860000D01*
X10116500Y-23114000D01*
X10096500Y-23114000D01*
X10096500Y-23134000D01*
X9842500Y-23134000D01*
X9842500Y-23114000D01*
X8745625Y-23114000D01*
X8712125Y-23147500D01*
X7874000Y-23147500D01*
X7874000Y-24031875D01*
X8048625Y-24206500D01*
X8447000Y-24209880D01*
X8583930Y-24196394D01*
X8715598Y-24156453D01*
X8836944Y-24091592D01*
X8878660Y-24057356D01*
X8879556Y-24058092D01*
X9000902Y-24122953D01*
X9132570Y-24162894D01*
X9269500Y-24176380D01*
X9480868Y-24174587D01*
X8364114Y-25291341D01*
X8337467Y-25313210D01*
X8315599Y-25339856D01*
X8315596Y-25339859D01*
X8250179Y-25419569D01*
X8209436Y-25495795D01*
X8185318Y-25540916D01*
X8145377Y-25672583D01*
X8135270Y-25775204D01*
X8135270Y-25775214D01*
X8131892Y-25809512D01*
X8135270Y-25843810D01*
X8135271Y-29403000D01*
X7695671Y-29403000D01*
X7622426Y-29363849D01*
X7538637Y-29338432D01*
X7516477Y-29336250D01*
X7608444Y-29287092D01*
X7714804Y-29199804D01*
X7802092Y-29093444D01*
X7866953Y-28972098D01*
X7906894Y-28840430D01*
X7920380Y-28703500D01*
X7917000Y-28305125D01*
X7742375Y-28130500D01*
X6858000Y-28130500D01*
X6858000Y-28150500D01*
X6604000Y-28150500D01*
X6604000Y-28130500D01*
X6584000Y-28130500D01*
X6584000Y-27876500D01*
X6604000Y-27876500D01*
X6604000Y-26779625D01*
X6858000Y-26779625D01*
X6858000Y-27876500D01*
X7742375Y-27876500D01*
X7917000Y-27701875D01*
X7920380Y-27303500D01*
X7906894Y-27166570D01*
X7866953Y-27034902D01*
X7802092Y-26913556D01*
X7714804Y-26807196D01*
X7608444Y-26719908D01*
X7487098Y-26655047D01*
X7355430Y-26615106D01*
X7218500Y-26601620D01*
X7032625Y-26605000D01*
X6858000Y-26779625D01*
X6604000Y-26779625D01*
X6429375Y-26605000D01*
X6243500Y-26601620D01*
X6106570Y-26615106D01*
X5974902Y-26655047D01*
X5853556Y-26719908D01*
X5747196Y-26807196D01*
X5659908Y-26913556D01*
X5595047Y-27034902D01*
X5587762Y-27058919D01*
X5483316Y-26973203D01*
X5363955Y-26909404D01*
X5234440Y-26870116D01*
X5099750Y-26856850D01*
X4612250Y-26856850D01*
X4477560Y-26870116D01*
X4348045Y-26909404D01*
X4228684Y-26973203D01*
X4124063Y-27059063D01*
X4038203Y-27163684D01*
X3974404Y-27283045D01*
X3935116Y-27412560D01*
X3921850Y-27547250D01*
X3921850Y-28459750D01*
X3935116Y-28594440D01*
X3974404Y-28723955D01*
X4038203Y-28843316D01*
X4124063Y-28947937D01*
X4150001Y-28969223D01*
X4150000Y-29333937D01*
X4104363Y-29338432D01*
X4020574Y-29363849D01*
X3943355Y-29405124D01*
X3875671Y-29460671D01*
X3820124Y-29528355D01*
X3778849Y-29605574D01*
X3753432Y-29689363D01*
X3744850Y-29776500D01*
X3744850Y-30426500D01*
X3753432Y-30513637D01*
X3778849Y-30597426D01*
X3820124Y-30674645D01*
X3875671Y-30742329D01*
X3943355Y-30797876D01*
X4020574Y-30839151D01*
X4104363Y-30864568D01*
X4191500Y-30873150D01*
X5251500Y-30873150D01*
X5338637Y-30864568D01*
X5422426Y-30839151D01*
X5492999Y-30801428D01*
X5493000Y-31301572D01*
X5422426Y-31263849D01*
X5338637Y-31238432D01*
X5251500Y-31229850D01*
X4191500Y-31229850D01*
X4104363Y-31238432D01*
X4020574Y-31263849D01*
X3943355Y-31305124D01*
X3875671Y-31360671D01*
X3820124Y-31428355D01*
X3778849Y-31505574D01*
X3753432Y-31589363D01*
X3744850Y-31676500D01*
X3744850Y-32072552D01*
X3611832Y-32017454D01*
X3448676Y-31985000D01*
X3282324Y-31985000D01*
X3119168Y-32017454D01*
X2965479Y-32081114D01*
X2827163Y-32173534D01*
X2709534Y-32291163D01*
X2617114Y-32429479D01*
X2553454Y-32583168D01*
X2521000Y-32746324D01*
X2521000Y-32912676D01*
X2553454Y-33075832D01*
X2617114Y-33229521D01*
X2667000Y-33304181D01*
X2667000Y-33429494D01*
X2677107Y-33532115D01*
X2717048Y-33663782D01*
X2781910Y-33785128D01*
X2869198Y-33891488D01*
X2975558Y-33978776D01*
X3096904Y-34043637D01*
X3228571Y-34083578D01*
X3365500Y-34097064D01*
X3502430Y-34083578D01*
X3601652Y-34053479D01*
X3828350Y-34280178D01*
X3828350Y-34619250D01*
X3841616Y-34753940D01*
X3880904Y-34883455D01*
X3944703Y-35002816D01*
X4030563Y-35107437D01*
X4135184Y-35193297D01*
X4254545Y-35257096D01*
X4384060Y-35296384D01*
X4518750Y-35309650D01*
X5006250Y-35309650D01*
X5140940Y-35296384D01*
X5270455Y-35257096D01*
X5389816Y-35193297D01*
X5494262Y-35107581D01*
X5501547Y-35131598D01*
X5566408Y-35252944D01*
X5653696Y-35359304D01*
X5760056Y-35446592D01*
X5881402Y-35511453D01*
X6013070Y-35551394D01*
X6150000Y-35564880D01*
X6335875Y-35561500D01*
X6510500Y-35386875D01*
X6510500Y-34290000D01*
X6764500Y-34290000D01*
X6764500Y-35386875D01*
X6939125Y-35561500D01*
X7125000Y-35564880D01*
X7261930Y-35551394D01*
X7393598Y-35511453D01*
X7514944Y-35446592D01*
X7621304Y-35359304D01*
X7708592Y-35252944D01*
X7773453Y-35131598D01*
X7813394Y-34999930D01*
X7826880Y-34863000D01*
X7823500Y-34464625D01*
X7648875Y-34290000D01*
X6764500Y-34290000D01*
X6510500Y-34290000D01*
X6490500Y-34290000D01*
X6490500Y-34036000D01*
X6510500Y-34036000D01*
X6510500Y-34016000D01*
X6764500Y-34016000D01*
X6764500Y-34036000D01*
X7648875Y-34036000D01*
X7823500Y-33861375D01*
X7826880Y-33463000D01*
X7813394Y-33326070D01*
X7773453Y-33194402D01*
X7708592Y-33073056D01*
X7621304Y-32966696D01*
X7514944Y-32879408D01*
X7393598Y-32814547D01*
X7261930Y-32774606D01*
X7247147Y-32773150D01*
X7451500Y-32773150D01*
X7538637Y-32764568D01*
X7622426Y-32739151D01*
X7699645Y-32697876D01*
X7767329Y-32642329D01*
X7822876Y-32574645D01*
X7864151Y-32497426D01*
X7889568Y-32413637D01*
X7898150Y-32326500D01*
X7898150Y-31913554D01*
X7947804Y-31872804D01*
X8035092Y-31766444D01*
X8099953Y-31645098D01*
X8139894Y-31513430D01*
X8153380Y-31376500D01*
X8150000Y-31353125D01*
X7975375Y-31178500D01*
X7048500Y-31178500D01*
X7048500Y-31198500D01*
X6794500Y-31198500D01*
X6794500Y-31178500D01*
X6774500Y-31178500D01*
X6774500Y-30924500D01*
X6794500Y-30924500D01*
X6794500Y-30904500D01*
X7048500Y-30904500D01*
X7048500Y-30924500D01*
X7975375Y-30924500D01*
X8099875Y-30800000D01*
X8660597Y-30800000D01*
X8827657Y-30967061D01*
X8732663Y-31030534D01*
X8615034Y-31148163D01*
X8522614Y-31286479D01*
X8458954Y-31440168D01*
X8426500Y-31603324D01*
X8426500Y-31769676D01*
X8458954Y-31932832D01*
X8522614Y-32086521D01*
X8615034Y-32224837D01*
X8732663Y-32342466D01*
X8747428Y-32352332D01*
X8715754Y-32378326D01*
X8715751Y-32378329D01*
X8689105Y-32400197D01*
X8667237Y-32426843D01*
X8359333Y-32734747D01*
X8332687Y-32756616D01*
X8310819Y-32783262D01*
X8310816Y-32783265D01*
X8245399Y-32862975D01*
X8204696Y-32939125D01*
X8180538Y-32984322D01*
X8140597Y-33115989D01*
X8130490Y-33218610D01*
X8130490Y-33218620D01*
X8127112Y-33252918D01*
X8130490Y-33287216D01*
X8130491Y-36634183D01*
X8127112Y-36668491D01*
X8140598Y-36805420D01*
X8180539Y-36937089D01*
X8245399Y-37058434D01*
X8310816Y-37138144D01*
X8310820Y-37138148D01*
X8332688Y-37164794D01*
X8359333Y-37186661D01*
X8383672Y-37211000D01*
X6811173Y-38783499D01*
X6327096Y-38783499D01*
X6292798Y-38780121D01*
X6258500Y-38783499D01*
X6258490Y-38783499D01*
X6155869Y-38793606D01*
X6024202Y-38833547D01*
X6024200Y-38833548D01*
X5902855Y-38898408D01*
X5823144Y-38963825D01*
X5823136Y-38963833D01*
X5796496Y-38985696D01*
X5774632Y-39012337D01*
X5465207Y-39321763D01*
X5416535Y-39321763D01*
X5382237Y-39318385D01*
X5347939Y-39321763D01*
X5347928Y-39321763D01*
X5245307Y-39331870D01*
X5113640Y-39371811D01*
X5057154Y-39402003D01*
X4992293Y-39436672D01*
X4912583Y-39502089D01*
X4912580Y-39502092D01*
X4885934Y-39523960D01*
X4864066Y-39550606D01*
X4772322Y-39642350D01*
X4369750Y-39642350D01*
X4235060Y-39655616D01*
X4105545Y-39694904D01*
X3986184Y-39758703D01*
X3881563Y-39844563D01*
X3795703Y-39949184D01*
X3731904Y-40068545D01*
X3692616Y-40198060D01*
X3679350Y-40332750D01*
X3679350Y-40820250D01*
X3692616Y-40954940D01*
X3731904Y-41084455D01*
X3795703Y-41203816D01*
X3881419Y-41308262D01*
X3857402Y-41315547D01*
X3736056Y-41380408D01*
X3629696Y-41467696D01*
X3542408Y-41574056D01*
X3477547Y-41695402D01*
X3437606Y-41827070D01*
X3424120Y-41964000D01*
X3427500Y-42149875D01*
X3602125Y-42324500D01*
X4699000Y-42324500D01*
X4699000Y-42304500D01*
X4953000Y-42304500D01*
X4953000Y-42324500D01*
X4973000Y-42324500D01*
X4973000Y-42578500D01*
X4953000Y-42578500D01*
X4953000Y-43462875D01*
X5127625Y-43637500D01*
X5526000Y-43640880D01*
X5662930Y-43627394D01*
X5794598Y-43587453D01*
X5915944Y-43522592D01*
X5992582Y-43459696D01*
X6011353Y-43518608D01*
X6077899Y-43639039D01*
X6166660Y-43744172D01*
X6274227Y-43829969D01*
X6396465Y-43893133D01*
X6528677Y-43931235D01*
X6665781Y-43942812D01*
X6798875Y-43939500D01*
X6973500Y-43764875D01*
X6973500Y-41941500D01*
X7227500Y-41941500D01*
X7227500Y-43764875D01*
X7402125Y-43939500D01*
X7535219Y-43942812D01*
X7672323Y-43931235D01*
X7804535Y-43893133D01*
X7926773Y-43829969D01*
X8034340Y-43744172D01*
X8123101Y-43639039D01*
X8189647Y-43518608D01*
X8214642Y-43440164D01*
X8245070Y-43449394D01*
X8382000Y-43462880D01*
X8905875Y-43459500D01*
X9080500Y-43284875D01*
X9080500Y-41465500D01*
X9060500Y-41465500D01*
X9060500Y-41211500D01*
X9080500Y-41211500D01*
X9080500Y-41191500D01*
X9334500Y-41191500D01*
X9334500Y-41211500D01*
X9354500Y-41211500D01*
X9354500Y-41465500D01*
X9334500Y-41465500D01*
X9334500Y-43284875D01*
X9509125Y-43459500D01*
X9952810Y-43462363D01*
X9790640Y-43624533D01*
X9723168Y-43637954D01*
X9569479Y-43701614D01*
X9431163Y-43794034D01*
X9313534Y-43911663D01*
X9221114Y-44049979D01*
X9157454Y-44203668D01*
X9125000Y-44366824D01*
X9125000Y-44533176D01*
X9157454Y-44696332D01*
X9221114Y-44850021D01*
X9313534Y-44988337D01*
X9410197Y-45085000D01*
X8924797Y-45085000D01*
X8890499Y-45081622D01*
X8856201Y-45085000D01*
X8856191Y-45085000D01*
X8753570Y-45095107D01*
X8621903Y-45135048D01*
X8621901Y-45135049D01*
X8500556Y-45199909D01*
X8424843Y-45262046D01*
X8394197Y-45287197D01*
X8372329Y-45313843D01*
X4856823Y-48829350D01*
X3398000Y-48829350D01*
X3310863Y-48837932D01*
X3227074Y-48863349D01*
X3149855Y-48904624D01*
X3082171Y-48960171D01*
X3026624Y-49027855D01*
X2985349Y-49105074D01*
X2959932Y-49188863D01*
X2951350Y-49276000D01*
X2951350Y-55276000D01*
X2959932Y-55363137D01*
X2985349Y-55446926D01*
X3026624Y-55524145D01*
X3082171Y-55591829D01*
X3149855Y-55647376D01*
X3227074Y-55688651D01*
X3310863Y-55714068D01*
X3398000Y-55722650D01*
X5398000Y-55722650D01*
X5485137Y-55714068D01*
X5568926Y-55688651D01*
X5646145Y-55647376D01*
X5713829Y-55591829D01*
X5769376Y-55524145D01*
X5810651Y-55446926D01*
X5836068Y-55363137D01*
X5844650Y-55276000D01*
X6696120Y-55276000D01*
X6709606Y-55412930D01*
X6749547Y-55544598D01*
X6814408Y-55665944D01*
X6901696Y-55772304D01*
X7008056Y-55859592D01*
X7129402Y-55924453D01*
X7261070Y-55964394D01*
X7398000Y-55977880D01*
X8096375Y-55974500D01*
X8271000Y-55799875D01*
X8271000Y-52403000D01*
X8525000Y-52403000D01*
X8525000Y-55799875D01*
X8699625Y-55974500D01*
X9398000Y-55977880D01*
X9534930Y-55964394D01*
X9666598Y-55924453D01*
X9787944Y-55859592D01*
X9894304Y-55772304D01*
X9981592Y-55665944D01*
X10046453Y-55544598D01*
X10086394Y-55412930D01*
X10099880Y-55276000D01*
X10096500Y-52577625D01*
X9921875Y-52403000D01*
X8525000Y-52403000D01*
X8271000Y-52403000D01*
X6874125Y-52403000D01*
X6699500Y-52577625D01*
X6696120Y-55276000D01*
X5844650Y-55276000D01*
X5844650Y-49817177D01*
X6385827Y-49276000D01*
X6696120Y-49276000D01*
X6699500Y-51974375D01*
X6874125Y-52149000D01*
X8271000Y-52149000D01*
X8271000Y-48752125D01*
X8525000Y-48752125D01*
X8525000Y-52149000D01*
X9921875Y-52149000D01*
X10096500Y-51974375D01*
X10099880Y-49276000D01*
X10086394Y-49139070D01*
X10046453Y-49007402D01*
X9981592Y-48886056D01*
X9894304Y-48779696D01*
X9787944Y-48692408D01*
X9666598Y-48627547D01*
X9534930Y-48587606D01*
X9398000Y-48574120D01*
X8699625Y-48577500D01*
X8525000Y-48752125D01*
X8271000Y-48752125D01*
X8096375Y-48577500D01*
X7398000Y-48574120D01*
X7261070Y-48587606D01*
X7129402Y-48627547D01*
X7008056Y-48692408D01*
X6901696Y-48779696D01*
X6814408Y-48886056D01*
X6749547Y-49007402D01*
X6709606Y-49139070D01*
X6696120Y-49276000D01*
X6385827Y-49276000D01*
X9179828Y-46482000D01*
X11135613Y-46482000D01*
X11169922Y-46485379D01*
X11204230Y-46482000D01*
X11204231Y-46482000D01*
X11306852Y-46471893D01*
X11438519Y-46431952D01*
X11559865Y-46367091D01*
X11666225Y-46279803D01*
X11753513Y-46173443D01*
X11818374Y-46052097D01*
X11858315Y-45920430D01*
X11871801Y-45783500D01*
X11868422Y-45749191D01*
X11868422Y-44999405D01*
X13896679Y-42971150D01*
X14299250Y-42971150D01*
X14433940Y-42957884D01*
X14563455Y-42918596D01*
X14682816Y-42854797D01*
X14787437Y-42768937D01*
X14844350Y-42699588D01*
X14844350Y-44067000D01*
X14852932Y-44154137D01*
X14878349Y-44237926D01*
X14919624Y-44315145D01*
X14975171Y-44382829D01*
X15042855Y-44438376D01*
X15120074Y-44479651D01*
X15203863Y-44505068D01*
X15291000Y-44513650D01*
X16806523Y-44513650D01*
X16743173Y-44577000D01*
X13492181Y-44577000D01*
X13417521Y-44527114D01*
X13263832Y-44463454D01*
X13100676Y-44431000D01*
X12934324Y-44431000D01*
X12771168Y-44463454D01*
X12617479Y-44527114D01*
X12479163Y-44619534D01*
X12361534Y-44737163D01*
X12269114Y-44875479D01*
X12205454Y-45029168D01*
X12173000Y-45192324D01*
X12173000Y-45358676D01*
X12205454Y-45521832D01*
X12269114Y-45675521D01*
X12361534Y-45813837D01*
X12479163Y-45931466D01*
X12617479Y-46023886D01*
X12771168Y-46087546D01*
X12934324Y-46120000D01*
X13100676Y-46120000D01*
X13263832Y-46087546D01*
X13417521Y-46023886D01*
X13492181Y-45974000D01*
X14033496Y-45974000D01*
X13990103Y-46038942D01*
X13926443Y-46192631D01*
X13893989Y-46355787D01*
X13893989Y-46522139D01*
X13926443Y-46685295D01*
X13990103Y-46838984D01*
X14082523Y-46977300D01*
X14200152Y-47094929D01*
X14338468Y-47187349D01*
X14492157Y-47251009D01*
X14655313Y-47283463D01*
X14774767Y-47283463D01*
X16524669Y-49033366D01*
X16460114Y-49129979D01*
X16396454Y-49283668D01*
X16364000Y-49446824D01*
X16364000Y-49613176D01*
X16389625Y-49742003D01*
X16350440Y-49730116D01*
X16215750Y-49716850D01*
X15728250Y-49716850D01*
X15593560Y-49730116D01*
X15464045Y-49769404D01*
X15344684Y-49833203D01*
X15240238Y-49918919D01*
X15232953Y-49894902D01*
X15168092Y-49773556D01*
X15080804Y-49667196D01*
X14974444Y-49579908D01*
X14853098Y-49515047D01*
X14721430Y-49475106D01*
X14584500Y-49461620D01*
X14398625Y-49465000D01*
X14224000Y-49639625D01*
X14224000Y-50736500D01*
X14244000Y-50736500D01*
X14244000Y-50990500D01*
X14224000Y-50990500D01*
X14224000Y-52087375D01*
X14291796Y-52155171D01*
X14290419Y-52157860D01*
X14252802Y-52290211D01*
X14241729Y-52427357D01*
X14245000Y-52463375D01*
X14419623Y-52637998D01*
X14245000Y-52637998D01*
X14245000Y-52655500D01*
X14167711Y-52655500D01*
X14019045Y-52685072D01*
X13879005Y-52743078D01*
X13752973Y-52827291D01*
X13645791Y-52934473D01*
X13561578Y-53060505D01*
X13503572Y-53200545D01*
X13484748Y-53295180D01*
X13369130Y-53312583D01*
X13109953Y-53405945D01*
X12993631Y-53468119D01*
X12937754Y-53719649D01*
X13713500Y-54495395D01*
X13727643Y-54481253D01*
X13907248Y-54660858D01*
X13893105Y-54675000D01*
X13907248Y-54689143D01*
X13727643Y-54868748D01*
X13713500Y-54854605D01*
X13699358Y-54868748D01*
X13519753Y-54689143D01*
X13533895Y-54675000D01*
X12758149Y-53899254D01*
X12506619Y-53955131D01*
X12389370Y-54204414D01*
X12323006Y-54471782D01*
X12319000Y-54557051D01*
X12319000Y-51563500D01*
X12907620Y-51563500D01*
X12921106Y-51700430D01*
X12961047Y-51832098D01*
X13025908Y-51953444D01*
X13113196Y-52059804D01*
X13219556Y-52147092D01*
X13340902Y-52211953D01*
X13472570Y-52251894D01*
X13609500Y-52265380D01*
X13795375Y-52262000D01*
X13970000Y-52087375D01*
X13970000Y-50990500D01*
X13085625Y-50990500D01*
X12911000Y-51165125D01*
X12907620Y-51563500D01*
X12319000Y-51563500D01*
X12319000Y-50163500D01*
X12907620Y-50163500D01*
X12911000Y-50561875D01*
X13085625Y-50736500D01*
X13970000Y-50736500D01*
X13970000Y-49639625D01*
X13795375Y-49465000D01*
X13609500Y-49461620D01*
X13472570Y-49475106D01*
X13340902Y-49515047D01*
X13219556Y-49579908D01*
X13113196Y-49667196D01*
X13025908Y-49773556D01*
X12961047Y-49894902D01*
X12921106Y-50026570D01*
X12907620Y-50163500D01*
X12319000Y-50163500D01*
X12319000Y-48163181D01*
X12368886Y-48088521D01*
X12432546Y-47934832D01*
X12465000Y-47771676D01*
X12465000Y-47605324D01*
X12432546Y-47442168D01*
X12368886Y-47288479D01*
X12276466Y-47150163D01*
X12158837Y-47032534D01*
X12020521Y-46940114D01*
X11866832Y-46876454D01*
X11703676Y-46844000D01*
X11537324Y-46844000D01*
X11374168Y-46876454D01*
X11220479Y-46940114D01*
X11082163Y-47032534D01*
X10964534Y-47150163D01*
X10872114Y-47288479D01*
X10808454Y-47442168D01*
X10776000Y-47605324D01*
X10776000Y-47771676D01*
X10808454Y-47934832D01*
X10872114Y-48088521D01*
X10922001Y-48163182D01*
X10922000Y-55401202D01*
X10918622Y-55435500D01*
X10922000Y-55469798D01*
X10922000Y-55469808D01*
X10932107Y-55572429D01*
X10972048Y-55704096D01*
X10972049Y-55704098D01*
X11036909Y-55825443D01*
X11102326Y-55905153D01*
X11102329Y-55905156D01*
X11124197Y-55931802D01*
X11150844Y-55953671D01*
X12054829Y-56857657D01*
X12076697Y-56884303D01*
X12103343Y-56906171D01*
X12103345Y-56906173D01*
X12183056Y-56971591D01*
X12260327Y-57012893D01*
X12304403Y-57036452D01*
X12436070Y-57076393D01*
X12538691Y-57086500D01*
X12538701Y-57086500D01*
X12572999Y-57089878D01*
X12607297Y-57086500D01*
X13618202Y-57086500D01*
X13652500Y-57089878D01*
X13686798Y-57086500D01*
X13686809Y-57086500D01*
X13789430Y-57076393D01*
X13921097Y-57036452D01*
X13946264Y-57023000D01*
X15844819Y-57023000D01*
X15919479Y-57072886D01*
X16073168Y-57136546D01*
X16236324Y-57169000D01*
X16402676Y-57169000D01*
X16565832Y-57136546D01*
X16719521Y-57072886D01*
X16857837Y-56980466D01*
X16975466Y-56862837D01*
X17067886Y-56724521D01*
X17131546Y-56570832D01*
X17157174Y-56441990D01*
X17228176Y-56441990D01*
X17391332Y-56409536D01*
X17545021Y-56345876D01*
X17683337Y-56253456D01*
X17800966Y-56135827D01*
X17805890Y-56128458D01*
X17812948Y-56151725D01*
X17860840Y-56241324D01*
X17866017Y-56251009D01*
X17937434Y-56338031D01*
X17959244Y-56355930D01*
X18883570Y-57280257D01*
X18901469Y-57302067D01*
X18988491Y-57373484D01*
X19087774Y-57426552D01*
X19195502Y-57459231D01*
X19307536Y-57470265D01*
X19335610Y-57467500D01*
X23593926Y-57467500D01*
X23622000Y-57470265D01*
X23650074Y-57467500D01*
X23734034Y-57459231D01*
X23841762Y-57426552D01*
X23941045Y-57373484D01*
X24028067Y-57302067D01*
X24045970Y-57280252D01*
X24323753Y-57002469D01*
X24345567Y-56984567D01*
X24416984Y-56897545D01*
X24470052Y-56798262D01*
X24502731Y-56690534D01*
X24511000Y-56606574D01*
X24511000Y-56606573D01*
X24513765Y-56578500D01*
X24511000Y-56550426D01*
X24511000Y-53398071D01*
X24513765Y-53369999D01*
X24510262Y-53334437D01*
X24502731Y-53257966D01*
X24470052Y-53150238D01*
X24416984Y-53050955D01*
X24345567Y-52963933D01*
X24323757Y-52946034D01*
X22413203Y-51035481D01*
X22413199Y-51035476D01*
X22367150Y-50989427D01*
X22367150Y-50407250D01*
X22353884Y-50272560D01*
X22314596Y-50143045D01*
X22250797Y-50023684D01*
X22164937Y-49919063D01*
X22060316Y-49833203D01*
X21940955Y-49769404D01*
X21811440Y-49730116D01*
X21676750Y-49716850D01*
X21189250Y-49716850D01*
X21054560Y-49730116D01*
X20925045Y-49769404D01*
X20805684Y-49833203D01*
X20701238Y-49918919D01*
X20693953Y-49894902D01*
X20629092Y-49773556D01*
X20541804Y-49667196D01*
X20435444Y-49579908D01*
X20314098Y-49515047D01*
X20182430Y-49475106D01*
X20045500Y-49461620D01*
X19859625Y-49465000D01*
X19685000Y-49639625D01*
X19685000Y-50736500D01*
X19705000Y-50736500D01*
X19705000Y-50990500D01*
X19685000Y-50990500D01*
X19685000Y-51010500D01*
X19431000Y-51010500D01*
X19431000Y-50990500D01*
X19411000Y-50990500D01*
X19411000Y-50736500D01*
X19431000Y-50736500D01*
X19431000Y-49639625D01*
X19256375Y-49465000D01*
X19070500Y-49461620D01*
X18933570Y-49475106D01*
X18801902Y-49515047D01*
X18680556Y-49579908D01*
X18665000Y-49592675D01*
X18665000Y-48157074D01*
X18667765Y-48129000D01*
X18656731Y-48016966D01*
X18624052Y-47909238D01*
X18570984Y-47809955D01*
X18539569Y-47771676D01*
X18499567Y-47722933D01*
X18477757Y-47705034D01*
X17037000Y-46264278D01*
X17037000Y-46144824D01*
X17004546Y-45981668D01*
X17001505Y-45974325D01*
X17032500Y-45977378D01*
X17066798Y-45974000D01*
X17066809Y-45974000D01*
X17169430Y-45963893D01*
X17301097Y-45923952D01*
X17422443Y-45859091D01*
X17528803Y-45771803D01*
X17550675Y-45745152D01*
X19697350Y-43598478D01*
X19697350Y-44067000D01*
X19705932Y-44154137D01*
X19731349Y-44237926D01*
X19772624Y-44315145D01*
X19828171Y-44382829D01*
X19895855Y-44438376D01*
X19973074Y-44479651D01*
X20056863Y-44505068D01*
X20144000Y-44513650D01*
X22047000Y-44513650D01*
X22134137Y-44505068D01*
X22217926Y-44479651D01*
X22295145Y-44438376D01*
X22362829Y-44382829D01*
X22418376Y-44315145D01*
X22459651Y-44237926D01*
X22485068Y-44154137D01*
X22493650Y-44067000D01*
X22493650Y-41277000D01*
X22485068Y-41189863D01*
X22459651Y-41106074D01*
X22418376Y-41028855D01*
X22362829Y-40961171D01*
X22295145Y-40905624D01*
X22217926Y-40864349D01*
X22134137Y-40838932D01*
X22047000Y-40830350D01*
X20144000Y-40830350D01*
X20056863Y-40838932D01*
X19973074Y-40864349D01*
X19895855Y-40905624D01*
X19828171Y-40961171D01*
X19772624Y-41028855D01*
X19731349Y-41106074D01*
X19705932Y-41189863D01*
X19697350Y-41277000D01*
X19697350Y-41973500D01*
X19670297Y-41973500D01*
X19635999Y-41970122D01*
X19601701Y-41973500D01*
X19601691Y-41973500D01*
X19499070Y-41983607D01*
X19367403Y-42023548D01*
X19367401Y-42023549D01*
X19246056Y-42088409D01*
X19166346Y-42153826D01*
X19166343Y-42153829D01*
X19139697Y-42175697D01*
X19117829Y-42202343D01*
X17640650Y-43679523D01*
X17640650Y-41277000D01*
X17632068Y-41189863D01*
X17606651Y-41106074D01*
X17565376Y-41028855D01*
X17509829Y-40961171D01*
X17442145Y-40905624D01*
X17364926Y-40864349D01*
X17281137Y-40838932D01*
X17194000Y-40830350D01*
X16941000Y-40830350D01*
X16941000Y-40803297D01*
X16944378Y-40768999D01*
X16941000Y-40734701D01*
X16941000Y-40734691D01*
X16930893Y-40632070D01*
X16890952Y-40500403D01*
X16885044Y-40489350D01*
X16826091Y-40379056D01*
X16760674Y-40299345D01*
X16760666Y-40299337D01*
X16738803Y-40272697D01*
X16712162Y-40250834D01*
X15830521Y-39369193D01*
X15883312Y-39369193D01*
X16046468Y-39336739D01*
X16200157Y-39273079D01*
X16242928Y-39244500D01*
X18383620Y-39244500D01*
X18397106Y-39381430D01*
X18437047Y-39513098D01*
X18501908Y-39634444D01*
X18589196Y-39740804D01*
X18695556Y-39828092D01*
X18816902Y-39892953D01*
X18948570Y-39932894D01*
X19085500Y-39946380D01*
X19271375Y-39943000D01*
X19446000Y-39768375D01*
X19446000Y-38671500D01*
X18561625Y-38671500D01*
X18387000Y-38846125D01*
X18383620Y-39244500D01*
X16242928Y-39244500D01*
X16338473Y-39180659D01*
X16456102Y-39063030D01*
X16548522Y-38924714D01*
X16612182Y-38771025D01*
X16644636Y-38607869D01*
X16644636Y-38488415D01*
X17288551Y-37844500D01*
X18383620Y-37844500D01*
X18387000Y-38242875D01*
X18561625Y-38417500D01*
X19446000Y-38417500D01*
X19446000Y-37320625D01*
X19271375Y-37146000D01*
X19085500Y-37142620D01*
X18948570Y-37156106D01*
X18816902Y-37196047D01*
X18695556Y-37260908D01*
X18589196Y-37348196D01*
X18501908Y-37454556D01*
X18437047Y-37575902D01*
X18397106Y-37707570D01*
X18383620Y-37844500D01*
X17288551Y-37844500D01*
X18650052Y-36483000D01*
X19718544Y-36483000D01*
X19748855Y-36507876D01*
X19826074Y-36549151D01*
X19909863Y-36574568D01*
X19997000Y-36583150D01*
X21574738Y-36583150D01*
X21574738Y-37397850D01*
X21204250Y-37397850D01*
X21069560Y-37411116D01*
X20940045Y-37450404D01*
X20820684Y-37514203D01*
X20716238Y-37599919D01*
X20708953Y-37575902D01*
X20644092Y-37454556D01*
X20556804Y-37348196D01*
X20450444Y-37260908D01*
X20329098Y-37196047D01*
X20197430Y-37156106D01*
X20060500Y-37142620D01*
X19874625Y-37146000D01*
X19700000Y-37320625D01*
X19700000Y-38417500D01*
X19720000Y-38417500D01*
X19720000Y-38671500D01*
X19700000Y-38671500D01*
X19700000Y-39768375D01*
X19874625Y-39943000D01*
X20060500Y-39946380D01*
X20197430Y-39932894D01*
X20329098Y-39892953D01*
X20450444Y-39828092D01*
X20556804Y-39740804D01*
X20644092Y-39634444D01*
X20708953Y-39513098D01*
X20716238Y-39489081D01*
X20820684Y-39574797D01*
X20940045Y-39638596D01*
X21069560Y-39677884D01*
X21204250Y-39691150D01*
X21691750Y-39691150D01*
X21826440Y-39677884D01*
X21955955Y-39638596D01*
X22075316Y-39574797D01*
X22179937Y-39488937D01*
X22265797Y-39384316D01*
X22329596Y-39264955D01*
X22368884Y-39135440D01*
X22382150Y-39000750D01*
X22382150Y-38560573D01*
X22530494Y-38412229D01*
X22552304Y-38394330D01*
X22623721Y-38307308D01*
X22676789Y-38208025D01*
X22709468Y-38100297D01*
X22717737Y-38016337D01*
X22720502Y-37988263D01*
X22717737Y-37960189D01*
X22717737Y-34784808D01*
X22720502Y-34756736D01*
X22715488Y-34705828D01*
X22709468Y-34644703D01*
X22676789Y-34536975D01*
X22623721Y-34437692D01*
X22552304Y-34350670D01*
X22530490Y-34332768D01*
X22443083Y-34245361D01*
X22448880Y-34186500D01*
X22445500Y-34170625D01*
X22270875Y-33996000D01*
X21959367Y-33996000D01*
X21917926Y-33973849D01*
X21877217Y-33961500D01*
X21917926Y-33949151D01*
X21959367Y-33927000D01*
X22270875Y-33927000D01*
X22445500Y-33752375D01*
X22448880Y-33736500D01*
X22435394Y-33599570D01*
X22395453Y-33467902D01*
X22330592Y-33346556D01*
X22243304Y-33240196D01*
X22193650Y-33199446D01*
X22193650Y-33086500D01*
X22185068Y-32999363D01*
X22181166Y-32986500D01*
X22185068Y-32973637D01*
X22193650Y-32886500D01*
X22193650Y-32773554D01*
X22243304Y-32732804D01*
X22330592Y-32626444D01*
X22395453Y-32505098D01*
X22435394Y-32373430D01*
X22448880Y-32236500D01*
X22445500Y-32220625D01*
X22270875Y-32046000D01*
X21959367Y-32046000D01*
X21917926Y-32023849D01*
X21877217Y-32011500D01*
X21917926Y-31999151D01*
X21959367Y-31977000D01*
X22270875Y-31977000D01*
X22445500Y-31802375D01*
X22448880Y-31786500D01*
X22435394Y-31649570D01*
X22395453Y-31517902D01*
X22330592Y-31396556D01*
X22243304Y-31290196D01*
X22193650Y-31249446D01*
X22193650Y-31136500D01*
X22185068Y-31049363D01*
X22181166Y-31036500D01*
X22185068Y-31023637D01*
X22193650Y-30936500D01*
X22193650Y-30486500D01*
X22185068Y-30399363D01*
X22181166Y-30386500D01*
X22185068Y-30373637D01*
X22193650Y-30286500D01*
X22193650Y-30173554D01*
X22243304Y-30132804D01*
X22330592Y-30026444D01*
X22381500Y-29931202D01*
X22381500Y-30544915D01*
X22378734Y-30572999D01*
X22389768Y-30685032D01*
X22422447Y-30792760D01*
X22475515Y-30892043D01*
X22482046Y-30900001D01*
X22546933Y-30979066D01*
X22568743Y-30996965D01*
X22903987Y-31332209D01*
X22854231Y-31496234D01*
X22829237Y-31750000D01*
X22854231Y-32003766D01*
X22928252Y-32247780D01*
X23048455Y-32472665D01*
X23210222Y-32669778D01*
X23407335Y-32831545D01*
X23632220Y-32951748D01*
X23857216Y-33020000D01*
X23632220Y-33088252D01*
X23407335Y-33208455D01*
X23210222Y-33370222D01*
X23048455Y-33567335D01*
X22928252Y-33792220D01*
X22854231Y-34036234D01*
X22829237Y-34290000D01*
X22854231Y-34543766D01*
X22928252Y-34787780D01*
X23048455Y-35012665D01*
X23210222Y-35209778D01*
X23407335Y-35371545D01*
X23632220Y-35491748D01*
X23857216Y-35560000D01*
X23632220Y-35628252D01*
X23407335Y-35748455D01*
X23210222Y-35910222D01*
X23048455Y-36107335D01*
X22928252Y-36332220D01*
X22854231Y-36576234D01*
X22829237Y-36830000D01*
X22854231Y-37083766D01*
X22928252Y-37327780D01*
X23048455Y-37552665D01*
X23210222Y-37749778D01*
X23407335Y-37911545D01*
X23632220Y-38031748D01*
X23857216Y-38100000D01*
X23632220Y-38168252D01*
X23407335Y-38288455D01*
X23210222Y-38450222D01*
X23048455Y-38647335D01*
X22928252Y-38872220D01*
X22854231Y-39116234D01*
X22829237Y-39370000D01*
X22854231Y-39623766D01*
X22928252Y-39867780D01*
X23048455Y-40092665D01*
X23210222Y-40289778D01*
X23407335Y-40451545D01*
X23632220Y-40571748D01*
X23857216Y-40640000D01*
X23632220Y-40708252D01*
X23407335Y-40828455D01*
X23210222Y-40990222D01*
X23048455Y-41187335D01*
X22928252Y-41412220D01*
X22854231Y-41656234D01*
X22829237Y-41910000D01*
X22854231Y-42163766D01*
X22928252Y-42407780D01*
X23048455Y-42632665D01*
X23210222Y-42829778D01*
X23407335Y-42991545D01*
X23632220Y-43111748D01*
X23857216Y-43180000D01*
X23632220Y-43248252D01*
X23407335Y-43368455D01*
X23210222Y-43530222D01*
X23048455Y-43727335D01*
X22928252Y-43952220D01*
X22854231Y-44196234D01*
X22829237Y-44450000D01*
X22854231Y-44703766D01*
X22928252Y-44947780D01*
X23048455Y-45172665D01*
X23210222Y-45369778D01*
X23407335Y-45531545D01*
X23632220Y-45651748D01*
X23769363Y-45693350D01*
X23280000Y-45693350D01*
X23192863Y-45701932D01*
X23109074Y-45727349D01*
X23031855Y-45768624D01*
X22964171Y-45824171D01*
X22908624Y-45891855D01*
X22867349Y-45969074D01*
X22841932Y-46052863D01*
X22833350Y-46140000D01*
X22833350Y-47840000D01*
X22841932Y-47927137D01*
X22867349Y-48010926D01*
X22908624Y-48088145D01*
X22964171Y-48155829D01*
X23031855Y-48211376D01*
X23109074Y-48252651D01*
X23192863Y-48278068D01*
X23280000Y-48286650D01*
X24930501Y-48286650D01*
X24930501Y-63030500D01*
X10099307Y-63030500D01*
X10096500Y-61827625D01*
X9921875Y-61653000D01*
X8525000Y-61653000D01*
X8525000Y-61673000D01*
X8271000Y-61673000D01*
X8271000Y-61653000D01*
X6874125Y-61653000D01*
X6699500Y-61827625D01*
X6696693Y-63030500D01*
X5844650Y-63030500D01*
X5844650Y-61580351D01*
X12577754Y-61580351D01*
X12633631Y-61831881D01*
X12882914Y-61949130D01*
X13150282Y-62015494D01*
X13425459Y-62028422D01*
X13697870Y-61987417D01*
X13957047Y-61894055D01*
X14073369Y-61831881D01*
X14129246Y-61580351D01*
X21557754Y-61580351D01*
X21613631Y-61831881D01*
X21862914Y-61949130D01*
X22130282Y-62015494D01*
X22405459Y-62028422D01*
X22677870Y-61987417D01*
X22937047Y-61894055D01*
X23053369Y-61831881D01*
X23109246Y-61580351D01*
X22333500Y-60804605D01*
X21557754Y-61580351D01*
X14129246Y-61580351D01*
X13353500Y-60804605D01*
X12577754Y-61580351D01*
X5844650Y-61580351D01*
X5844650Y-59776000D01*
X6696120Y-59776000D01*
X6699500Y-61224375D01*
X6874125Y-61399000D01*
X8271000Y-61399000D01*
X8271000Y-59252125D01*
X8525000Y-59252125D01*
X8525000Y-61399000D01*
X9921875Y-61399000D01*
X10096500Y-61224375D01*
X10097730Y-60696959D01*
X11950078Y-60696959D01*
X11991083Y-60969370D01*
X12084445Y-61228547D01*
X12146619Y-61344869D01*
X12398149Y-61400746D01*
X13173895Y-60625000D01*
X13533105Y-60625000D01*
X14308851Y-61400746D01*
X14560381Y-61344869D01*
X14677630Y-61095586D01*
X14743994Y-60828218D01*
X14750160Y-60696959D01*
X20930078Y-60696959D01*
X20971083Y-60969370D01*
X21064445Y-61228547D01*
X21126619Y-61344869D01*
X21378149Y-61400746D01*
X22153895Y-60625000D01*
X22513105Y-60625000D01*
X23288851Y-61400746D01*
X23540381Y-61344869D01*
X23657630Y-61095586D01*
X23723994Y-60828218D01*
X23736922Y-60553041D01*
X23695917Y-60280630D01*
X23602555Y-60021453D01*
X23540381Y-59905131D01*
X23288851Y-59849254D01*
X22513105Y-60625000D01*
X22153895Y-60625000D01*
X21378149Y-59849254D01*
X21126619Y-59905131D01*
X21009370Y-60154414D01*
X20943006Y-60421782D01*
X20930078Y-60696959D01*
X14750160Y-60696959D01*
X14756922Y-60553041D01*
X14715917Y-60280630D01*
X14622555Y-60021453D01*
X14560381Y-59905131D01*
X14308851Y-59849254D01*
X13533105Y-60625000D01*
X13173895Y-60625000D01*
X12398149Y-59849254D01*
X12146619Y-59905131D01*
X12029370Y-60154414D01*
X11963006Y-60421782D01*
X11950078Y-60696959D01*
X10097730Y-60696959D01*
X10099880Y-59776000D01*
X10089406Y-59669649D01*
X12577754Y-59669649D01*
X13353500Y-60445395D01*
X14129246Y-59669649D01*
X21557754Y-59669649D01*
X22333500Y-60445395D01*
X23109246Y-59669649D01*
X23053369Y-59418119D01*
X22804086Y-59300870D01*
X22536718Y-59234506D01*
X22261541Y-59221578D01*
X21989130Y-59262583D01*
X21729953Y-59355945D01*
X21613631Y-59418119D01*
X21557754Y-59669649D01*
X14129246Y-59669649D01*
X14073369Y-59418119D01*
X13824086Y-59300870D01*
X13556718Y-59234506D01*
X13281541Y-59221578D01*
X13009130Y-59262583D01*
X12749953Y-59355945D01*
X12633631Y-59418119D01*
X12577754Y-59669649D01*
X10089406Y-59669649D01*
X10086394Y-59639070D01*
X10046453Y-59507402D01*
X9981592Y-59386056D01*
X9894304Y-59279696D01*
X9787944Y-59192408D01*
X9666598Y-59127547D01*
X9534930Y-59087606D01*
X9398000Y-59074120D01*
X8699625Y-59077500D01*
X8525000Y-59252125D01*
X8271000Y-59252125D01*
X8096375Y-59077500D01*
X7398000Y-59074120D01*
X7261070Y-59087606D01*
X7129402Y-59127547D01*
X7008056Y-59192408D01*
X6901696Y-59279696D01*
X6814408Y-59386056D01*
X6749547Y-59507402D01*
X6709606Y-59639070D01*
X6696120Y-59776000D01*
X5844650Y-59776000D01*
X5836068Y-59688863D01*
X5810651Y-59605074D01*
X5769376Y-59527855D01*
X5713829Y-59460171D01*
X5646145Y-59404624D01*
X5568926Y-59363349D01*
X5485137Y-59337932D01*
X5398000Y-59329350D01*
X3398000Y-59329350D01*
X3310863Y-59337932D01*
X3227074Y-59363349D01*
X3149855Y-59404624D01*
X3082171Y-59460171D01*
X3026624Y-59527855D01*
X2985349Y-59605074D01*
X2959932Y-59688863D01*
X2951350Y-59776000D01*
X2951350Y-63030500D01*
X469500Y-63030500D01*
X469500Y-48007667D01*
X547335Y-48071545D01*
X772220Y-48191748D01*
X1016234Y-48265769D01*
X1206411Y-48284500D01*
X1333589Y-48284500D01*
X1523766Y-48265769D01*
X1767780Y-48191748D01*
X1992665Y-48071545D01*
X2189778Y-47909778D01*
X2351545Y-47712665D01*
X2471748Y-47487780D01*
X2545769Y-47243766D01*
X2570763Y-46990000D01*
X2545769Y-46736234D01*
X2471748Y-46492220D01*
X2351545Y-46267335D01*
X2189778Y-46070222D01*
X1992665Y-45908455D01*
X1767780Y-45788252D01*
X1542784Y-45720000D01*
X1767780Y-45651748D01*
X1992665Y-45531545D01*
X2189778Y-45369778D01*
X2351545Y-45172665D01*
X2471748Y-44947780D01*
X2545769Y-44703766D01*
X2570763Y-44450000D01*
X2545769Y-44196234D01*
X2471748Y-43952220D01*
X2351545Y-43727335D01*
X2189778Y-43530222D01*
X1992665Y-43368455D01*
X1767780Y-43248252D01*
X1542784Y-43180000D01*
X1767780Y-43111748D01*
X1992665Y-42991545D01*
X2056691Y-42939000D01*
X3424120Y-42939000D01*
X3437606Y-43075930D01*
X3477547Y-43207598D01*
X3542408Y-43328944D01*
X3629696Y-43435304D01*
X3736056Y-43522592D01*
X3857402Y-43587453D01*
X3989070Y-43627394D01*
X4126000Y-43640880D01*
X4524375Y-43637500D01*
X4699000Y-43462875D01*
X4699000Y-42578500D01*
X3602125Y-42578500D01*
X3427500Y-42753125D01*
X3424120Y-42939000D01*
X2056691Y-42939000D01*
X2189778Y-42829778D01*
X2351545Y-42632665D01*
X2471748Y-42407780D01*
X2545769Y-42163766D01*
X2570763Y-41910000D01*
X2545769Y-41656234D01*
X2471748Y-41412220D01*
X2351545Y-41187335D01*
X2189778Y-40990222D01*
X1992665Y-40828455D01*
X1767780Y-40708252D01*
X1542784Y-40640000D01*
X1767780Y-40571748D01*
X1992665Y-40451545D01*
X2189778Y-40289778D01*
X2351545Y-40092665D01*
X2471748Y-39867780D01*
X2545769Y-39623766D01*
X2570763Y-39370000D01*
X2545769Y-39116234D01*
X2471748Y-38872220D01*
X2351545Y-38647335D01*
X2189778Y-38450222D01*
X1992665Y-38288455D01*
X1767780Y-38168252D01*
X1542784Y-38100000D01*
X1767780Y-38031748D01*
X1992665Y-37911545D01*
X2189778Y-37749778D01*
X2351545Y-37552665D01*
X2471748Y-37327780D01*
X2545769Y-37083766D01*
X2570763Y-36830000D01*
X2545769Y-36576234D01*
X2471748Y-36332220D01*
X2351545Y-36107335D01*
X2189778Y-35910222D01*
X1992665Y-35748455D01*
X1903607Y-35700853D01*
X1923309Y-35693942D01*
X2184651Y-35539511D01*
X2410844Y-35337062D01*
X2593195Y-35094375D01*
X2724696Y-34820777D01*
X2774415Y-34656859D01*
X2637993Y-34417000D01*
X1397000Y-34417000D01*
X1397000Y-34437000D01*
X1143000Y-34437000D01*
X1143000Y-34417000D01*
X1123000Y-34417000D01*
X1123000Y-34163000D01*
X1143000Y-34163000D01*
X1143000Y-34143000D01*
X1397000Y-34143000D01*
X1397000Y-34163000D01*
X2637993Y-34163000D01*
X2774415Y-33923141D01*
X2724696Y-33759223D01*
X2593195Y-33485625D01*
X2410844Y-33242938D01*
X2184651Y-33040489D01*
X1923309Y-32886058D01*
X1903607Y-32879147D01*
X1992665Y-32831545D01*
X2189778Y-32669778D01*
X2351545Y-32472665D01*
X2471748Y-32247780D01*
X2545769Y-32003766D01*
X2570763Y-31750000D01*
X2545769Y-31496234D01*
X2496013Y-31332210D01*
X2504259Y-31323964D01*
X2526066Y-31306068D01*
X2597483Y-31219046D01*
X2650551Y-31119763D01*
X2683230Y-31012035D01*
X2691499Y-30928075D01*
X2691499Y-30928074D01*
X2694264Y-30900002D01*
X2691499Y-30871930D01*
X2691499Y-30565223D01*
X2987758Y-30268965D01*
X3009567Y-30251067D01*
X3080984Y-30164045D01*
X3134052Y-30064762D01*
X3166731Y-29957034D01*
X3175000Y-29873074D01*
X3175000Y-29873073D01*
X3176954Y-29853230D01*
X3495758Y-29534427D01*
X3517567Y-29516529D01*
X3588984Y-29429507D01*
X3642052Y-29330224D01*
X3674731Y-29222496D01*
X3683000Y-29138536D01*
X3683000Y-29138535D01*
X3685765Y-29110463D01*
X3683000Y-29082391D01*
X3683000Y-22776750D01*
X3869850Y-22776750D01*
X3869850Y-23264250D01*
X3883116Y-23398940D01*
X3922404Y-23528455D01*
X3986203Y-23647816D01*
X4072063Y-23752437D01*
X4176684Y-23838297D01*
X4296045Y-23902096D01*
X4318000Y-23908756D01*
X4318000Y-24540201D01*
X4314622Y-24574500D01*
X4318000Y-24608798D01*
X4318000Y-24608808D01*
X4328107Y-24711429D01*
X4366313Y-24837375D01*
X4368049Y-24843098D01*
X4432909Y-24964443D01*
X4498326Y-25044153D01*
X4498329Y-25044156D01*
X4520197Y-25070802D01*
X4546844Y-25092671D01*
X5266436Y-25812264D01*
X5283954Y-25900332D01*
X5347614Y-26054021D01*
X5440034Y-26192337D01*
X5557663Y-26309966D01*
X5695979Y-26402386D01*
X5849668Y-26466046D01*
X6012824Y-26498500D01*
X6179176Y-26498500D01*
X6342332Y-26466046D01*
X6496021Y-26402386D01*
X6634337Y-26309966D01*
X6751966Y-26192337D01*
X6844386Y-26054021D01*
X6908046Y-25900332D01*
X6940500Y-25737176D01*
X6940500Y-25570824D01*
X6908046Y-25407668D01*
X6844386Y-25253979D01*
X6751966Y-25115663D01*
X6634337Y-24998034D01*
X6496021Y-24905614D01*
X6342332Y-24841954D01*
X6254264Y-24824436D01*
X5715000Y-24285173D01*
X5715000Y-23908756D01*
X5736955Y-23902096D01*
X5856316Y-23838297D01*
X5960937Y-23752437D01*
X6046797Y-23647816D01*
X6110596Y-23528455D01*
X6116800Y-23508000D01*
X6345120Y-23508000D01*
X6358606Y-23644930D01*
X6398547Y-23776598D01*
X6463408Y-23897944D01*
X6550696Y-24004304D01*
X6657056Y-24091592D01*
X6778402Y-24156453D01*
X6910070Y-24196394D01*
X7047000Y-24209880D01*
X7445375Y-24206500D01*
X7620000Y-24031875D01*
X7620000Y-23147500D01*
X6523125Y-23147500D01*
X6348500Y-23322125D01*
X6345120Y-23508000D01*
X6116800Y-23508000D01*
X6149884Y-23398940D01*
X6163150Y-23264250D01*
X6163150Y-22776750D01*
X6149884Y-22642060D01*
X6110596Y-22512545D01*
X6046797Y-22393184D01*
X5960937Y-22288563D01*
X5856316Y-22202703D01*
X5736955Y-22138904D01*
X5607440Y-22099616D01*
X5472750Y-22086350D01*
X4560250Y-22086350D01*
X4425560Y-22099616D01*
X4296045Y-22138904D01*
X4176684Y-22202703D01*
X4072063Y-22288563D01*
X3986203Y-22393184D01*
X3922404Y-22512545D01*
X3883116Y-22642060D01*
X3869850Y-22776750D01*
X3683000Y-22776750D01*
X3683000Y-20497182D01*
X3684241Y-20493091D01*
X3692510Y-20409131D01*
X3692510Y-20409129D01*
X3695275Y-20381058D01*
X3692510Y-20352986D01*
X3692510Y-20229712D01*
X4584258Y-19337965D01*
X4606067Y-19320067D01*
X4677484Y-19233045D01*
X4730552Y-19133762D01*
X4763231Y-19026034D01*
X4771500Y-18942074D01*
X4771500Y-18942073D01*
X4774265Y-18914001D01*
X4771500Y-18885929D01*
X4771500Y-18105150D01*
X5001237Y-18105150D01*
X5001238Y-20211350D01*
G36*
X23368001Y-53606724D02*
G01*
X23368001Y-54543773D01*
X23335917Y-54330630D01*
X23242555Y-54071453D01*
X23180381Y-53955131D01*
X22928851Y-53899254D01*
X22153105Y-54675000D01*
X22928851Y-55450746D01*
X23180381Y-55394869D01*
X23297630Y-55145586D01*
X23363994Y-54878218D01*
X23368001Y-54792937D01*
X23368000Y-56324500D01*
X20086166Y-56324500D01*
X20115886Y-56280021D01*
X20179546Y-56126332D01*
X20212000Y-55963176D01*
X20212000Y-55796824D01*
X20179546Y-55633668D01*
X20178173Y-55630351D01*
X21197754Y-55630351D01*
X21253631Y-55881881D01*
X21502914Y-55999130D01*
X21770282Y-56065494D01*
X22045459Y-56078422D01*
X22317870Y-56037417D01*
X22577047Y-55944055D01*
X22693369Y-55881881D01*
X22749246Y-55630351D01*
X21973500Y-54854605D01*
X21197754Y-55630351D01*
X20178173Y-55630351D01*
X20128055Y-55509358D01*
X20168875Y-55513500D01*
X20343500Y-55338875D01*
X20518125Y-55513500D01*
X20642528Y-55500876D01*
X20773472Y-55458623D01*
X20853306Y-55414126D01*
X21018149Y-55450746D01*
X21793895Y-54675000D01*
X21779753Y-54660858D01*
X21959358Y-54481253D01*
X21973500Y-54495395D01*
X22749246Y-53719649D01*
X22693369Y-53468119D01*
X22444086Y-53350870D01*
X22362227Y-53330552D01*
X22327664Y-53156792D01*
X22258350Y-52989453D01*
X22157722Y-52838853D01*
X22029647Y-52710778D01*
X21879047Y-52610150D01*
X21711708Y-52540836D01*
X21534063Y-52505500D01*
X21399875Y-52505500D01*
X21442000Y-52463375D01*
X21445271Y-52427357D01*
X21434198Y-52290211D01*
X21396581Y-52157860D01*
X21333867Y-52035391D01*
X21313885Y-52010150D01*
X21676750Y-52010150D01*
X21762939Y-52001661D01*
X23368001Y-53606724D01*
X23368001Y-53606724D01*
G37*
X23368001Y-53606724D02*
X23368001Y-54543773D01*
X23335917Y-54330630D01*
X23242555Y-54071453D01*
X23180381Y-53955131D01*
X22928851Y-53899254D01*
X22153105Y-54675000D01*
X22928851Y-55450746D01*
X23180381Y-55394869D01*
X23297630Y-55145586D01*
X23363994Y-54878218D01*
X23368001Y-54792937D01*
X23368000Y-56324500D01*
X20086166Y-56324500D01*
X20115886Y-56280021D01*
X20179546Y-56126332D01*
X20212000Y-55963176D01*
X20212000Y-55796824D01*
X20179546Y-55633668D01*
X20178173Y-55630351D01*
X21197754Y-55630351D01*
X21253631Y-55881881D01*
X21502914Y-55999130D01*
X21770282Y-56065494D01*
X22045459Y-56078422D01*
X22317870Y-56037417D01*
X22577047Y-55944055D01*
X22693369Y-55881881D01*
X22749246Y-55630351D01*
X21973500Y-54854605D01*
X21197754Y-55630351D01*
X20178173Y-55630351D01*
X20128055Y-55509358D01*
X20168875Y-55513500D01*
X20343500Y-55338875D01*
X20518125Y-55513500D01*
X20642528Y-55500876D01*
X20773472Y-55458623D01*
X20853306Y-55414126D01*
X21018149Y-55450746D01*
X21793895Y-54675000D01*
X21779753Y-54660858D01*
X21959358Y-54481253D01*
X21973500Y-54495395D01*
X22749246Y-53719649D01*
X22693369Y-53468119D01*
X22444086Y-53350870D01*
X22362227Y-53330552D01*
X22327664Y-53156792D01*
X22258350Y-52989453D01*
X22157722Y-52838853D01*
X22029647Y-52710778D01*
X21879047Y-52610150D01*
X21711708Y-52540836D01*
X21534063Y-52505500D01*
X21399875Y-52505500D01*
X21442000Y-52463375D01*
X21445271Y-52427357D01*
X21434198Y-52290211D01*
X21396581Y-52157860D01*
X21333867Y-52035391D01*
X21313885Y-52010150D01*
X21676750Y-52010150D01*
X21762939Y-52001661D01*
X23368001Y-53606724D01*
G36*
X20490500Y-54592000D02*
G01*
X20440150Y-54592000D01*
X20440150Y-54338000D01*
X20490500Y-54338000D01*
X20490500Y-54592000D01*
X20490500Y-54592000D01*
G37*
X20490500Y-54592000D02*
X20440150Y-54592000D01*
X20440150Y-54338000D01*
X20490500Y-54338000D01*
X20490500Y-54592000D01*
G36*
X20740500Y-52827631D02*
G01*
X20729278Y-52838853D01*
X20693766Y-52892000D01*
X20690150Y-52892000D01*
X20690150Y-52638000D01*
X20740500Y-52638000D01*
X20740500Y-52827631D01*
X20740500Y-52827631D01*
G37*
X20740500Y-52827631D02*
X20729278Y-52838853D01*
X20693766Y-52892000D01*
X20690150Y-52892000D01*
X20690150Y-52638000D01*
X20740500Y-52638000D01*
X20740500Y-52827631D01*
G36*
X14996850Y-52892000D02*
G01*
X14946500Y-52892000D01*
X14946500Y-52638000D01*
X14996850Y-52638000D01*
X14996850Y-52892000D01*
X14996850Y-52892000D01*
G37*
X14996850Y-52892000D02*
X14946500Y-52892000D01*
X14946500Y-52638000D01*
X14996850Y-52638000D01*
X14996850Y-52892000D01*
G36*
X13935002Y-38169907D02*
G01*
X13935001Y-39125702D01*
X13931623Y-39160001D01*
X13935001Y-39194299D01*
X13935001Y-39194309D01*
X13945108Y-39296930D01*
X13970000Y-39378987D01*
X13970000Y-40035000D01*
X13990000Y-40035000D01*
X13990000Y-40289000D01*
X13970000Y-40289000D01*
X13970000Y-40309000D01*
X13716000Y-40309000D01*
X13716000Y-40289000D01*
X13696000Y-40289000D01*
X13696000Y-40035000D01*
X13716000Y-40035000D01*
X13716000Y-39150625D01*
X13541375Y-38976000D01*
X13334092Y-38974241D01*
X13315464Y-38912832D01*
X13304010Y-38891403D01*
X13250603Y-38791485D01*
X13203579Y-38734188D01*
X13163315Y-38685126D01*
X13136664Y-38663254D01*
X12636777Y-38163367D01*
X12619259Y-38075298D01*
X12586832Y-37997012D01*
X13762107Y-37997012D01*
X13935002Y-38169907D01*
X13935002Y-38169907D01*
G37*
X13935002Y-38169907D02*
X13935001Y-39125702D01*
X13931623Y-39160001D01*
X13935001Y-39194299D01*
X13935001Y-39194309D01*
X13945108Y-39296930D01*
X13970000Y-39378987D01*
X13970000Y-40035000D01*
X13990000Y-40035000D01*
X13990000Y-40289000D01*
X13970000Y-40289000D01*
X13970000Y-40309000D01*
X13716000Y-40309000D01*
X13716000Y-40289000D01*
X13696000Y-40289000D01*
X13696000Y-40035000D01*
X13716000Y-40035000D01*
X13716000Y-39150625D01*
X13541375Y-38976000D01*
X13334092Y-38974241D01*
X13315464Y-38912832D01*
X13304010Y-38891403D01*
X13250603Y-38791485D01*
X13203579Y-38734188D01*
X13163315Y-38685126D01*
X13136664Y-38663254D01*
X12636777Y-38163367D01*
X12619259Y-38075298D01*
X12586832Y-37997012D01*
X13762107Y-37997012D01*
X13935002Y-38169907D01*
G36*
X11441500Y-39489350D02*
G01*
X11187500Y-39489350D01*
X11187500Y-39441500D01*
X11441500Y-39441500D01*
X11441500Y-39489350D01*
X11441500Y-39489350D01*
G37*
X11441500Y-39489350D02*
X11187500Y-39489350D01*
X11187500Y-39441500D01*
X11441500Y-39441500D01*
X11441500Y-39489350D01*
G36*
X15260630Y-31280124D02*
G01*
X15398946Y-31372544D01*
X15552635Y-31436204D01*
X15632598Y-31452110D01*
X15635735Y-31483961D01*
X15668414Y-31591689D01*
X15721482Y-31690972D01*
X15792899Y-31777995D01*
X15814714Y-31795898D01*
X17722777Y-33703962D01*
X17634449Y-33836154D01*
X17570789Y-33989843D01*
X17553271Y-34077912D01*
X17513188Y-34117995D01*
X17513182Y-34118000D01*
X15739182Y-35892001D01*
X14993650Y-35892001D01*
X14993650Y-35686500D01*
X14985068Y-35599363D01*
X14981166Y-35586500D01*
X14985068Y-35573637D01*
X14993650Y-35486500D01*
X14993650Y-35036500D01*
X14985068Y-34949363D01*
X14981166Y-34936500D01*
X14985068Y-34923637D01*
X14993650Y-34836500D01*
X14993650Y-34386500D01*
X14985068Y-34299363D01*
X14981166Y-34286500D01*
X14985068Y-34273637D01*
X14993650Y-34186500D01*
X14993650Y-33736500D01*
X14985068Y-33649363D01*
X14981166Y-33636500D01*
X14985068Y-33623637D01*
X14993650Y-33536500D01*
X14993650Y-33086500D01*
X14985068Y-32999363D01*
X14981166Y-32986500D01*
X14985068Y-32973637D01*
X14993650Y-32886500D01*
X14993650Y-32436500D01*
X14985068Y-32349363D01*
X14981166Y-32336500D01*
X14985068Y-32323637D01*
X14993650Y-32236500D01*
X14993650Y-32123554D01*
X15043304Y-32082804D01*
X15130592Y-31976444D01*
X15195453Y-31855098D01*
X15235394Y-31723430D01*
X15248880Y-31586500D01*
X15245500Y-31570625D01*
X15070875Y-31396000D01*
X14759367Y-31396000D01*
X14717926Y-31373849D01*
X14677217Y-31361500D01*
X14717926Y-31349151D01*
X14759367Y-31327000D01*
X15070875Y-31327000D01*
X15189191Y-31208685D01*
X15260630Y-31280124D01*
X15260630Y-31280124D01*
G37*
X15260630Y-31280124D02*
X15398946Y-31372544D01*
X15552635Y-31436204D01*
X15632598Y-31452110D01*
X15635735Y-31483961D01*
X15668414Y-31591689D01*
X15721482Y-31690972D01*
X15792899Y-31777995D01*
X15814714Y-31795898D01*
X17722777Y-33703962D01*
X17634449Y-33836154D01*
X17570789Y-33989843D01*
X17553271Y-34077912D01*
X17513188Y-34117995D01*
X17513182Y-34118000D01*
X15739182Y-35892001D01*
X14993650Y-35892001D01*
X14993650Y-35686500D01*
X14985068Y-35599363D01*
X14981166Y-35586500D01*
X14985068Y-35573637D01*
X14993650Y-35486500D01*
X14993650Y-35036500D01*
X14985068Y-34949363D01*
X14981166Y-34936500D01*
X14985068Y-34923637D01*
X14993650Y-34836500D01*
X14993650Y-34386500D01*
X14985068Y-34299363D01*
X14981166Y-34286500D01*
X14985068Y-34273637D01*
X14993650Y-34186500D01*
X14993650Y-33736500D01*
X14985068Y-33649363D01*
X14981166Y-33636500D01*
X14985068Y-33623637D01*
X14993650Y-33536500D01*
X14993650Y-33086500D01*
X14985068Y-32999363D01*
X14981166Y-32986500D01*
X14985068Y-32973637D01*
X14993650Y-32886500D01*
X14993650Y-32436500D01*
X14985068Y-32349363D01*
X14981166Y-32336500D01*
X14985068Y-32323637D01*
X14993650Y-32236500D01*
X14993650Y-32123554D01*
X15043304Y-32082804D01*
X15130592Y-31976444D01*
X15195453Y-31855098D01*
X15235394Y-31723430D01*
X15248880Y-31586500D01*
X15245500Y-31570625D01*
X15070875Y-31396000D01*
X14759367Y-31396000D01*
X14717926Y-31373849D01*
X14677217Y-31361500D01*
X14717926Y-31349151D01*
X14759367Y-31327000D01*
X15070875Y-31327000D01*
X15189191Y-31208685D01*
X15260630Y-31280124D01*
G36*
X22381500Y-29556625D02*
G01*
X22363377Y-29538502D01*
X22381500Y-29538502D01*
X22381500Y-29556625D01*
X22381500Y-29556625D01*
G37*
X22381500Y-29556625D02*
X22363377Y-29538502D01*
X22381500Y-29538502D01*
X22381500Y-29556625D01*
G36*
X22381500Y-29284498D02*
G01*
X22379738Y-29284498D01*
X22381500Y-29281202D01*
X22381500Y-29284498D01*
X22381500Y-29284498D01*
G37*
X22381500Y-29284498D02*
X22379738Y-29284498D01*
X22381500Y-29281202D01*
X22381500Y-29284498D01*
G36*
X22381500Y-28241798D02*
G01*
X22330592Y-28146556D01*
X22243304Y-28040196D01*
X22193650Y-27999446D01*
X22193650Y-27886500D01*
X22185068Y-27799363D01*
X22181166Y-27786500D01*
X22185068Y-27773637D01*
X22193650Y-27686500D01*
X22193650Y-27236500D01*
X22185068Y-27149363D01*
X22159651Y-27065574D01*
X22118376Y-26988355D01*
X22062829Y-26920671D01*
X21995145Y-26865124D01*
X21917926Y-26823849D01*
X21834137Y-26798432D01*
X21747000Y-26789850D01*
X19997000Y-26789850D01*
X19921430Y-26797293D01*
X21021757Y-25696966D01*
X21043567Y-25679067D01*
X21114984Y-25592045D01*
X21168052Y-25492762D01*
X21200731Y-25385034D01*
X21209000Y-25301074D01*
X21211765Y-25273000D01*
X21209000Y-25244926D01*
X21209000Y-23909799D01*
X21228440Y-23907884D01*
X21357955Y-23868596D01*
X21477316Y-23804797D01*
X21581937Y-23718937D01*
X21667797Y-23614316D01*
X21731596Y-23494955D01*
X21770884Y-23365440D01*
X21784150Y-23230750D01*
X21784150Y-22743250D01*
X21770884Y-22608560D01*
X21731596Y-22479045D01*
X21667797Y-22359684D01*
X21581937Y-22255063D01*
X21477316Y-22169203D01*
X21357955Y-22105404D01*
X21228440Y-22066116D01*
X21093750Y-22052850D01*
X20181250Y-22052850D01*
X20046560Y-22066116D01*
X19917045Y-22105404D01*
X19797684Y-22169203D01*
X19693063Y-22255063D01*
X19607203Y-22359684D01*
X19558000Y-22451737D01*
X19508797Y-22359684D01*
X19422937Y-22255063D01*
X19318316Y-22169203D01*
X19198955Y-22105404D01*
X19069440Y-22066116D01*
X18934750Y-22052850D01*
X18022250Y-22052850D01*
X17887560Y-22066116D01*
X17758045Y-22105404D01*
X17638684Y-22169203D01*
X17534063Y-22255063D01*
X17448203Y-22359684D01*
X17384404Y-22479045D01*
X17345116Y-22608560D01*
X17331850Y-22743250D01*
X17331850Y-23230750D01*
X17345116Y-23365440D01*
X17384404Y-23494955D01*
X17443225Y-23605002D01*
X17140161Y-23301939D01*
X17148650Y-23215750D01*
X17148650Y-22728250D01*
X17135384Y-22593560D01*
X17096096Y-22464045D01*
X17032297Y-22344684D01*
X16946437Y-22240063D01*
X16841816Y-22154203D01*
X16722455Y-22090404D01*
X16592940Y-22051116D01*
X16458250Y-22037850D01*
X15545750Y-22037850D01*
X15411060Y-22051116D01*
X15281545Y-22090404D01*
X15162184Y-22154203D01*
X15057563Y-22240063D01*
X14971703Y-22344684D01*
X14922500Y-22436737D01*
X14873297Y-22344684D01*
X14787437Y-22240063D01*
X14682816Y-22154203D01*
X14563455Y-22090404D01*
X14433940Y-22051116D01*
X14299250Y-22037850D01*
X13386750Y-22037850D01*
X13252060Y-22051116D01*
X13122545Y-22090404D01*
X13003184Y-22154203D01*
X12898563Y-22240063D01*
X12812703Y-22344684D01*
X12753989Y-22454532D01*
X12753989Y-21614468D01*
X12812703Y-21724316D01*
X12898563Y-21828937D01*
X13003184Y-21914797D01*
X13122545Y-21978596D01*
X13252060Y-22017884D01*
X13386750Y-22031150D01*
X14299250Y-22031150D01*
X14433940Y-22017884D01*
X14563455Y-21978596D01*
X14682816Y-21914797D01*
X14787437Y-21828937D01*
X14873297Y-21724316D01*
X14903131Y-21668500D01*
X14941869Y-21668500D01*
X14971703Y-21724316D01*
X15057563Y-21828937D01*
X15162184Y-21914797D01*
X15281545Y-21978596D01*
X15411060Y-22017884D01*
X15545750Y-22031150D01*
X16458250Y-22031150D01*
X16592940Y-22017884D01*
X16722455Y-21978596D01*
X16841816Y-21914797D01*
X16946437Y-21828937D01*
X17032297Y-21724316D01*
X17096096Y-21604955D01*
X17135384Y-21475440D01*
X17148650Y-21340750D01*
X17148650Y-20853250D01*
X17135384Y-20718560D01*
X17096096Y-20589045D01*
X17032297Y-20469684D01*
X16946437Y-20365063D01*
X16841816Y-20279203D01*
X16722455Y-20215404D01*
X16592940Y-20176116D01*
X16458250Y-20162850D01*
X15545750Y-20162850D01*
X15411060Y-20176116D01*
X15281545Y-20215404D01*
X15162184Y-20279203D01*
X15057563Y-20365063D01*
X14971703Y-20469684D01*
X14941869Y-20525500D01*
X14903131Y-20525500D01*
X14873297Y-20469684D01*
X14787437Y-20365063D01*
X14682816Y-20279203D01*
X14563455Y-20215404D01*
X14433940Y-20176116D01*
X14299250Y-20162850D01*
X13386750Y-20162850D01*
X13252060Y-20176116D01*
X13122545Y-20215404D01*
X13003184Y-20279203D01*
X12898563Y-20365063D01*
X12812703Y-20469684D01*
X12753989Y-20579532D01*
X12753989Y-19633259D01*
X12797863Y-19646568D01*
X12885000Y-19655150D01*
X13785000Y-19655150D01*
X13872137Y-19646568D01*
X13955926Y-19621151D01*
X13970000Y-19613628D01*
X13984074Y-19621151D01*
X14067863Y-19646568D01*
X14155000Y-19655150D01*
X15055000Y-19655150D01*
X15142137Y-19646568D01*
X15225926Y-19621151D01*
X15240000Y-19613628D01*
X15254074Y-19621151D01*
X15337863Y-19646568D01*
X15425000Y-19655150D01*
X16325000Y-19655150D01*
X16412137Y-19646568D01*
X16495926Y-19621151D01*
X16510000Y-19613628D01*
X16524074Y-19621151D01*
X16607863Y-19646568D01*
X16695000Y-19655150D01*
X17287092Y-19655150D01*
X17244389Y-19758244D01*
X17211935Y-19921400D01*
X17211935Y-20087752D01*
X17244389Y-20250908D01*
X17308049Y-20404597D01*
X17400469Y-20542913D01*
X17411294Y-20553738D01*
X17384404Y-20604045D01*
X17345116Y-20733560D01*
X17331850Y-20868250D01*
X17331850Y-21355750D01*
X17345116Y-21490440D01*
X17384404Y-21619955D01*
X17448203Y-21739316D01*
X17534063Y-21843937D01*
X17638684Y-21929797D01*
X17758045Y-21993596D01*
X17887560Y-22032884D01*
X18022250Y-22046150D01*
X18934750Y-22046150D01*
X19069440Y-22032884D01*
X19198955Y-21993596D01*
X19318316Y-21929797D01*
X19422937Y-21843937D01*
X19508797Y-21739316D01*
X19538631Y-21683500D01*
X19577369Y-21683500D01*
X19607203Y-21739316D01*
X19693063Y-21843937D01*
X19797684Y-21929797D01*
X19917045Y-21993596D01*
X20046560Y-22032884D01*
X20181250Y-22046150D01*
X21093750Y-22046150D01*
X21228440Y-22032884D01*
X21357955Y-21993596D01*
X21477316Y-21929797D01*
X21581937Y-21843937D01*
X21667797Y-21739316D01*
X21731596Y-21619955D01*
X21770884Y-21490440D01*
X21784150Y-21355750D01*
X21784150Y-20868250D01*
X21770884Y-20733560D01*
X21731596Y-20604045D01*
X21667797Y-20484684D01*
X21581937Y-20380063D01*
X21477316Y-20294203D01*
X21357955Y-20230404D01*
X21228440Y-20191116D01*
X21093750Y-20177850D01*
X20181250Y-20177850D01*
X20046560Y-20191116D01*
X19917045Y-20230404D01*
X19797684Y-20294203D01*
X19693063Y-20380063D01*
X19607203Y-20484684D01*
X19577369Y-20540500D01*
X19538631Y-20540500D01*
X19508797Y-20484684D01*
X19474578Y-20442988D01*
X19513991Y-20410643D01*
X19531894Y-20388828D01*
X21584257Y-18336466D01*
X21606067Y-18318567D01*
X21677484Y-18231545D01*
X21730552Y-18132262D01*
X21738776Y-18105150D01*
X22200000Y-18105150D01*
X22287137Y-18096568D01*
X22370926Y-18071151D01*
X22381499Y-18065499D01*
X22381500Y-28241798D01*
X22381500Y-28241798D01*
G37*
X22381500Y-28241798D02*
X22330592Y-28146556D01*
X22243304Y-28040196D01*
X22193650Y-27999446D01*
X22193650Y-27886500D01*
X22185068Y-27799363D01*
X22181166Y-27786500D01*
X22185068Y-27773637D01*
X22193650Y-27686500D01*
X22193650Y-27236500D01*
X22185068Y-27149363D01*
X22159651Y-27065574D01*
X22118376Y-26988355D01*
X22062829Y-26920671D01*
X21995145Y-26865124D01*
X21917926Y-26823849D01*
X21834137Y-26798432D01*
X21747000Y-26789850D01*
X19997000Y-26789850D01*
X19921430Y-26797293D01*
X21021757Y-25696966D01*
X21043567Y-25679067D01*
X21114984Y-25592045D01*
X21168052Y-25492762D01*
X21200731Y-25385034D01*
X21209000Y-25301074D01*
X21211765Y-25273000D01*
X21209000Y-25244926D01*
X21209000Y-23909799D01*
X21228440Y-23907884D01*
X21357955Y-23868596D01*
X21477316Y-23804797D01*
X21581937Y-23718937D01*
X21667797Y-23614316D01*
X21731596Y-23494955D01*
X21770884Y-23365440D01*
X21784150Y-23230750D01*
X21784150Y-22743250D01*
X21770884Y-22608560D01*
X21731596Y-22479045D01*
X21667797Y-22359684D01*
X21581937Y-22255063D01*
X21477316Y-22169203D01*
X21357955Y-22105404D01*
X21228440Y-22066116D01*
X21093750Y-22052850D01*
X20181250Y-22052850D01*
X20046560Y-22066116D01*
X19917045Y-22105404D01*
X19797684Y-22169203D01*
X19693063Y-22255063D01*
X19607203Y-22359684D01*
X19558000Y-22451737D01*
X19508797Y-22359684D01*
X19422937Y-22255063D01*
X19318316Y-22169203D01*
X19198955Y-22105404D01*
X19069440Y-22066116D01*
X18934750Y-22052850D01*
X18022250Y-22052850D01*
X17887560Y-22066116D01*
X17758045Y-22105404D01*
X17638684Y-22169203D01*
X17534063Y-22255063D01*
X17448203Y-22359684D01*
X17384404Y-22479045D01*
X17345116Y-22608560D01*
X17331850Y-22743250D01*
X17331850Y-23230750D01*
X17345116Y-23365440D01*
X17384404Y-23494955D01*
X17443225Y-23605002D01*
X17140161Y-23301939D01*
X17148650Y-23215750D01*
X17148650Y-22728250D01*
X17135384Y-22593560D01*
X17096096Y-22464045D01*
X17032297Y-22344684D01*
X16946437Y-22240063D01*
X16841816Y-22154203D01*
X16722455Y-22090404D01*
X16592940Y-22051116D01*
X16458250Y-22037850D01*
X15545750Y-22037850D01*
X15411060Y-22051116D01*
X15281545Y-22090404D01*
X15162184Y-22154203D01*
X15057563Y-22240063D01*
X14971703Y-22344684D01*
X14922500Y-22436737D01*
X14873297Y-22344684D01*
X14787437Y-22240063D01*
X14682816Y-22154203D01*
X14563455Y-22090404D01*
X14433940Y-22051116D01*
X14299250Y-22037850D01*
X13386750Y-22037850D01*
X13252060Y-22051116D01*
X13122545Y-22090404D01*
X13003184Y-22154203D01*
X12898563Y-22240063D01*
X12812703Y-22344684D01*
X12753989Y-22454532D01*
X12753989Y-21614468D01*
X12812703Y-21724316D01*
X12898563Y-21828937D01*
X13003184Y-21914797D01*
X13122545Y-21978596D01*
X13252060Y-22017884D01*
X13386750Y-22031150D01*
X14299250Y-22031150D01*
X14433940Y-22017884D01*
X14563455Y-21978596D01*
X14682816Y-21914797D01*
X14787437Y-21828937D01*
X14873297Y-21724316D01*
X14903131Y-21668500D01*
X14941869Y-21668500D01*
X14971703Y-21724316D01*
X15057563Y-21828937D01*
X15162184Y-21914797D01*
X15281545Y-21978596D01*
X15411060Y-22017884D01*
X15545750Y-22031150D01*
X16458250Y-22031150D01*
X16592940Y-22017884D01*
X16722455Y-21978596D01*
X16841816Y-21914797D01*
X16946437Y-21828937D01*
X17032297Y-21724316D01*
X17096096Y-21604955D01*
X17135384Y-21475440D01*
X17148650Y-21340750D01*
X17148650Y-20853250D01*
X17135384Y-20718560D01*
X17096096Y-20589045D01*
X17032297Y-20469684D01*
X16946437Y-20365063D01*
X16841816Y-20279203D01*
X16722455Y-20215404D01*
X16592940Y-20176116D01*
X16458250Y-20162850D01*
X15545750Y-20162850D01*
X15411060Y-20176116D01*
X15281545Y-20215404D01*
X15162184Y-20279203D01*
X15057563Y-20365063D01*
X14971703Y-20469684D01*
X14941869Y-20525500D01*
X14903131Y-20525500D01*
X14873297Y-20469684D01*
X14787437Y-20365063D01*
X14682816Y-20279203D01*
X14563455Y-20215404D01*
X14433940Y-20176116D01*
X14299250Y-20162850D01*
X13386750Y-20162850D01*
X13252060Y-20176116D01*
X13122545Y-20215404D01*
X13003184Y-20279203D01*
X12898563Y-20365063D01*
X12812703Y-20469684D01*
X12753989Y-20579532D01*
X12753989Y-19633259D01*
X12797863Y-19646568D01*
X12885000Y-19655150D01*
X13785000Y-19655150D01*
X13872137Y-19646568D01*
X13955926Y-19621151D01*
X13970000Y-19613628D01*
X13984074Y-19621151D01*
X14067863Y-19646568D01*
X14155000Y-19655150D01*
X15055000Y-19655150D01*
X15142137Y-19646568D01*
X15225926Y-19621151D01*
X15240000Y-19613628D01*
X15254074Y-19621151D01*
X15337863Y-19646568D01*
X15425000Y-19655150D01*
X16325000Y-19655150D01*
X16412137Y-19646568D01*
X16495926Y-19621151D01*
X16510000Y-19613628D01*
X16524074Y-19621151D01*
X16607863Y-19646568D01*
X16695000Y-19655150D01*
X17287092Y-19655150D01*
X17244389Y-19758244D01*
X17211935Y-19921400D01*
X17211935Y-20087752D01*
X17244389Y-20250908D01*
X17308049Y-20404597D01*
X17400469Y-20542913D01*
X17411294Y-20553738D01*
X17384404Y-20604045D01*
X17345116Y-20733560D01*
X17331850Y-20868250D01*
X17331850Y-21355750D01*
X17345116Y-21490440D01*
X17384404Y-21619955D01*
X17448203Y-21739316D01*
X17534063Y-21843937D01*
X17638684Y-21929797D01*
X17758045Y-21993596D01*
X17887560Y-22032884D01*
X18022250Y-22046150D01*
X18934750Y-22046150D01*
X19069440Y-22032884D01*
X19198955Y-21993596D01*
X19318316Y-21929797D01*
X19422937Y-21843937D01*
X19508797Y-21739316D01*
X19538631Y-21683500D01*
X19577369Y-21683500D01*
X19607203Y-21739316D01*
X19693063Y-21843937D01*
X19797684Y-21929797D01*
X19917045Y-21993596D01*
X20046560Y-22032884D01*
X20181250Y-22046150D01*
X21093750Y-22046150D01*
X21228440Y-22032884D01*
X21357955Y-21993596D01*
X21477316Y-21929797D01*
X21581937Y-21843937D01*
X21667797Y-21739316D01*
X21731596Y-21619955D01*
X21770884Y-21490440D01*
X21784150Y-21355750D01*
X21784150Y-20868250D01*
X21770884Y-20733560D01*
X21731596Y-20604045D01*
X21667797Y-20484684D01*
X21581937Y-20380063D01*
X21477316Y-20294203D01*
X21357955Y-20230404D01*
X21228440Y-20191116D01*
X21093750Y-20177850D01*
X20181250Y-20177850D01*
X20046560Y-20191116D01*
X19917045Y-20230404D01*
X19797684Y-20294203D01*
X19693063Y-20380063D01*
X19607203Y-20484684D01*
X19577369Y-20540500D01*
X19538631Y-20540500D01*
X19508797Y-20484684D01*
X19474578Y-20442988D01*
X19513991Y-20410643D01*
X19531894Y-20388828D01*
X21584257Y-18336466D01*
X21606067Y-18318567D01*
X21677484Y-18231545D01*
X21730552Y-18132262D01*
X21738776Y-18105150D01*
X22200000Y-18105150D01*
X22287137Y-18096568D01*
X22370926Y-18071151D01*
X22381499Y-18065499D01*
X22381500Y-28241798D01*
G36*
X7112000Y-18081500D02*
G01*
X7132000Y-18081500D01*
X7132000Y-18335500D01*
X7112000Y-18335500D01*
X7112000Y-18355500D01*
X6858000Y-18355500D01*
X6858000Y-18335500D01*
X6838000Y-18335500D01*
X6838000Y-18081500D01*
X6858000Y-18081500D01*
X6858000Y-18061500D01*
X7112000Y-18061500D01*
X7112000Y-18081500D01*
X7112000Y-18081500D01*
G37*
X7112000Y-18081500D02*
X7132000Y-18081500D01*
X7132000Y-18335500D01*
X7112000Y-18335500D01*
X7112000Y-18355500D01*
X6858000Y-18355500D01*
X6858000Y-18335500D01*
X6838000Y-18335500D01*
X6838000Y-18081500D01*
X6858000Y-18081500D01*
X6858000Y-18061500D01*
X7112000Y-18061500D01*
X7112000Y-18081500D01*
G36*
X24257000Y-16383000D02*
G01*
X24277000Y-16383000D01*
X24277000Y-16637000D01*
X24257000Y-16637000D01*
X24257000Y-16657000D01*
X24003000Y-16657000D01*
X24003000Y-16637000D01*
X23983000Y-16637000D01*
X23983000Y-16383000D01*
X24003000Y-16383000D01*
X24003000Y-16363000D01*
X24257000Y-16363000D01*
X24257000Y-16383000D01*
X24257000Y-16383000D01*
G37*
X24257000Y-16383000D02*
X24277000Y-16383000D01*
X24277000Y-16637000D01*
X24257000Y-16637000D01*
X24257000Y-16657000D01*
X24003000Y-16657000D01*
X24003000Y-16637000D01*
X23983000Y-16637000D01*
X23983000Y-16383000D01*
X24003000Y-16383000D01*
X24003000Y-16363000D01*
X24257000Y-16363000D01*
X24257000Y-16383000D01*
G36*
X19676125Y-571500D02*
G01*
X21073000Y-571500D01*
X21073000Y-551500D01*
X21327000Y-551500D01*
X21327000Y-571500D01*
X21347000Y-571500D01*
X21347000Y-825500D01*
X21327000Y-825500D01*
X21327000Y-845500D01*
X21073000Y-845500D01*
X21073000Y-825500D01*
X19676125Y-825500D01*
X19501500Y-1000125D01*
X19498120Y-1148500D01*
X19511606Y-1285430D01*
X19551547Y-1417098D01*
X19616408Y-1538444D01*
X19703696Y-1644804D01*
X19753350Y-1685554D01*
X19753350Y-2418500D01*
X19761932Y-2505637D01*
X19787349Y-2589426D01*
X19794872Y-2603500D01*
X19787349Y-2617574D01*
X19761932Y-2701363D01*
X19753350Y-2788500D01*
X19753350Y-3688500D01*
X19761932Y-3775637D01*
X19787349Y-3859426D01*
X19794872Y-3873500D01*
X19787349Y-3887574D01*
X19761932Y-3971363D01*
X19753350Y-4058500D01*
X19753350Y-4301502D01*
X17332988Y-4264185D01*
X17238837Y-4170034D01*
X17100521Y-4077614D01*
X16946832Y-4013954D01*
X16783676Y-3981500D01*
X16617324Y-3981500D01*
X16454168Y-4013954D01*
X16300479Y-4077614D01*
X16162163Y-4170034D01*
X16044534Y-4287663D01*
X15952114Y-4425979D01*
X15888454Y-4579668D01*
X15856000Y-4742824D01*
X15856000Y-4909176D01*
X15888454Y-5072332D01*
X15952114Y-5226021D01*
X16044534Y-5364337D01*
X16162163Y-5481966D01*
X16300479Y-5574386D01*
X16454168Y-5638046D01*
X16617324Y-5670500D01*
X16783676Y-5670500D01*
X16946832Y-5638046D01*
X17100521Y-5574386D01*
X17238837Y-5481966D01*
X17313780Y-5407023D01*
X19475918Y-5440359D01*
X18129494Y-6786784D01*
X18129489Y-6786788D01*
X15776747Y-9139530D01*
X15754935Y-9157431D01*
X15737039Y-9179238D01*
X14900830Y-10015448D01*
X14898500Y-8500125D01*
X14723875Y-8325500D01*
X11827000Y-8325500D01*
X11827000Y-11222375D01*
X12001625Y-11397000D01*
X13516948Y-11399330D01*
X13154079Y-11762199D01*
X13132264Y-11780102D01*
X13060848Y-11867124D01*
X13060847Y-11867125D01*
X13007779Y-11966408D01*
X12975100Y-12074136D01*
X12964066Y-12186169D01*
X12966831Y-12214243D01*
X12966832Y-14472200D01*
X12882365Y-14556667D01*
X12789945Y-14694983D01*
X12726285Y-14848672D01*
X12693831Y-15011828D01*
X12693831Y-15094000D01*
X12530867Y-15094000D01*
X12367711Y-15126454D01*
X12274499Y-15165064D01*
X12274499Y-15033072D01*
X12277264Y-15004998D01*
X12266230Y-14892965D01*
X12233551Y-14785237D01*
X12180483Y-14685954D01*
X12149671Y-14648410D01*
X12147500Y-14645764D01*
X12147500Y-14521824D01*
X12115046Y-14358668D01*
X12051386Y-14204979D01*
X11958966Y-14066663D01*
X11841337Y-13949034D01*
X11703021Y-13856614D01*
X11549332Y-13792954D01*
X11386176Y-13760500D01*
X11219824Y-13760500D01*
X11056668Y-13792954D01*
X10902979Y-13856614D01*
X10764663Y-13949034D01*
X10647034Y-14066663D01*
X10554614Y-14204979D01*
X10526453Y-14272965D01*
X10498342Y-14261321D01*
X10335186Y-14228867D01*
X10168834Y-14228867D01*
X10005678Y-14261321D01*
X9851989Y-14324981D01*
X9713673Y-14417401D01*
X9596044Y-14535030D01*
X9503624Y-14673346D01*
X9439964Y-14827035D01*
X9407510Y-14990191D01*
X9407510Y-14993767D01*
X7870744Y-16530534D01*
X7848934Y-16548433D01*
X7811156Y-16594466D01*
X7797995Y-16610503D01*
X7703598Y-16560047D01*
X7587802Y-16524921D01*
X8185248Y-15927475D01*
X8207058Y-15909576D01*
X8278475Y-15822554D01*
X8288453Y-15803887D01*
X8331543Y-15723271D01*
X8353714Y-15650181D01*
X8364222Y-15615542D01*
X8372491Y-15531582D01*
X8375256Y-15503510D01*
X8373802Y-15488748D01*
X8540502Y-15322048D01*
X8562317Y-15304145D01*
X8633734Y-15217123D01*
X8686802Y-15117840D01*
X8719481Y-15010112D01*
X8727750Y-14926152D01*
X8727750Y-14926151D01*
X8730515Y-14898079D01*
X8727750Y-14870007D01*
X8727750Y-11214545D01*
X8810056Y-11282092D01*
X8931402Y-11346953D01*
X9063070Y-11386894D01*
X9200000Y-11400380D01*
X11398375Y-11397000D01*
X11573000Y-11222375D01*
X11573000Y-8325500D01*
X11553000Y-8325500D01*
X11553000Y-8071500D01*
X11573000Y-8071500D01*
X11573000Y-5174625D01*
X11827000Y-5174625D01*
X11827000Y-8071500D01*
X14723875Y-8071500D01*
X14898500Y-7896875D01*
X14901880Y-5698500D01*
X14888394Y-5561570D01*
X14848453Y-5429902D01*
X14783592Y-5308556D01*
X14696304Y-5202196D01*
X14589944Y-5114908D01*
X14468598Y-5050047D01*
X14336930Y-5010106D01*
X14200000Y-4996620D01*
X12001625Y-5000000D01*
X11827000Y-5174625D01*
X11573000Y-5174625D01*
X11398375Y-5000000D01*
X9200000Y-4996620D01*
X9063070Y-5010106D01*
X8931402Y-5050047D01*
X8810056Y-5114908D01*
X8703696Y-5202196D01*
X8616408Y-5308556D01*
X8551547Y-5429902D01*
X8528756Y-5505033D01*
X5877970Y-2854248D01*
X5860067Y-2832433D01*
X5773045Y-2761016D01*
X5673762Y-2707948D01*
X5636651Y-2696690D01*
X5612651Y-2617574D01*
X5605128Y-2603500D01*
X5612651Y-2589426D01*
X5638068Y-2505637D01*
X5646650Y-2418500D01*
X5646650Y-1685554D01*
X5696304Y-1644804D01*
X5783592Y-1538444D01*
X5848453Y-1417098D01*
X5888394Y-1285430D01*
X5901880Y-1148500D01*
X5898500Y-1000125D01*
X5723875Y-825500D01*
X4327000Y-825500D01*
X4327000Y-845500D01*
X4073000Y-845500D01*
X4073000Y-825500D01*
X4053000Y-825500D01*
X4053000Y-571500D01*
X4073000Y-571500D01*
X4073000Y-551500D01*
X4327000Y-551500D01*
X4327000Y-571500D01*
X5723875Y-571500D01*
X5825875Y-469500D01*
X19574125Y-469500D01*
X19676125Y-571500D01*
X19676125Y-571500D01*
G37*
X19676125Y-571500D02*
X21073000Y-571500D01*
X21073000Y-551500D01*
X21327000Y-551500D01*
X21327000Y-571500D01*
X21347000Y-571500D01*
X21347000Y-825500D01*
X21327000Y-825500D01*
X21327000Y-845500D01*
X21073000Y-845500D01*
X21073000Y-825500D01*
X19676125Y-825500D01*
X19501500Y-1000125D01*
X19498120Y-1148500D01*
X19511606Y-1285430D01*
X19551547Y-1417098D01*
X19616408Y-1538444D01*
X19703696Y-1644804D01*
X19753350Y-1685554D01*
X19753350Y-2418500D01*
X19761932Y-2505637D01*
X19787349Y-2589426D01*
X19794872Y-2603500D01*
X19787349Y-2617574D01*
X19761932Y-2701363D01*
X19753350Y-2788500D01*
X19753350Y-3688500D01*
X19761932Y-3775637D01*
X19787349Y-3859426D01*
X19794872Y-3873500D01*
X19787349Y-3887574D01*
X19761932Y-3971363D01*
X19753350Y-4058500D01*
X19753350Y-4301502D01*
X17332988Y-4264185D01*
X17238837Y-4170034D01*
X17100521Y-4077614D01*
X16946832Y-4013954D01*
X16783676Y-3981500D01*
X16617324Y-3981500D01*
X16454168Y-4013954D01*
X16300479Y-4077614D01*
X16162163Y-4170034D01*
X16044534Y-4287663D01*
X15952114Y-4425979D01*
X15888454Y-4579668D01*
X15856000Y-4742824D01*
X15856000Y-4909176D01*
X15888454Y-5072332D01*
X15952114Y-5226021D01*
X16044534Y-5364337D01*
X16162163Y-5481966D01*
X16300479Y-5574386D01*
X16454168Y-5638046D01*
X16617324Y-5670500D01*
X16783676Y-5670500D01*
X16946832Y-5638046D01*
X17100521Y-5574386D01*
X17238837Y-5481966D01*
X17313780Y-5407023D01*
X19475918Y-5440359D01*
X18129494Y-6786784D01*
X18129489Y-6786788D01*
X15776747Y-9139530D01*
X15754935Y-9157431D01*
X15737039Y-9179238D01*
X14900830Y-10015448D01*
X14898500Y-8500125D01*
X14723875Y-8325500D01*
X11827000Y-8325500D01*
X11827000Y-11222375D01*
X12001625Y-11397000D01*
X13516948Y-11399330D01*
X13154079Y-11762199D01*
X13132264Y-11780102D01*
X13060848Y-11867124D01*
X13060847Y-11867125D01*
X13007779Y-11966408D01*
X12975100Y-12074136D01*
X12964066Y-12186169D01*
X12966831Y-12214243D01*
X12966832Y-14472200D01*
X12882365Y-14556667D01*
X12789945Y-14694983D01*
X12726285Y-14848672D01*
X12693831Y-15011828D01*
X12693831Y-15094000D01*
X12530867Y-15094000D01*
X12367711Y-15126454D01*
X12274499Y-15165064D01*
X12274499Y-15033072D01*
X12277264Y-15004998D01*
X12266230Y-14892965D01*
X12233551Y-14785237D01*
X12180483Y-14685954D01*
X12149671Y-14648410D01*
X12147500Y-14645764D01*
X12147500Y-14521824D01*
X12115046Y-14358668D01*
X12051386Y-14204979D01*
X11958966Y-14066663D01*
X11841337Y-13949034D01*
X11703021Y-13856614D01*
X11549332Y-13792954D01*
X11386176Y-13760500D01*
X11219824Y-13760500D01*
X11056668Y-13792954D01*
X10902979Y-13856614D01*
X10764663Y-13949034D01*
X10647034Y-14066663D01*
X10554614Y-14204979D01*
X10526453Y-14272965D01*
X10498342Y-14261321D01*
X10335186Y-14228867D01*
X10168834Y-14228867D01*
X10005678Y-14261321D01*
X9851989Y-14324981D01*
X9713673Y-14417401D01*
X9596044Y-14535030D01*
X9503624Y-14673346D01*
X9439964Y-14827035D01*
X9407510Y-14990191D01*
X9407510Y-14993767D01*
X7870744Y-16530534D01*
X7848934Y-16548433D01*
X7811156Y-16594466D01*
X7797995Y-16610503D01*
X7703598Y-16560047D01*
X7587802Y-16524921D01*
X8185248Y-15927475D01*
X8207058Y-15909576D01*
X8278475Y-15822554D01*
X8288453Y-15803887D01*
X8331543Y-15723271D01*
X8353714Y-15650181D01*
X8364222Y-15615542D01*
X8372491Y-15531582D01*
X8375256Y-15503510D01*
X8373802Y-15488748D01*
X8540502Y-15322048D01*
X8562317Y-15304145D01*
X8633734Y-15217123D01*
X8686802Y-15117840D01*
X8719481Y-15010112D01*
X8727750Y-14926152D01*
X8727750Y-14926151D01*
X8730515Y-14898079D01*
X8727750Y-14870007D01*
X8727750Y-11214545D01*
X8810056Y-11282092D01*
X8931402Y-11346953D01*
X9063070Y-11386894D01*
X9200000Y-11400380D01*
X11398375Y-11397000D01*
X11573000Y-11222375D01*
X11573000Y-8325500D01*
X11553000Y-8325500D01*
X11553000Y-8071500D01*
X11573000Y-8071500D01*
X11573000Y-5174625D01*
X11827000Y-5174625D01*
X11827000Y-8071500D01*
X14723875Y-8071500D01*
X14898500Y-7896875D01*
X14901880Y-5698500D01*
X14888394Y-5561570D01*
X14848453Y-5429902D01*
X14783592Y-5308556D01*
X14696304Y-5202196D01*
X14589944Y-5114908D01*
X14468598Y-5050047D01*
X14336930Y-5010106D01*
X14200000Y-4996620D01*
X12001625Y-5000000D01*
X11827000Y-5174625D01*
X11573000Y-5174625D01*
X11398375Y-5000000D01*
X9200000Y-4996620D01*
X9063070Y-5010106D01*
X8931402Y-5050047D01*
X8810056Y-5114908D01*
X8703696Y-5202196D01*
X8616408Y-5308556D01*
X8551547Y-5429902D01*
X8528756Y-5505033D01*
X5877970Y-2854248D01*
X5860067Y-2832433D01*
X5773045Y-2761016D01*
X5673762Y-2707948D01*
X5636651Y-2696690D01*
X5612651Y-2617574D01*
X5605128Y-2603500D01*
X5612651Y-2589426D01*
X5638068Y-2505637D01*
X5646650Y-2418500D01*
X5646650Y-1685554D01*
X5696304Y-1644804D01*
X5783592Y-1538444D01*
X5848453Y-1417098D01*
X5888394Y-1285430D01*
X5901880Y-1148500D01*
X5898500Y-1000125D01*
X5723875Y-825500D01*
X4327000Y-825500D01*
X4327000Y-845500D01*
X4073000Y-845500D01*
X4073000Y-825500D01*
X4053000Y-825500D01*
X4053000Y-571500D01*
X4073000Y-571500D01*
X4073000Y-551500D01*
X4327000Y-551500D01*
X4327000Y-571500D01*
X5723875Y-571500D01*
X5825875Y-469500D01*
X19574125Y-469500D01*
X19676125Y-571500D01*
G36*
X22903987Y-8472209D02*
G01*
X22854231Y-8636234D01*
X22829237Y-8890000D01*
X22854231Y-9143766D01*
X22928252Y-9387780D01*
X23048455Y-9612665D01*
X23210222Y-9809778D01*
X23407335Y-9971545D01*
X23632220Y-10091748D01*
X23857216Y-10160000D01*
X23632220Y-10228252D01*
X23407335Y-10348455D01*
X23210222Y-10510222D01*
X23048455Y-10707335D01*
X22928252Y-10932220D01*
X22854231Y-11176234D01*
X22829237Y-11430000D01*
X22854231Y-11683766D01*
X22928252Y-11927780D01*
X23048455Y-12152665D01*
X23210222Y-12349778D01*
X23407335Y-12511545D01*
X23632220Y-12631748D01*
X23857216Y-12700000D01*
X23632220Y-12768252D01*
X23407335Y-12888455D01*
X23210222Y-13050222D01*
X23048455Y-13247335D01*
X22928252Y-13472220D01*
X22854231Y-13716234D01*
X22829237Y-13970000D01*
X22854231Y-14223766D01*
X22928252Y-14467780D01*
X23048455Y-14692665D01*
X23210222Y-14889778D01*
X23407335Y-15051545D01*
X23496393Y-15099147D01*
X23476691Y-15106058D01*
X23215349Y-15260489D01*
X22989156Y-15462938D01*
X22902281Y-15578559D01*
X22877970Y-15554248D01*
X22860067Y-15532433D01*
X22773045Y-15461016D01*
X22673762Y-15407948D01*
X22636651Y-15396690D01*
X22612651Y-15317574D01*
X22605128Y-15303500D01*
X22612651Y-15289426D01*
X22638068Y-15205637D01*
X22646650Y-15118500D01*
X22646650Y-14218500D01*
X22638068Y-14131363D01*
X22612651Y-14047574D01*
X22605128Y-14033500D01*
X22612651Y-14019426D01*
X22638068Y-13935637D01*
X22646650Y-13848500D01*
X22646650Y-12948500D01*
X22638068Y-12861363D01*
X22612651Y-12777574D01*
X22605128Y-12763500D01*
X22612651Y-12749426D01*
X22638068Y-12665637D01*
X22646650Y-12578500D01*
X22646650Y-11678500D01*
X22638068Y-11591363D01*
X22612651Y-11507574D01*
X22605128Y-11493500D01*
X22612651Y-11479426D01*
X22638068Y-11395637D01*
X22646650Y-11308500D01*
X22646650Y-10408500D01*
X22638068Y-10321363D01*
X22612651Y-10237574D01*
X22605128Y-10223500D01*
X22612651Y-10209426D01*
X22638068Y-10125637D01*
X22646650Y-10038500D01*
X22646650Y-9138500D01*
X22638068Y-9051363D01*
X22612651Y-8967574D01*
X22605128Y-8953500D01*
X22612651Y-8939426D01*
X22638068Y-8855637D01*
X22646650Y-8768500D01*
X22646650Y-8214872D01*
X22903987Y-8472209D01*
X22903987Y-8472209D01*
G37*
X22903987Y-8472209D02*
X22854231Y-8636234D01*
X22829237Y-8890000D01*
X22854231Y-9143766D01*
X22928252Y-9387780D01*
X23048455Y-9612665D01*
X23210222Y-9809778D01*
X23407335Y-9971545D01*
X23632220Y-10091748D01*
X23857216Y-10160000D01*
X23632220Y-10228252D01*
X23407335Y-10348455D01*
X23210222Y-10510222D01*
X23048455Y-10707335D01*
X22928252Y-10932220D01*
X22854231Y-11176234D01*
X22829237Y-11430000D01*
X22854231Y-11683766D01*
X22928252Y-11927780D01*
X23048455Y-12152665D01*
X23210222Y-12349778D01*
X23407335Y-12511545D01*
X23632220Y-12631748D01*
X23857216Y-12700000D01*
X23632220Y-12768252D01*
X23407335Y-12888455D01*
X23210222Y-13050222D01*
X23048455Y-13247335D01*
X22928252Y-13472220D01*
X22854231Y-13716234D01*
X22829237Y-13970000D01*
X22854231Y-14223766D01*
X22928252Y-14467780D01*
X23048455Y-14692665D01*
X23210222Y-14889778D01*
X23407335Y-15051545D01*
X23496393Y-15099147D01*
X23476691Y-15106058D01*
X23215349Y-15260489D01*
X22989156Y-15462938D01*
X22902281Y-15578559D01*
X22877970Y-15554248D01*
X22860067Y-15532433D01*
X22773045Y-15461016D01*
X22673762Y-15407948D01*
X22636651Y-15396690D01*
X22612651Y-15317574D01*
X22605128Y-15303500D01*
X22612651Y-15289426D01*
X22638068Y-15205637D01*
X22646650Y-15118500D01*
X22646650Y-14218500D01*
X22638068Y-14131363D01*
X22612651Y-14047574D01*
X22605128Y-14033500D01*
X22612651Y-14019426D01*
X22638068Y-13935637D01*
X22646650Y-13848500D01*
X22646650Y-12948500D01*
X22638068Y-12861363D01*
X22612651Y-12777574D01*
X22605128Y-12763500D01*
X22612651Y-12749426D01*
X22638068Y-12665637D01*
X22646650Y-12578500D01*
X22646650Y-11678500D01*
X22638068Y-11591363D01*
X22612651Y-11507574D01*
X22605128Y-11493500D01*
X22612651Y-11479426D01*
X22638068Y-11395637D01*
X22646650Y-11308500D01*
X22646650Y-10408500D01*
X22638068Y-10321363D01*
X22612651Y-10237574D01*
X22605128Y-10223500D01*
X22612651Y-10209426D01*
X22638068Y-10125637D01*
X22646650Y-10038500D01*
X22646650Y-9138500D01*
X22638068Y-9051363D01*
X22612651Y-8967574D01*
X22605128Y-8953500D01*
X22612651Y-8939426D01*
X22638068Y-8855637D01*
X22646650Y-8768500D01*
X22646650Y-8214872D01*
X22903987Y-8472209D01*
G36*
X24257000Y-1143000D02*
G01*
X24277000Y-1143000D01*
X24277000Y-1397000D01*
X24257000Y-1397000D01*
X24257000Y-1417000D01*
X24003000Y-1417000D01*
X24003000Y-1397000D01*
X23983000Y-1397000D01*
X23983000Y-1143000D01*
X24003000Y-1143000D01*
X24003000Y-1123000D01*
X24257000Y-1123000D01*
X24257000Y-1143000D01*
X24257000Y-1143000D01*
G37*
X24257000Y-1143000D02*
X24277000Y-1143000D01*
X24277000Y-1397000D01*
X24257000Y-1397000D01*
X24257000Y-1417000D01*
X24003000Y-1417000D01*
X24003000Y-1397000D01*
X23983000Y-1397000D01*
X23983000Y-1143000D01*
X24003000Y-1143000D01*
X24003000Y-1123000D01*
X24257000Y-1123000D01*
X24257000Y-1143000D01*
M02*
