G04 #@! TF.GenerationSoftware,KiCad,Pcbnew,(5.1.4-0-10_14)*
G04 #@! TF.CreationDate,2019-11-01T18:28:51-07:00*
G04 #@! TF.ProjectId,esp32-generic-board,65737033-322d-4676-956e-657269632d62,rev?*
G04 #@! TF.SameCoordinates,Original*
G04 #@! TF.FileFunction,Soldermask,Top*
G04 #@! TF.FilePolarity,Negative*
%FSLAX46Y46*%
G04 Gerber Fmt 4.6, Leading zero omitted, Abs format (unit mm)*
G04 Created by KiCad (PCBNEW (5.1.4-0-10_14)) date 2019-11-01 18:28:51*
%MOMM*%
%LPD*%
G04 APERTURE LIST*
%ADD10C,0.100000*%
G04 APERTURE END LIST*
D10*
G36*
X9449000Y-63327000D02*
G01*
X7347000Y-63327000D01*
X7347000Y-59725000D01*
X9449000Y-59725000D01*
X9449000Y-63327000D01*
X9449000Y-63327000D01*
G37*
G36*
X5449000Y-63327000D02*
G01*
X3347000Y-63327000D01*
X3347000Y-59725000D01*
X5449000Y-59725000D01*
X5449000Y-63327000D01*
X5449000Y-63327000D01*
G37*
G36*
X22552559Y-59902860D02*
G01*
X22689232Y-59959472D01*
X22812235Y-60041660D01*
X22916840Y-60146265D01*
X22999028Y-60269268D01*
X23055640Y-60405941D01*
X23084500Y-60551033D01*
X23084500Y-60698967D01*
X23055640Y-60844059D01*
X22999028Y-60980732D01*
X22916840Y-61103735D01*
X22812235Y-61208340D01*
X22689232Y-61290528D01*
X22689231Y-61290529D01*
X22689230Y-61290529D01*
X22552559Y-61347140D01*
X22407468Y-61376000D01*
X22259532Y-61376000D01*
X22114441Y-61347140D01*
X21977770Y-61290529D01*
X21977769Y-61290529D01*
X21977768Y-61290528D01*
X21854765Y-61208340D01*
X21750160Y-61103735D01*
X21667972Y-60980732D01*
X21611360Y-60844059D01*
X21582500Y-60698967D01*
X21582500Y-60551033D01*
X21611360Y-60405941D01*
X21667972Y-60269268D01*
X21750160Y-60146265D01*
X21854765Y-60041660D01*
X21977768Y-59959472D01*
X22114441Y-59902860D01*
X22259532Y-59874000D01*
X22407468Y-59874000D01*
X22552559Y-59902860D01*
X22552559Y-59902860D01*
G37*
G36*
X13572559Y-59902860D02*
G01*
X13709232Y-59959472D01*
X13832235Y-60041660D01*
X13936840Y-60146265D01*
X14019028Y-60269268D01*
X14075640Y-60405941D01*
X14104500Y-60551033D01*
X14104500Y-60698967D01*
X14075640Y-60844059D01*
X14019028Y-60980732D01*
X13936840Y-61103735D01*
X13832235Y-61208340D01*
X13709232Y-61290528D01*
X13709231Y-61290529D01*
X13709230Y-61290529D01*
X13572559Y-61347140D01*
X13427468Y-61376000D01*
X13279532Y-61376000D01*
X13134441Y-61347140D01*
X12997770Y-61290529D01*
X12997769Y-61290529D01*
X12997768Y-61290528D01*
X12874765Y-61208340D01*
X12770160Y-61103735D01*
X12687972Y-60980732D01*
X12631360Y-60844059D01*
X12602500Y-60698967D01*
X12602500Y-60551033D01*
X12631360Y-60405941D01*
X12687972Y-60269268D01*
X12770160Y-60146265D01*
X12874765Y-60041660D01*
X12997768Y-59959472D01*
X13134441Y-59902860D01*
X13279532Y-59874000D01*
X13427468Y-59874000D01*
X13572559Y-59902860D01*
X13572559Y-59902860D01*
G37*
G36*
X14033763Y-53918960D02*
G01*
X14036165Y-53943346D01*
X14043278Y-53966795D01*
X14054830Y-53988406D01*
X14070375Y-54007347D01*
X14089314Y-54022890D01*
X14192235Y-54091660D01*
X14296840Y-54196265D01*
X14296841Y-54196267D01*
X14379029Y-54319270D01*
X14402017Y-54374768D01*
X14413568Y-54396379D01*
X14429113Y-54415321D01*
X14448055Y-54430866D01*
X14469666Y-54442417D01*
X14493115Y-54449530D01*
X14517501Y-54451932D01*
X14541887Y-54449530D01*
X14565336Y-54442417D01*
X14586947Y-54430866D01*
X14605889Y-54415321D01*
X14621434Y-54396379D01*
X14632985Y-54374768D01*
X14640098Y-54351319D01*
X14642500Y-54326933D01*
X14642500Y-54064000D01*
X20544500Y-54064000D01*
X20544500Y-54866000D01*
X14530784Y-54866000D01*
X14506398Y-54868402D01*
X14482949Y-54875515D01*
X14461338Y-54887066D01*
X14442396Y-54902611D01*
X14426851Y-54921553D01*
X14415300Y-54943164D01*
X14379028Y-55030732D01*
X14296840Y-55153735D01*
X14192235Y-55258340D01*
X14069232Y-55340528D01*
X14069231Y-55340529D01*
X14069230Y-55340529D01*
X13932559Y-55397140D01*
X13787468Y-55426000D01*
X13639532Y-55426000D01*
X13494441Y-55397140D01*
X13357770Y-55340529D01*
X13357769Y-55340529D01*
X13357768Y-55340528D01*
X13234765Y-55258340D01*
X13130160Y-55153735D01*
X13047972Y-55030732D01*
X12991360Y-54894059D01*
X12962500Y-54748967D01*
X12962500Y-54601033D01*
X12991360Y-54455941D01*
X13047972Y-54319268D01*
X13130160Y-54196265D01*
X13234765Y-54091660D01*
X13357768Y-54009472D01*
X13383132Y-53998966D01*
X13494441Y-53952860D01*
X13639532Y-53924000D01*
X13787468Y-53924000D01*
X13920172Y-53950396D01*
X13944558Y-53952798D01*
X13968945Y-53950396D01*
X13992393Y-53943283D01*
X14014004Y-53931732D01*
X14032946Y-53916186D01*
X14034185Y-53914676D01*
X14033763Y-53918960D01*
X14033763Y-53918960D01*
G37*
G36*
X20794500Y-53037455D02*
G01*
X20796902Y-53061841D01*
X20804015Y-53085290D01*
X20815566Y-53106901D01*
X20831111Y-53125843D01*
X20850053Y-53141388D01*
X20871664Y-53152939D01*
X20895113Y-53160052D01*
X20919499Y-53162454D01*
X20943885Y-53160052D01*
X20967334Y-53152939D01*
X20988945Y-53141388D01*
X21007887Y-53125843D01*
X21023432Y-53106901D01*
X21034928Y-53089696D01*
X21108195Y-53016429D01*
X21194347Y-52958864D01*
X21290072Y-52919213D01*
X21391692Y-52899000D01*
X21495308Y-52899000D01*
X21596928Y-52919213D01*
X21692653Y-52958864D01*
X21778805Y-53016429D01*
X21852071Y-53089695D01*
X21909636Y-53175847D01*
X21949287Y-53271572D01*
X21969500Y-53373192D01*
X21969500Y-53476808D01*
X21949287Y-53578428D01*
X21909635Y-53674156D01*
X21872618Y-53729556D01*
X21861067Y-53751166D01*
X21853954Y-53774615D01*
X21851552Y-53799001D01*
X21853954Y-53823387D01*
X21861067Y-53846836D01*
X21872618Y-53868447D01*
X21888164Y-53887389D01*
X21907106Y-53902934D01*
X21928716Y-53914485D01*
X21952165Y-53921598D01*
X21976551Y-53924000D01*
X22047468Y-53924000D01*
X22192559Y-53952860D01*
X22303869Y-53998966D01*
X22329232Y-54009472D01*
X22452235Y-54091660D01*
X22556840Y-54196265D01*
X22639028Y-54319268D01*
X22695640Y-54455941D01*
X22724500Y-54601033D01*
X22724500Y-54748967D01*
X22695640Y-54894059D01*
X22639028Y-55030732D01*
X22556840Y-55153735D01*
X22452235Y-55258340D01*
X22329232Y-55340528D01*
X22329231Y-55340529D01*
X22329230Y-55340529D01*
X22192559Y-55397140D01*
X22047468Y-55426000D01*
X21899532Y-55426000D01*
X21754441Y-55397140D01*
X21617770Y-55340529D01*
X21617769Y-55340529D01*
X21617768Y-55340528D01*
X21494765Y-55258340D01*
X21390160Y-55153735D01*
X21307972Y-55030732D01*
X21251360Y-54894059D01*
X21222500Y-54748967D01*
X21222500Y-54601033D01*
X21251360Y-54455941D01*
X21307972Y-54319268D01*
X21390160Y-54196265D01*
X21429631Y-54156794D01*
X21445171Y-54137858D01*
X21456722Y-54116247D01*
X21463835Y-54092798D01*
X21466237Y-54068412D01*
X21463835Y-54044026D01*
X21456722Y-54020577D01*
X21445171Y-53998966D01*
X21429626Y-53980024D01*
X21410684Y-53964479D01*
X21389073Y-53952928D01*
X21365624Y-53945815D01*
X21290073Y-53930787D01*
X21194347Y-53891136D01*
X21108195Y-53833571D01*
X21034929Y-53760305D01*
X20977364Y-53674153D01*
X20937713Y-53578428D01*
X20917500Y-53476808D01*
X20917500Y-53373191D01*
X20928998Y-53315384D01*
X20931400Y-53290998D01*
X20928998Y-53266612D01*
X20921885Y-53243163D01*
X20910333Y-53221552D01*
X20894788Y-53202611D01*
X20875846Y-53187066D01*
X20854235Y-53175515D01*
X20830786Y-53168402D01*
X20806401Y-53166000D01*
X14892500Y-53166000D01*
X14892500Y-52364000D01*
X20794500Y-52364000D01*
X20794500Y-53037455D01*
X20794500Y-53037455D01*
G37*
G36*
X9449000Y-55327000D02*
G01*
X7347000Y-55327000D01*
X7347000Y-49225000D01*
X9449000Y-49225000D01*
X9449000Y-55327000D01*
X9449000Y-55327000D01*
G37*
G36*
X5449000Y-55327000D02*
G01*
X3347000Y-55327000D01*
X3347000Y-49225000D01*
X5449000Y-49225000D01*
X5449000Y-55327000D01*
X5449000Y-55327000D01*
G37*
G36*
X14353172Y-53063449D02*
G01*
X14353174Y-53063450D01*
X14353175Y-53063450D01*
X14421603Y-53091793D01*
X14483186Y-53132942D01*
X14535558Y-53185314D01*
X14576707Y-53246897D01*
X14605050Y-53315325D01*
X14605051Y-53315328D01*
X14619500Y-53387966D01*
X14619500Y-53462034D01*
X14616562Y-53476806D01*
X14605050Y-53534675D01*
X14576707Y-53603103D01*
X14535558Y-53664686D01*
X14483186Y-53717058D01*
X14421603Y-53758207D01*
X14353175Y-53786550D01*
X14353174Y-53786550D01*
X14353172Y-53786551D01*
X14280534Y-53801000D01*
X14206465Y-53801000D01*
X14183147Y-53796362D01*
X14158761Y-53793960D01*
X14134375Y-53796362D01*
X14110926Y-53803475D01*
X14089315Y-53815027D01*
X14070374Y-53830572D01*
X14069135Y-53832082D01*
X14069557Y-53827799D01*
X14067155Y-53803412D01*
X14060042Y-53779964D01*
X14048491Y-53758353D01*
X14032945Y-53739411D01*
X14014003Y-53723866D01*
X14003817Y-53717060D01*
X14003814Y-53717058D01*
X13951442Y-53664686D01*
X13910293Y-53603103D01*
X13881950Y-53534675D01*
X13870439Y-53476806D01*
X13867500Y-53462034D01*
X13867500Y-53387966D01*
X13881949Y-53315328D01*
X13881950Y-53315325D01*
X13910293Y-53246897D01*
X13951442Y-53185314D01*
X14003814Y-53132942D01*
X14065397Y-53091793D01*
X14133825Y-53063450D01*
X14133826Y-53063450D01*
X14133828Y-53063449D01*
X14206466Y-53049000D01*
X14280534Y-53049000D01*
X14353172Y-53063449D01*
X14353172Y-53063449D01*
G37*
G36*
X19929968Y-50117065D02*
G01*
X19968638Y-50128796D01*
X20004277Y-50147846D01*
X20035517Y-50173483D01*
X20061154Y-50204723D01*
X20080204Y-50240362D01*
X20091935Y-50279032D01*
X20096500Y-50325388D01*
X20096500Y-51401612D01*
X20091935Y-51447968D01*
X20080204Y-51486638D01*
X20061154Y-51522277D01*
X20035517Y-51553517D01*
X20004277Y-51579154D01*
X19968638Y-51598204D01*
X19929968Y-51609935D01*
X19883612Y-51614500D01*
X19232388Y-51614500D01*
X19186032Y-51609935D01*
X19147362Y-51598204D01*
X19111723Y-51579154D01*
X19080483Y-51553517D01*
X19054846Y-51522277D01*
X19035796Y-51486638D01*
X19024065Y-51447968D01*
X19019500Y-51401612D01*
X19019500Y-50325388D01*
X19024065Y-50279032D01*
X19035796Y-50240362D01*
X19054846Y-50204723D01*
X19080483Y-50173483D01*
X19111723Y-50147846D01*
X19147362Y-50128796D01*
X19186032Y-50117065D01*
X19232388Y-50112500D01*
X19883612Y-50112500D01*
X19929968Y-50117065D01*
X19929968Y-50117065D01*
G37*
G36*
X21804968Y-50117065D02*
G01*
X21843638Y-50128796D01*
X21879277Y-50147846D01*
X21910517Y-50173483D01*
X21936154Y-50204723D01*
X21955204Y-50240362D01*
X21966935Y-50279032D01*
X21971500Y-50325388D01*
X21971500Y-51401612D01*
X21966935Y-51447968D01*
X21955204Y-51486638D01*
X21936154Y-51522277D01*
X21910517Y-51553517D01*
X21879277Y-51579154D01*
X21843638Y-51598204D01*
X21804968Y-51609935D01*
X21758612Y-51614500D01*
X21107388Y-51614500D01*
X21061032Y-51609935D01*
X21022362Y-51598204D01*
X20986723Y-51579154D01*
X20955483Y-51553517D01*
X20929846Y-51522277D01*
X20910796Y-51486638D01*
X20899065Y-51447968D01*
X20894500Y-51401612D01*
X20894500Y-50325388D01*
X20899065Y-50279032D01*
X20910796Y-50240362D01*
X20929846Y-50204723D01*
X20955483Y-50173483D01*
X20986723Y-50147846D01*
X21022362Y-50128796D01*
X21061032Y-50117065D01*
X21107388Y-50112500D01*
X21758612Y-50112500D01*
X21804968Y-50117065D01*
X21804968Y-50117065D01*
G37*
G36*
X16343968Y-50117065D02*
G01*
X16382638Y-50128796D01*
X16418277Y-50147846D01*
X16449517Y-50173483D01*
X16475154Y-50204723D01*
X16494204Y-50240362D01*
X16505935Y-50279032D01*
X16510500Y-50325388D01*
X16510500Y-51401612D01*
X16505935Y-51447968D01*
X16494204Y-51486638D01*
X16475154Y-51522277D01*
X16449517Y-51553517D01*
X16418277Y-51579154D01*
X16382638Y-51598204D01*
X16343968Y-51609935D01*
X16297612Y-51614500D01*
X15646388Y-51614500D01*
X15600032Y-51609935D01*
X15561362Y-51598204D01*
X15525723Y-51579154D01*
X15494483Y-51553517D01*
X15468846Y-51522277D01*
X15449796Y-51486638D01*
X15438065Y-51447968D01*
X15433500Y-51401612D01*
X15433500Y-50325388D01*
X15438065Y-50279032D01*
X15449796Y-50240362D01*
X15468846Y-50204723D01*
X15494483Y-50173483D01*
X15525723Y-50147846D01*
X15561362Y-50128796D01*
X15600032Y-50117065D01*
X15646388Y-50112500D01*
X16297612Y-50112500D01*
X16343968Y-50117065D01*
X16343968Y-50117065D01*
G37*
G36*
X14468968Y-50117065D02*
G01*
X14507638Y-50128796D01*
X14543277Y-50147846D01*
X14574517Y-50173483D01*
X14600154Y-50204723D01*
X14619204Y-50240362D01*
X14630935Y-50279032D01*
X14635500Y-50325388D01*
X14635500Y-51401612D01*
X14630935Y-51447968D01*
X14619204Y-51486638D01*
X14600154Y-51522277D01*
X14574517Y-51553517D01*
X14543277Y-51579154D01*
X14507638Y-51598204D01*
X14468968Y-51609935D01*
X14422612Y-51614500D01*
X13771388Y-51614500D01*
X13725032Y-51609935D01*
X13686362Y-51598204D01*
X13650723Y-51579154D01*
X13619483Y-51553517D01*
X13593846Y-51522277D01*
X13574796Y-51486638D01*
X13563065Y-51447968D01*
X13558500Y-51401612D01*
X13558500Y-50325388D01*
X13563065Y-50279032D01*
X13574796Y-50240362D01*
X13593846Y-50204723D01*
X13619483Y-50173483D01*
X13650723Y-50147846D01*
X13686362Y-50128796D01*
X13725032Y-50117065D01*
X13771388Y-50112500D01*
X14422612Y-50112500D01*
X14468968Y-50117065D01*
X14468968Y-50117065D01*
G37*
G36*
X1380442Y-46095518D02*
G01*
X1446627Y-46102037D01*
X1616466Y-46153557D01*
X1772991Y-46237222D01*
X1808729Y-46266552D01*
X1910186Y-46349814D01*
X1993448Y-46451271D01*
X2022778Y-46487009D01*
X2106443Y-46643534D01*
X2157963Y-46813373D01*
X2175359Y-46990000D01*
X2157963Y-47166627D01*
X2106443Y-47336466D01*
X2022778Y-47492991D01*
X1993448Y-47528729D01*
X1910186Y-47630186D01*
X1808729Y-47713448D01*
X1772991Y-47742778D01*
X1616466Y-47826443D01*
X1446627Y-47877963D01*
X1380443Y-47884481D01*
X1314260Y-47891000D01*
X1225740Y-47891000D01*
X1159557Y-47884481D01*
X1093373Y-47877963D01*
X923534Y-47826443D01*
X767009Y-47742778D01*
X731271Y-47713448D01*
X629814Y-47630186D01*
X546552Y-47528729D01*
X517222Y-47492991D01*
X433557Y-47336466D01*
X382037Y-47166627D01*
X364641Y-46990000D01*
X382037Y-46813373D01*
X433557Y-46643534D01*
X517222Y-46487009D01*
X546552Y-46451271D01*
X629814Y-46349814D01*
X731271Y-46266552D01*
X767009Y-46237222D01*
X923534Y-46153557D01*
X1093373Y-46102037D01*
X1159558Y-46095518D01*
X1225740Y-46089000D01*
X1314260Y-46089000D01*
X1380442Y-46095518D01*
X1380442Y-46095518D01*
G37*
G36*
X25031000Y-47891000D02*
G01*
X23229000Y-47891000D01*
X23229000Y-46089000D01*
X25031000Y-46089000D01*
X25031000Y-47891000D01*
X25031000Y-47891000D01*
G37*
G36*
X24240443Y-43555519D02*
G01*
X24306627Y-43562037D01*
X24476466Y-43613557D01*
X24632991Y-43697222D01*
X24668729Y-43726552D01*
X24770186Y-43809814D01*
X24853448Y-43911271D01*
X24882778Y-43947009D01*
X24966443Y-44103534D01*
X25017963Y-44273373D01*
X25035359Y-44450000D01*
X25017963Y-44626627D01*
X24966443Y-44796466D01*
X24882778Y-44952991D01*
X24853448Y-44988729D01*
X24770186Y-45090186D01*
X24668729Y-45173448D01*
X24632991Y-45202778D01*
X24476466Y-45286443D01*
X24306627Y-45337963D01*
X24240442Y-45344482D01*
X24174260Y-45351000D01*
X24085740Y-45351000D01*
X24019558Y-45344482D01*
X23953373Y-45337963D01*
X23783534Y-45286443D01*
X23627009Y-45202778D01*
X23591271Y-45173448D01*
X23489814Y-45090186D01*
X23406552Y-44988729D01*
X23377222Y-44952991D01*
X23293557Y-44796466D01*
X23242037Y-44626627D01*
X23224641Y-44450000D01*
X23242037Y-44273373D01*
X23293557Y-44103534D01*
X23377222Y-43947009D01*
X23406552Y-43911271D01*
X23489814Y-43809814D01*
X23591271Y-43726552D01*
X23627009Y-43697222D01*
X23783534Y-43613557D01*
X23953373Y-43562037D01*
X24019557Y-43555519D01*
X24085740Y-43549000D01*
X24174260Y-43549000D01*
X24240443Y-43555519D01*
X24240443Y-43555519D01*
G37*
G36*
X1380443Y-43555519D02*
G01*
X1446627Y-43562037D01*
X1616466Y-43613557D01*
X1772991Y-43697222D01*
X1808729Y-43726552D01*
X1910186Y-43809814D01*
X1993448Y-43911271D01*
X2022778Y-43947009D01*
X2106443Y-44103534D01*
X2157963Y-44273373D01*
X2175359Y-44450000D01*
X2157963Y-44626627D01*
X2106443Y-44796466D01*
X2022778Y-44952991D01*
X1993448Y-44988729D01*
X1910186Y-45090186D01*
X1808729Y-45173448D01*
X1772991Y-45202778D01*
X1616466Y-45286443D01*
X1446627Y-45337963D01*
X1380442Y-45344482D01*
X1314260Y-45351000D01*
X1225740Y-45351000D01*
X1159558Y-45344482D01*
X1093373Y-45337963D01*
X923534Y-45286443D01*
X767009Y-45202778D01*
X731271Y-45173448D01*
X629814Y-45090186D01*
X546552Y-44988729D01*
X517222Y-44952991D01*
X433557Y-44796466D01*
X382037Y-44626627D01*
X364641Y-44450000D01*
X382037Y-44273373D01*
X433557Y-44103534D01*
X517222Y-43947009D01*
X546552Y-43911271D01*
X629814Y-43809814D01*
X731271Y-43726552D01*
X767009Y-43697222D01*
X923534Y-43613557D01*
X1093373Y-43562037D01*
X1159557Y-43555519D01*
X1225740Y-43549000D01*
X1314260Y-43549000D01*
X1380443Y-43555519D01*
X1380443Y-43555519D01*
G37*
G36*
X22098000Y-44118000D02*
G01*
X20093000Y-44118000D01*
X20093000Y-41226000D01*
X22098000Y-41226000D01*
X22098000Y-44118000D01*
X22098000Y-44118000D01*
G37*
G36*
X17245000Y-44118000D02*
G01*
X15240000Y-44118000D01*
X15240000Y-41226000D01*
X17245000Y-41226000D01*
X17245000Y-44118000D01*
X17245000Y-44118000D01*
G37*
G36*
X11810000Y-43292000D02*
G01*
X10819000Y-43292000D01*
X10819000Y-42885000D01*
X11810000Y-42885000D01*
X11810000Y-43292000D01*
X11810000Y-43292000D01*
G37*
G36*
X7596000Y-43292000D02*
G01*
X6605000Y-43292000D01*
X6605000Y-42885000D01*
X7596000Y-42885000D01*
X7596000Y-43292000D01*
X7596000Y-43292000D01*
G37*
G36*
X5410468Y-41917565D02*
G01*
X5449138Y-41929296D01*
X5484777Y-41948346D01*
X5516017Y-41973983D01*
X5541654Y-42005223D01*
X5560704Y-42040862D01*
X5572435Y-42079532D01*
X5577000Y-42125888D01*
X5577000Y-42777112D01*
X5572435Y-42823468D01*
X5560704Y-42862138D01*
X5541654Y-42897777D01*
X5516017Y-42929017D01*
X5484777Y-42954654D01*
X5449138Y-42973704D01*
X5410468Y-42985435D01*
X5364112Y-42990000D01*
X4287888Y-42990000D01*
X4241532Y-42985435D01*
X4202862Y-42973704D01*
X4167223Y-42954654D01*
X4135983Y-42929017D01*
X4110346Y-42897777D01*
X4091296Y-42862138D01*
X4079565Y-42823468D01*
X4075000Y-42777112D01*
X4075000Y-42125888D01*
X4079565Y-42079532D01*
X4091296Y-42040862D01*
X4110346Y-42005223D01*
X4135983Y-41973983D01*
X4167223Y-41948346D01*
X4202862Y-41929296D01*
X4241532Y-41917565D01*
X4287888Y-41913000D01*
X5364112Y-41913000D01*
X5410468Y-41917565D01*
X5410468Y-41917565D01*
G37*
G36*
X10084000Y-42812000D02*
G01*
X8331000Y-42812000D01*
X8331000Y-39865000D01*
X10084000Y-39865000D01*
X10084000Y-42812000D01*
X10084000Y-42812000D01*
G37*
G36*
X1380442Y-41015518D02*
G01*
X1446627Y-41022037D01*
X1616466Y-41073557D01*
X1772991Y-41157222D01*
X1808729Y-41186552D01*
X1910186Y-41269814D01*
X1993448Y-41371271D01*
X2022778Y-41407009D01*
X2106443Y-41563534D01*
X2157963Y-41733373D01*
X2175359Y-41910000D01*
X2157963Y-42086627D01*
X2106443Y-42256466D01*
X2022778Y-42412991D01*
X1994344Y-42447638D01*
X1910186Y-42550186D01*
X1808729Y-42633448D01*
X1772991Y-42662778D01*
X1616466Y-42746443D01*
X1446627Y-42797963D01*
X1380443Y-42804481D01*
X1314260Y-42811000D01*
X1225740Y-42811000D01*
X1159557Y-42804481D01*
X1093373Y-42797963D01*
X923534Y-42746443D01*
X767009Y-42662778D01*
X731271Y-42633448D01*
X629814Y-42550186D01*
X545656Y-42447638D01*
X517222Y-42412991D01*
X433557Y-42256466D01*
X382037Y-42086627D01*
X364641Y-41910000D01*
X382037Y-41733373D01*
X433557Y-41563534D01*
X517222Y-41407009D01*
X546552Y-41371271D01*
X629814Y-41269814D01*
X731271Y-41186552D01*
X767009Y-41157222D01*
X923534Y-41073557D01*
X1093373Y-41022037D01*
X1159558Y-41015518D01*
X1225740Y-41009000D01*
X1314260Y-41009000D01*
X1380442Y-41015518D01*
X1380442Y-41015518D01*
G37*
G36*
X24240442Y-41015518D02*
G01*
X24306627Y-41022037D01*
X24476466Y-41073557D01*
X24632991Y-41157222D01*
X24668729Y-41186552D01*
X24770186Y-41269814D01*
X24853448Y-41371271D01*
X24882778Y-41407009D01*
X24966443Y-41563534D01*
X25017963Y-41733373D01*
X25035359Y-41910000D01*
X25017963Y-42086627D01*
X24966443Y-42256466D01*
X24882778Y-42412991D01*
X24854344Y-42447638D01*
X24770186Y-42550186D01*
X24668729Y-42633448D01*
X24632991Y-42662778D01*
X24476466Y-42746443D01*
X24306627Y-42797963D01*
X24240443Y-42804481D01*
X24174260Y-42811000D01*
X24085740Y-42811000D01*
X24019557Y-42804481D01*
X23953373Y-42797963D01*
X23783534Y-42746443D01*
X23627009Y-42662778D01*
X23591271Y-42633448D01*
X23489814Y-42550186D01*
X23405656Y-42447638D01*
X23377222Y-42412991D01*
X23293557Y-42256466D01*
X23242037Y-42086627D01*
X23224641Y-41910000D01*
X23242037Y-41733373D01*
X23293557Y-41563534D01*
X23377222Y-41407009D01*
X23406552Y-41371271D01*
X23489814Y-41269814D01*
X23591271Y-41186552D01*
X23627009Y-41157222D01*
X23783534Y-41073557D01*
X23953373Y-41022037D01*
X24019558Y-41015518D01*
X24085740Y-41009000D01*
X24174260Y-41009000D01*
X24240442Y-41015518D01*
X24240442Y-41015518D01*
G37*
G36*
X14427468Y-41503065D02*
G01*
X14466138Y-41514796D01*
X14501777Y-41533846D01*
X14533017Y-41559483D01*
X14558654Y-41590723D01*
X14577704Y-41626362D01*
X14589435Y-41665032D01*
X14594000Y-41711388D01*
X14594000Y-42362612D01*
X14589435Y-42408968D01*
X14577704Y-42447638D01*
X14558654Y-42483277D01*
X14533017Y-42514517D01*
X14501777Y-42540154D01*
X14466138Y-42559204D01*
X14427468Y-42570935D01*
X14381112Y-42575500D01*
X13304888Y-42575500D01*
X13258532Y-42570935D01*
X13219862Y-42559204D01*
X13184223Y-42540154D01*
X13152983Y-42514517D01*
X13127346Y-42483277D01*
X13108296Y-42447638D01*
X13096565Y-42408968D01*
X13092000Y-42362612D01*
X13092000Y-41711388D01*
X13096565Y-41665032D01*
X13108296Y-41626362D01*
X13127346Y-41590723D01*
X13152983Y-41559483D01*
X13184223Y-41533846D01*
X13219862Y-41514796D01*
X13258532Y-41503065D01*
X13304888Y-41498500D01*
X14381112Y-41498500D01*
X14427468Y-41503065D01*
X14427468Y-41503065D01*
G37*
G36*
X7596000Y-42292000D02*
G01*
X6605000Y-42292000D01*
X6605000Y-41885000D01*
X7596000Y-41885000D01*
X7596000Y-42292000D01*
X7596000Y-42292000D01*
G37*
G36*
X11810000Y-42292000D02*
G01*
X10819000Y-42292000D01*
X10819000Y-41885000D01*
X11810000Y-41885000D01*
X11810000Y-42292000D01*
X11810000Y-42292000D01*
G37*
G36*
X7596000Y-41292000D02*
G01*
X6605000Y-41292000D01*
X6605000Y-39385000D01*
X7596000Y-39385000D01*
X7596000Y-41292000D01*
X7596000Y-41292000D01*
G37*
G36*
X11810000Y-41292000D02*
G01*
X10819000Y-41292000D01*
X10819000Y-39385000D01*
X11810000Y-39385000D01*
X11810000Y-41292000D01*
X11810000Y-41292000D01*
G37*
G36*
X5410468Y-40042565D02*
G01*
X5449138Y-40054296D01*
X5484777Y-40073346D01*
X5516017Y-40098983D01*
X5541654Y-40130223D01*
X5560704Y-40165862D01*
X5572435Y-40204532D01*
X5577000Y-40250888D01*
X5577000Y-40902112D01*
X5572435Y-40948468D01*
X5560704Y-40987138D01*
X5541654Y-41022777D01*
X5516017Y-41054017D01*
X5484777Y-41079654D01*
X5449138Y-41098704D01*
X5410468Y-41110435D01*
X5364112Y-41115000D01*
X4287888Y-41115000D01*
X4241532Y-41110435D01*
X4202862Y-41098704D01*
X4167223Y-41079654D01*
X4135983Y-41054017D01*
X4110346Y-41022777D01*
X4091296Y-40987138D01*
X4079565Y-40948468D01*
X4075000Y-40902112D01*
X4075000Y-40250888D01*
X4079565Y-40204532D01*
X4091296Y-40165862D01*
X4110346Y-40130223D01*
X4135983Y-40098983D01*
X4167223Y-40073346D01*
X4202862Y-40054296D01*
X4241532Y-40042565D01*
X4287888Y-40038000D01*
X5364112Y-40038000D01*
X5410468Y-40042565D01*
X5410468Y-40042565D01*
G37*
G36*
X14427468Y-39628065D02*
G01*
X14466138Y-39639796D01*
X14501777Y-39658846D01*
X14533017Y-39684483D01*
X14558654Y-39715723D01*
X14577704Y-39751362D01*
X14589435Y-39790032D01*
X14594000Y-39836388D01*
X14594000Y-40487612D01*
X14589435Y-40533968D01*
X14577704Y-40572638D01*
X14558654Y-40608277D01*
X14533017Y-40639517D01*
X14501777Y-40665154D01*
X14466138Y-40684204D01*
X14427468Y-40695935D01*
X14381112Y-40700500D01*
X13304888Y-40700500D01*
X13258532Y-40695935D01*
X13219862Y-40684204D01*
X13184223Y-40665154D01*
X13152983Y-40639517D01*
X13127346Y-40608277D01*
X13108296Y-40572638D01*
X13096565Y-40533968D01*
X13092000Y-40487612D01*
X13092000Y-39836388D01*
X13096565Y-39790032D01*
X13108296Y-39751362D01*
X13127346Y-39715723D01*
X13152983Y-39684483D01*
X13184223Y-39658846D01*
X13219862Y-39639796D01*
X13258532Y-39628065D01*
X13304888Y-39623500D01*
X14381112Y-39623500D01*
X14427468Y-39628065D01*
X14427468Y-39628065D01*
G37*
G36*
X24240443Y-38475519D02*
G01*
X24306627Y-38482037D01*
X24476466Y-38533557D01*
X24632991Y-38617222D01*
X24668729Y-38646552D01*
X24770186Y-38729814D01*
X24853448Y-38831271D01*
X24882778Y-38867009D01*
X24966443Y-39023534D01*
X25017963Y-39193373D01*
X25035359Y-39370000D01*
X25017963Y-39546627D01*
X24966443Y-39716466D01*
X24882778Y-39872991D01*
X24872922Y-39885000D01*
X24770186Y-40010186D01*
X24711320Y-40058495D01*
X24632991Y-40122778D01*
X24476466Y-40206443D01*
X24306627Y-40257963D01*
X24240443Y-40264481D01*
X24174260Y-40271000D01*
X24085740Y-40271000D01*
X24019557Y-40264481D01*
X23953373Y-40257963D01*
X23783534Y-40206443D01*
X23627009Y-40122778D01*
X23548680Y-40058495D01*
X23489814Y-40010186D01*
X23387078Y-39885000D01*
X23377222Y-39872991D01*
X23293557Y-39716466D01*
X23242037Y-39546627D01*
X23224641Y-39370000D01*
X23242037Y-39193373D01*
X23293557Y-39023534D01*
X23377222Y-38867009D01*
X23406552Y-38831271D01*
X23489814Y-38729814D01*
X23591271Y-38646552D01*
X23627009Y-38617222D01*
X23783534Y-38533557D01*
X23953373Y-38482037D01*
X24019557Y-38475519D01*
X24085740Y-38469000D01*
X24174260Y-38469000D01*
X24240443Y-38475519D01*
X24240443Y-38475519D01*
G37*
G36*
X1380443Y-38475519D02*
G01*
X1446627Y-38482037D01*
X1616466Y-38533557D01*
X1772991Y-38617222D01*
X1808729Y-38646552D01*
X1910186Y-38729814D01*
X1993448Y-38831271D01*
X2022778Y-38867009D01*
X2106443Y-39023534D01*
X2157963Y-39193373D01*
X2175359Y-39370000D01*
X2157963Y-39546627D01*
X2106443Y-39716466D01*
X2022778Y-39872991D01*
X2012922Y-39885000D01*
X1910186Y-40010186D01*
X1851320Y-40058495D01*
X1772991Y-40122778D01*
X1616466Y-40206443D01*
X1446627Y-40257963D01*
X1380443Y-40264481D01*
X1314260Y-40271000D01*
X1225740Y-40271000D01*
X1159557Y-40264481D01*
X1093373Y-40257963D01*
X923534Y-40206443D01*
X767009Y-40122778D01*
X688680Y-40058495D01*
X629814Y-40010186D01*
X527078Y-39885000D01*
X517222Y-39872991D01*
X433557Y-39716466D01*
X382037Y-39546627D01*
X364641Y-39370000D01*
X382037Y-39193373D01*
X433557Y-39023534D01*
X517222Y-38867009D01*
X546552Y-38831271D01*
X629814Y-38729814D01*
X731271Y-38646552D01*
X767009Y-38617222D01*
X923534Y-38533557D01*
X1093373Y-38482037D01*
X1159557Y-38475519D01*
X1225740Y-38469000D01*
X1314260Y-38469000D01*
X1380443Y-38475519D01*
X1380443Y-38475519D01*
G37*
G36*
X21819968Y-37798065D02*
G01*
X21858638Y-37809796D01*
X21894277Y-37828846D01*
X21925517Y-37854483D01*
X21951154Y-37885723D01*
X21970204Y-37921362D01*
X21981935Y-37960032D01*
X21986500Y-38006388D01*
X21986500Y-39082612D01*
X21981935Y-39128968D01*
X21970204Y-39167638D01*
X21951154Y-39203277D01*
X21925517Y-39234517D01*
X21894277Y-39260154D01*
X21858638Y-39279204D01*
X21819968Y-39290935D01*
X21773612Y-39295500D01*
X21122388Y-39295500D01*
X21076032Y-39290935D01*
X21037362Y-39279204D01*
X21001723Y-39260154D01*
X20970483Y-39234517D01*
X20944846Y-39203277D01*
X20925796Y-39167638D01*
X20914065Y-39128968D01*
X20909500Y-39082612D01*
X20909500Y-38006388D01*
X20914065Y-37960032D01*
X20925796Y-37921362D01*
X20944846Y-37885723D01*
X20970483Y-37854483D01*
X21001723Y-37828846D01*
X21037362Y-37809796D01*
X21076032Y-37798065D01*
X21122388Y-37793500D01*
X21773612Y-37793500D01*
X21819968Y-37798065D01*
X21819968Y-37798065D01*
G37*
G36*
X19944968Y-37798065D02*
G01*
X19983638Y-37809796D01*
X20019277Y-37828846D01*
X20050517Y-37854483D01*
X20076154Y-37885723D01*
X20095204Y-37921362D01*
X20106935Y-37960032D01*
X20111500Y-38006388D01*
X20111500Y-39082612D01*
X20106935Y-39128968D01*
X20095204Y-39167638D01*
X20076154Y-39203277D01*
X20050517Y-39234517D01*
X20019277Y-39260154D01*
X19983638Y-39279204D01*
X19944968Y-39290935D01*
X19898612Y-39295500D01*
X19247388Y-39295500D01*
X19201032Y-39290935D01*
X19162362Y-39279204D01*
X19126723Y-39260154D01*
X19095483Y-39234517D01*
X19069846Y-39203277D01*
X19050796Y-39167638D01*
X19039065Y-39128968D01*
X19034500Y-39082612D01*
X19034500Y-38006388D01*
X19039065Y-37960032D01*
X19050796Y-37921362D01*
X19069846Y-37885723D01*
X19095483Y-37854483D01*
X19126723Y-37828846D01*
X19162362Y-37809796D01*
X19201032Y-37798065D01*
X19247388Y-37793500D01*
X19898612Y-37793500D01*
X19944968Y-37798065D01*
X19944968Y-37798065D01*
G37*
G36*
X24240442Y-35935518D02*
G01*
X24306627Y-35942037D01*
X24476466Y-35993557D01*
X24632991Y-36077222D01*
X24668729Y-36106552D01*
X24770186Y-36189814D01*
X24853448Y-36291271D01*
X24882778Y-36327009D01*
X24966443Y-36483534D01*
X25017963Y-36653373D01*
X25035359Y-36830000D01*
X25017963Y-37006627D01*
X24966443Y-37176466D01*
X24882778Y-37332991D01*
X24853448Y-37368729D01*
X24770186Y-37470186D01*
X24668729Y-37553448D01*
X24632991Y-37582778D01*
X24476466Y-37666443D01*
X24306627Y-37717963D01*
X24240443Y-37724481D01*
X24174260Y-37731000D01*
X24085740Y-37731000D01*
X24019557Y-37724481D01*
X23953373Y-37717963D01*
X23783534Y-37666443D01*
X23627009Y-37582778D01*
X23591271Y-37553448D01*
X23489814Y-37470186D01*
X23406552Y-37368729D01*
X23377222Y-37332991D01*
X23293557Y-37176466D01*
X23242037Y-37006627D01*
X23224641Y-36830000D01*
X23242037Y-36653373D01*
X23293557Y-36483534D01*
X23377222Y-36327009D01*
X23406552Y-36291271D01*
X23489814Y-36189814D01*
X23591271Y-36106552D01*
X23627009Y-36077222D01*
X23783534Y-35993557D01*
X23953373Y-35942037D01*
X24019558Y-35935518D01*
X24085740Y-35929000D01*
X24174260Y-35929000D01*
X24240442Y-35935518D01*
X24240442Y-35935518D01*
G37*
G36*
X1380442Y-35935518D02*
G01*
X1446627Y-35942037D01*
X1616466Y-35993557D01*
X1772991Y-36077222D01*
X1808729Y-36106552D01*
X1910186Y-36189814D01*
X1993448Y-36291271D01*
X2022778Y-36327009D01*
X2106443Y-36483534D01*
X2157963Y-36653373D01*
X2175359Y-36830000D01*
X2157963Y-37006627D01*
X2106443Y-37176466D01*
X2022778Y-37332991D01*
X1993448Y-37368729D01*
X1910186Y-37470186D01*
X1808729Y-37553448D01*
X1772991Y-37582778D01*
X1616466Y-37666443D01*
X1446627Y-37717963D01*
X1380443Y-37724481D01*
X1314260Y-37731000D01*
X1225740Y-37731000D01*
X1159557Y-37724481D01*
X1093373Y-37717963D01*
X923534Y-37666443D01*
X767009Y-37582778D01*
X731271Y-37553448D01*
X629814Y-37470186D01*
X546552Y-37368729D01*
X517222Y-37332991D01*
X433557Y-37176466D01*
X382037Y-37006627D01*
X364641Y-36830000D01*
X382037Y-36653373D01*
X433557Y-36483534D01*
X517222Y-36327009D01*
X546552Y-36291271D01*
X629814Y-36189814D01*
X731271Y-36106552D01*
X767009Y-36077222D01*
X923534Y-35993557D01*
X1093373Y-35942037D01*
X1159558Y-35935518D01*
X1225740Y-35929000D01*
X1314260Y-35929000D01*
X1380442Y-35935518D01*
X1380442Y-35935518D01*
G37*
G36*
X21798000Y-36187500D02*
G01*
X19946000Y-36187500D01*
X19946000Y-27185500D01*
X21798000Y-27185500D01*
X21798000Y-36187500D01*
X21798000Y-36187500D01*
G37*
G36*
X14598000Y-36187500D02*
G01*
X12746000Y-36187500D01*
X12746000Y-27185500D01*
X14598000Y-27185500D01*
X14598000Y-36187500D01*
X14598000Y-36187500D01*
G37*
G36*
X10295199Y-32346454D02*
G01*
X10307450Y-32347056D01*
X10325869Y-32347056D01*
X10348149Y-32349250D01*
X10432233Y-32365976D01*
X10453660Y-32372476D01*
X10532858Y-32405280D01*
X10538303Y-32408191D01*
X10538309Y-32408193D01*
X10547169Y-32412929D01*
X10547173Y-32412932D01*
X10552614Y-32415840D01*
X10623899Y-32463471D01*
X10641204Y-32477672D01*
X10701828Y-32538296D01*
X10716029Y-32555601D01*
X10763660Y-32626886D01*
X10766568Y-32632327D01*
X10766571Y-32632331D01*
X10771307Y-32641191D01*
X10771309Y-32641197D01*
X10774220Y-32646642D01*
X10807024Y-32725840D01*
X10813524Y-32747267D01*
X10830250Y-32831351D01*
X10832444Y-32853631D01*
X10832444Y-32872050D01*
X10833046Y-32884301D01*
X10834852Y-32902639D01*
X10834852Y-33440360D01*
X10833263Y-33456499D01*
X10828855Y-33471028D01*
X10823394Y-33484211D01*
X10818612Y-33508245D01*
X10818611Y-33532749D01*
X10823391Y-33556782D01*
X10832768Y-33579421D01*
X10834000Y-33581265D01*
X10834000Y-34812550D01*
X10827525Y-34824664D01*
X10820412Y-34848113D01*
X10818010Y-34872499D01*
X10820412Y-34896885D01*
X10827525Y-34920334D01*
X10829848Y-34925246D01*
X10833263Y-34936501D01*
X10834852Y-34952640D01*
X10834852Y-35490361D01*
X10833046Y-35508699D01*
X10832444Y-35520950D01*
X10832444Y-35539369D01*
X10830250Y-35561649D01*
X10813524Y-35645733D01*
X10807024Y-35667160D01*
X10774220Y-35746358D01*
X10771309Y-35751803D01*
X10771307Y-35751809D01*
X10766571Y-35760669D01*
X10766568Y-35760673D01*
X10763660Y-35766114D01*
X10716029Y-35837399D01*
X10701828Y-35854704D01*
X10641204Y-35915328D01*
X10623899Y-35929529D01*
X10552614Y-35977160D01*
X10547173Y-35980068D01*
X10547169Y-35980071D01*
X10538309Y-35984807D01*
X10538303Y-35984809D01*
X10532858Y-35987720D01*
X10453660Y-36020524D01*
X10432233Y-36027024D01*
X10348149Y-36043750D01*
X10325869Y-36045944D01*
X10307450Y-36045944D01*
X10295199Y-36046546D01*
X10276862Y-36048352D01*
X9789138Y-36048352D01*
X9770801Y-36046546D01*
X9758550Y-36045944D01*
X9740131Y-36045944D01*
X9717851Y-36043750D01*
X9633767Y-36027024D01*
X9612340Y-36020524D01*
X9533142Y-35987720D01*
X9527697Y-35984809D01*
X9527691Y-35984807D01*
X9518831Y-35980071D01*
X9518827Y-35980068D01*
X9513386Y-35977160D01*
X9442101Y-35929529D01*
X9424796Y-35915328D01*
X9364172Y-35854704D01*
X9349971Y-35837399D01*
X9302340Y-35766114D01*
X9299432Y-35760673D01*
X9299429Y-35760669D01*
X9294693Y-35751809D01*
X9294691Y-35751803D01*
X9291780Y-35746358D01*
X9258976Y-35667160D01*
X9252476Y-35645733D01*
X9235750Y-35561649D01*
X9233556Y-35539369D01*
X9233556Y-35520950D01*
X9232954Y-35508699D01*
X9231148Y-35490362D01*
X9231148Y-34952640D01*
X9232737Y-34936501D01*
X9237145Y-34921972D01*
X9242606Y-34908789D01*
X9247388Y-34884755D01*
X9247389Y-34860251D01*
X9242609Y-34836218D01*
X9233232Y-34813579D01*
X9232000Y-34811735D01*
X9232000Y-33580450D01*
X9238475Y-33568336D01*
X9245588Y-33544887D01*
X9247990Y-33520501D01*
X9245588Y-33496115D01*
X9238475Y-33472666D01*
X9236152Y-33467754D01*
X9232737Y-33456499D01*
X9231148Y-33440360D01*
X9231148Y-32902639D01*
X9232954Y-32884301D01*
X9233556Y-32872050D01*
X9233556Y-32853631D01*
X9235750Y-32831351D01*
X9252476Y-32747267D01*
X9258976Y-32725840D01*
X9291780Y-32646642D01*
X9294691Y-32641197D01*
X9294693Y-32641191D01*
X9299429Y-32632331D01*
X9299432Y-32632327D01*
X9302340Y-32626886D01*
X9349971Y-32555601D01*
X9364172Y-32538296D01*
X9424796Y-32477672D01*
X9442101Y-32463471D01*
X9513386Y-32415840D01*
X9518827Y-32412932D01*
X9518831Y-32412929D01*
X9527691Y-32408193D01*
X9527697Y-32408191D01*
X9533142Y-32405280D01*
X9612340Y-32372476D01*
X9633767Y-32365976D01*
X9717851Y-32349250D01*
X9740131Y-32347056D01*
X9758550Y-32347056D01*
X9770801Y-32346454D01*
X9789139Y-32344648D01*
X10276861Y-32344648D01*
X10295199Y-32346454D01*
X10295199Y-32346454D01*
G37*
G36*
X24240442Y-33395518D02*
G01*
X24306627Y-33402037D01*
X24476466Y-33453557D01*
X24476468Y-33453558D01*
X24531058Y-33482737D01*
X24632991Y-33537222D01*
X24656825Y-33556782D01*
X24770186Y-33649814D01*
X24853448Y-33751271D01*
X24882778Y-33787009D01*
X24966443Y-33943534D01*
X25017963Y-34113373D01*
X25035359Y-34290000D01*
X25017963Y-34466627D01*
X24966443Y-34636466D01*
X24882778Y-34792991D01*
X24859154Y-34821777D01*
X24770186Y-34930186D01*
X24668729Y-35013448D01*
X24632991Y-35042778D01*
X24476466Y-35126443D01*
X24306627Y-35177963D01*
X24240442Y-35184482D01*
X24174260Y-35191000D01*
X24085740Y-35191000D01*
X24019558Y-35184482D01*
X23953373Y-35177963D01*
X23783534Y-35126443D01*
X23627009Y-35042778D01*
X23591271Y-35013448D01*
X23489814Y-34930186D01*
X23400846Y-34821777D01*
X23377222Y-34792991D01*
X23293557Y-34636466D01*
X23242037Y-34466627D01*
X23224641Y-34290000D01*
X23242037Y-34113373D01*
X23293557Y-33943534D01*
X23377222Y-33787009D01*
X23406552Y-33751271D01*
X23489814Y-33649814D01*
X23603175Y-33556782D01*
X23627009Y-33537222D01*
X23728942Y-33482737D01*
X23783532Y-33453558D01*
X23783534Y-33453557D01*
X23953373Y-33402037D01*
X24019558Y-33395518D01*
X24085740Y-33389000D01*
X24174260Y-33389000D01*
X24240442Y-33395518D01*
X24240442Y-33395518D01*
G37*
G36*
X1380442Y-33395518D02*
G01*
X1446627Y-33402037D01*
X1616466Y-33453557D01*
X1616468Y-33453558D01*
X1671058Y-33482737D01*
X1772991Y-33537222D01*
X1796825Y-33556782D01*
X1910186Y-33649814D01*
X1993448Y-33751271D01*
X2022778Y-33787009D01*
X2106443Y-33943534D01*
X2157963Y-34113373D01*
X2175359Y-34290000D01*
X2157963Y-34466627D01*
X2106443Y-34636466D01*
X2022778Y-34792991D01*
X1999154Y-34821777D01*
X1910186Y-34930186D01*
X1808729Y-35013448D01*
X1772991Y-35042778D01*
X1616466Y-35126443D01*
X1446627Y-35177963D01*
X1380442Y-35184482D01*
X1314260Y-35191000D01*
X1225740Y-35191000D01*
X1159558Y-35184482D01*
X1093373Y-35177963D01*
X923534Y-35126443D01*
X767009Y-35042778D01*
X731271Y-35013448D01*
X629814Y-34930186D01*
X540846Y-34821777D01*
X517222Y-34792991D01*
X433557Y-34636466D01*
X382037Y-34466627D01*
X364641Y-34290000D01*
X382037Y-34113373D01*
X433557Y-33943534D01*
X517222Y-33787009D01*
X546552Y-33751271D01*
X629814Y-33649814D01*
X743175Y-33556782D01*
X767009Y-33537222D01*
X868942Y-33482737D01*
X923532Y-33453558D01*
X923534Y-33453557D01*
X1093373Y-33402037D01*
X1159558Y-33395518D01*
X1225740Y-33389000D01*
X1314260Y-33389000D01*
X1380442Y-33395518D01*
X1380442Y-33395518D01*
G37*
G36*
X7009468Y-33416565D02*
G01*
X7048138Y-33428296D01*
X7083777Y-33447346D01*
X7115017Y-33472983D01*
X7140654Y-33504223D01*
X7159704Y-33539862D01*
X7171435Y-33578532D01*
X7176000Y-33624888D01*
X7176000Y-34701112D01*
X7171435Y-34747468D01*
X7159704Y-34786138D01*
X7140654Y-34821777D01*
X7115017Y-34853017D01*
X7083777Y-34878654D01*
X7048138Y-34897704D01*
X7009468Y-34909435D01*
X6963112Y-34914000D01*
X6311888Y-34914000D01*
X6265532Y-34909435D01*
X6226862Y-34897704D01*
X6191223Y-34878654D01*
X6159983Y-34853017D01*
X6134346Y-34821777D01*
X6115296Y-34786138D01*
X6103565Y-34747468D01*
X6099000Y-34701112D01*
X6099000Y-33624888D01*
X6103565Y-33578532D01*
X6115296Y-33539862D01*
X6134346Y-33504223D01*
X6159983Y-33472983D01*
X6191223Y-33447346D01*
X6226862Y-33428296D01*
X6265532Y-33416565D01*
X6311888Y-33412000D01*
X6963112Y-33412000D01*
X7009468Y-33416565D01*
X7009468Y-33416565D01*
G37*
G36*
X5134468Y-33416565D02*
G01*
X5173138Y-33428296D01*
X5208777Y-33447346D01*
X5240017Y-33472983D01*
X5265654Y-33504223D01*
X5284704Y-33539862D01*
X5296435Y-33578532D01*
X5301000Y-33624888D01*
X5301000Y-34701112D01*
X5296435Y-34747468D01*
X5284704Y-34786138D01*
X5265654Y-34821777D01*
X5240017Y-34853017D01*
X5208777Y-34878654D01*
X5173138Y-34897704D01*
X5134468Y-34909435D01*
X5088112Y-34914000D01*
X4436888Y-34914000D01*
X4390532Y-34909435D01*
X4351862Y-34897704D01*
X4316223Y-34878654D01*
X4284983Y-34853017D01*
X4259346Y-34821777D01*
X4240296Y-34786138D01*
X4228565Y-34747468D01*
X4224000Y-34701112D01*
X4224000Y-33624888D01*
X4228565Y-33578532D01*
X4240296Y-33539862D01*
X4259346Y-33504223D01*
X4284983Y-33472983D01*
X4316223Y-33447346D01*
X4351862Y-33428296D01*
X4390532Y-33416565D01*
X4436888Y-33412000D01*
X5088112Y-33412000D01*
X5134468Y-33416565D01*
X5134468Y-33416565D01*
G37*
G36*
X24240443Y-30855519D02*
G01*
X24306627Y-30862037D01*
X24476466Y-30913557D01*
X24632991Y-30997222D01*
X24668729Y-31026552D01*
X24770186Y-31109814D01*
X24853448Y-31211271D01*
X24882778Y-31247009D01*
X24966443Y-31403534D01*
X25017963Y-31573373D01*
X25035359Y-31750000D01*
X25017963Y-31926627D01*
X24966443Y-32096466D01*
X24882778Y-32252991D01*
X24854457Y-32287500D01*
X24770186Y-32390186D01*
X24676117Y-32467385D01*
X24632991Y-32502778D01*
X24476466Y-32586443D01*
X24306627Y-32637963D01*
X24240442Y-32644482D01*
X24174260Y-32651000D01*
X24085740Y-32651000D01*
X24019558Y-32644482D01*
X23953373Y-32637963D01*
X23783534Y-32586443D01*
X23627009Y-32502778D01*
X23583883Y-32467385D01*
X23489814Y-32390186D01*
X23405543Y-32287500D01*
X23377222Y-32252991D01*
X23293557Y-32096466D01*
X23242037Y-31926627D01*
X23224641Y-31750000D01*
X23242037Y-31573373D01*
X23293557Y-31403534D01*
X23377222Y-31247009D01*
X23406552Y-31211271D01*
X23489814Y-31109814D01*
X23591271Y-31026552D01*
X23627009Y-30997222D01*
X23783534Y-30913557D01*
X23953373Y-30862037D01*
X24019557Y-30855519D01*
X24085740Y-30849000D01*
X24174260Y-30849000D01*
X24240443Y-30855519D01*
X24240443Y-30855519D01*
G37*
G36*
X1380443Y-30855519D02*
G01*
X1446627Y-30862037D01*
X1616466Y-30913557D01*
X1772991Y-30997222D01*
X1808729Y-31026552D01*
X1910186Y-31109814D01*
X1993448Y-31211271D01*
X2022778Y-31247009D01*
X2106443Y-31403534D01*
X2157963Y-31573373D01*
X2175359Y-31750000D01*
X2157963Y-31926627D01*
X2106443Y-32096466D01*
X2022778Y-32252991D01*
X1994457Y-32287500D01*
X1910186Y-32390186D01*
X1816117Y-32467385D01*
X1772991Y-32502778D01*
X1616466Y-32586443D01*
X1446627Y-32637963D01*
X1380442Y-32644482D01*
X1314260Y-32651000D01*
X1225740Y-32651000D01*
X1159558Y-32644482D01*
X1093373Y-32637963D01*
X923534Y-32586443D01*
X767009Y-32502778D01*
X723883Y-32467385D01*
X629814Y-32390186D01*
X545543Y-32287500D01*
X517222Y-32252991D01*
X433557Y-32096466D01*
X382037Y-31926627D01*
X364641Y-31750000D01*
X382037Y-31573373D01*
X433557Y-31403534D01*
X517222Y-31247009D01*
X546552Y-31211271D01*
X629814Y-31109814D01*
X731271Y-31026552D01*
X767009Y-30997222D01*
X923534Y-30913557D01*
X1093373Y-30862037D01*
X1159557Y-30855519D01*
X1225740Y-30849000D01*
X1314260Y-30849000D01*
X1380443Y-30855519D01*
X1380443Y-30855519D01*
G37*
G36*
X5302500Y-32377500D02*
G01*
X4140500Y-32377500D01*
X4140500Y-31625500D01*
X5302500Y-31625500D01*
X5302500Y-32377500D01*
X5302500Y-32377500D01*
G37*
G36*
X7502500Y-32377500D02*
G01*
X6340500Y-32377500D01*
X6340500Y-29725500D01*
X7502500Y-29725500D01*
X7502500Y-32377500D01*
X7502500Y-32377500D01*
G37*
G36*
X5302500Y-30477500D02*
G01*
X4140500Y-30477500D01*
X4140500Y-29725500D01*
X5302500Y-29725500D01*
X5302500Y-30477500D01*
X5302500Y-30477500D01*
G37*
G36*
X24240442Y-28315518D02*
G01*
X24306627Y-28322037D01*
X24476466Y-28373557D01*
X24632991Y-28457222D01*
X24667143Y-28485250D01*
X24770186Y-28569814D01*
X24823548Y-28634837D01*
X24882778Y-28707009D01*
X24966443Y-28863534D01*
X25017963Y-29033373D01*
X25035359Y-29210000D01*
X25017963Y-29386627D01*
X24966443Y-29556466D01*
X24882778Y-29712991D01*
X24872512Y-29725500D01*
X24770186Y-29850186D01*
X24668729Y-29933448D01*
X24632991Y-29962778D01*
X24476466Y-30046443D01*
X24306627Y-30097963D01*
X24240442Y-30104482D01*
X24174260Y-30111000D01*
X24085740Y-30111000D01*
X24019558Y-30104482D01*
X23953373Y-30097963D01*
X23783534Y-30046443D01*
X23627009Y-29962778D01*
X23591271Y-29933448D01*
X23489814Y-29850186D01*
X23387488Y-29725500D01*
X23377222Y-29712991D01*
X23293557Y-29556466D01*
X23242037Y-29386627D01*
X23224641Y-29210000D01*
X23242037Y-29033373D01*
X23293557Y-28863534D01*
X23377222Y-28707009D01*
X23436452Y-28634837D01*
X23489814Y-28569814D01*
X23592857Y-28485250D01*
X23627009Y-28457222D01*
X23783534Y-28373557D01*
X23953373Y-28322037D01*
X24019558Y-28315518D01*
X24085740Y-28309000D01*
X24174260Y-28309000D01*
X24240442Y-28315518D01*
X24240442Y-28315518D01*
G37*
G36*
X1380442Y-28315518D02*
G01*
X1446627Y-28322037D01*
X1616466Y-28373557D01*
X1772991Y-28457222D01*
X1807143Y-28485250D01*
X1910186Y-28569814D01*
X1963548Y-28634837D01*
X2022778Y-28707009D01*
X2106443Y-28863534D01*
X2157963Y-29033373D01*
X2175359Y-29210000D01*
X2157963Y-29386627D01*
X2106443Y-29556466D01*
X2022778Y-29712991D01*
X2012512Y-29725500D01*
X1910186Y-29850186D01*
X1808729Y-29933448D01*
X1772991Y-29962778D01*
X1616466Y-30046443D01*
X1446627Y-30097963D01*
X1380442Y-30104482D01*
X1314260Y-30111000D01*
X1225740Y-30111000D01*
X1159558Y-30104482D01*
X1093373Y-30097963D01*
X923534Y-30046443D01*
X767009Y-29962778D01*
X731271Y-29933448D01*
X629814Y-29850186D01*
X527488Y-29725500D01*
X517222Y-29712991D01*
X433557Y-29556466D01*
X382037Y-29386627D01*
X364641Y-29210000D01*
X382037Y-29033373D01*
X433557Y-28863534D01*
X517222Y-28707009D01*
X576452Y-28634837D01*
X629814Y-28569814D01*
X732857Y-28485250D01*
X767009Y-28457222D01*
X923534Y-28373557D01*
X1093373Y-28322037D01*
X1159558Y-28315518D01*
X1225740Y-28309000D01*
X1314260Y-28309000D01*
X1380442Y-28315518D01*
X1380442Y-28315518D01*
G37*
G36*
X7102968Y-27257065D02*
G01*
X7141638Y-27268796D01*
X7177277Y-27287846D01*
X7208517Y-27313483D01*
X7234154Y-27344723D01*
X7253204Y-27380362D01*
X7264935Y-27419032D01*
X7269500Y-27465388D01*
X7269500Y-28541612D01*
X7264935Y-28587968D01*
X7253204Y-28626638D01*
X7234154Y-28662277D01*
X7208517Y-28693517D01*
X7177277Y-28719154D01*
X7141638Y-28738204D01*
X7102968Y-28749935D01*
X7056612Y-28754500D01*
X6405388Y-28754500D01*
X6359032Y-28749935D01*
X6320362Y-28738204D01*
X6284723Y-28719154D01*
X6253483Y-28693517D01*
X6227846Y-28662277D01*
X6208796Y-28626638D01*
X6197065Y-28587968D01*
X6192500Y-28541612D01*
X6192500Y-27465388D01*
X6197065Y-27419032D01*
X6208796Y-27380362D01*
X6227846Y-27344723D01*
X6253483Y-27313483D01*
X6284723Y-27287846D01*
X6320362Y-27268796D01*
X6359032Y-27257065D01*
X6405388Y-27252500D01*
X7056612Y-27252500D01*
X7102968Y-27257065D01*
X7102968Y-27257065D01*
G37*
G36*
X5227968Y-27257065D02*
G01*
X5266638Y-27268796D01*
X5302277Y-27287846D01*
X5333517Y-27313483D01*
X5359154Y-27344723D01*
X5378204Y-27380362D01*
X5389935Y-27419032D01*
X5394500Y-27465388D01*
X5394500Y-28541612D01*
X5389935Y-28587968D01*
X5378204Y-28626638D01*
X5359154Y-28662277D01*
X5333517Y-28693517D01*
X5302277Y-28719154D01*
X5266638Y-28738204D01*
X5227968Y-28749935D01*
X5181612Y-28754500D01*
X4530388Y-28754500D01*
X4484032Y-28749935D01*
X4445362Y-28738204D01*
X4409723Y-28719154D01*
X4378483Y-28693517D01*
X4352846Y-28662277D01*
X4333796Y-28626638D01*
X4322065Y-28587968D01*
X4317500Y-28541612D01*
X4317500Y-27465388D01*
X4322065Y-27419032D01*
X4333796Y-27380362D01*
X4352846Y-27344723D01*
X4378483Y-27313483D01*
X4409723Y-27287846D01*
X4445362Y-27268796D01*
X4484032Y-27257065D01*
X4530388Y-27252500D01*
X5181612Y-27252500D01*
X5227968Y-27257065D01*
X5227968Y-27257065D01*
G37*
G36*
X24240442Y-25775518D02*
G01*
X24306627Y-25782037D01*
X24476466Y-25833557D01*
X24632991Y-25917222D01*
X24668729Y-25946552D01*
X24770186Y-26029814D01*
X24853448Y-26131271D01*
X24882778Y-26167009D01*
X24966443Y-26323534D01*
X25017963Y-26493373D01*
X25035359Y-26670000D01*
X25017963Y-26846627D01*
X24966443Y-27016466D01*
X24882778Y-27172991D01*
X24872512Y-27185500D01*
X24770186Y-27310186D01*
X24684675Y-27380362D01*
X24632991Y-27422778D01*
X24476466Y-27506443D01*
X24306627Y-27557963D01*
X24240442Y-27564482D01*
X24174260Y-27571000D01*
X24085740Y-27571000D01*
X24019558Y-27564482D01*
X23953373Y-27557963D01*
X23783534Y-27506443D01*
X23627009Y-27422778D01*
X23575325Y-27380362D01*
X23489814Y-27310186D01*
X23387488Y-27185500D01*
X23377222Y-27172991D01*
X23293557Y-27016466D01*
X23242037Y-26846627D01*
X23224641Y-26670000D01*
X23242037Y-26493373D01*
X23293557Y-26323534D01*
X23377222Y-26167009D01*
X23406552Y-26131271D01*
X23489814Y-26029814D01*
X23591271Y-25946552D01*
X23627009Y-25917222D01*
X23783534Y-25833557D01*
X23953373Y-25782037D01*
X24019557Y-25775519D01*
X24085740Y-25769000D01*
X24174260Y-25769000D01*
X24240442Y-25775518D01*
X24240442Y-25775518D01*
G37*
G36*
X1380442Y-25775518D02*
G01*
X1446627Y-25782037D01*
X1616466Y-25833557D01*
X1772991Y-25917222D01*
X1808729Y-25946552D01*
X1910186Y-26029814D01*
X1993448Y-26131271D01*
X2022778Y-26167009D01*
X2106443Y-26323534D01*
X2157963Y-26493373D01*
X2175359Y-26670000D01*
X2157963Y-26846627D01*
X2106443Y-27016466D01*
X2022778Y-27172991D01*
X2012512Y-27185500D01*
X1910186Y-27310186D01*
X1824675Y-27380362D01*
X1772991Y-27422778D01*
X1616466Y-27506443D01*
X1446627Y-27557963D01*
X1380442Y-27564482D01*
X1314260Y-27571000D01*
X1225740Y-27571000D01*
X1159558Y-27564482D01*
X1093373Y-27557963D01*
X923534Y-27506443D01*
X767009Y-27422778D01*
X715325Y-27380362D01*
X629814Y-27310186D01*
X527488Y-27185500D01*
X517222Y-27172991D01*
X433557Y-27016466D01*
X382037Y-26846627D01*
X364641Y-26670000D01*
X382037Y-26493373D01*
X433557Y-26323534D01*
X517222Y-26167009D01*
X546552Y-26131271D01*
X629814Y-26029814D01*
X731271Y-25946552D01*
X767009Y-25917222D01*
X923534Y-25833557D01*
X1093373Y-25782037D01*
X1159558Y-25775518D01*
X1225740Y-25769000D01*
X1314260Y-25769000D01*
X1380442Y-25775518D01*
X1380442Y-25775518D01*
G37*
G36*
X1380442Y-23235518D02*
G01*
X1446627Y-23242037D01*
X1616466Y-23293557D01*
X1616468Y-23293558D01*
X1624052Y-23297612D01*
X1772991Y-23377222D01*
X1791568Y-23392468D01*
X1910186Y-23489814D01*
X1993448Y-23591271D01*
X2022778Y-23627009D01*
X2106443Y-23783534D01*
X2157963Y-23953373D01*
X2175359Y-24130000D01*
X2157963Y-24306627D01*
X2106443Y-24476466D01*
X2022778Y-24632991D01*
X1993448Y-24668729D01*
X1910186Y-24770186D01*
X1808729Y-24853448D01*
X1772991Y-24882778D01*
X1616466Y-24966443D01*
X1446627Y-25017963D01*
X1380443Y-25024481D01*
X1314260Y-25031000D01*
X1225740Y-25031000D01*
X1159557Y-25024481D01*
X1093373Y-25017963D01*
X923534Y-24966443D01*
X767009Y-24882778D01*
X731271Y-24853448D01*
X629814Y-24770186D01*
X546552Y-24668729D01*
X517222Y-24632991D01*
X433557Y-24476466D01*
X382037Y-24306627D01*
X364641Y-24130000D01*
X382037Y-23953373D01*
X433557Y-23783534D01*
X517222Y-23627009D01*
X546552Y-23591271D01*
X629814Y-23489814D01*
X748432Y-23392468D01*
X767009Y-23377222D01*
X915948Y-23297612D01*
X923532Y-23293558D01*
X923534Y-23293557D01*
X1093373Y-23242037D01*
X1159558Y-23235518D01*
X1225740Y-23229000D01*
X1314260Y-23229000D01*
X1380442Y-23235518D01*
X1380442Y-23235518D01*
G37*
G36*
X24240442Y-23235518D02*
G01*
X24306627Y-23242037D01*
X24476466Y-23293557D01*
X24476468Y-23293558D01*
X24484052Y-23297612D01*
X24632991Y-23377222D01*
X24651568Y-23392468D01*
X24770186Y-23489814D01*
X24853448Y-23591271D01*
X24882778Y-23627009D01*
X24966443Y-23783534D01*
X25017963Y-23953373D01*
X25035359Y-24130000D01*
X25017963Y-24306627D01*
X24966443Y-24476466D01*
X24882778Y-24632991D01*
X24853448Y-24668729D01*
X24770186Y-24770186D01*
X24668729Y-24853448D01*
X24632991Y-24882778D01*
X24476466Y-24966443D01*
X24306627Y-25017963D01*
X24240443Y-25024481D01*
X24174260Y-25031000D01*
X24085740Y-25031000D01*
X24019557Y-25024481D01*
X23953373Y-25017963D01*
X23783534Y-24966443D01*
X23627009Y-24882778D01*
X23591271Y-24853448D01*
X23489814Y-24770186D01*
X23406552Y-24668729D01*
X23377222Y-24632991D01*
X23293557Y-24476466D01*
X23242037Y-24306627D01*
X23224641Y-24130000D01*
X23242037Y-23953373D01*
X23293557Y-23783534D01*
X23377222Y-23627009D01*
X23406552Y-23591271D01*
X23489814Y-23489814D01*
X23608432Y-23392468D01*
X23627009Y-23377222D01*
X23775948Y-23297612D01*
X23783532Y-23293558D01*
X23783534Y-23293557D01*
X23953373Y-23242037D01*
X24019558Y-23235518D01*
X24085740Y-23229000D01*
X24174260Y-23229000D01*
X24240442Y-23235518D01*
X24240442Y-23235518D01*
G37*
G36*
X5600968Y-22486565D02*
G01*
X5639638Y-22498296D01*
X5675277Y-22517346D01*
X5706517Y-22542983D01*
X5732154Y-22574223D01*
X5751204Y-22609862D01*
X5762935Y-22648532D01*
X5767500Y-22694888D01*
X5767500Y-23346112D01*
X5762935Y-23392468D01*
X5751204Y-23431138D01*
X5732154Y-23466777D01*
X5706517Y-23498017D01*
X5675277Y-23523654D01*
X5639638Y-23542704D01*
X5600968Y-23554435D01*
X5554612Y-23559000D01*
X4478388Y-23559000D01*
X4432032Y-23554435D01*
X4393362Y-23542704D01*
X4357723Y-23523654D01*
X4326483Y-23498017D01*
X4300846Y-23466777D01*
X4281796Y-23431138D01*
X4270065Y-23392468D01*
X4265500Y-23346112D01*
X4265500Y-22694888D01*
X4270065Y-22648532D01*
X4281796Y-22609862D01*
X4300846Y-22574223D01*
X4326483Y-22542983D01*
X4357723Y-22517346D01*
X4393362Y-22498296D01*
X4432032Y-22486565D01*
X4478388Y-22482000D01*
X5554612Y-22482000D01*
X5600968Y-22486565D01*
X5600968Y-22486565D01*
G37*
G36*
X8331468Y-22486565D02*
G01*
X8370138Y-22498296D01*
X8405777Y-22517346D01*
X8437017Y-22542983D01*
X8462654Y-22574223D01*
X8481704Y-22609862D01*
X8493435Y-22648532D01*
X8498000Y-22694888D01*
X8498000Y-23346112D01*
X8493435Y-23392468D01*
X8481704Y-23431138D01*
X8462654Y-23466777D01*
X8437017Y-23498017D01*
X8405777Y-23523654D01*
X8370138Y-23542704D01*
X8331468Y-23554435D01*
X8285112Y-23559000D01*
X7208888Y-23559000D01*
X7162532Y-23554435D01*
X7123862Y-23542704D01*
X7088223Y-23523654D01*
X7056983Y-23498017D01*
X7031346Y-23466777D01*
X7012296Y-23431138D01*
X7000565Y-23392468D01*
X6996000Y-23346112D01*
X6996000Y-22694888D01*
X7000565Y-22648532D01*
X7012296Y-22609862D01*
X7031346Y-22574223D01*
X7056983Y-22542983D01*
X7088223Y-22517346D01*
X7123862Y-22498296D01*
X7162532Y-22486565D01*
X7208888Y-22482000D01*
X8285112Y-22482000D01*
X8331468Y-22486565D01*
X8331468Y-22486565D01*
G37*
G36*
X10553968Y-22453065D02*
G01*
X10592638Y-22464796D01*
X10628277Y-22483846D01*
X10659517Y-22509483D01*
X10685154Y-22540723D01*
X10704204Y-22576362D01*
X10715935Y-22615032D01*
X10720500Y-22661388D01*
X10720500Y-23312612D01*
X10715935Y-23358968D01*
X10704204Y-23397638D01*
X10685154Y-23433277D01*
X10659517Y-23464517D01*
X10628277Y-23490154D01*
X10592638Y-23509204D01*
X10553968Y-23520935D01*
X10507612Y-23525500D01*
X9431388Y-23525500D01*
X9385032Y-23520935D01*
X9346362Y-23509204D01*
X9310723Y-23490154D01*
X9279483Y-23464517D01*
X9253846Y-23433277D01*
X9234796Y-23397638D01*
X9223065Y-23358968D01*
X9218500Y-23312612D01*
X9218500Y-22661388D01*
X9223065Y-22615032D01*
X9234796Y-22576362D01*
X9253846Y-22540723D01*
X9279483Y-22509483D01*
X9310723Y-22483846D01*
X9346362Y-22464796D01*
X9385032Y-22453065D01*
X9431388Y-22448500D01*
X10507612Y-22448500D01*
X10553968Y-22453065D01*
X10553968Y-22453065D01*
G37*
G36*
X19062968Y-22453065D02*
G01*
X19101638Y-22464796D01*
X19137277Y-22483846D01*
X19168517Y-22509483D01*
X19194154Y-22540723D01*
X19213204Y-22576362D01*
X19224935Y-22615032D01*
X19229500Y-22661388D01*
X19229500Y-23312612D01*
X19224935Y-23358968D01*
X19213204Y-23397638D01*
X19194154Y-23433277D01*
X19168517Y-23464517D01*
X19137277Y-23490154D01*
X19101638Y-23509204D01*
X19062968Y-23520935D01*
X19016612Y-23525500D01*
X17940388Y-23525500D01*
X17894032Y-23520935D01*
X17855362Y-23509204D01*
X17819723Y-23490154D01*
X17788483Y-23464517D01*
X17762846Y-23433277D01*
X17743796Y-23397638D01*
X17732065Y-23358968D01*
X17727500Y-23312612D01*
X17727500Y-22661388D01*
X17732065Y-22615032D01*
X17743796Y-22576362D01*
X17762846Y-22540723D01*
X17788483Y-22509483D01*
X17819723Y-22483846D01*
X17855362Y-22464796D01*
X17894032Y-22453065D01*
X17940388Y-22448500D01*
X19016612Y-22448500D01*
X19062968Y-22453065D01*
X19062968Y-22453065D01*
G37*
G36*
X21221968Y-22453065D02*
G01*
X21260638Y-22464796D01*
X21296277Y-22483846D01*
X21327517Y-22509483D01*
X21353154Y-22540723D01*
X21372204Y-22576362D01*
X21383935Y-22615032D01*
X21388500Y-22661388D01*
X21388500Y-23312612D01*
X21383935Y-23358968D01*
X21372204Y-23397638D01*
X21353154Y-23433277D01*
X21327517Y-23464517D01*
X21296277Y-23490154D01*
X21260638Y-23509204D01*
X21221968Y-23520935D01*
X21175612Y-23525500D01*
X20099388Y-23525500D01*
X20053032Y-23520935D01*
X20014362Y-23509204D01*
X19978723Y-23490154D01*
X19947483Y-23464517D01*
X19921846Y-23433277D01*
X19902796Y-23397638D01*
X19891065Y-23358968D01*
X19886500Y-23312612D01*
X19886500Y-22661388D01*
X19891065Y-22615032D01*
X19902796Y-22576362D01*
X19921846Y-22540723D01*
X19947483Y-22509483D01*
X19978723Y-22483846D01*
X20014362Y-22464796D01*
X20053032Y-22453065D01*
X20099388Y-22448500D01*
X21175612Y-22448500D01*
X21221968Y-22453065D01*
X21221968Y-22453065D01*
G37*
G36*
X14427468Y-22438065D02*
G01*
X14466138Y-22449796D01*
X14501777Y-22468846D01*
X14533017Y-22494483D01*
X14558654Y-22525723D01*
X14577704Y-22561362D01*
X14589435Y-22600032D01*
X14594000Y-22646388D01*
X14594000Y-23297612D01*
X14589435Y-23343968D01*
X14577704Y-23382638D01*
X14558654Y-23418277D01*
X14533017Y-23449517D01*
X14501777Y-23475154D01*
X14466138Y-23494204D01*
X14427468Y-23505935D01*
X14381112Y-23510500D01*
X13304888Y-23510500D01*
X13258532Y-23505935D01*
X13219862Y-23494204D01*
X13184223Y-23475154D01*
X13152983Y-23449517D01*
X13127346Y-23418277D01*
X13108296Y-23382638D01*
X13096565Y-23343968D01*
X13092000Y-23297612D01*
X13092000Y-22646388D01*
X13096565Y-22600032D01*
X13108296Y-22561362D01*
X13127346Y-22525723D01*
X13152983Y-22494483D01*
X13184223Y-22468846D01*
X13219862Y-22449796D01*
X13258532Y-22438065D01*
X13304888Y-22433500D01*
X14381112Y-22433500D01*
X14427468Y-22438065D01*
X14427468Y-22438065D01*
G37*
G36*
X16586468Y-22438065D02*
G01*
X16625138Y-22449796D01*
X16660777Y-22468846D01*
X16692017Y-22494483D01*
X16717654Y-22525723D01*
X16736704Y-22561362D01*
X16748435Y-22600032D01*
X16753000Y-22646388D01*
X16753000Y-23297612D01*
X16748435Y-23343968D01*
X16736704Y-23382638D01*
X16717654Y-23418277D01*
X16692017Y-23449517D01*
X16660777Y-23475154D01*
X16625138Y-23494204D01*
X16586468Y-23505935D01*
X16540112Y-23510500D01*
X15463888Y-23510500D01*
X15417532Y-23505935D01*
X15378862Y-23494204D01*
X15343223Y-23475154D01*
X15311983Y-23449517D01*
X15286346Y-23418277D01*
X15267296Y-23382638D01*
X15255565Y-23343968D01*
X15251000Y-23297612D01*
X15251000Y-22646388D01*
X15255565Y-22600032D01*
X15267296Y-22561362D01*
X15286346Y-22525723D01*
X15311983Y-22494483D01*
X15343223Y-22468846D01*
X15378862Y-22449796D01*
X15417532Y-22438065D01*
X15463888Y-22433500D01*
X16540112Y-22433500D01*
X16586468Y-22438065D01*
X16586468Y-22438065D01*
G37*
G36*
X1380443Y-20695519D02*
G01*
X1446627Y-20702037D01*
X1616466Y-20753557D01*
X1772991Y-20837222D01*
X1808729Y-20866552D01*
X1910186Y-20949814D01*
X1993448Y-21051271D01*
X2022778Y-21087009D01*
X2106443Y-21243534D01*
X2157963Y-21413373D01*
X2175359Y-21590000D01*
X2157963Y-21766627D01*
X2106443Y-21936466D01*
X2022778Y-22092991D01*
X1993448Y-22128729D01*
X1910186Y-22230186D01*
X1808729Y-22313448D01*
X1772991Y-22342778D01*
X1616466Y-22426443D01*
X1446627Y-22477963D01*
X1386895Y-22483846D01*
X1314260Y-22491000D01*
X1225740Y-22491000D01*
X1153105Y-22483846D01*
X1093373Y-22477963D01*
X923534Y-22426443D01*
X767009Y-22342778D01*
X731271Y-22313448D01*
X629814Y-22230186D01*
X546552Y-22128729D01*
X517222Y-22092991D01*
X433557Y-21936466D01*
X382037Y-21766627D01*
X364641Y-21590000D01*
X382037Y-21413373D01*
X433557Y-21243534D01*
X517222Y-21087009D01*
X546552Y-21051271D01*
X629814Y-20949814D01*
X731271Y-20866552D01*
X767009Y-20837222D01*
X923534Y-20753557D01*
X1093373Y-20702037D01*
X1159557Y-20695519D01*
X1225740Y-20689000D01*
X1314260Y-20689000D01*
X1380443Y-20695519D01*
X1380443Y-20695519D01*
G37*
G36*
X24240443Y-20695519D02*
G01*
X24306627Y-20702037D01*
X24476466Y-20753557D01*
X24632991Y-20837222D01*
X24668729Y-20866552D01*
X24770186Y-20949814D01*
X24853448Y-21051271D01*
X24882778Y-21087009D01*
X24966443Y-21243534D01*
X25017963Y-21413373D01*
X25035359Y-21590000D01*
X25017963Y-21766627D01*
X24966443Y-21936466D01*
X24882778Y-22092991D01*
X24853448Y-22128729D01*
X24770186Y-22230186D01*
X24668729Y-22313448D01*
X24632991Y-22342778D01*
X24476466Y-22426443D01*
X24306627Y-22477963D01*
X24246895Y-22483846D01*
X24174260Y-22491000D01*
X24085740Y-22491000D01*
X24013105Y-22483846D01*
X23953373Y-22477963D01*
X23783534Y-22426443D01*
X23627009Y-22342778D01*
X23591271Y-22313448D01*
X23489814Y-22230186D01*
X23406552Y-22128729D01*
X23377222Y-22092991D01*
X23293557Y-21936466D01*
X23242037Y-21766627D01*
X23224641Y-21590000D01*
X23242037Y-21413373D01*
X23293557Y-21243534D01*
X23377222Y-21087009D01*
X23406552Y-21051271D01*
X23489814Y-20949814D01*
X23591271Y-20866552D01*
X23627009Y-20837222D01*
X23783534Y-20753557D01*
X23953373Y-20702037D01*
X24019557Y-20695519D01*
X24085740Y-20689000D01*
X24174260Y-20689000D01*
X24240443Y-20695519D01*
X24240443Y-20695519D01*
G37*
G36*
X8331468Y-20611565D02*
G01*
X8370138Y-20623296D01*
X8405777Y-20642346D01*
X8437017Y-20667983D01*
X8462654Y-20699223D01*
X8481704Y-20734862D01*
X8493435Y-20773532D01*
X8498000Y-20819888D01*
X8498000Y-21471112D01*
X8493435Y-21517468D01*
X8481704Y-21556138D01*
X8462654Y-21591777D01*
X8437017Y-21623017D01*
X8405777Y-21648654D01*
X8370138Y-21667704D01*
X8331468Y-21679435D01*
X8285112Y-21684000D01*
X7208888Y-21684000D01*
X7162532Y-21679435D01*
X7123862Y-21667704D01*
X7088223Y-21648654D01*
X7056983Y-21623017D01*
X7031346Y-21591777D01*
X7012296Y-21556138D01*
X7000565Y-21517468D01*
X6996000Y-21471112D01*
X6996000Y-20819888D01*
X7000565Y-20773532D01*
X7012296Y-20734862D01*
X7031346Y-20699223D01*
X7056983Y-20667983D01*
X7088223Y-20642346D01*
X7123862Y-20623296D01*
X7162532Y-20611565D01*
X7208888Y-20607000D01*
X8285112Y-20607000D01*
X8331468Y-20611565D01*
X8331468Y-20611565D01*
G37*
G36*
X5600968Y-20611565D02*
G01*
X5639638Y-20623296D01*
X5675277Y-20642346D01*
X5706517Y-20667983D01*
X5732154Y-20699223D01*
X5751204Y-20734862D01*
X5762935Y-20773532D01*
X5767500Y-20819888D01*
X5767500Y-21471112D01*
X5762935Y-21517468D01*
X5751204Y-21556138D01*
X5732154Y-21591777D01*
X5706517Y-21623017D01*
X5675277Y-21648654D01*
X5639638Y-21667704D01*
X5600968Y-21679435D01*
X5554612Y-21684000D01*
X4478388Y-21684000D01*
X4432032Y-21679435D01*
X4393362Y-21667704D01*
X4357723Y-21648654D01*
X4326483Y-21623017D01*
X4300846Y-21591777D01*
X4281796Y-21556138D01*
X4270065Y-21517468D01*
X4265500Y-21471112D01*
X4265500Y-20819888D01*
X4270065Y-20773532D01*
X4281796Y-20734862D01*
X4300846Y-20699223D01*
X4326483Y-20667983D01*
X4357723Y-20642346D01*
X4393362Y-20623296D01*
X4432032Y-20611565D01*
X4478388Y-20607000D01*
X5554612Y-20607000D01*
X5600968Y-20611565D01*
X5600968Y-20611565D01*
G37*
G36*
X10553968Y-20578065D02*
G01*
X10592638Y-20589796D01*
X10628277Y-20608846D01*
X10659517Y-20634483D01*
X10685154Y-20665723D01*
X10704204Y-20701362D01*
X10715935Y-20740032D01*
X10720500Y-20786388D01*
X10720500Y-21437612D01*
X10715935Y-21483968D01*
X10704204Y-21522638D01*
X10685154Y-21558277D01*
X10659517Y-21589517D01*
X10628277Y-21615154D01*
X10592638Y-21634204D01*
X10553968Y-21645935D01*
X10507612Y-21650500D01*
X9431388Y-21650500D01*
X9385032Y-21645935D01*
X9346362Y-21634204D01*
X9310723Y-21615154D01*
X9279483Y-21589517D01*
X9253846Y-21558277D01*
X9234796Y-21522638D01*
X9223065Y-21483968D01*
X9218500Y-21437612D01*
X9218500Y-20786388D01*
X9223065Y-20740032D01*
X9234796Y-20701362D01*
X9253846Y-20665723D01*
X9279483Y-20634483D01*
X9310723Y-20608846D01*
X9346362Y-20589796D01*
X9385032Y-20578065D01*
X9431388Y-20573500D01*
X10507612Y-20573500D01*
X10553968Y-20578065D01*
X10553968Y-20578065D01*
G37*
G36*
X19062968Y-20578065D02*
G01*
X19101638Y-20589796D01*
X19137277Y-20608846D01*
X19168517Y-20634483D01*
X19194154Y-20665723D01*
X19213204Y-20701362D01*
X19224935Y-20740032D01*
X19229500Y-20786388D01*
X19229500Y-21437612D01*
X19224935Y-21483968D01*
X19213204Y-21522638D01*
X19194154Y-21558277D01*
X19168517Y-21589517D01*
X19137277Y-21615154D01*
X19101638Y-21634204D01*
X19062968Y-21645935D01*
X19016612Y-21650500D01*
X17940388Y-21650500D01*
X17894032Y-21645935D01*
X17855362Y-21634204D01*
X17819723Y-21615154D01*
X17788483Y-21589517D01*
X17762846Y-21558277D01*
X17743796Y-21522638D01*
X17732065Y-21483968D01*
X17727500Y-21437612D01*
X17727500Y-20786388D01*
X17732065Y-20740032D01*
X17743796Y-20701362D01*
X17762846Y-20665723D01*
X17788483Y-20634483D01*
X17819723Y-20608846D01*
X17855362Y-20589796D01*
X17894032Y-20578065D01*
X17940388Y-20573500D01*
X19016612Y-20573500D01*
X19062968Y-20578065D01*
X19062968Y-20578065D01*
G37*
G36*
X21221968Y-20578065D02*
G01*
X21260638Y-20589796D01*
X21296277Y-20608846D01*
X21327517Y-20634483D01*
X21353154Y-20665723D01*
X21372204Y-20701362D01*
X21383935Y-20740032D01*
X21388500Y-20786388D01*
X21388500Y-21437612D01*
X21383935Y-21483968D01*
X21372204Y-21522638D01*
X21353154Y-21558277D01*
X21327517Y-21589517D01*
X21296277Y-21615154D01*
X21260638Y-21634204D01*
X21221968Y-21645935D01*
X21175612Y-21650500D01*
X20099388Y-21650500D01*
X20053032Y-21645935D01*
X20014362Y-21634204D01*
X19978723Y-21615154D01*
X19947483Y-21589517D01*
X19921846Y-21558277D01*
X19902796Y-21522638D01*
X19891065Y-21483968D01*
X19886500Y-21437612D01*
X19886500Y-20786388D01*
X19891065Y-20740032D01*
X19902796Y-20701362D01*
X19921846Y-20665723D01*
X19947483Y-20634483D01*
X19978723Y-20608846D01*
X20014362Y-20589796D01*
X20053032Y-20578065D01*
X20099388Y-20573500D01*
X21175612Y-20573500D01*
X21221968Y-20578065D01*
X21221968Y-20578065D01*
G37*
G36*
X14427468Y-20563065D02*
G01*
X14466138Y-20574796D01*
X14501777Y-20593846D01*
X14533017Y-20619483D01*
X14558654Y-20650723D01*
X14577704Y-20686362D01*
X14589435Y-20725032D01*
X14594000Y-20771388D01*
X14594000Y-21422612D01*
X14589435Y-21468968D01*
X14577704Y-21507638D01*
X14558654Y-21543277D01*
X14533017Y-21574517D01*
X14501777Y-21600154D01*
X14466138Y-21619204D01*
X14427468Y-21630935D01*
X14381112Y-21635500D01*
X13304888Y-21635500D01*
X13258532Y-21630935D01*
X13219862Y-21619204D01*
X13184223Y-21600154D01*
X13152983Y-21574517D01*
X13127346Y-21543277D01*
X13108296Y-21507638D01*
X13096565Y-21468968D01*
X13092000Y-21422612D01*
X13092000Y-20771388D01*
X13096565Y-20725032D01*
X13108296Y-20686362D01*
X13127346Y-20650723D01*
X13152983Y-20619483D01*
X13184223Y-20593846D01*
X13219862Y-20574796D01*
X13258532Y-20563065D01*
X13304888Y-20558500D01*
X14381112Y-20558500D01*
X14427468Y-20563065D01*
X14427468Y-20563065D01*
G37*
G36*
X16586468Y-20563065D02*
G01*
X16625138Y-20574796D01*
X16660777Y-20593846D01*
X16692017Y-20619483D01*
X16717654Y-20650723D01*
X16736704Y-20686362D01*
X16748435Y-20725032D01*
X16753000Y-20771388D01*
X16753000Y-21422612D01*
X16748435Y-21468968D01*
X16736704Y-21507638D01*
X16717654Y-21543277D01*
X16692017Y-21574517D01*
X16660777Y-21600154D01*
X16625138Y-21619204D01*
X16586468Y-21630935D01*
X16540112Y-21635500D01*
X15463888Y-21635500D01*
X15417532Y-21630935D01*
X15378862Y-21619204D01*
X15343223Y-21600154D01*
X15311983Y-21574517D01*
X15286346Y-21543277D01*
X15267296Y-21507638D01*
X15255565Y-21468968D01*
X15251000Y-21422612D01*
X15251000Y-20771388D01*
X15255565Y-20725032D01*
X15267296Y-20686362D01*
X15286346Y-20650723D01*
X15311983Y-20619483D01*
X15343223Y-20593846D01*
X15378862Y-20574796D01*
X15417532Y-20563065D01*
X15463888Y-20558500D01*
X16540112Y-20558500D01*
X16586468Y-20563065D01*
X16586468Y-20563065D01*
G37*
G36*
X24240442Y-18155518D02*
G01*
X24306627Y-18162037D01*
X24476466Y-18213557D01*
X24632991Y-18297222D01*
X24668729Y-18326552D01*
X24770186Y-18409814D01*
X24853448Y-18511271D01*
X24882778Y-18547009D01*
X24966443Y-18703534D01*
X25017963Y-18873373D01*
X25035359Y-19050000D01*
X25017963Y-19226627D01*
X24966443Y-19396466D01*
X24882778Y-19552991D01*
X24853448Y-19588729D01*
X24770186Y-19690186D01*
X24668729Y-19773448D01*
X24632991Y-19802778D01*
X24476466Y-19886443D01*
X24306627Y-19937963D01*
X24240442Y-19944482D01*
X24174260Y-19951000D01*
X24085740Y-19951000D01*
X24019558Y-19944482D01*
X23953373Y-19937963D01*
X23783534Y-19886443D01*
X23627009Y-19802778D01*
X23591271Y-19773448D01*
X23489814Y-19690186D01*
X23406552Y-19588729D01*
X23377222Y-19552991D01*
X23293557Y-19396466D01*
X23242037Y-19226627D01*
X23224641Y-19050000D01*
X23242037Y-18873373D01*
X23293557Y-18703534D01*
X23377222Y-18547009D01*
X23406552Y-18511271D01*
X23489814Y-18409814D01*
X23591271Y-18326552D01*
X23627009Y-18297222D01*
X23783534Y-18213557D01*
X23953373Y-18162037D01*
X24019558Y-18155518D01*
X24085740Y-18149000D01*
X24174260Y-18149000D01*
X24240442Y-18155518D01*
X24240442Y-18155518D01*
G37*
G36*
X1380442Y-18155518D02*
G01*
X1446627Y-18162037D01*
X1616466Y-18213557D01*
X1772991Y-18297222D01*
X1808729Y-18326552D01*
X1910186Y-18409814D01*
X1993448Y-18511271D01*
X2022778Y-18547009D01*
X2106443Y-18703534D01*
X2157963Y-18873373D01*
X2175359Y-19050000D01*
X2157963Y-19226627D01*
X2106443Y-19396466D01*
X2022778Y-19552991D01*
X1993448Y-19588729D01*
X1910186Y-19690186D01*
X1808729Y-19773448D01*
X1772991Y-19802778D01*
X1616466Y-19886443D01*
X1446627Y-19937963D01*
X1380442Y-19944482D01*
X1314260Y-19951000D01*
X1225740Y-19951000D01*
X1159558Y-19944482D01*
X1093373Y-19937963D01*
X923534Y-19886443D01*
X767009Y-19802778D01*
X731271Y-19773448D01*
X629814Y-19690186D01*
X546552Y-19588729D01*
X517222Y-19552991D01*
X433557Y-19396466D01*
X382037Y-19226627D01*
X364641Y-19050000D01*
X382037Y-18873373D01*
X433557Y-18703534D01*
X517222Y-18547009D01*
X546552Y-18511271D01*
X629814Y-18409814D01*
X731271Y-18326552D01*
X767009Y-18297222D01*
X923534Y-18213557D01*
X1093373Y-18162037D01*
X1159558Y-18155518D01*
X1225740Y-18149000D01*
X1314260Y-18149000D01*
X1380442Y-18155518D01*
X1380442Y-18155518D01*
G37*
G36*
X17646000Y-19259500D02*
G01*
X16644000Y-19259500D01*
X16644000Y-17157500D01*
X17646000Y-17157500D01*
X17646000Y-19259500D01*
X17646000Y-19259500D01*
G37*
G36*
X16376000Y-19259500D02*
G01*
X15374000Y-19259500D01*
X15374000Y-17157500D01*
X16376000Y-17157500D01*
X16376000Y-19259500D01*
X16376000Y-19259500D01*
G37*
G36*
X15106000Y-19259500D02*
G01*
X14104000Y-19259500D01*
X14104000Y-17157500D01*
X15106000Y-17157500D01*
X15106000Y-19259500D01*
X15106000Y-19259500D01*
G37*
G36*
X10026000Y-19259500D02*
G01*
X9024000Y-19259500D01*
X9024000Y-17157500D01*
X10026000Y-17157500D01*
X10026000Y-19259500D01*
X10026000Y-19259500D01*
G37*
G36*
X13836000Y-19259500D02*
G01*
X12834000Y-19259500D01*
X12834000Y-17157500D01*
X13836000Y-17157500D01*
X13836000Y-19259500D01*
X13836000Y-19259500D01*
G37*
G36*
X11296000Y-19259500D02*
G01*
X10294000Y-19259500D01*
X10294000Y-17157500D01*
X11296000Y-17157500D01*
X11296000Y-19259500D01*
X11296000Y-19259500D01*
G37*
G36*
X12566000Y-19259500D02*
G01*
X11564000Y-19259500D01*
X11564000Y-17157500D01*
X12566000Y-17157500D01*
X12566000Y-19259500D01*
X12566000Y-19259500D01*
G37*
G36*
X7486000Y-19259500D02*
G01*
X6484000Y-19259500D01*
X6484000Y-17157500D01*
X7486000Y-17157500D01*
X7486000Y-19259500D01*
X7486000Y-19259500D01*
G37*
G36*
X8756000Y-19259500D02*
G01*
X7754000Y-19259500D01*
X7754000Y-17157500D01*
X8756000Y-17157500D01*
X8756000Y-19259500D01*
X8756000Y-19259500D01*
G37*
G36*
X18916000Y-19259500D02*
G01*
X17914000Y-19259500D01*
X17914000Y-17157500D01*
X18916000Y-17157500D01*
X18916000Y-19259500D01*
X18916000Y-19259500D01*
G37*
G36*
X5251000Y-17709500D02*
G01*
X3149000Y-17709500D01*
X3149000Y-16707500D01*
X5251000Y-16707500D01*
X5251000Y-17709500D01*
X5251000Y-17709500D01*
G37*
G36*
X22251000Y-17709500D02*
G01*
X20149000Y-17709500D01*
X20149000Y-16707500D01*
X22251000Y-16707500D01*
X22251000Y-17709500D01*
X22251000Y-17709500D01*
G37*
G36*
X24240442Y-15615518D02*
G01*
X24306627Y-15622037D01*
X24476466Y-15673557D01*
X24632991Y-15757222D01*
X24668729Y-15786552D01*
X24770186Y-15869814D01*
X24853448Y-15971271D01*
X24882778Y-16007009D01*
X24966443Y-16163534D01*
X25017963Y-16333373D01*
X25035359Y-16510000D01*
X25017963Y-16686627D01*
X24966443Y-16856466D01*
X24882778Y-17012991D01*
X24853448Y-17048729D01*
X24770186Y-17150186D01*
X24668729Y-17233448D01*
X24632991Y-17262778D01*
X24476466Y-17346443D01*
X24306627Y-17397963D01*
X24240442Y-17404482D01*
X24174260Y-17411000D01*
X24085740Y-17411000D01*
X24019558Y-17404482D01*
X23953373Y-17397963D01*
X23783534Y-17346443D01*
X23627009Y-17262778D01*
X23591271Y-17233448D01*
X23489814Y-17150186D01*
X23406552Y-17048729D01*
X23377222Y-17012991D01*
X23293557Y-16856466D01*
X23242037Y-16686627D01*
X23224641Y-16510000D01*
X23242037Y-16333373D01*
X23293557Y-16163534D01*
X23377222Y-16007009D01*
X23406552Y-15971271D01*
X23489814Y-15869814D01*
X23591271Y-15786552D01*
X23627009Y-15757222D01*
X23783534Y-15673557D01*
X23953373Y-15622037D01*
X24019558Y-15615518D01*
X24085740Y-15609000D01*
X24174260Y-15609000D01*
X24240442Y-15615518D01*
X24240442Y-15615518D01*
G37*
G36*
X1380442Y-15615518D02*
G01*
X1446627Y-15622037D01*
X1616466Y-15673557D01*
X1772991Y-15757222D01*
X1808729Y-15786552D01*
X1910186Y-15869814D01*
X1993448Y-15971271D01*
X2022778Y-16007009D01*
X2106443Y-16163534D01*
X2157963Y-16333373D01*
X2175359Y-16510000D01*
X2157963Y-16686627D01*
X2106443Y-16856466D01*
X2022778Y-17012991D01*
X1993448Y-17048729D01*
X1910186Y-17150186D01*
X1808729Y-17233448D01*
X1772991Y-17262778D01*
X1616466Y-17346443D01*
X1446627Y-17397963D01*
X1380442Y-17404482D01*
X1314260Y-17411000D01*
X1225740Y-17411000D01*
X1159558Y-17404482D01*
X1093373Y-17397963D01*
X923534Y-17346443D01*
X767009Y-17262778D01*
X731271Y-17233448D01*
X629814Y-17150186D01*
X546552Y-17048729D01*
X517222Y-17012991D01*
X433557Y-16856466D01*
X382037Y-16686627D01*
X364641Y-16510000D01*
X382037Y-16333373D01*
X433557Y-16163534D01*
X517222Y-16007009D01*
X546552Y-15971271D01*
X629814Y-15869814D01*
X731271Y-15786552D01*
X767009Y-15757222D01*
X923534Y-15673557D01*
X1093373Y-15622037D01*
X1159558Y-15615518D01*
X1225740Y-15609000D01*
X1314260Y-15609000D01*
X1380442Y-15615518D01*
X1380442Y-15615518D01*
G37*
G36*
X22251000Y-16439500D02*
G01*
X20149000Y-16439500D01*
X20149000Y-15437500D01*
X22251000Y-15437500D01*
X22251000Y-16439500D01*
X22251000Y-16439500D01*
G37*
G36*
X5251000Y-16439500D02*
G01*
X3149000Y-16439500D01*
X3149000Y-15437500D01*
X5251000Y-15437500D01*
X5251000Y-16439500D01*
X5251000Y-16439500D01*
G37*
G36*
X22251000Y-15169500D02*
G01*
X20149000Y-15169500D01*
X20149000Y-14167500D01*
X22251000Y-14167500D01*
X22251000Y-15169500D01*
X22251000Y-15169500D01*
G37*
G36*
X5251000Y-15169500D02*
G01*
X3149000Y-15169500D01*
X3149000Y-14167500D01*
X5251000Y-14167500D01*
X5251000Y-15169500D01*
X5251000Y-15169500D01*
G37*
G36*
X1380443Y-13075519D02*
G01*
X1446627Y-13082037D01*
X1616466Y-13133557D01*
X1772991Y-13217222D01*
X1808729Y-13246552D01*
X1910186Y-13329814D01*
X1993448Y-13431271D01*
X2022778Y-13467009D01*
X2106443Y-13623534D01*
X2157963Y-13793373D01*
X2175359Y-13970000D01*
X2157963Y-14146627D01*
X2106443Y-14316466D01*
X2022778Y-14472991D01*
X1993448Y-14508729D01*
X1910186Y-14610186D01*
X1808729Y-14693448D01*
X1772991Y-14722778D01*
X1616466Y-14806443D01*
X1446627Y-14857963D01*
X1380442Y-14864482D01*
X1314260Y-14871000D01*
X1225740Y-14871000D01*
X1159558Y-14864482D01*
X1093373Y-14857963D01*
X923534Y-14806443D01*
X767009Y-14722778D01*
X731271Y-14693448D01*
X629814Y-14610186D01*
X546552Y-14508729D01*
X517222Y-14472991D01*
X433557Y-14316466D01*
X382037Y-14146627D01*
X364641Y-13970000D01*
X382037Y-13793373D01*
X433557Y-13623534D01*
X517222Y-13467009D01*
X546552Y-13431271D01*
X629814Y-13329814D01*
X731271Y-13246552D01*
X767009Y-13217222D01*
X923534Y-13133557D01*
X1093373Y-13082037D01*
X1159557Y-13075519D01*
X1225740Y-13069000D01*
X1314260Y-13069000D01*
X1380443Y-13075519D01*
X1380443Y-13075519D01*
G37*
G36*
X24240443Y-13075519D02*
G01*
X24306627Y-13082037D01*
X24476466Y-13133557D01*
X24632991Y-13217222D01*
X24668729Y-13246552D01*
X24770186Y-13329814D01*
X24853448Y-13431271D01*
X24882778Y-13467009D01*
X24966443Y-13623534D01*
X25017963Y-13793373D01*
X25035359Y-13970000D01*
X25017963Y-14146627D01*
X24966443Y-14316466D01*
X24882778Y-14472991D01*
X24853448Y-14508729D01*
X24770186Y-14610186D01*
X24668729Y-14693448D01*
X24632991Y-14722778D01*
X24476466Y-14806443D01*
X24306627Y-14857963D01*
X24240442Y-14864482D01*
X24174260Y-14871000D01*
X24085740Y-14871000D01*
X24019558Y-14864482D01*
X23953373Y-14857963D01*
X23783534Y-14806443D01*
X23627009Y-14722778D01*
X23591271Y-14693448D01*
X23489814Y-14610186D01*
X23406552Y-14508729D01*
X23377222Y-14472991D01*
X23293557Y-14316466D01*
X23242037Y-14146627D01*
X23224641Y-13970000D01*
X23242037Y-13793373D01*
X23293557Y-13623534D01*
X23377222Y-13467009D01*
X23406552Y-13431271D01*
X23489814Y-13329814D01*
X23591271Y-13246552D01*
X23627009Y-13217222D01*
X23783534Y-13133557D01*
X23953373Y-13082037D01*
X24019558Y-13075518D01*
X24085740Y-13069000D01*
X24174260Y-13069000D01*
X24240443Y-13075519D01*
X24240443Y-13075519D01*
G37*
G36*
X5251000Y-13899500D02*
G01*
X3149000Y-13899500D01*
X3149000Y-12897500D01*
X5251000Y-12897500D01*
X5251000Y-13899500D01*
X5251000Y-13899500D01*
G37*
G36*
X22251000Y-13899500D02*
G01*
X20149000Y-13899500D01*
X20149000Y-12897500D01*
X22251000Y-12897500D01*
X22251000Y-13899500D01*
X22251000Y-13899500D01*
G37*
G36*
X5251000Y-12629500D02*
G01*
X3149000Y-12629500D01*
X3149000Y-11627500D01*
X5251000Y-11627500D01*
X5251000Y-12629500D01*
X5251000Y-12629500D01*
G37*
G36*
X22251000Y-12629500D02*
G01*
X20149000Y-12629500D01*
X20149000Y-11627500D01*
X22251000Y-11627500D01*
X22251000Y-12629500D01*
X22251000Y-12629500D01*
G37*
G36*
X1380442Y-10535518D02*
G01*
X1446627Y-10542037D01*
X1616466Y-10593557D01*
X1772991Y-10677222D01*
X1808729Y-10706552D01*
X1910186Y-10789814D01*
X1993448Y-10891271D01*
X2022778Y-10927009D01*
X2106443Y-11083534D01*
X2157963Y-11253373D01*
X2175359Y-11430000D01*
X2157963Y-11606627D01*
X2106443Y-11776466D01*
X2022778Y-11932991D01*
X1993448Y-11968729D01*
X1910186Y-12070186D01*
X1808729Y-12153448D01*
X1772991Y-12182778D01*
X1616466Y-12266443D01*
X1446627Y-12317963D01*
X1380442Y-12324482D01*
X1314260Y-12331000D01*
X1225740Y-12331000D01*
X1159558Y-12324482D01*
X1093373Y-12317963D01*
X923534Y-12266443D01*
X767009Y-12182778D01*
X731271Y-12153448D01*
X629814Y-12070186D01*
X546552Y-11968729D01*
X517222Y-11932991D01*
X433557Y-11776466D01*
X382037Y-11606627D01*
X364641Y-11430000D01*
X382037Y-11253373D01*
X433557Y-11083534D01*
X517222Y-10927009D01*
X546552Y-10891271D01*
X629814Y-10789814D01*
X731271Y-10706552D01*
X767009Y-10677222D01*
X923534Y-10593557D01*
X1093373Y-10542037D01*
X1159558Y-10535518D01*
X1225740Y-10529000D01*
X1314260Y-10529000D01*
X1380442Y-10535518D01*
X1380442Y-10535518D01*
G37*
G36*
X24240442Y-10535518D02*
G01*
X24306627Y-10542037D01*
X24476466Y-10593557D01*
X24632991Y-10677222D01*
X24668729Y-10706552D01*
X24770186Y-10789814D01*
X24853448Y-10891271D01*
X24882778Y-10927009D01*
X24966443Y-11083534D01*
X25017963Y-11253373D01*
X25035359Y-11430000D01*
X25017963Y-11606627D01*
X24966443Y-11776466D01*
X24882778Y-11932991D01*
X24853448Y-11968729D01*
X24770186Y-12070186D01*
X24668729Y-12153448D01*
X24632991Y-12182778D01*
X24476466Y-12266443D01*
X24306627Y-12317963D01*
X24240442Y-12324482D01*
X24174260Y-12331000D01*
X24085740Y-12331000D01*
X24019558Y-12324482D01*
X23953373Y-12317963D01*
X23783534Y-12266443D01*
X23627009Y-12182778D01*
X23591271Y-12153448D01*
X23489814Y-12070186D01*
X23406552Y-11968729D01*
X23377222Y-11932991D01*
X23293557Y-11776466D01*
X23242037Y-11606627D01*
X23224641Y-11430000D01*
X23242037Y-11253373D01*
X23293557Y-11083534D01*
X23377222Y-10927009D01*
X23406552Y-10891271D01*
X23489814Y-10789814D01*
X23591271Y-10706552D01*
X23627009Y-10677222D01*
X23783534Y-10593557D01*
X23953373Y-10542037D01*
X24019558Y-10535518D01*
X24085740Y-10529000D01*
X24174260Y-10529000D01*
X24240442Y-10535518D01*
X24240442Y-10535518D01*
G37*
G36*
X5251000Y-11359500D02*
G01*
X3149000Y-11359500D01*
X3149000Y-10357500D01*
X5251000Y-10357500D01*
X5251000Y-11359500D01*
X5251000Y-11359500D01*
G37*
G36*
X22251000Y-11359500D02*
G01*
X20149000Y-11359500D01*
X20149000Y-10357500D01*
X22251000Y-10357500D01*
X22251000Y-11359500D01*
X22251000Y-11359500D01*
G37*
G36*
X14251000Y-10749500D02*
G01*
X9149000Y-10749500D01*
X9149000Y-5647500D01*
X14251000Y-5647500D01*
X14251000Y-10749500D01*
X14251000Y-10749500D01*
G37*
G36*
X22251000Y-10089500D02*
G01*
X20149000Y-10089500D01*
X20149000Y-9087500D01*
X22251000Y-9087500D01*
X22251000Y-10089500D01*
X22251000Y-10089500D01*
G37*
G36*
X5251000Y-10089500D02*
G01*
X3149000Y-10089500D01*
X3149000Y-9087500D01*
X5251000Y-9087500D01*
X5251000Y-10089500D01*
X5251000Y-10089500D01*
G37*
G36*
X24240442Y-7995518D02*
G01*
X24306627Y-8002037D01*
X24476466Y-8053557D01*
X24632991Y-8137222D01*
X24668729Y-8166552D01*
X24770186Y-8249814D01*
X24853448Y-8351271D01*
X24882778Y-8387009D01*
X24966443Y-8543534D01*
X25017963Y-8713373D01*
X25035359Y-8890000D01*
X25017963Y-9066627D01*
X24966443Y-9236466D01*
X24882778Y-9392991D01*
X24853448Y-9428729D01*
X24770186Y-9530186D01*
X24668729Y-9613448D01*
X24632991Y-9642778D01*
X24476466Y-9726443D01*
X24306627Y-9777963D01*
X24240443Y-9784481D01*
X24174260Y-9791000D01*
X24085740Y-9791000D01*
X24019557Y-9784481D01*
X23953373Y-9777963D01*
X23783534Y-9726443D01*
X23627009Y-9642778D01*
X23591271Y-9613448D01*
X23489814Y-9530186D01*
X23406552Y-9428729D01*
X23377222Y-9392991D01*
X23293557Y-9236466D01*
X23242037Y-9066627D01*
X23224641Y-8890000D01*
X23242037Y-8713373D01*
X23293557Y-8543534D01*
X23377222Y-8387009D01*
X23406552Y-8351271D01*
X23489814Y-8249814D01*
X23591271Y-8166552D01*
X23627009Y-8137222D01*
X23783534Y-8053557D01*
X23953373Y-8002037D01*
X24019558Y-7995518D01*
X24085740Y-7989000D01*
X24174260Y-7989000D01*
X24240442Y-7995518D01*
X24240442Y-7995518D01*
G37*
G36*
X1380442Y-7995518D02*
G01*
X1446627Y-8002037D01*
X1616466Y-8053557D01*
X1772991Y-8137222D01*
X1808729Y-8166552D01*
X1910186Y-8249814D01*
X1993448Y-8351271D01*
X2022778Y-8387009D01*
X2106443Y-8543534D01*
X2157963Y-8713373D01*
X2175359Y-8890000D01*
X2157963Y-9066627D01*
X2106443Y-9236466D01*
X2022778Y-9392991D01*
X1993448Y-9428729D01*
X1910186Y-9530186D01*
X1808729Y-9613448D01*
X1772991Y-9642778D01*
X1616466Y-9726443D01*
X1446627Y-9777963D01*
X1380443Y-9784481D01*
X1314260Y-9791000D01*
X1225740Y-9791000D01*
X1159557Y-9784481D01*
X1093373Y-9777963D01*
X923534Y-9726443D01*
X767009Y-9642778D01*
X731271Y-9613448D01*
X629814Y-9530186D01*
X546552Y-9428729D01*
X517222Y-9392991D01*
X433557Y-9236466D01*
X382037Y-9066627D01*
X364641Y-8890000D01*
X382037Y-8713373D01*
X433557Y-8543534D01*
X517222Y-8387009D01*
X546552Y-8351271D01*
X629814Y-8249814D01*
X731271Y-8166552D01*
X767009Y-8137222D01*
X923534Y-8053557D01*
X1093373Y-8002037D01*
X1159558Y-7995518D01*
X1225740Y-7989000D01*
X1314260Y-7989000D01*
X1380442Y-7995518D01*
X1380442Y-7995518D01*
G37*
G36*
X5251000Y-8819500D02*
G01*
X3149000Y-8819500D01*
X3149000Y-7817500D01*
X5251000Y-7817500D01*
X5251000Y-8819500D01*
X5251000Y-8819500D01*
G37*
G36*
X22251000Y-8819500D02*
G01*
X20149000Y-8819500D01*
X20149000Y-7817500D01*
X22251000Y-7817500D01*
X22251000Y-8819500D01*
X22251000Y-8819500D01*
G37*
G36*
X5251000Y-7549500D02*
G01*
X3149000Y-7549500D01*
X3149000Y-6547500D01*
X5251000Y-6547500D01*
X5251000Y-7549500D01*
X5251000Y-7549500D01*
G37*
G36*
X22251000Y-7549500D02*
G01*
X20149000Y-7549500D01*
X20149000Y-6547500D01*
X22251000Y-6547500D01*
X22251000Y-7549500D01*
X22251000Y-7549500D01*
G37*
G36*
X24240443Y-5455519D02*
G01*
X24306627Y-5462037D01*
X24476466Y-5513557D01*
X24632991Y-5597222D01*
X24668729Y-5626552D01*
X24770186Y-5709814D01*
X24853448Y-5811271D01*
X24882778Y-5847009D01*
X24966443Y-6003534D01*
X25017963Y-6173373D01*
X25035359Y-6350000D01*
X25017963Y-6526627D01*
X24966443Y-6696466D01*
X24882778Y-6852991D01*
X24853448Y-6888729D01*
X24770186Y-6990186D01*
X24668729Y-7073448D01*
X24632991Y-7102778D01*
X24476466Y-7186443D01*
X24306627Y-7237963D01*
X24240443Y-7244481D01*
X24174260Y-7251000D01*
X24085740Y-7251000D01*
X24019557Y-7244481D01*
X23953373Y-7237963D01*
X23783534Y-7186443D01*
X23627009Y-7102778D01*
X23591271Y-7073448D01*
X23489814Y-6990186D01*
X23406552Y-6888729D01*
X23377222Y-6852991D01*
X23293557Y-6696466D01*
X23242037Y-6526627D01*
X23224641Y-6350000D01*
X23242037Y-6173373D01*
X23293557Y-6003534D01*
X23377222Y-5847009D01*
X23406552Y-5811271D01*
X23489814Y-5709814D01*
X23591271Y-5626552D01*
X23627009Y-5597222D01*
X23783534Y-5513557D01*
X23953373Y-5462037D01*
X24019557Y-5455519D01*
X24085740Y-5449000D01*
X24174260Y-5449000D01*
X24240443Y-5455519D01*
X24240443Y-5455519D01*
G37*
G36*
X1380443Y-5455519D02*
G01*
X1446627Y-5462037D01*
X1616466Y-5513557D01*
X1772991Y-5597222D01*
X1808729Y-5626552D01*
X1910186Y-5709814D01*
X1993448Y-5811271D01*
X2022778Y-5847009D01*
X2106443Y-6003534D01*
X2157963Y-6173373D01*
X2175359Y-6350000D01*
X2157963Y-6526627D01*
X2106443Y-6696466D01*
X2022778Y-6852991D01*
X1993448Y-6888729D01*
X1910186Y-6990186D01*
X1808729Y-7073448D01*
X1772991Y-7102778D01*
X1616466Y-7186443D01*
X1446627Y-7237963D01*
X1380443Y-7244481D01*
X1314260Y-7251000D01*
X1225740Y-7251000D01*
X1159557Y-7244481D01*
X1093373Y-7237963D01*
X923534Y-7186443D01*
X767009Y-7102778D01*
X731271Y-7073448D01*
X629814Y-6990186D01*
X546552Y-6888729D01*
X517222Y-6852991D01*
X433557Y-6696466D01*
X382037Y-6526627D01*
X364641Y-6350000D01*
X382037Y-6173373D01*
X433557Y-6003534D01*
X517222Y-5847009D01*
X546552Y-5811271D01*
X629814Y-5709814D01*
X731271Y-5626552D01*
X767009Y-5597222D01*
X923534Y-5513557D01*
X1093373Y-5462037D01*
X1159557Y-5455519D01*
X1225740Y-5449000D01*
X1314260Y-5449000D01*
X1380443Y-5455519D01*
X1380443Y-5455519D01*
G37*
G36*
X5251000Y-6279500D02*
G01*
X3149000Y-6279500D01*
X3149000Y-5277500D01*
X5251000Y-5277500D01*
X5251000Y-6279500D01*
X5251000Y-6279500D01*
G37*
G36*
X22251000Y-6279500D02*
G01*
X20149000Y-6279500D01*
X20149000Y-5277500D01*
X22251000Y-5277500D01*
X22251000Y-6279500D01*
X22251000Y-6279500D01*
G37*
G36*
X5251000Y-5009500D02*
G01*
X3149000Y-5009500D01*
X3149000Y-4007500D01*
X5251000Y-4007500D01*
X5251000Y-5009500D01*
X5251000Y-5009500D01*
G37*
G36*
X22251000Y-5009500D02*
G01*
X20149000Y-5009500D01*
X20149000Y-4007500D01*
X22251000Y-4007500D01*
X22251000Y-5009500D01*
X22251000Y-5009500D01*
G37*
G36*
X1380443Y-2915519D02*
G01*
X1446627Y-2922037D01*
X1616466Y-2973557D01*
X1772991Y-3057222D01*
X1808729Y-3086552D01*
X1910186Y-3169814D01*
X1993448Y-3271271D01*
X2022778Y-3307009D01*
X2106443Y-3463534D01*
X2157963Y-3633373D01*
X2175359Y-3810000D01*
X2157963Y-3986627D01*
X2106443Y-4156466D01*
X2022778Y-4312991D01*
X1993448Y-4348729D01*
X1910186Y-4450186D01*
X1808729Y-4533448D01*
X1772991Y-4562778D01*
X1616466Y-4646443D01*
X1446627Y-4697963D01*
X1380443Y-4704481D01*
X1314260Y-4711000D01*
X1225740Y-4711000D01*
X1159557Y-4704481D01*
X1093373Y-4697963D01*
X923534Y-4646443D01*
X767009Y-4562778D01*
X731271Y-4533448D01*
X629814Y-4450186D01*
X546552Y-4348729D01*
X517222Y-4312991D01*
X433557Y-4156466D01*
X382037Y-3986627D01*
X364641Y-3810000D01*
X382037Y-3633373D01*
X433557Y-3463534D01*
X517222Y-3307009D01*
X546552Y-3271271D01*
X629814Y-3169814D01*
X731271Y-3086552D01*
X767009Y-3057222D01*
X923534Y-2973557D01*
X1093373Y-2922037D01*
X1159557Y-2915519D01*
X1225740Y-2909000D01*
X1314260Y-2909000D01*
X1380443Y-2915519D01*
X1380443Y-2915519D01*
G37*
G36*
X24240443Y-2915519D02*
G01*
X24306627Y-2922037D01*
X24476466Y-2973557D01*
X24632991Y-3057222D01*
X24668729Y-3086552D01*
X24770186Y-3169814D01*
X24853448Y-3271271D01*
X24882778Y-3307009D01*
X24966443Y-3463534D01*
X25017963Y-3633373D01*
X25035359Y-3810000D01*
X25017963Y-3986627D01*
X24966443Y-4156466D01*
X24882778Y-4312991D01*
X24853448Y-4348729D01*
X24770186Y-4450186D01*
X24668729Y-4533448D01*
X24632991Y-4562778D01*
X24476466Y-4646443D01*
X24306627Y-4697963D01*
X24240443Y-4704481D01*
X24174260Y-4711000D01*
X24085740Y-4711000D01*
X24019557Y-4704481D01*
X23953373Y-4697963D01*
X23783534Y-4646443D01*
X23627009Y-4562778D01*
X23591271Y-4533448D01*
X23489814Y-4450186D01*
X23406552Y-4348729D01*
X23377222Y-4312991D01*
X23293557Y-4156466D01*
X23242037Y-3986627D01*
X23224641Y-3810000D01*
X23242037Y-3633373D01*
X23293557Y-3463534D01*
X23377222Y-3307009D01*
X23406552Y-3271271D01*
X23489814Y-3169814D01*
X23591271Y-3086552D01*
X23627009Y-3057222D01*
X23783534Y-2973557D01*
X23953373Y-2922037D01*
X24019557Y-2915519D01*
X24085740Y-2909000D01*
X24174260Y-2909000D01*
X24240443Y-2915519D01*
X24240443Y-2915519D01*
G37*
G36*
X5251000Y-3739500D02*
G01*
X3149000Y-3739500D01*
X3149000Y-2737500D01*
X5251000Y-2737500D01*
X5251000Y-3739500D01*
X5251000Y-3739500D01*
G37*
G36*
X22251000Y-3739500D02*
G01*
X20149000Y-3739500D01*
X20149000Y-2737500D01*
X22251000Y-2737500D01*
X22251000Y-3739500D01*
X22251000Y-3739500D01*
G37*
G36*
X5251000Y-2469500D02*
G01*
X3149000Y-2469500D01*
X3149000Y-1467500D01*
X5251000Y-1467500D01*
X5251000Y-2469500D01*
X5251000Y-2469500D01*
G37*
G36*
X22251000Y-2469500D02*
G01*
X20149000Y-2469500D01*
X20149000Y-1467500D01*
X22251000Y-1467500D01*
X22251000Y-2469500D01*
X22251000Y-2469500D01*
G37*
G36*
X2171000Y-2171000D02*
G01*
X369000Y-2171000D01*
X369000Y-369000D01*
X2171000Y-369000D01*
X2171000Y-2171000D01*
X2171000Y-2171000D01*
G37*
G36*
X24240443Y-375519D02*
G01*
X24306627Y-382037D01*
X24476466Y-433557D01*
X24632991Y-517222D01*
X24668729Y-546552D01*
X24770186Y-629814D01*
X24853448Y-731271D01*
X24882778Y-767009D01*
X24966443Y-923534D01*
X25017963Y-1093373D01*
X25035359Y-1270000D01*
X25017963Y-1446627D01*
X24966443Y-1616466D01*
X24882778Y-1772991D01*
X24853448Y-1808729D01*
X24770186Y-1910186D01*
X24668729Y-1993448D01*
X24632991Y-2022778D01*
X24476466Y-2106443D01*
X24306627Y-2157963D01*
X24240443Y-2164481D01*
X24174260Y-2171000D01*
X24085740Y-2171000D01*
X24019557Y-2164481D01*
X23953373Y-2157963D01*
X23783534Y-2106443D01*
X23627009Y-2022778D01*
X23591271Y-1993448D01*
X23489814Y-1910186D01*
X23406552Y-1808729D01*
X23377222Y-1772991D01*
X23293557Y-1616466D01*
X23242037Y-1446627D01*
X23224641Y-1270000D01*
X23242037Y-1093373D01*
X23293557Y-923534D01*
X23377222Y-767009D01*
X23406552Y-731271D01*
X23489814Y-629814D01*
X23591271Y-546552D01*
X23627009Y-517222D01*
X23783534Y-433557D01*
X23953373Y-382037D01*
X24019557Y-375519D01*
X24085740Y-369000D01*
X24174260Y-369000D01*
X24240443Y-375519D01*
X24240443Y-375519D01*
G37*
G36*
X22251000Y-1199500D02*
G01*
X20149000Y-1199500D01*
X20149000Y-197500D01*
X22251000Y-197500D01*
X22251000Y-1199500D01*
X22251000Y-1199500D01*
G37*
G36*
X5251000Y-1199500D02*
G01*
X3149000Y-1199500D01*
X3149000Y-197500D01*
X5251000Y-197500D01*
X5251000Y-1199500D01*
X5251000Y-1199500D01*
G37*
M02*
