G04 #@! TF.GenerationSoftware,KiCad,Pcbnew,(5.1.4-0-10_14)*
G04 #@! TF.CreationDate,2019-11-09T17:54:15-08:00*
G04 #@! TF.ProjectId,esp32-generic-board,65737033-322d-4676-956e-657269632d62,rev?*
G04 #@! TF.SameCoordinates,Original*
G04 #@! TF.FileFunction,Copper,L2,Bot*
G04 #@! TF.FilePolarity,Positive*
%FSLAX46Y46*%
G04 Gerber Fmt 4.6, Leading zero omitted, Abs format (unit mm)*
G04 Created by KiCad (PCBNEW (5.1.4-0-10_14)) date 2019-11-09 17:54:15*
%MOMM*%
%LPD*%
G04 APERTURE LIST*
%ADD10R,1.700000X1.700000*%
%ADD11O,1.700000X1.700000*%
%ADD12C,1.400000*%
%ADD13C,0.800000*%
%ADD14C,0.508000*%
%ADD15C,0.254000*%
%ADD16C,0.381000*%
G04 APERTURE END LIST*
D10*
X1270000Y-1270000D03*
D11*
X1270000Y-3810000D03*
X1270000Y-6350000D03*
X1270000Y-8890000D03*
X1270000Y-11430000D03*
X1270000Y-13970000D03*
X1270000Y-16510000D03*
X1270000Y-19050000D03*
X1270000Y-21590000D03*
X1270000Y-24130000D03*
X1270000Y-26670000D03*
X1270000Y-29210000D03*
X1270000Y-31750000D03*
X1270000Y-34290000D03*
X1270000Y-36830000D03*
X1270000Y-39370000D03*
X1270000Y-41910000D03*
X1270000Y-44450000D03*
X1270000Y-46990000D03*
D12*
X13713500Y-54675000D03*
X21973500Y-54675000D03*
X22333500Y-60625000D03*
X13353500Y-60625000D03*
D11*
X24130000Y-1270000D03*
X24130000Y-3810000D03*
X24130000Y-6350000D03*
X24130000Y-8890000D03*
X24130000Y-11430000D03*
X24130000Y-13970000D03*
X24130000Y-16510000D03*
X24130000Y-19050000D03*
X24130000Y-21590000D03*
X24130000Y-24130000D03*
X24130000Y-26670000D03*
X24130000Y-29210000D03*
X24130000Y-31750000D03*
X24130000Y-34290000D03*
X24130000Y-36830000D03*
X24130000Y-39370000D03*
X24130000Y-41910000D03*
X24130000Y-44450000D03*
D10*
X24130000Y-46990000D03*
D13*
X8445500Y-44450000D03*
X13779500Y-38290500D03*
X6350000Y-21526500D03*
X9144000Y-12573000D03*
X17462500Y-6794500D03*
X22797185Y-10096566D03*
X22225000Y-25463500D03*
X20002500Y-24511000D03*
X16256000Y-24257000D03*
X13589000Y-25082500D03*
X19367500Y-55880000D03*
X16319500Y-56324500D03*
X11620500Y-47688500D03*
X11811000Y-34163000D03*
X11811000Y-34163000D03*
X3365500Y-32829500D03*
X6096000Y-25654000D03*
X6413500Y-7048500D03*
X6286500Y-9588500D03*
X6413500Y-10858500D03*
X6413500Y-13398500D03*
X7154227Y-14206931D03*
X7026171Y-15250181D03*
X10252010Y-15073367D03*
X10706021Y-16050219D03*
X11303000Y-14605000D03*
X16700500Y-4826000D03*
X16161002Y-10603599D03*
X13538331Y-15095004D03*
X13018705Y-26854012D03*
X16733804Y-11786972D03*
X16863862Y-12778490D03*
X16383000Y-14287500D03*
X17743115Y-14357577D03*
X19599996Y-16024779D03*
X18910711Y-15297769D03*
X17413142Y-15301580D03*
X16413160Y-15651160D03*
X15811500Y-16510000D03*
X14090511Y-16165830D03*
X12614043Y-15938500D03*
X13017500Y-45275500D03*
X9969500Y-44450000D03*
X11807213Y-38321630D03*
X11385176Y-36341427D03*
X14973300Y-23863300D03*
X9283491Y-28575000D03*
X12672190Y-30152210D03*
X10845966Y-25365629D03*
X14738489Y-46438963D03*
X17208500Y-49530000D03*
X17145000Y-55597490D03*
X16192500Y-46228000D03*
X16989490Y-32387127D03*
X16188974Y-31444654D03*
X17145470Y-28496849D03*
X13249064Y-27900410D03*
X17452980Y-29950861D03*
X18056435Y-20004576D03*
X16573500Y-26289000D03*
X17018000Y-20002500D03*
X11645525Y-29058526D03*
D14*
X8445500Y-43624500D02*
X13779500Y-38290500D01*
X8445500Y-44450000D02*
X8445500Y-43624500D01*
X8008228Y-13708772D02*
X9144000Y-12573000D01*
X8008228Y-19172148D02*
X8008228Y-13708772D01*
X19495119Y-6794500D02*
X22797185Y-10096566D01*
X17462500Y-6794500D02*
X19495119Y-6794500D01*
X6749999Y-20430377D02*
X8008228Y-19172148D01*
X6749999Y-21126501D02*
X6749999Y-20430377D01*
X6350000Y-21526500D02*
X6749999Y-21126501D01*
X20955000Y-25463500D02*
X20002500Y-24511000D01*
X22225000Y-25463500D02*
X20955000Y-25463500D01*
X13589000Y-25082500D02*
X13589000Y-25082500D01*
X14478000Y-25019000D02*
X13620750Y-25050750D01*
X15240000Y-24980900D02*
X14478000Y-25019000D01*
X15659100Y-24866600D02*
X15240000Y-24980900D01*
X13620750Y-25050750D02*
X13589000Y-25082500D01*
X16256000Y-24257000D02*
X15659100Y-24866600D01*
D15*
X18357315Y-56324500D02*
X16319500Y-56324500D01*
X18801815Y-55880000D02*
X18357315Y-56324500D01*
X19367500Y-55880000D02*
X18801815Y-55880000D01*
D14*
X1968500Y-47688500D02*
X1270000Y-46990000D01*
X11620500Y-47688500D02*
X3873500Y-47688500D01*
X3873500Y-42100500D02*
X11811000Y-34163000D01*
X3873500Y-47688500D02*
X3873500Y-42100500D01*
X3873500Y-47688500D02*
X1968500Y-47688500D01*
X3765499Y-32429501D02*
X3765499Y-27984501D01*
X3365500Y-32829500D02*
X3765499Y-32429501D01*
X3765499Y-27984501D02*
X6096000Y-25654000D01*
X6096000Y-25654000D02*
X6495999Y-25254001D01*
X9398009Y-22351991D02*
X6096000Y-25654000D01*
X10096500Y-13964955D02*
X9398009Y-14663446D01*
X9398009Y-14663446D02*
X9398009Y-22351991D01*
D15*
X2032000Y-11430000D02*
X1270000Y-11430000D01*
X6413500Y-7048500D02*
X2032000Y-11430000D01*
X6286500Y-9588500D02*
X5270500Y-9588500D01*
X5270500Y-9588500D02*
X4127500Y-10731500D01*
X4127500Y-13652500D02*
X1270000Y-16510000D01*
X4127500Y-10731500D02*
X4127500Y-13652500D01*
X2119999Y-18200001D02*
X1270000Y-19050000D01*
X5391148Y-11880852D02*
X5391148Y-14928852D01*
X6413500Y-10858500D02*
X5391148Y-11880852D01*
X5391148Y-14928852D02*
X2119999Y-18200001D01*
X5845159Y-13966841D02*
X5845159Y-15157663D01*
X3048000Y-22352000D02*
X2119999Y-23280001D01*
X5845159Y-15157663D02*
X3048000Y-17954822D01*
X3048000Y-17954822D02*
X3048000Y-22352000D01*
X6413500Y-13398500D02*
X5845159Y-13966841D01*
X2119999Y-23280001D02*
X1270000Y-24130000D01*
X4514537Y-21202099D02*
X6299170Y-19417466D01*
X4514537Y-23425463D02*
X4514537Y-21202099D01*
X6299170Y-19417466D02*
X6299170Y-14496303D01*
X6588542Y-14206931D02*
X7154227Y-14206931D01*
X1270000Y-26670000D02*
X4514537Y-23425463D01*
X6299170Y-14496303D02*
X6588542Y-14206931D01*
X4968548Y-21390156D02*
X7026171Y-19332533D01*
X4968548Y-25511452D02*
X4968548Y-21390156D01*
X1270000Y-29210000D02*
X4968548Y-25511452D01*
X7026171Y-19332533D02*
X7026171Y-15815866D01*
X7026171Y-15815866D02*
X7026171Y-15250181D01*
X12026987Y-24862981D02*
X12026987Y-25937019D01*
X13363510Y-23526458D02*
X12026987Y-24862981D01*
X13363510Y-15835510D02*
X13363510Y-23526458D01*
X13538331Y-15095004D02*
X13538331Y-15660689D01*
X12026987Y-25937019D02*
X12943980Y-26854012D01*
X12943980Y-26854012D02*
X13018705Y-26854012D01*
X13538331Y-15660689D02*
X13363510Y-15835510D01*
X16561001Y-11003598D02*
X16161002Y-10603599D01*
X16991182Y-11003598D02*
X16561001Y-11003598D01*
X17417584Y-11430000D02*
X16991182Y-11003598D01*
X24130000Y-11430000D02*
X17417584Y-11430000D01*
X16838651Y-11891819D02*
X16733804Y-11786972D01*
X24130000Y-13970000D02*
X22051819Y-11891819D01*
X22051819Y-11891819D02*
X16838651Y-11891819D01*
X22126532Y-15882328D02*
X19022694Y-12778490D01*
X24130000Y-19050000D02*
X22126532Y-17046532D01*
X17429547Y-12778490D02*
X16863862Y-12778490D01*
X22126532Y-17046532D02*
X22126532Y-15882328D01*
X19022694Y-12778490D02*
X17429547Y-12778490D01*
D14*
X10795000Y-45275500D02*
X9969500Y-44450000D01*
X13017500Y-45275500D02*
X10795000Y-45275500D01*
X11807213Y-38321630D02*
X11807213Y-36763464D01*
X11807213Y-36763464D02*
X11785175Y-36741426D01*
X11785175Y-36741426D02*
X11385176Y-36341427D01*
X9017000Y-28575000D02*
X9283491Y-28575000D01*
X6096000Y-25654000D02*
X9017000Y-28575000D01*
D15*
X2472081Y-36830000D02*
X10010501Y-29291580D01*
X9979011Y-15346366D02*
X10252010Y-15073367D01*
X10010501Y-28132112D02*
X8756932Y-26878543D01*
X10010501Y-29291580D02*
X10010501Y-28132112D01*
X1270000Y-36830000D02*
X2472081Y-36830000D01*
X8756932Y-26878543D02*
X8756933Y-23814740D01*
X8756933Y-23814740D02*
X9979011Y-22592662D01*
X9979011Y-22592662D02*
X9979011Y-15346366D01*
X1270000Y-39370000D02*
X10464512Y-30175488D01*
X10706021Y-22507720D02*
X10706021Y-16615904D01*
X10706021Y-16615904D02*
X10706021Y-16050219D01*
X10464512Y-30175488D02*
X10464512Y-27944055D01*
X9210943Y-26690486D02*
X9210943Y-24002798D01*
X9210943Y-24002798D02*
X10706021Y-22507720D01*
X10464512Y-27944055D02*
X9210943Y-26690486D01*
X11433022Y-15300707D02*
X11433022Y-23060541D01*
X9664953Y-24828610D02*
X9664954Y-26502429D01*
X11303000Y-14605000D02*
X11303000Y-15170685D01*
X11303000Y-15170685D02*
X11433022Y-15300707D01*
X10918523Y-32261477D02*
X2119999Y-41060001D01*
X11433022Y-23060541D02*
X9664953Y-24828610D01*
X2119999Y-41060001D02*
X1270000Y-41910000D01*
X9664954Y-26502429D02*
X10918523Y-27755998D01*
X10918523Y-27755998D02*
X10918523Y-32261477D01*
X2119999Y-42778037D02*
X2119999Y-43600001D01*
X11457168Y-33440868D02*
X2119999Y-42778037D01*
X11457168Y-30275032D02*
X11457168Y-33440868D01*
X12004544Y-28341574D02*
X12558999Y-28896029D01*
X2119999Y-43600001D02*
X1270000Y-44450000D01*
X12508199Y-29224001D02*
X11457168Y-30275032D01*
X12004544Y-27557883D02*
X12004544Y-28341574D01*
X12558999Y-28896029D02*
X12558999Y-29224001D01*
X10845966Y-26399305D02*
X12004544Y-27557883D01*
X12558999Y-29224001D02*
X12508199Y-29224001D01*
X10845966Y-25365629D02*
X10845966Y-26399305D01*
X19025223Y-13731976D02*
X21637552Y-16344305D01*
X18193476Y-13731976D02*
X19025223Y-13731976D01*
X21637552Y-17640590D02*
X21653500Y-19177000D01*
X16383000Y-14287500D02*
X17039924Y-13630576D01*
X22571001Y-20031001D02*
X24130000Y-21590000D01*
X21653500Y-19177000D02*
X22571001Y-20031001D01*
X18092076Y-13630576D02*
X18193476Y-13731976D01*
X21637552Y-16344305D02*
X21637552Y-17640590D01*
X17039924Y-13630576D02*
X18092076Y-13630576D01*
X24130000Y-24130000D02*
X21945542Y-21945542D01*
X21945542Y-21945542D02*
X21945542Y-20291004D01*
X21053499Y-19398961D02*
X21053499Y-16402320D01*
X21945542Y-20291004D02*
X21053499Y-19398961D01*
X21053499Y-16402320D02*
X19008756Y-14357577D01*
X19008756Y-14357577D02*
X18308800Y-14357577D01*
X18308800Y-14357577D02*
X17743115Y-14357577D01*
X20599488Y-19587018D02*
X20599488Y-17024271D01*
X23280001Y-25379039D02*
X21491531Y-23590569D01*
X21491531Y-20479061D02*
X20599488Y-19587018D01*
X23280001Y-25820001D02*
X23280001Y-25379039D01*
X24130000Y-26670000D02*
X23280001Y-25820001D01*
X21491531Y-23590569D02*
X21491531Y-20479061D01*
X19999995Y-16424778D02*
X19599996Y-16024779D01*
X20599488Y-17024271D02*
X19999995Y-16424778D01*
X24130000Y-29210000D02*
X23280001Y-28360001D01*
X20145478Y-18346275D02*
X18510712Y-16711507D01*
X23280001Y-28360001D02*
X22775537Y-28360001D01*
X18510712Y-16711507D02*
X18510712Y-15697768D01*
X20145478Y-23292058D02*
X20145478Y-18346275D01*
X19275498Y-24859962D02*
X19275498Y-24162038D01*
X18510712Y-15697768D02*
X18910711Y-15297769D01*
X19275498Y-24162038D02*
X20145478Y-23292058D01*
X22775537Y-28360001D02*
X19275498Y-24859962D01*
X24130000Y-36830000D02*
X19691467Y-32391467D01*
X19691467Y-25917999D02*
X18821487Y-25048019D01*
X19691467Y-23104001D02*
X19691467Y-18534332D01*
X19691467Y-18534332D02*
X17413142Y-16256007D01*
X17413142Y-15867265D02*
X17413142Y-15301580D01*
X17413142Y-16256007D02*
X17413142Y-15867265D01*
X19691467Y-32391467D02*
X19691467Y-25917999D01*
X18821487Y-25048019D02*
X18821488Y-23973980D01*
X18821488Y-23973980D02*
X19691467Y-23104001D01*
X18367478Y-23785924D02*
X18367477Y-25236077D01*
X18367477Y-25236077D02*
X19237456Y-26106058D01*
X16813159Y-16051159D02*
X16813159Y-16326278D01*
X19237456Y-26106058D02*
X19237456Y-34477456D01*
X16413160Y-15651160D02*
X16813159Y-16051159D01*
X19237456Y-34477456D02*
X23280001Y-38520001D01*
X16813159Y-16326278D02*
X19237456Y-18750575D01*
X19237456Y-18750575D02*
X19237456Y-22915944D01*
X19237456Y-22915944D02*
X18367478Y-23785924D01*
X23280001Y-38520001D02*
X24130000Y-39370000D01*
X17913468Y-23597868D02*
X17913467Y-25424134D01*
X18783445Y-26294114D02*
X18783445Y-36563445D01*
X17913467Y-25424134D02*
X18783445Y-26294114D01*
X23280001Y-41060001D02*
X24130000Y-41910000D01*
X18783445Y-19481945D02*
X18783445Y-22727889D01*
X15811500Y-16510000D02*
X18783445Y-19481945D01*
X18783445Y-22727889D02*
X17913468Y-23597868D01*
X18783445Y-36563445D02*
X23280001Y-41060001D01*
X16796508Y-29223851D02*
X17494432Y-29223851D01*
X12480998Y-25748962D02*
X12480998Y-25051038D01*
X12859038Y-26127002D02*
X12480998Y-25748962D01*
X12480998Y-25051038D02*
X14090511Y-23441525D01*
X17872472Y-28845811D02*
X17872472Y-28147887D01*
X14509461Y-27079501D02*
X13556962Y-26127002D01*
X14090511Y-23441525D02*
X14090511Y-16731515D01*
X16544998Y-29475361D02*
X16796508Y-29223851D01*
X17872472Y-28147887D02*
X16804086Y-27079501D01*
X16544998Y-30130462D02*
X16544998Y-29475361D01*
X18326013Y-31911477D02*
X16544998Y-30130462D01*
X13556962Y-26127002D02*
X12859038Y-26127002D01*
X18326013Y-38646013D02*
X18326013Y-31911477D01*
X24130000Y-44450000D02*
X18326013Y-38646013D01*
X14090511Y-16731515D02*
X14090511Y-16165830D01*
X16804086Y-27079501D02*
X14509461Y-27079501D01*
X17494432Y-29223851D02*
X17872472Y-28845811D01*
X12614043Y-23633857D02*
X12614043Y-16504185D01*
X17178923Y-33427041D02*
X17872002Y-32733962D01*
X24130000Y-46990000D02*
X23026000Y-46990000D01*
X14480439Y-28707971D02*
X13013009Y-28707971D01*
X12614043Y-16504185D02*
X12614043Y-15938500D01*
X11572976Y-24674924D02*
X12614043Y-23633857D01*
X11572976Y-26484247D02*
X11572976Y-24674924D01*
X23026000Y-46990000D02*
X17178923Y-41142923D01*
X17872002Y-32099534D02*
X14480439Y-28707971D01*
X12458555Y-27369826D02*
X11572976Y-26484247D01*
X13013009Y-28707971D02*
X12458555Y-28153517D01*
X17872002Y-32733962D02*
X17872002Y-32099534D01*
X12458555Y-28153517D02*
X12458555Y-27369826D01*
X17178923Y-41142923D02*
X17178923Y-33427041D01*
X17208500Y-55533990D02*
X17145000Y-55597490D01*
X17208500Y-49530000D02*
X17208500Y-55533990D01*
X16724912Y-33217390D02*
X16989490Y-32952812D01*
X16192500Y-46228000D02*
X16724912Y-45695588D01*
X16724912Y-45695588D02*
X16724912Y-33217390D01*
X16989490Y-32952812D02*
X16989490Y-32387127D01*
X16188974Y-32010339D02*
X16188974Y-31444654D01*
X14738489Y-46438963D02*
X16188974Y-44988478D01*
X16188974Y-44988478D02*
X16188974Y-32010339D01*
X17145470Y-28496849D02*
X16549031Y-27900410D01*
X16549031Y-27900410D02*
X13814749Y-27900410D01*
X13814749Y-27900410D02*
X13249064Y-27900410D01*
X17459457Y-27058751D02*
X18326483Y-27925777D01*
X17459457Y-20601554D02*
X17459457Y-27058751D01*
X18056435Y-20004576D02*
X17459457Y-20601554D01*
X17852979Y-29550862D02*
X17452980Y-29950861D01*
X18326483Y-29077358D02*
X17852979Y-29550862D01*
X18326483Y-27925777D02*
X18326483Y-29077358D01*
X16987183Y-20033317D02*
X17018000Y-20002500D01*
X16573500Y-26289000D02*
X16987183Y-25875317D01*
X16987183Y-25875317D02*
X16987183Y-20033317D01*
X11887033Y-15513201D02*
X11887033Y-23248598D01*
X12065000Y-9461500D02*
X12065000Y-15335234D01*
X10118964Y-25016667D02*
X10118964Y-26314371D01*
X16700500Y-4826000D02*
X12065000Y-9461500D01*
X11887033Y-23248598D02*
X10118964Y-25016667D01*
X11550533Y-27745940D02*
X11550533Y-28963534D01*
X11550533Y-28963534D02*
X11645525Y-29058526D01*
X10118964Y-26314371D02*
X11550533Y-27745940D01*
X12065000Y-15335234D02*
X11887033Y-15513201D01*
D16*
G36*
X15711959Y-30747714D02*
G01*
X15650637Y-30788688D01*
X15533008Y-30906317D01*
X15440588Y-31044633D01*
X15376928Y-31198322D01*
X15344474Y-31361478D01*
X15344474Y-31527830D01*
X15376928Y-31690986D01*
X15440588Y-31844675D01*
X15533008Y-31982991D01*
X15617475Y-32067458D01*
X15617474Y-44751755D01*
X14774767Y-45594463D01*
X14655313Y-45594463D01*
X14492157Y-45626917D01*
X14338468Y-45690577D01*
X14200152Y-45782997D01*
X14082523Y-45900626D01*
X13990103Y-46038942D01*
X13926443Y-46192631D01*
X13893989Y-46355787D01*
X13893989Y-46522139D01*
X13926443Y-46685295D01*
X13990103Y-46838984D01*
X14082523Y-46977300D01*
X14200152Y-47094929D01*
X14338468Y-47187349D01*
X14492157Y-47251009D01*
X14655313Y-47283463D01*
X14821665Y-47283463D01*
X14984821Y-47251009D01*
X15138510Y-47187349D01*
X15276826Y-47094929D01*
X15394455Y-46977300D01*
X15486875Y-46838984D01*
X15524455Y-46748259D01*
X15536534Y-46766337D01*
X15654163Y-46883966D01*
X15792479Y-46976386D01*
X15946168Y-47040046D01*
X16109324Y-47072500D01*
X16275676Y-47072500D01*
X16438832Y-47040046D01*
X16592521Y-46976386D01*
X16730837Y-46883966D01*
X16848466Y-46766337D01*
X16940886Y-46628021D01*
X17004546Y-46474332D01*
X17037000Y-46311176D01*
X17037000Y-46191723D01*
X17109170Y-46119553D01*
X17130979Y-46101655D01*
X17202396Y-46014633D01*
X17255464Y-45915350D01*
X17288143Y-45807622D01*
X17296412Y-45723662D01*
X17296412Y-45723661D01*
X17299177Y-45695589D01*
X17296412Y-45667517D01*
X17296412Y-42068634D01*
X22602034Y-47374257D01*
X22619933Y-47396067D01*
X22697413Y-47459653D01*
X22706955Y-47467484D01*
X22806238Y-47520552D01*
X22833350Y-47528776D01*
X22833350Y-47840000D01*
X22841932Y-47927137D01*
X22867349Y-48010926D01*
X22908624Y-48088145D01*
X22964171Y-48155829D01*
X23031855Y-48211376D01*
X23109074Y-48252651D01*
X23192863Y-48278068D01*
X23280000Y-48286650D01*
X24930501Y-48286650D01*
X24930501Y-63030500D01*
X469500Y-63030500D01*
X469500Y-60512277D01*
X12209000Y-60512277D01*
X12209000Y-60737723D01*
X12252982Y-60958838D01*
X12339257Y-61167124D01*
X12464509Y-61354576D01*
X12623924Y-61513991D01*
X12811376Y-61639243D01*
X13019662Y-61725518D01*
X13240777Y-61769500D01*
X13466223Y-61769500D01*
X13687338Y-61725518D01*
X13895624Y-61639243D01*
X14083076Y-61513991D01*
X14242491Y-61354576D01*
X14367743Y-61167124D01*
X14454018Y-60958838D01*
X14498000Y-60737723D01*
X14498000Y-60512277D01*
X21189000Y-60512277D01*
X21189000Y-60737723D01*
X21232982Y-60958838D01*
X21319257Y-61167124D01*
X21444509Y-61354576D01*
X21603924Y-61513991D01*
X21791376Y-61639243D01*
X21999662Y-61725518D01*
X22220777Y-61769500D01*
X22446223Y-61769500D01*
X22667338Y-61725518D01*
X22875624Y-61639243D01*
X23063076Y-61513991D01*
X23222491Y-61354576D01*
X23347743Y-61167124D01*
X23434018Y-60958838D01*
X23478000Y-60737723D01*
X23478000Y-60512277D01*
X23434018Y-60291162D01*
X23347743Y-60082876D01*
X23222491Y-59895424D01*
X23063076Y-59736009D01*
X22875624Y-59610757D01*
X22667338Y-59524482D01*
X22446223Y-59480500D01*
X22220777Y-59480500D01*
X21999662Y-59524482D01*
X21791376Y-59610757D01*
X21603924Y-59736009D01*
X21444509Y-59895424D01*
X21319257Y-60082876D01*
X21232982Y-60291162D01*
X21189000Y-60512277D01*
X14498000Y-60512277D01*
X14454018Y-60291162D01*
X14367743Y-60082876D01*
X14242491Y-59895424D01*
X14083076Y-59736009D01*
X13895624Y-59610757D01*
X13687338Y-59524482D01*
X13466223Y-59480500D01*
X13240777Y-59480500D01*
X13019662Y-59524482D01*
X12811376Y-59610757D01*
X12623924Y-59736009D01*
X12464509Y-59895424D01*
X12339257Y-60082876D01*
X12252982Y-60291162D01*
X12209000Y-60512277D01*
X469500Y-60512277D01*
X469500Y-56241324D01*
X15475000Y-56241324D01*
X15475000Y-56407676D01*
X15507454Y-56570832D01*
X15571114Y-56724521D01*
X15663534Y-56862837D01*
X15781163Y-56980466D01*
X15919479Y-57072886D01*
X16073168Y-57136546D01*
X16236324Y-57169000D01*
X16402676Y-57169000D01*
X16565832Y-57136546D01*
X16719521Y-57072886D01*
X16857837Y-56980466D01*
X16942303Y-56896000D01*
X18329241Y-56896000D01*
X18357315Y-56898765D01*
X18385389Y-56896000D01*
X18469349Y-56887731D01*
X18577077Y-56855052D01*
X18676360Y-56801984D01*
X18763382Y-56730567D01*
X18781285Y-56708752D01*
X18904040Y-56585997D01*
X18967479Y-56628386D01*
X19121168Y-56692046D01*
X19284324Y-56724500D01*
X19450676Y-56724500D01*
X19613832Y-56692046D01*
X19767521Y-56628386D01*
X19905837Y-56535966D01*
X20023466Y-56418337D01*
X20115886Y-56280021D01*
X20179546Y-56126332D01*
X20212000Y-55963176D01*
X20212000Y-55796824D01*
X20179546Y-55633668D01*
X20115886Y-55479979D01*
X20023466Y-55341663D01*
X19905837Y-55224034D01*
X19767521Y-55131614D01*
X19613832Y-55067954D01*
X19450676Y-55035500D01*
X19284324Y-55035500D01*
X19121168Y-55067954D01*
X18967479Y-55131614D01*
X18829163Y-55224034D01*
X18741524Y-55311673D01*
X18689781Y-55316769D01*
X18582053Y-55349448D01*
X18482770Y-55402516D01*
X18395748Y-55473933D01*
X18377849Y-55495743D01*
X18120593Y-55753000D01*
X17975112Y-55753000D01*
X17989500Y-55680666D01*
X17989500Y-55514314D01*
X17957046Y-55351158D01*
X17893386Y-55197469D01*
X17800966Y-55059153D01*
X17780000Y-55038187D01*
X17780000Y-53334437D01*
X20524000Y-53334437D01*
X20524000Y-53515563D01*
X20559336Y-53693208D01*
X20628650Y-53860547D01*
X20729278Y-54011147D01*
X20857353Y-54139222D01*
X20935108Y-54191176D01*
X20872982Y-54341162D01*
X20829000Y-54562277D01*
X20829000Y-54787723D01*
X20872982Y-55008838D01*
X20959257Y-55217124D01*
X21084509Y-55404576D01*
X21243924Y-55563991D01*
X21431376Y-55689243D01*
X21639662Y-55775518D01*
X21860777Y-55819500D01*
X22086223Y-55819500D01*
X22307338Y-55775518D01*
X22515624Y-55689243D01*
X22703076Y-55563991D01*
X22862491Y-55404576D01*
X22987743Y-55217124D01*
X23074018Y-55008838D01*
X23118000Y-54787723D01*
X23118000Y-54562277D01*
X23074018Y-54341162D01*
X22987743Y-54132876D01*
X22862491Y-53945424D01*
X22703076Y-53786009D01*
X22515624Y-53660757D01*
X22347935Y-53591298D01*
X22363000Y-53515563D01*
X22363000Y-53334437D01*
X22327664Y-53156792D01*
X22258350Y-52989453D01*
X22157722Y-52838853D01*
X22029647Y-52710778D01*
X21879047Y-52610150D01*
X21711708Y-52540836D01*
X21534063Y-52505500D01*
X21352937Y-52505500D01*
X21175292Y-52540836D01*
X21007953Y-52610150D01*
X20857353Y-52710778D01*
X20729278Y-52838853D01*
X20628650Y-52989453D01*
X20559336Y-53156792D01*
X20524000Y-53334437D01*
X17780000Y-53334437D01*
X17780000Y-50152803D01*
X17864466Y-50068337D01*
X17956886Y-49930021D01*
X18020546Y-49776332D01*
X18053000Y-49613176D01*
X18053000Y-49446824D01*
X18020546Y-49283668D01*
X17956886Y-49129979D01*
X17864466Y-48991663D01*
X17746837Y-48874034D01*
X17608521Y-48781614D01*
X17454832Y-48717954D01*
X17291676Y-48685500D01*
X17125324Y-48685500D01*
X16962168Y-48717954D01*
X16808479Y-48781614D01*
X16670163Y-48874034D01*
X16552534Y-48991663D01*
X16460114Y-49129979D01*
X16396454Y-49283668D01*
X16364000Y-49446824D01*
X16364000Y-49613176D01*
X16396454Y-49776332D01*
X16460114Y-49930021D01*
X16552534Y-50068337D01*
X16637000Y-50152803D01*
X16637001Y-54921253D01*
X16606663Y-54941524D01*
X16489034Y-55059153D01*
X16396614Y-55197469D01*
X16332954Y-55351158D01*
X16307326Y-55480000D01*
X16236324Y-55480000D01*
X16073168Y-55512454D01*
X15919479Y-55576114D01*
X15781163Y-55668534D01*
X15663534Y-55786163D01*
X15571114Y-55924479D01*
X15507454Y-56078168D01*
X15475000Y-56241324D01*
X469500Y-56241324D01*
X469500Y-54562277D01*
X12569000Y-54562277D01*
X12569000Y-54787723D01*
X12612982Y-55008838D01*
X12699257Y-55217124D01*
X12824509Y-55404576D01*
X12983924Y-55563991D01*
X13171376Y-55689243D01*
X13379662Y-55775518D01*
X13600777Y-55819500D01*
X13826223Y-55819500D01*
X14047338Y-55775518D01*
X14255624Y-55689243D01*
X14443076Y-55563991D01*
X14602491Y-55404576D01*
X14727743Y-55217124D01*
X14814018Y-55008838D01*
X14858000Y-54787723D01*
X14858000Y-54562277D01*
X14814018Y-54341162D01*
X14727743Y-54132876D01*
X14678792Y-54059616D01*
X14734027Y-54022709D01*
X14841209Y-53915527D01*
X14925422Y-53789495D01*
X14983428Y-53649455D01*
X15013000Y-53500789D01*
X15013000Y-53349211D01*
X14983428Y-53200545D01*
X14925422Y-53060505D01*
X14841209Y-52934473D01*
X14734027Y-52827291D01*
X14607995Y-52743078D01*
X14467955Y-52685072D01*
X14319289Y-52655500D01*
X14167711Y-52655500D01*
X14019045Y-52685072D01*
X13879005Y-52743078D01*
X13752973Y-52827291D01*
X13645791Y-52934473D01*
X13561578Y-53060505D01*
X13503572Y-53200545D01*
X13474000Y-53349211D01*
X13474000Y-53500789D01*
X13484510Y-53553627D01*
X13379662Y-53574482D01*
X13171376Y-53660757D01*
X12983924Y-53786009D01*
X12824509Y-53945424D01*
X12699257Y-54132876D01*
X12612982Y-54341162D01*
X12569000Y-54562277D01*
X469500Y-54562277D01*
X469500Y-48007667D01*
X547335Y-48071545D01*
X772220Y-48191748D01*
X1016234Y-48265769D01*
X1206411Y-48284500D01*
X1333589Y-48284500D01*
X1523766Y-48265769D01*
X1558145Y-48255340D01*
X1578556Y-48272091D01*
X1699901Y-48336951D01*
X1699903Y-48336952D01*
X1831570Y-48376893D01*
X1934191Y-48387000D01*
X1934201Y-48387000D01*
X1968499Y-48390378D01*
X2002797Y-48387000D01*
X3839191Y-48387000D01*
X3873500Y-48390379D01*
X3907808Y-48387000D01*
X11145819Y-48387000D01*
X11220479Y-48436886D01*
X11374168Y-48500546D01*
X11537324Y-48533000D01*
X11703676Y-48533000D01*
X11866832Y-48500546D01*
X12020521Y-48436886D01*
X12158837Y-48344466D01*
X12276466Y-48226837D01*
X12368886Y-48088521D01*
X12432546Y-47934832D01*
X12465000Y-47771676D01*
X12465000Y-47605324D01*
X12432546Y-47442168D01*
X12368886Y-47288479D01*
X12276466Y-47150163D01*
X12158837Y-47032534D01*
X12020521Y-46940114D01*
X11866832Y-46876454D01*
X11703676Y-46844000D01*
X11537324Y-46844000D01*
X11374168Y-46876454D01*
X11220479Y-46940114D01*
X11145819Y-46990000D01*
X4572000Y-46990000D01*
X4572000Y-42389827D01*
X10540676Y-36421153D01*
X10540676Y-36424603D01*
X10573130Y-36587759D01*
X10636790Y-36741448D01*
X10729210Y-36879764D01*
X10846839Y-36997393D01*
X10985155Y-37089813D01*
X11108714Y-37140993D01*
X11108713Y-37846949D01*
X11058827Y-37921609D01*
X10995167Y-38075298D01*
X10962713Y-38238454D01*
X10962713Y-38404806D01*
X10995167Y-38567962D01*
X11058827Y-38721651D01*
X11151247Y-38859967D01*
X11268876Y-38977596D01*
X11407192Y-39070016D01*
X11560881Y-39133676D01*
X11724037Y-39166130D01*
X11890389Y-39166130D01*
X11922411Y-39159760D01*
X7975844Y-43106329D01*
X7949198Y-43128197D01*
X7927330Y-43154843D01*
X7927326Y-43154847D01*
X7861909Y-43234557D01*
X7797049Y-43355902D01*
X7797049Y-43355903D01*
X7757108Y-43487570D01*
X7747000Y-43590191D01*
X7747000Y-43590202D01*
X7743622Y-43624500D01*
X7747000Y-43658798D01*
X7747000Y-43975319D01*
X7697114Y-44049979D01*
X7633454Y-44203668D01*
X7601000Y-44366824D01*
X7601000Y-44533176D01*
X7633454Y-44696332D01*
X7697114Y-44850021D01*
X7789534Y-44988337D01*
X7907163Y-45105966D01*
X8045479Y-45198386D01*
X8199168Y-45262046D01*
X8362324Y-45294500D01*
X8528676Y-45294500D01*
X8691832Y-45262046D01*
X8845521Y-45198386D01*
X8983837Y-45105966D01*
X9101466Y-44988337D01*
X9193886Y-44850021D01*
X9207500Y-44817154D01*
X9221114Y-44850021D01*
X9313534Y-44988337D01*
X9431163Y-45105966D01*
X9569479Y-45198386D01*
X9723168Y-45262046D01*
X9811236Y-45279564D01*
X10276833Y-45745162D01*
X10298697Y-45771803D01*
X10325337Y-45793666D01*
X10325345Y-45793674D01*
X10405056Y-45859091D01*
X10510308Y-45915349D01*
X10526403Y-45923952D01*
X10658070Y-45963893D01*
X10760691Y-45974000D01*
X10760701Y-45974000D01*
X10794999Y-45977378D01*
X10829297Y-45974000D01*
X12542819Y-45974000D01*
X12617479Y-46023886D01*
X12771168Y-46087546D01*
X12934324Y-46120000D01*
X13100676Y-46120000D01*
X13263832Y-46087546D01*
X13417521Y-46023886D01*
X13555837Y-45931466D01*
X13673466Y-45813837D01*
X13765886Y-45675521D01*
X13829546Y-45521832D01*
X13862000Y-45358676D01*
X13862000Y-45192324D01*
X13829546Y-45029168D01*
X13765886Y-44875479D01*
X13673466Y-44737163D01*
X13555837Y-44619534D01*
X13417521Y-44527114D01*
X13263832Y-44463454D01*
X13100676Y-44431000D01*
X12934324Y-44431000D01*
X12771168Y-44463454D01*
X12617479Y-44527114D01*
X12542819Y-44577000D01*
X11084328Y-44577000D01*
X10799064Y-44291736D01*
X10781546Y-44203668D01*
X10717886Y-44049979D01*
X10625466Y-43911663D01*
X10507837Y-43794034D01*
X10369521Y-43701614D01*
X10215832Y-43637954D01*
X10052676Y-43605500D01*
X9886324Y-43605500D01*
X9723168Y-43637954D01*
X9569479Y-43701614D01*
X9431163Y-43794034D01*
X9313534Y-43911663D01*
X9221114Y-44049979D01*
X9207500Y-44082846D01*
X9193886Y-44049979D01*
X9144000Y-43975319D01*
X9144000Y-43913827D01*
X13937765Y-39120064D01*
X14025832Y-39102546D01*
X14179521Y-39038886D01*
X14317837Y-38946466D01*
X14435466Y-38828837D01*
X14527886Y-38690521D01*
X14591546Y-38536832D01*
X14624000Y-38373676D01*
X14624000Y-38207324D01*
X14591546Y-38044168D01*
X14527886Y-37890479D01*
X14435466Y-37752163D01*
X14317837Y-37634534D01*
X14179521Y-37542114D01*
X14025832Y-37478454D01*
X13862676Y-37446000D01*
X13696324Y-37446000D01*
X13533168Y-37478454D01*
X13379479Y-37542114D01*
X13241163Y-37634534D01*
X13123534Y-37752163D01*
X13031114Y-37890479D01*
X12967454Y-38044168D01*
X12949936Y-38132235D01*
X12645343Y-38436828D01*
X12651713Y-38404806D01*
X12651713Y-38238454D01*
X12619259Y-38075298D01*
X12555599Y-37921609D01*
X12505713Y-37846949D01*
X12505713Y-36797761D01*
X12509091Y-36763463D01*
X12505713Y-36729165D01*
X12505713Y-36729155D01*
X12495606Y-36626534D01*
X12455665Y-36494867D01*
X12390804Y-36373521D01*
X12303516Y-36267161D01*
X12276865Y-36245289D01*
X12214740Y-36183164D01*
X12197222Y-36095095D01*
X12133562Y-35941406D01*
X12041142Y-35803090D01*
X11923513Y-35685461D01*
X11785197Y-35593041D01*
X11631508Y-35529381D01*
X11468352Y-35496927D01*
X11464902Y-35496927D01*
X11969265Y-34992564D01*
X12057332Y-34975046D01*
X12211021Y-34911386D01*
X12349337Y-34818966D01*
X12466966Y-34701337D01*
X12559386Y-34563021D01*
X12623046Y-34409332D01*
X12655500Y-34246176D01*
X12655500Y-34079824D01*
X12623046Y-33916668D01*
X12559386Y-33762979D01*
X12466966Y-33624663D01*
X12349337Y-33507034D01*
X12211021Y-33414614D01*
X12057332Y-33350954D01*
X12028668Y-33345252D01*
X12028668Y-30511754D01*
X12794033Y-29746390D01*
X12878044Y-29701485D01*
X12965066Y-29630068D01*
X13036483Y-29543046D01*
X13089551Y-29443763D01*
X13099027Y-29412524D01*
X13122230Y-29336035D01*
X13127801Y-29279471D01*
X14243717Y-29279471D01*
X15711959Y-30747714D01*
X15711959Y-30747714D01*
G37*
X15711959Y-30747714D02*
X15650637Y-30788688D01*
X15533008Y-30906317D01*
X15440588Y-31044633D01*
X15376928Y-31198322D01*
X15344474Y-31361478D01*
X15344474Y-31527830D01*
X15376928Y-31690986D01*
X15440588Y-31844675D01*
X15533008Y-31982991D01*
X15617475Y-32067458D01*
X15617474Y-44751755D01*
X14774767Y-45594463D01*
X14655313Y-45594463D01*
X14492157Y-45626917D01*
X14338468Y-45690577D01*
X14200152Y-45782997D01*
X14082523Y-45900626D01*
X13990103Y-46038942D01*
X13926443Y-46192631D01*
X13893989Y-46355787D01*
X13893989Y-46522139D01*
X13926443Y-46685295D01*
X13990103Y-46838984D01*
X14082523Y-46977300D01*
X14200152Y-47094929D01*
X14338468Y-47187349D01*
X14492157Y-47251009D01*
X14655313Y-47283463D01*
X14821665Y-47283463D01*
X14984821Y-47251009D01*
X15138510Y-47187349D01*
X15276826Y-47094929D01*
X15394455Y-46977300D01*
X15486875Y-46838984D01*
X15524455Y-46748259D01*
X15536534Y-46766337D01*
X15654163Y-46883966D01*
X15792479Y-46976386D01*
X15946168Y-47040046D01*
X16109324Y-47072500D01*
X16275676Y-47072500D01*
X16438832Y-47040046D01*
X16592521Y-46976386D01*
X16730837Y-46883966D01*
X16848466Y-46766337D01*
X16940886Y-46628021D01*
X17004546Y-46474332D01*
X17037000Y-46311176D01*
X17037000Y-46191723D01*
X17109170Y-46119553D01*
X17130979Y-46101655D01*
X17202396Y-46014633D01*
X17255464Y-45915350D01*
X17288143Y-45807622D01*
X17296412Y-45723662D01*
X17296412Y-45723661D01*
X17299177Y-45695589D01*
X17296412Y-45667517D01*
X17296412Y-42068634D01*
X22602034Y-47374257D01*
X22619933Y-47396067D01*
X22697413Y-47459653D01*
X22706955Y-47467484D01*
X22806238Y-47520552D01*
X22833350Y-47528776D01*
X22833350Y-47840000D01*
X22841932Y-47927137D01*
X22867349Y-48010926D01*
X22908624Y-48088145D01*
X22964171Y-48155829D01*
X23031855Y-48211376D01*
X23109074Y-48252651D01*
X23192863Y-48278068D01*
X23280000Y-48286650D01*
X24930501Y-48286650D01*
X24930501Y-63030500D01*
X469500Y-63030500D01*
X469500Y-60512277D01*
X12209000Y-60512277D01*
X12209000Y-60737723D01*
X12252982Y-60958838D01*
X12339257Y-61167124D01*
X12464509Y-61354576D01*
X12623924Y-61513991D01*
X12811376Y-61639243D01*
X13019662Y-61725518D01*
X13240777Y-61769500D01*
X13466223Y-61769500D01*
X13687338Y-61725518D01*
X13895624Y-61639243D01*
X14083076Y-61513991D01*
X14242491Y-61354576D01*
X14367743Y-61167124D01*
X14454018Y-60958838D01*
X14498000Y-60737723D01*
X14498000Y-60512277D01*
X21189000Y-60512277D01*
X21189000Y-60737723D01*
X21232982Y-60958838D01*
X21319257Y-61167124D01*
X21444509Y-61354576D01*
X21603924Y-61513991D01*
X21791376Y-61639243D01*
X21999662Y-61725518D01*
X22220777Y-61769500D01*
X22446223Y-61769500D01*
X22667338Y-61725518D01*
X22875624Y-61639243D01*
X23063076Y-61513991D01*
X23222491Y-61354576D01*
X23347743Y-61167124D01*
X23434018Y-60958838D01*
X23478000Y-60737723D01*
X23478000Y-60512277D01*
X23434018Y-60291162D01*
X23347743Y-60082876D01*
X23222491Y-59895424D01*
X23063076Y-59736009D01*
X22875624Y-59610757D01*
X22667338Y-59524482D01*
X22446223Y-59480500D01*
X22220777Y-59480500D01*
X21999662Y-59524482D01*
X21791376Y-59610757D01*
X21603924Y-59736009D01*
X21444509Y-59895424D01*
X21319257Y-60082876D01*
X21232982Y-60291162D01*
X21189000Y-60512277D01*
X14498000Y-60512277D01*
X14454018Y-60291162D01*
X14367743Y-60082876D01*
X14242491Y-59895424D01*
X14083076Y-59736009D01*
X13895624Y-59610757D01*
X13687338Y-59524482D01*
X13466223Y-59480500D01*
X13240777Y-59480500D01*
X13019662Y-59524482D01*
X12811376Y-59610757D01*
X12623924Y-59736009D01*
X12464509Y-59895424D01*
X12339257Y-60082876D01*
X12252982Y-60291162D01*
X12209000Y-60512277D01*
X469500Y-60512277D01*
X469500Y-56241324D01*
X15475000Y-56241324D01*
X15475000Y-56407676D01*
X15507454Y-56570832D01*
X15571114Y-56724521D01*
X15663534Y-56862837D01*
X15781163Y-56980466D01*
X15919479Y-57072886D01*
X16073168Y-57136546D01*
X16236324Y-57169000D01*
X16402676Y-57169000D01*
X16565832Y-57136546D01*
X16719521Y-57072886D01*
X16857837Y-56980466D01*
X16942303Y-56896000D01*
X18329241Y-56896000D01*
X18357315Y-56898765D01*
X18385389Y-56896000D01*
X18469349Y-56887731D01*
X18577077Y-56855052D01*
X18676360Y-56801984D01*
X18763382Y-56730567D01*
X18781285Y-56708752D01*
X18904040Y-56585997D01*
X18967479Y-56628386D01*
X19121168Y-56692046D01*
X19284324Y-56724500D01*
X19450676Y-56724500D01*
X19613832Y-56692046D01*
X19767521Y-56628386D01*
X19905837Y-56535966D01*
X20023466Y-56418337D01*
X20115886Y-56280021D01*
X20179546Y-56126332D01*
X20212000Y-55963176D01*
X20212000Y-55796824D01*
X20179546Y-55633668D01*
X20115886Y-55479979D01*
X20023466Y-55341663D01*
X19905837Y-55224034D01*
X19767521Y-55131614D01*
X19613832Y-55067954D01*
X19450676Y-55035500D01*
X19284324Y-55035500D01*
X19121168Y-55067954D01*
X18967479Y-55131614D01*
X18829163Y-55224034D01*
X18741524Y-55311673D01*
X18689781Y-55316769D01*
X18582053Y-55349448D01*
X18482770Y-55402516D01*
X18395748Y-55473933D01*
X18377849Y-55495743D01*
X18120593Y-55753000D01*
X17975112Y-55753000D01*
X17989500Y-55680666D01*
X17989500Y-55514314D01*
X17957046Y-55351158D01*
X17893386Y-55197469D01*
X17800966Y-55059153D01*
X17780000Y-55038187D01*
X17780000Y-53334437D01*
X20524000Y-53334437D01*
X20524000Y-53515563D01*
X20559336Y-53693208D01*
X20628650Y-53860547D01*
X20729278Y-54011147D01*
X20857353Y-54139222D01*
X20935108Y-54191176D01*
X20872982Y-54341162D01*
X20829000Y-54562277D01*
X20829000Y-54787723D01*
X20872982Y-55008838D01*
X20959257Y-55217124D01*
X21084509Y-55404576D01*
X21243924Y-55563991D01*
X21431376Y-55689243D01*
X21639662Y-55775518D01*
X21860777Y-55819500D01*
X22086223Y-55819500D01*
X22307338Y-55775518D01*
X22515624Y-55689243D01*
X22703076Y-55563991D01*
X22862491Y-55404576D01*
X22987743Y-55217124D01*
X23074018Y-55008838D01*
X23118000Y-54787723D01*
X23118000Y-54562277D01*
X23074018Y-54341162D01*
X22987743Y-54132876D01*
X22862491Y-53945424D01*
X22703076Y-53786009D01*
X22515624Y-53660757D01*
X22347935Y-53591298D01*
X22363000Y-53515563D01*
X22363000Y-53334437D01*
X22327664Y-53156792D01*
X22258350Y-52989453D01*
X22157722Y-52838853D01*
X22029647Y-52710778D01*
X21879047Y-52610150D01*
X21711708Y-52540836D01*
X21534063Y-52505500D01*
X21352937Y-52505500D01*
X21175292Y-52540836D01*
X21007953Y-52610150D01*
X20857353Y-52710778D01*
X20729278Y-52838853D01*
X20628650Y-52989453D01*
X20559336Y-53156792D01*
X20524000Y-53334437D01*
X17780000Y-53334437D01*
X17780000Y-50152803D01*
X17864466Y-50068337D01*
X17956886Y-49930021D01*
X18020546Y-49776332D01*
X18053000Y-49613176D01*
X18053000Y-49446824D01*
X18020546Y-49283668D01*
X17956886Y-49129979D01*
X17864466Y-48991663D01*
X17746837Y-48874034D01*
X17608521Y-48781614D01*
X17454832Y-48717954D01*
X17291676Y-48685500D01*
X17125324Y-48685500D01*
X16962168Y-48717954D01*
X16808479Y-48781614D01*
X16670163Y-48874034D01*
X16552534Y-48991663D01*
X16460114Y-49129979D01*
X16396454Y-49283668D01*
X16364000Y-49446824D01*
X16364000Y-49613176D01*
X16396454Y-49776332D01*
X16460114Y-49930021D01*
X16552534Y-50068337D01*
X16637000Y-50152803D01*
X16637001Y-54921253D01*
X16606663Y-54941524D01*
X16489034Y-55059153D01*
X16396614Y-55197469D01*
X16332954Y-55351158D01*
X16307326Y-55480000D01*
X16236324Y-55480000D01*
X16073168Y-55512454D01*
X15919479Y-55576114D01*
X15781163Y-55668534D01*
X15663534Y-55786163D01*
X15571114Y-55924479D01*
X15507454Y-56078168D01*
X15475000Y-56241324D01*
X469500Y-56241324D01*
X469500Y-54562277D01*
X12569000Y-54562277D01*
X12569000Y-54787723D01*
X12612982Y-55008838D01*
X12699257Y-55217124D01*
X12824509Y-55404576D01*
X12983924Y-55563991D01*
X13171376Y-55689243D01*
X13379662Y-55775518D01*
X13600777Y-55819500D01*
X13826223Y-55819500D01*
X14047338Y-55775518D01*
X14255624Y-55689243D01*
X14443076Y-55563991D01*
X14602491Y-55404576D01*
X14727743Y-55217124D01*
X14814018Y-55008838D01*
X14858000Y-54787723D01*
X14858000Y-54562277D01*
X14814018Y-54341162D01*
X14727743Y-54132876D01*
X14678792Y-54059616D01*
X14734027Y-54022709D01*
X14841209Y-53915527D01*
X14925422Y-53789495D01*
X14983428Y-53649455D01*
X15013000Y-53500789D01*
X15013000Y-53349211D01*
X14983428Y-53200545D01*
X14925422Y-53060505D01*
X14841209Y-52934473D01*
X14734027Y-52827291D01*
X14607995Y-52743078D01*
X14467955Y-52685072D01*
X14319289Y-52655500D01*
X14167711Y-52655500D01*
X14019045Y-52685072D01*
X13879005Y-52743078D01*
X13752973Y-52827291D01*
X13645791Y-52934473D01*
X13561578Y-53060505D01*
X13503572Y-53200545D01*
X13474000Y-53349211D01*
X13474000Y-53500789D01*
X13484510Y-53553627D01*
X13379662Y-53574482D01*
X13171376Y-53660757D01*
X12983924Y-53786009D01*
X12824509Y-53945424D01*
X12699257Y-54132876D01*
X12612982Y-54341162D01*
X12569000Y-54562277D01*
X469500Y-54562277D01*
X469500Y-48007667D01*
X547335Y-48071545D01*
X772220Y-48191748D01*
X1016234Y-48265769D01*
X1206411Y-48284500D01*
X1333589Y-48284500D01*
X1523766Y-48265769D01*
X1558145Y-48255340D01*
X1578556Y-48272091D01*
X1699901Y-48336951D01*
X1699903Y-48336952D01*
X1831570Y-48376893D01*
X1934191Y-48387000D01*
X1934201Y-48387000D01*
X1968499Y-48390378D01*
X2002797Y-48387000D01*
X3839191Y-48387000D01*
X3873500Y-48390379D01*
X3907808Y-48387000D01*
X11145819Y-48387000D01*
X11220479Y-48436886D01*
X11374168Y-48500546D01*
X11537324Y-48533000D01*
X11703676Y-48533000D01*
X11866832Y-48500546D01*
X12020521Y-48436886D01*
X12158837Y-48344466D01*
X12276466Y-48226837D01*
X12368886Y-48088521D01*
X12432546Y-47934832D01*
X12465000Y-47771676D01*
X12465000Y-47605324D01*
X12432546Y-47442168D01*
X12368886Y-47288479D01*
X12276466Y-47150163D01*
X12158837Y-47032534D01*
X12020521Y-46940114D01*
X11866832Y-46876454D01*
X11703676Y-46844000D01*
X11537324Y-46844000D01*
X11374168Y-46876454D01*
X11220479Y-46940114D01*
X11145819Y-46990000D01*
X4572000Y-46990000D01*
X4572000Y-42389827D01*
X10540676Y-36421153D01*
X10540676Y-36424603D01*
X10573130Y-36587759D01*
X10636790Y-36741448D01*
X10729210Y-36879764D01*
X10846839Y-36997393D01*
X10985155Y-37089813D01*
X11108714Y-37140993D01*
X11108713Y-37846949D01*
X11058827Y-37921609D01*
X10995167Y-38075298D01*
X10962713Y-38238454D01*
X10962713Y-38404806D01*
X10995167Y-38567962D01*
X11058827Y-38721651D01*
X11151247Y-38859967D01*
X11268876Y-38977596D01*
X11407192Y-39070016D01*
X11560881Y-39133676D01*
X11724037Y-39166130D01*
X11890389Y-39166130D01*
X11922411Y-39159760D01*
X7975844Y-43106329D01*
X7949198Y-43128197D01*
X7927330Y-43154843D01*
X7927326Y-43154847D01*
X7861909Y-43234557D01*
X7797049Y-43355902D01*
X7797049Y-43355903D01*
X7757108Y-43487570D01*
X7747000Y-43590191D01*
X7747000Y-43590202D01*
X7743622Y-43624500D01*
X7747000Y-43658798D01*
X7747000Y-43975319D01*
X7697114Y-44049979D01*
X7633454Y-44203668D01*
X7601000Y-44366824D01*
X7601000Y-44533176D01*
X7633454Y-44696332D01*
X7697114Y-44850021D01*
X7789534Y-44988337D01*
X7907163Y-45105966D01*
X8045479Y-45198386D01*
X8199168Y-45262046D01*
X8362324Y-45294500D01*
X8528676Y-45294500D01*
X8691832Y-45262046D01*
X8845521Y-45198386D01*
X8983837Y-45105966D01*
X9101466Y-44988337D01*
X9193886Y-44850021D01*
X9207500Y-44817154D01*
X9221114Y-44850021D01*
X9313534Y-44988337D01*
X9431163Y-45105966D01*
X9569479Y-45198386D01*
X9723168Y-45262046D01*
X9811236Y-45279564D01*
X10276833Y-45745162D01*
X10298697Y-45771803D01*
X10325337Y-45793666D01*
X10325345Y-45793674D01*
X10405056Y-45859091D01*
X10510308Y-45915349D01*
X10526403Y-45923952D01*
X10658070Y-45963893D01*
X10760691Y-45974000D01*
X10760701Y-45974000D01*
X10794999Y-45977378D01*
X10829297Y-45974000D01*
X12542819Y-45974000D01*
X12617479Y-46023886D01*
X12771168Y-46087546D01*
X12934324Y-46120000D01*
X13100676Y-46120000D01*
X13263832Y-46087546D01*
X13417521Y-46023886D01*
X13555837Y-45931466D01*
X13673466Y-45813837D01*
X13765886Y-45675521D01*
X13829546Y-45521832D01*
X13862000Y-45358676D01*
X13862000Y-45192324D01*
X13829546Y-45029168D01*
X13765886Y-44875479D01*
X13673466Y-44737163D01*
X13555837Y-44619534D01*
X13417521Y-44527114D01*
X13263832Y-44463454D01*
X13100676Y-44431000D01*
X12934324Y-44431000D01*
X12771168Y-44463454D01*
X12617479Y-44527114D01*
X12542819Y-44577000D01*
X11084328Y-44577000D01*
X10799064Y-44291736D01*
X10781546Y-44203668D01*
X10717886Y-44049979D01*
X10625466Y-43911663D01*
X10507837Y-43794034D01*
X10369521Y-43701614D01*
X10215832Y-43637954D01*
X10052676Y-43605500D01*
X9886324Y-43605500D01*
X9723168Y-43637954D01*
X9569479Y-43701614D01*
X9431163Y-43794034D01*
X9313534Y-43911663D01*
X9221114Y-44049979D01*
X9207500Y-44082846D01*
X9193886Y-44049979D01*
X9144000Y-43975319D01*
X9144000Y-43913827D01*
X13937765Y-39120064D01*
X14025832Y-39102546D01*
X14179521Y-39038886D01*
X14317837Y-38946466D01*
X14435466Y-38828837D01*
X14527886Y-38690521D01*
X14591546Y-38536832D01*
X14624000Y-38373676D01*
X14624000Y-38207324D01*
X14591546Y-38044168D01*
X14527886Y-37890479D01*
X14435466Y-37752163D01*
X14317837Y-37634534D01*
X14179521Y-37542114D01*
X14025832Y-37478454D01*
X13862676Y-37446000D01*
X13696324Y-37446000D01*
X13533168Y-37478454D01*
X13379479Y-37542114D01*
X13241163Y-37634534D01*
X13123534Y-37752163D01*
X13031114Y-37890479D01*
X12967454Y-38044168D01*
X12949936Y-38132235D01*
X12645343Y-38436828D01*
X12651713Y-38404806D01*
X12651713Y-38238454D01*
X12619259Y-38075298D01*
X12555599Y-37921609D01*
X12505713Y-37846949D01*
X12505713Y-36797761D01*
X12509091Y-36763463D01*
X12505713Y-36729165D01*
X12505713Y-36729155D01*
X12495606Y-36626534D01*
X12455665Y-36494867D01*
X12390804Y-36373521D01*
X12303516Y-36267161D01*
X12276865Y-36245289D01*
X12214740Y-36183164D01*
X12197222Y-36095095D01*
X12133562Y-35941406D01*
X12041142Y-35803090D01*
X11923513Y-35685461D01*
X11785197Y-35593041D01*
X11631508Y-35529381D01*
X11468352Y-35496927D01*
X11464902Y-35496927D01*
X11969265Y-34992564D01*
X12057332Y-34975046D01*
X12211021Y-34911386D01*
X12349337Y-34818966D01*
X12466966Y-34701337D01*
X12559386Y-34563021D01*
X12623046Y-34409332D01*
X12655500Y-34246176D01*
X12655500Y-34079824D01*
X12623046Y-33916668D01*
X12559386Y-33762979D01*
X12466966Y-33624663D01*
X12349337Y-33507034D01*
X12211021Y-33414614D01*
X12057332Y-33350954D01*
X12028668Y-33345252D01*
X12028668Y-30511754D01*
X12794033Y-29746390D01*
X12878044Y-29701485D01*
X12965066Y-29630068D01*
X13036483Y-29543046D01*
X13089551Y-29443763D01*
X13099027Y-29412524D01*
X13122230Y-29336035D01*
X13127801Y-29279471D01*
X14243717Y-29279471D01*
X15711959Y-30747714D01*
G36*
X23048455Y-547335D02*
G01*
X22928252Y-772220D01*
X22854231Y-1016234D01*
X22829237Y-1270000D01*
X22854231Y-1523766D01*
X22928252Y-1767780D01*
X23048455Y-1992665D01*
X23210222Y-2189778D01*
X23407335Y-2351545D01*
X23632220Y-2471748D01*
X23857216Y-2540000D01*
X23632220Y-2608252D01*
X23407335Y-2728455D01*
X23210222Y-2890222D01*
X23048455Y-3087335D01*
X22928252Y-3312220D01*
X22854231Y-3556234D01*
X22829237Y-3810000D01*
X22854231Y-4063766D01*
X22928252Y-4307780D01*
X23048455Y-4532665D01*
X23210222Y-4729778D01*
X23407335Y-4891545D01*
X23632220Y-5011748D01*
X23857216Y-5080000D01*
X23632220Y-5148252D01*
X23407335Y-5268455D01*
X23210222Y-5430222D01*
X23048455Y-5627335D01*
X22928252Y-5852220D01*
X22854231Y-6096234D01*
X22829237Y-6350000D01*
X22854231Y-6603766D01*
X22928252Y-6847780D01*
X23048455Y-7072665D01*
X23210222Y-7269778D01*
X23407335Y-7431545D01*
X23632220Y-7551748D01*
X23857216Y-7620000D01*
X23632220Y-7688252D01*
X23407335Y-7808455D01*
X23210222Y-7970222D01*
X23048455Y-8167335D01*
X22928252Y-8392220D01*
X22854231Y-8636234D01*
X22829237Y-8890000D01*
X22854231Y-9143766D01*
X22863818Y-9175372D01*
X20013294Y-6324848D01*
X19991422Y-6298197D01*
X19885062Y-6210909D01*
X19763716Y-6146048D01*
X19632049Y-6106107D01*
X19529428Y-6096000D01*
X19529417Y-6096000D01*
X19495119Y-6092622D01*
X19460821Y-6096000D01*
X17937181Y-6096000D01*
X17862521Y-6046114D01*
X17708832Y-5982454D01*
X17545676Y-5950000D01*
X17379324Y-5950000D01*
X17216168Y-5982454D01*
X17062479Y-6046114D01*
X16924163Y-6138534D01*
X16806534Y-6256163D01*
X16714114Y-6394479D01*
X16650454Y-6548168D01*
X16618000Y-6711324D01*
X16618000Y-6877676D01*
X16650454Y-7040832D01*
X16714114Y-7194521D01*
X16806534Y-7332837D01*
X16924163Y-7450466D01*
X17062479Y-7542886D01*
X17216168Y-7606546D01*
X17379324Y-7639000D01*
X17545676Y-7639000D01*
X17708832Y-7606546D01*
X17862521Y-7542886D01*
X17937181Y-7493000D01*
X19205792Y-7493000D01*
X21967621Y-10254830D01*
X21985139Y-10342898D01*
X22048799Y-10496587D01*
X22141219Y-10634903D01*
X22258848Y-10752532D01*
X22397164Y-10844952D01*
X22429872Y-10858500D01*
X17654307Y-10858500D01*
X17415152Y-10619346D01*
X17397249Y-10597531D01*
X17310227Y-10526114D01*
X17210944Y-10473046D01*
X17103216Y-10440367D01*
X17019256Y-10432098D01*
X16991182Y-10429333D01*
X16987456Y-10429700D01*
X16973048Y-10357267D01*
X16909388Y-10203578D01*
X16816968Y-10065262D01*
X16699339Y-9947633D01*
X16561023Y-9855213D01*
X16407334Y-9791553D01*
X16244178Y-9759099D01*
X16077826Y-9759099D01*
X15914670Y-9791553D01*
X15760981Y-9855213D01*
X15622665Y-9947633D01*
X15505036Y-10065262D01*
X15412616Y-10203578D01*
X15348956Y-10357267D01*
X15316502Y-10520423D01*
X15316502Y-10686775D01*
X15348956Y-10849931D01*
X15412616Y-11003620D01*
X15505036Y-11141936D01*
X15622665Y-11259565D01*
X15760981Y-11351985D01*
X15914670Y-11415645D01*
X15969052Y-11426462D01*
X15921758Y-11540640D01*
X15889304Y-11703796D01*
X15889304Y-11870148D01*
X15921758Y-12033304D01*
X15985418Y-12186993D01*
X16077838Y-12325309D01*
X16121693Y-12369164D01*
X16115476Y-12378469D01*
X16051816Y-12532158D01*
X16019362Y-12695314D01*
X16019362Y-12861666D01*
X16051816Y-13024822D01*
X16115476Y-13178511D01*
X16207896Y-13316827D01*
X16325525Y-13434456D01*
X16338312Y-13443000D01*
X16299824Y-13443000D01*
X16136668Y-13475454D01*
X15982979Y-13539114D01*
X15844663Y-13631534D01*
X15727034Y-13749163D01*
X15634614Y-13887479D01*
X15570954Y-14041168D01*
X15538500Y-14204324D01*
X15538500Y-14370676D01*
X15570954Y-14533832D01*
X15634614Y-14687521D01*
X15727034Y-14825837D01*
X15844663Y-14943466D01*
X15898451Y-14979406D01*
X15874823Y-14995194D01*
X15757194Y-15112823D01*
X15664774Y-15251139D01*
X15601114Y-15404828D01*
X15568660Y-15567984D01*
X15568660Y-15697259D01*
X15565168Y-15697954D01*
X15411479Y-15761614D01*
X15273163Y-15854034D01*
X15155534Y-15971663D01*
X15063114Y-16109979D01*
X14999454Y-16263668D01*
X14967000Y-16426824D01*
X14967000Y-16593176D01*
X14999454Y-16756332D01*
X15063114Y-16910021D01*
X15155534Y-17048337D01*
X15273163Y-17165966D01*
X15411479Y-17258386D01*
X15565168Y-17322046D01*
X15728324Y-17354500D01*
X15847778Y-17354500D01*
X17722213Y-19228935D01*
X17656414Y-19256190D01*
X17538771Y-19334797D01*
X17418021Y-19254114D01*
X17264332Y-19190454D01*
X17101176Y-19158000D01*
X16934824Y-19158000D01*
X16771668Y-19190454D01*
X16617979Y-19254114D01*
X16479663Y-19346534D01*
X16362034Y-19464163D01*
X16269614Y-19602479D01*
X16205954Y-19756168D01*
X16173500Y-19919324D01*
X16173500Y-20085676D01*
X16205954Y-20248832D01*
X16269614Y-20402521D01*
X16362034Y-20540837D01*
X16415684Y-20594487D01*
X16415683Y-23427718D01*
X16339176Y-23412500D01*
X16172824Y-23412500D01*
X16009668Y-23444954D01*
X15855979Y-23508614D01*
X15717663Y-23601034D01*
X15600034Y-23718663D01*
X15507614Y-23856979D01*
X15443954Y-24010668D01*
X15424667Y-24107630D01*
X15292551Y-24242557D01*
X15129376Y-24287059D01*
X14447631Y-24321146D01*
X14002631Y-24337628D01*
X14474769Y-23865490D01*
X14496578Y-23847592D01*
X14567995Y-23760570D01*
X14621063Y-23661287D01*
X14653742Y-23553559D01*
X14662011Y-23469599D01*
X14662011Y-23469598D01*
X14664776Y-23441526D01*
X14662011Y-23413454D01*
X14662011Y-16788633D01*
X14746477Y-16704167D01*
X14838897Y-16565851D01*
X14902557Y-16412162D01*
X14935011Y-16249006D01*
X14935011Y-16082654D01*
X14902557Y-15919498D01*
X14838897Y-15765809D01*
X14746477Y-15627493D01*
X14628848Y-15509864D01*
X14490532Y-15417444D01*
X14343994Y-15356746D01*
X14350377Y-15341336D01*
X14382831Y-15178180D01*
X14382831Y-15011828D01*
X14350377Y-14848672D01*
X14286717Y-14694983D01*
X14194297Y-14556667D01*
X14076668Y-14439038D01*
X13938352Y-14346618D01*
X13784663Y-14282958D01*
X13621507Y-14250504D01*
X13455155Y-14250504D01*
X13291999Y-14282958D01*
X13138310Y-14346618D01*
X12999994Y-14439038D01*
X12882365Y-14556667D01*
X12789945Y-14694983D01*
X12726285Y-14848672D01*
X12693831Y-15011828D01*
X12693831Y-15094000D01*
X12636500Y-15094000D01*
X12636500Y-9698222D01*
X16664223Y-5670500D01*
X16783676Y-5670500D01*
X16946832Y-5638046D01*
X17100521Y-5574386D01*
X17238837Y-5481966D01*
X17356466Y-5364337D01*
X17448886Y-5226021D01*
X17512546Y-5072332D01*
X17545000Y-4909176D01*
X17545000Y-4742824D01*
X17512546Y-4579668D01*
X17448886Y-4425979D01*
X17356466Y-4287663D01*
X17238837Y-4170034D01*
X17100521Y-4077614D01*
X16946832Y-4013954D01*
X16783676Y-3981500D01*
X16617324Y-3981500D01*
X16454168Y-4013954D01*
X16300479Y-4077614D01*
X16162163Y-4170034D01*
X16044534Y-4287663D01*
X15952114Y-4425979D01*
X15888454Y-4579668D01*
X15856000Y-4742824D01*
X15856000Y-4862277D01*
X11680748Y-9037530D01*
X11658933Y-9055433D01*
X11613318Y-9111016D01*
X11587516Y-9142456D01*
X11534448Y-9241739D01*
X11501769Y-9349467D01*
X11490735Y-9461500D01*
X11493500Y-9489574D01*
X11493501Y-13781848D01*
X11386176Y-13760500D01*
X11219824Y-13760500D01*
X11056668Y-13792954D01*
X10902979Y-13856614D01*
X10764663Y-13949034D01*
X10647034Y-14066663D01*
X10554614Y-14204979D01*
X10526453Y-14272965D01*
X10498342Y-14261321D01*
X10335186Y-14228867D01*
X10168834Y-14228867D01*
X10005678Y-14261321D01*
X9851989Y-14324981D01*
X9713673Y-14417401D01*
X9596044Y-14535030D01*
X9503624Y-14673346D01*
X9439964Y-14827035D01*
X9407510Y-14990191D01*
X9407510Y-15156543D01*
X9420131Y-15219991D01*
X9415780Y-15234333D01*
X9404746Y-15346366D01*
X9407512Y-15374450D01*
X9407511Y-22355939D01*
X8372677Y-23390774D01*
X8350867Y-23408673D01*
X8322344Y-23443429D01*
X8279449Y-23495696D01*
X8226381Y-23594979D01*
X8193702Y-23702707D01*
X8182668Y-23814740D01*
X8185434Y-23842824D01*
X8185432Y-26850468D01*
X8182667Y-26878543D01*
X8190860Y-26961731D01*
X8193701Y-26990576D01*
X8226380Y-27098304D01*
X8279448Y-27197587D01*
X8350865Y-27284609D01*
X8372675Y-27302508D01*
X9439002Y-28368836D01*
X9439001Y-29054857D01*
X2363729Y-36130130D01*
X2351545Y-36107335D01*
X2189778Y-35910222D01*
X1992665Y-35748455D01*
X1767780Y-35628252D01*
X1542784Y-35560000D01*
X1767780Y-35491748D01*
X1992665Y-35371545D01*
X2189778Y-35209778D01*
X2351545Y-35012665D01*
X2471748Y-34787780D01*
X2545769Y-34543766D01*
X2570763Y-34290000D01*
X2545769Y-34036234D01*
X2471748Y-33792220D01*
X2351545Y-33567335D01*
X2189778Y-33370222D01*
X1992665Y-33208455D01*
X1767780Y-33088252D01*
X1542784Y-33020000D01*
X1767780Y-32951748D01*
X1992665Y-32831545D01*
X2189778Y-32669778D01*
X2351545Y-32472665D01*
X2471748Y-32247780D01*
X2545769Y-32003766D01*
X2570763Y-31750000D01*
X2545769Y-31496234D01*
X2471748Y-31252220D01*
X2351545Y-31027335D01*
X2189778Y-30830222D01*
X1992665Y-30668455D01*
X1767780Y-30548252D01*
X1542784Y-30480000D01*
X1767780Y-30411748D01*
X1992665Y-30291545D01*
X2189778Y-30129778D01*
X2351545Y-29932665D01*
X2471748Y-29707780D01*
X2545769Y-29463766D01*
X2570763Y-29210000D01*
X2545769Y-28956234D01*
X2496013Y-28792210D01*
X5352812Y-25935412D01*
X5374615Y-25917519D01*
X5393469Y-25894546D01*
X5446032Y-25830497D01*
X5499100Y-25731214D01*
X5531779Y-25623486D01*
X5542813Y-25511452D01*
X5540048Y-25483378D01*
X5540048Y-21777887D01*
X5601614Y-21926521D01*
X5694034Y-22064837D01*
X5811663Y-22182466D01*
X5949979Y-22274886D01*
X6103668Y-22338546D01*
X6266824Y-22371000D01*
X6433176Y-22371000D01*
X6596332Y-22338546D01*
X6750021Y-22274886D01*
X6888337Y-22182466D01*
X7005966Y-22064837D01*
X7098386Y-21926521D01*
X7162046Y-21772832D01*
X7179564Y-21684763D01*
X7219655Y-21644672D01*
X7246301Y-21622804D01*
X7268170Y-21596157D01*
X7268173Y-21596154D01*
X7333590Y-21516445D01*
X7398450Y-21395100D01*
X7399950Y-21390156D01*
X7438392Y-21263431D01*
X7448499Y-21160810D01*
X7448499Y-21160800D01*
X7451877Y-21126502D01*
X7448499Y-21092204D01*
X7448499Y-20719704D01*
X8477890Y-19690314D01*
X8504530Y-19668451D01*
X8526395Y-19641809D01*
X8526402Y-19641802D01*
X8591819Y-19562091D01*
X8619131Y-19510994D01*
X8656680Y-19440745D01*
X8696621Y-19309078D01*
X8706728Y-19206457D01*
X8706728Y-19206446D01*
X8710106Y-19172148D01*
X8706728Y-19137850D01*
X8706728Y-13998099D01*
X9302265Y-13402564D01*
X9390332Y-13385046D01*
X9544021Y-13321386D01*
X9682337Y-13228966D01*
X9799966Y-13111337D01*
X9892386Y-12973021D01*
X9956046Y-12819332D01*
X9988500Y-12656176D01*
X9988500Y-12489824D01*
X9956046Y-12326668D01*
X9892386Y-12172979D01*
X9799966Y-12034663D01*
X9682337Y-11917034D01*
X9544021Y-11824614D01*
X9390332Y-11760954D01*
X9227176Y-11728500D01*
X9060824Y-11728500D01*
X8897668Y-11760954D01*
X8743979Y-11824614D01*
X8605663Y-11917034D01*
X8488034Y-12034663D01*
X8395614Y-12172979D01*
X8331954Y-12326668D01*
X8314436Y-12414735D01*
X7538571Y-13190602D01*
X7511926Y-13212469D01*
X7490058Y-13239115D01*
X7490054Y-13239119D01*
X7424637Y-13318829D01*
X7385577Y-13391905D01*
X7258000Y-13366528D01*
X7258000Y-13315324D01*
X7225546Y-13152168D01*
X7161886Y-12998479D01*
X7069466Y-12860163D01*
X6951837Y-12742534D01*
X6813521Y-12650114D01*
X6659832Y-12586454D01*
X6496676Y-12554000D01*
X6330324Y-12554000D01*
X6167168Y-12586454D01*
X6013479Y-12650114D01*
X5962648Y-12684078D01*
X5962648Y-12117574D01*
X6377223Y-11703000D01*
X6496676Y-11703000D01*
X6659832Y-11670546D01*
X6813521Y-11606886D01*
X6951837Y-11514466D01*
X7069466Y-11396837D01*
X7161886Y-11258521D01*
X7225546Y-11104832D01*
X7258000Y-10941676D01*
X7258000Y-10775324D01*
X7225546Y-10612168D01*
X7161886Y-10458479D01*
X7069466Y-10320163D01*
X6951837Y-10202534D01*
X6900843Y-10168460D01*
X6942466Y-10126837D01*
X7034886Y-9988521D01*
X7098546Y-9834832D01*
X7131000Y-9671676D01*
X7131000Y-9505324D01*
X7098546Y-9342168D01*
X7034886Y-9188479D01*
X6942466Y-9050163D01*
X6824837Y-8932534D01*
X6686521Y-8840114D01*
X6532832Y-8776454D01*
X6369676Y-8744000D01*
X6203324Y-8744000D01*
X6040168Y-8776454D01*
X5886479Y-8840114D01*
X5748163Y-8932534D01*
X5663697Y-9017000D01*
X5298571Y-9017000D01*
X5270499Y-9014235D01*
X5254403Y-9015820D01*
X6377224Y-7893000D01*
X6496676Y-7893000D01*
X6659832Y-7860546D01*
X6813521Y-7796886D01*
X6951837Y-7704466D01*
X7069466Y-7586837D01*
X7161886Y-7448521D01*
X7225546Y-7294832D01*
X7258000Y-7131676D01*
X7258000Y-6965324D01*
X7225546Y-6802168D01*
X7161886Y-6648479D01*
X7069466Y-6510163D01*
X6951837Y-6392534D01*
X6813521Y-6300114D01*
X6659832Y-6236454D01*
X6496676Y-6204000D01*
X6330324Y-6204000D01*
X6167168Y-6236454D01*
X6013479Y-6300114D01*
X5875163Y-6392534D01*
X5757534Y-6510163D01*
X5665114Y-6648479D01*
X5601454Y-6802168D01*
X5569000Y-6965324D01*
X5569000Y-7084776D01*
X2164391Y-10489387D01*
X1992665Y-10348455D01*
X1767780Y-10228252D01*
X1542784Y-10160000D01*
X1767780Y-10091748D01*
X1992665Y-9971545D01*
X2189778Y-9809778D01*
X2351545Y-9612665D01*
X2471748Y-9387780D01*
X2545769Y-9143766D01*
X2570763Y-8890000D01*
X2545769Y-8636234D01*
X2471748Y-8392220D01*
X2351545Y-8167335D01*
X2189778Y-7970222D01*
X1992665Y-7808455D01*
X1767780Y-7688252D01*
X1542784Y-7620000D01*
X1767780Y-7551748D01*
X1992665Y-7431545D01*
X2189778Y-7269778D01*
X2351545Y-7072665D01*
X2471748Y-6847780D01*
X2545769Y-6603766D01*
X2570763Y-6350000D01*
X2545769Y-6096234D01*
X2471748Y-5852220D01*
X2351545Y-5627335D01*
X2189778Y-5430222D01*
X1992665Y-5268455D01*
X1767780Y-5148252D01*
X1542784Y-5080000D01*
X1767780Y-5011748D01*
X1992665Y-4891545D01*
X2189778Y-4729778D01*
X2351545Y-4532665D01*
X2471748Y-4307780D01*
X2545769Y-4063766D01*
X2570763Y-3810000D01*
X2545769Y-3556234D01*
X2471748Y-3312220D01*
X2351545Y-3087335D01*
X2189778Y-2890222D01*
X2106401Y-2821796D01*
X2120000Y-2821880D01*
X2256930Y-2808394D01*
X2388598Y-2768453D01*
X2509944Y-2703592D01*
X2616304Y-2616304D01*
X2703592Y-2509944D01*
X2768453Y-2388598D01*
X2808394Y-2256930D01*
X2821880Y-2120000D01*
X2818500Y-1571625D01*
X2643875Y-1397000D01*
X1397000Y-1397000D01*
X1397000Y-1417000D01*
X1143000Y-1417000D01*
X1143000Y-1397000D01*
X1123000Y-1397000D01*
X1123000Y-1143000D01*
X1143000Y-1143000D01*
X1143000Y-1123000D01*
X1397000Y-1123000D01*
X1397000Y-1143000D01*
X2643875Y-1143000D01*
X2818500Y-968375D01*
X2821575Y-469500D01*
X23112333Y-469500D01*
X23048455Y-547335D01*
X23048455Y-547335D01*
G37*
X23048455Y-547335D02*
X22928252Y-772220D01*
X22854231Y-1016234D01*
X22829237Y-1270000D01*
X22854231Y-1523766D01*
X22928252Y-1767780D01*
X23048455Y-1992665D01*
X23210222Y-2189778D01*
X23407335Y-2351545D01*
X23632220Y-2471748D01*
X23857216Y-2540000D01*
X23632220Y-2608252D01*
X23407335Y-2728455D01*
X23210222Y-2890222D01*
X23048455Y-3087335D01*
X22928252Y-3312220D01*
X22854231Y-3556234D01*
X22829237Y-3810000D01*
X22854231Y-4063766D01*
X22928252Y-4307780D01*
X23048455Y-4532665D01*
X23210222Y-4729778D01*
X23407335Y-4891545D01*
X23632220Y-5011748D01*
X23857216Y-5080000D01*
X23632220Y-5148252D01*
X23407335Y-5268455D01*
X23210222Y-5430222D01*
X23048455Y-5627335D01*
X22928252Y-5852220D01*
X22854231Y-6096234D01*
X22829237Y-6350000D01*
X22854231Y-6603766D01*
X22928252Y-6847780D01*
X23048455Y-7072665D01*
X23210222Y-7269778D01*
X23407335Y-7431545D01*
X23632220Y-7551748D01*
X23857216Y-7620000D01*
X23632220Y-7688252D01*
X23407335Y-7808455D01*
X23210222Y-7970222D01*
X23048455Y-8167335D01*
X22928252Y-8392220D01*
X22854231Y-8636234D01*
X22829237Y-8890000D01*
X22854231Y-9143766D01*
X22863818Y-9175372D01*
X20013294Y-6324848D01*
X19991422Y-6298197D01*
X19885062Y-6210909D01*
X19763716Y-6146048D01*
X19632049Y-6106107D01*
X19529428Y-6096000D01*
X19529417Y-6096000D01*
X19495119Y-6092622D01*
X19460821Y-6096000D01*
X17937181Y-6096000D01*
X17862521Y-6046114D01*
X17708832Y-5982454D01*
X17545676Y-5950000D01*
X17379324Y-5950000D01*
X17216168Y-5982454D01*
X17062479Y-6046114D01*
X16924163Y-6138534D01*
X16806534Y-6256163D01*
X16714114Y-6394479D01*
X16650454Y-6548168D01*
X16618000Y-6711324D01*
X16618000Y-6877676D01*
X16650454Y-7040832D01*
X16714114Y-7194521D01*
X16806534Y-7332837D01*
X16924163Y-7450466D01*
X17062479Y-7542886D01*
X17216168Y-7606546D01*
X17379324Y-7639000D01*
X17545676Y-7639000D01*
X17708832Y-7606546D01*
X17862521Y-7542886D01*
X17937181Y-7493000D01*
X19205792Y-7493000D01*
X21967621Y-10254830D01*
X21985139Y-10342898D01*
X22048799Y-10496587D01*
X22141219Y-10634903D01*
X22258848Y-10752532D01*
X22397164Y-10844952D01*
X22429872Y-10858500D01*
X17654307Y-10858500D01*
X17415152Y-10619346D01*
X17397249Y-10597531D01*
X17310227Y-10526114D01*
X17210944Y-10473046D01*
X17103216Y-10440367D01*
X17019256Y-10432098D01*
X16991182Y-10429333D01*
X16987456Y-10429700D01*
X16973048Y-10357267D01*
X16909388Y-10203578D01*
X16816968Y-10065262D01*
X16699339Y-9947633D01*
X16561023Y-9855213D01*
X16407334Y-9791553D01*
X16244178Y-9759099D01*
X16077826Y-9759099D01*
X15914670Y-9791553D01*
X15760981Y-9855213D01*
X15622665Y-9947633D01*
X15505036Y-10065262D01*
X15412616Y-10203578D01*
X15348956Y-10357267D01*
X15316502Y-10520423D01*
X15316502Y-10686775D01*
X15348956Y-10849931D01*
X15412616Y-11003620D01*
X15505036Y-11141936D01*
X15622665Y-11259565D01*
X15760981Y-11351985D01*
X15914670Y-11415645D01*
X15969052Y-11426462D01*
X15921758Y-11540640D01*
X15889304Y-11703796D01*
X15889304Y-11870148D01*
X15921758Y-12033304D01*
X15985418Y-12186993D01*
X16077838Y-12325309D01*
X16121693Y-12369164D01*
X16115476Y-12378469D01*
X16051816Y-12532158D01*
X16019362Y-12695314D01*
X16019362Y-12861666D01*
X16051816Y-13024822D01*
X16115476Y-13178511D01*
X16207896Y-13316827D01*
X16325525Y-13434456D01*
X16338312Y-13443000D01*
X16299824Y-13443000D01*
X16136668Y-13475454D01*
X15982979Y-13539114D01*
X15844663Y-13631534D01*
X15727034Y-13749163D01*
X15634614Y-13887479D01*
X15570954Y-14041168D01*
X15538500Y-14204324D01*
X15538500Y-14370676D01*
X15570954Y-14533832D01*
X15634614Y-14687521D01*
X15727034Y-14825837D01*
X15844663Y-14943466D01*
X15898451Y-14979406D01*
X15874823Y-14995194D01*
X15757194Y-15112823D01*
X15664774Y-15251139D01*
X15601114Y-15404828D01*
X15568660Y-15567984D01*
X15568660Y-15697259D01*
X15565168Y-15697954D01*
X15411479Y-15761614D01*
X15273163Y-15854034D01*
X15155534Y-15971663D01*
X15063114Y-16109979D01*
X14999454Y-16263668D01*
X14967000Y-16426824D01*
X14967000Y-16593176D01*
X14999454Y-16756332D01*
X15063114Y-16910021D01*
X15155534Y-17048337D01*
X15273163Y-17165966D01*
X15411479Y-17258386D01*
X15565168Y-17322046D01*
X15728324Y-17354500D01*
X15847778Y-17354500D01*
X17722213Y-19228935D01*
X17656414Y-19256190D01*
X17538771Y-19334797D01*
X17418021Y-19254114D01*
X17264332Y-19190454D01*
X17101176Y-19158000D01*
X16934824Y-19158000D01*
X16771668Y-19190454D01*
X16617979Y-19254114D01*
X16479663Y-19346534D01*
X16362034Y-19464163D01*
X16269614Y-19602479D01*
X16205954Y-19756168D01*
X16173500Y-19919324D01*
X16173500Y-20085676D01*
X16205954Y-20248832D01*
X16269614Y-20402521D01*
X16362034Y-20540837D01*
X16415684Y-20594487D01*
X16415683Y-23427718D01*
X16339176Y-23412500D01*
X16172824Y-23412500D01*
X16009668Y-23444954D01*
X15855979Y-23508614D01*
X15717663Y-23601034D01*
X15600034Y-23718663D01*
X15507614Y-23856979D01*
X15443954Y-24010668D01*
X15424667Y-24107630D01*
X15292551Y-24242557D01*
X15129376Y-24287059D01*
X14447631Y-24321146D01*
X14002631Y-24337628D01*
X14474769Y-23865490D01*
X14496578Y-23847592D01*
X14567995Y-23760570D01*
X14621063Y-23661287D01*
X14653742Y-23553559D01*
X14662011Y-23469599D01*
X14662011Y-23469598D01*
X14664776Y-23441526D01*
X14662011Y-23413454D01*
X14662011Y-16788633D01*
X14746477Y-16704167D01*
X14838897Y-16565851D01*
X14902557Y-16412162D01*
X14935011Y-16249006D01*
X14935011Y-16082654D01*
X14902557Y-15919498D01*
X14838897Y-15765809D01*
X14746477Y-15627493D01*
X14628848Y-15509864D01*
X14490532Y-15417444D01*
X14343994Y-15356746D01*
X14350377Y-15341336D01*
X14382831Y-15178180D01*
X14382831Y-15011828D01*
X14350377Y-14848672D01*
X14286717Y-14694983D01*
X14194297Y-14556667D01*
X14076668Y-14439038D01*
X13938352Y-14346618D01*
X13784663Y-14282958D01*
X13621507Y-14250504D01*
X13455155Y-14250504D01*
X13291999Y-14282958D01*
X13138310Y-14346618D01*
X12999994Y-14439038D01*
X12882365Y-14556667D01*
X12789945Y-14694983D01*
X12726285Y-14848672D01*
X12693831Y-15011828D01*
X12693831Y-15094000D01*
X12636500Y-15094000D01*
X12636500Y-9698222D01*
X16664223Y-5670500D01*
X16783676Y-5670500D01*
X16946832Y-5638046D01*
X17100521Y-5574386D01*
X17238837Y-5481966D01*
X17356466Y-5364337D01*
X17448886Y-5226021D01*
X17512546Y-5072332D01*
X17545000Y-4909176D01*
X17545000Y-4742824D01*
X17512546Y-4579668D01*
X17448886Y-4425979D01*
X17356466Y-4287663D01*
X17238837Y-4170034D01*
X17100521Y-4077614D01*
X16946832Y-4013954D01*
X16783676Y-3981500D01*
X16617324Y-3981500D01*
X16454168Y-4013954D01*
X16300479Y-4077614D01*
X16162163Y-4170034D01*
X16044534Y-4287663D01*
X15952114Y-4425979D01*
X15888454Y-4579668D01*
X15856000Y-4742824D01*
X15856000Y-4862277D01*
X11680748Y-9037530D01*
X11658933Y-9055433D01*
X11613318Y-9111016D01*
X11587516Y-9142456D01*
X11534448Y-9241739D01*
X11501769Y-9349467D01*
X11490735Y-9461500D01*
X11493500Y-9489574D01*
X11493501Y-13781848D01*
X11386176Y-13760500D01*
X11219824Y-13760500D01*
X11056668Y-13792954D01*
X10902979Y-13856614D01*
X10764663Y-13949034D01*
X10647034Y-14066663D01*
X10554614Y-14204979D01*
X10526453Y-14272965D01*
X10498342Y-14261321D01*
X10335186Y-14228867D01*
X10168834Y-14228867D01*
X10005678Y-14261321D01*
X9851989Y-14324981D01*
X9713673Y-14417401D01*
X9596044Y-14535030D01*
X9503624Y-14673346D01*
X9439964Y-14827035D01*
X9407510Y-14990191D01*
X9407510Y-15156543D01*
X9420131Y-15219991D01*
X9415780Y-15234333D01*
X9404746Y-15346366D01*
X9407512Y-15374450D01*
X9407511Y-22355939D01*
X8372677Y-23390774D01*
X8350867Y-23408673D01*
X8322344Y-23443429D01*
X8279449Y-23495696D01*
X8226381Y-23594979D01*
X8193702Y-23702707D01*
X8182668Y-23814740D01*
X8185434Y-23842824D01*
X8185432Y-26850468D01*
X8182667Y-26878543D01*
X8190860Y-26961731D01*
X8193701Y-26990576D01*
X8226380Y-27098304D01*
X8279448Y-27197587D01*
X8350865Y-27284609D01*
X8372675Y-27302508D01*
X9439002Y-28368836D01*
X9439001Y-29054857D01*
X2363729Y-36130130D01*
X2351545Y-36107335D01*
X2189778Y-35910222D01*
X1992665Y-35748455D01*
X1767780Y-35628252D01*
X1542784Y-35560000D01*
X1767780Y-35491748D01*
X1992665Y-35371545D01*
X2189778Y-35209778D01*
X2351545Y-35012665D01*
X2471748Y-34787780D01*
X2545769Y-34543766D01*
X2570763Y-34290000D01*
X2545769Y-34036234D01*
X2471748Y-33792220D01*
X2351545Y-33567335D01*
X2189778Y-33370222D01*
X1992665Y-33208455D01*
X1767780Y-33088252D01*
X1542784Y-33020000D01*
X1767780Y-32951748D01*
X1992665Y-32831545D01*
X2189778Y-32669778D01*
X2351545Y-32472665D01*
X2471748Y-32247780D01*
X2545769Y-32003766D01*
X2570763Y-31750000D01*
X2545769Y-31496234D01*
X2471748Y-31252220D01*
X2351545Y-31027335D01*
X2189778Y-30830222D01*
X1992665Y-30668455D01*
X1767780Y-30548252D01*
X1542784Y-30480000D01*
X1767780Y-30411748D01*
X1992665Y-30291545D01*
X2189778Y-30129778D01*
X2351545Y-29932665D01*
X2471748Y-29707780D01*
X2545769Y-29463766D01*
X2570763Y-29210000D01*
X2545769Y-28956234D01*
X2496013Y-28792210D01*
X5352812Y-25935412D01*
X5374615Y-25917519D01*
X5393469Y-25894546D01*
X5446032Y-25830497D01*
X5499100Y-25731214D01*
X5531779Y-25623486D01*
X5542813Y-25511452D01*
X5540048Y-25483378D01*
X5540048Y-21777887D01*
X5601614Y-21926521D01*
X5694034Y-22064837D01*
X5811663Y-22182466D01*
X5949979Y-22274886D01*
X6103668Y-22338546D01*
X6266824Y-22371000D01*
X6433176Y-22371000D01*
X6596332Y-22338546D01*
X6750021Y-22274886D01*
X6888337Y-22182466D01*
X7005966Y-22064837D01*
X7098386Y-21926521D01*
X7162046Y-21772832D01*
X7179564Y-21684763D01*
X7219655Y-21644672D01*
X7246301Y-21622804D01*
X7268170Y-21596157D01*
X7268173Y-21596154D01*
X7333590Y-21516445D01*
X7398450Y-21395100D01*
X7399950Y-21390156D01*
X7438392Y-21263431D01*
X7448499Y-21160810D01*
X7448499Y-21160800D01*
X7451877Y-21126502D01*
X7448499Y-21092204D01*
X7448499Y-20719704D01*
X8477890Y-19690314D01*
X8504530Y-19668451D01*
X8526395Y-19641809D01*
X8526402Y-19641802D01*
X8591819Y-19562091D01*
X8619131Y-19510994D01*
X8656680Y-19440745D01*
X8696621Y-19309078D01*
X8706728Y-19206457D01*
X8706728Y-19206446D01*
X8710106Y-19172148D01*
X8706728Y-19137850D01*
X8706728Y-13998099D01*
X9302265Y-13402564D01*
X9390332Y-13385046D01*
X9544021Y-13321386D01*
X9682337Y-13228966D01*
X9799966Y-13111337D01*
X9892386Y-12973021D01*
X9956046Y-12819332D01*
X9988500Y-12656176D01*
X9988500Y-12489824D01*
X9956046Y-12326668D01*
X9892386Y-12172979D01*
X9799966Y-12034663D01*
X9682337Y-11917034D01*
X9544021Y-11824614D01*
X9390332Y-11760954D01*
X9227176Y-11728500D01*
X9060824Y-11728500D01*
X8897668Y-11760954D01*
X8743979Y-11824614D01*
X8605663Y-11917034D01*
X8488034Y-12034663D01*
X8395614Y-12172979D01*
X8331954Y-12326668D01*
X8314436Y-12414735D01*
X7538571Y-13190602D01*
X7511926Y-13212469D01*
X7490058Y-13239115D01*
X7490054Y-13239119D01*
X7424637Y-13318829D01*
X7385577Y-13391905D01*
X7258000Y-13366528D01*
X7258000Y-13315324D01*
X7225546Y-13152168D01*
X7161886Y-12998479D01*
X7069466Y-12860163D01*
X6951837Y-12742534D01*
X6813521Y-12650114D01*
X6659832Y-12586454D01*
X6496676Y-12554000D01*
X6330324Y-12554000D01*
X6167168Y-12586454D01*
X6013479Y-12650114D01*
X5962648Y-12684078D01*
X5962648Y-12117574D01*
X6377223Y-11703000D01*
X6496676Y-11703000D01*
X6659832Y-11670546D01*
X6813521Y-11606886D01*
X6951837Y-11514466D01*
X7069466Y-11396837D01*
X7161886Y-11258521D01*
X7225546Y-11104832D01*
X7258000Y-10941676D01*
X7258000Y-10775324D01*
X7225546Y-10612168D01*
X7161886Y-10458479D01*
X7069466Y-10320163D01*
X6951837Y-10202534D01*
X6900843Y-10168460D01*
X6942466Y-10126837D01*
X7034886Y-9988521D01*
X7098546Y-9834832D01*
X7131000Y-9671676D01*
X7131000Y-9505324D01*
X7098546Y-9342168D01*
X7034886Y-9188479D01*
X6942466Y-9050163D01*
X6824837Y-8932534D01*
X6686521Y-8840114D01*
X6532832Y-8776454D01*
X6369676Y-8744000D01*
X6203324Y-8744000D01*
X6040168Y-8776454D01*
X5886479Y-8840114D01*
X5748163Y-8932534D01*
X5663697Y-9017000D01*
X5298571Y-9017000D01*
X5270499Y-9014235D01*
X5254403Y-9015820D01*
X6377224Y-7893000D01*
X6496676Y-7893000D01*
X6659832Y-7860546D01*
X6813521Y-7796886D01*
X6951837Y-7704466D01*
X7069466Y-7586837D01*
X7161886Y-7448521D01*
X7225546Y-7294832D01*
X7258000Y-7131676D01*
X7258000Y-6965324D01*
X7225546Y-6802168D01*
X7161886Y-6648479D01*
X7069466Y-6510163D01*
X6951837Y-6392534D01*
X6813521Y-6300114D01*
X6659832Y-6236454D01*
X6496676Y-6204000D01*
X6330324Y-6204000D01*
X6167168Y-6236454D01*
X6013479Y-6300114D01*
X5875163Y-6392534D01*
X5757534Y-6510163D01*
X5665114Y-6648479D01*
X5601454Y-6802168D01*
X5569000Y-6965324D01*
X5569000Y-7084776D01*
X2164391Y-10489387D01*
X1992665Y-10348455D01*
X1767780Y-10228252D01*
X1542784Y-10160000D01*
X1767780Y-10091748D01*
X1992665Y-9971545D01*
X2189778Y-9809778D01*
X2351545Y-9612665D01*
X2471748Y-9387780D01*
X2545769Y-9143766D01*
X2570763Y-8890000D01*
X2545769Y-8636234D01*
X2471748Y-8392220D01*
X2351545Y-8167335D01*
X2189778Y-7970222D01*
X1992665Y-7808455D01*
X1767780Y-7688252D01*
X1542784Y-7620000D01*
X1767780Y-7551748D01*
X1992665Y-7431545D01*
X2189778Y-7269778D01*
X2351545Y-7072665D01*
X2471748Y-6847780D01*
X2545769Y-6603766D01*
X2570763Y-6350000D01*
X2545769Y-6096234D01*
X2471748Y-5852220D01*
X2351545Y-5627335D01*
X2189778Y-5430222D01*
X1992665Y-5268455D01*
X1767780Y-5148252D01*
X1542784Y-5080000D01*
X1767780Y-5011748D01*
X1992665Y-4891545D01*
X2189778Y-4729778D01*
X2351545Y-4532665D01*
X2471748Y-4307780D01*
X2545769Y-4063766D01*
X2570763Y-3810000D01*
X2545769Y-3556234D01*
X2471748Y-3312220D01*
X2351545Y-3087335D01*
X2189778Y-2890222D01*
X2106401Y-2821796D01*
X2120000Y-2821880D01*
X2256930Y-2808394D01*
X2388598Y-2768453D01*
X2509944Y-2703592D01*
X2616304Y-2616304D01*
X2703592Y-2509944D01*
X2768453Y-2388598D01*
X2808394Y-2256930D01*
X2821880Y-2120000D01*
X2818500Y-1571625D01*
X2643875Y-1397000D01*
X1397000Y-1397000D01*
X1397000Y-1417000D01*
X1143000Y-1417000D01*
X1143000Y-1397000D01*
X1123000Y-1397000D01*
X1123000Y-1143000D01*
X1143000Y-1143000D01*
X1143000Y-1123000D01*
X1397000Y-1123000D01*
X1397000Y-1143000D01*
X2643875Y-1143000D01*
X2818500Y-968375D01*
X2821575Y-469500D01*
X23112333Y-469500D01*
X23048455Y-547335D01*
M02*
