G04 #@! TF.GenerationSoftware,KiCad,Pcbnew,(5.1.4-0-10_14)*
G04 #@! TF.CreationDate,2019-11-01T18:28:51-07:00*
G04 #@! TF.ProjectId,esp32-generic-board,65737033-322d-4676-956e-657269632d62,rev?*
G04 #@! TF.SameCoordinates,Original*
G04 #@! TF.FileFunction,Copper,L2,Bot*
G04 #@! TF.FilePolarity,Positive*
%FSLAX46Y46*%
G04 Gerber Fmt 4.6, Leading zero omitted, Abs format (unit mm)*
G04 Created by KiCad (PCBNEW (5.1.4-0-10_14)) date 2019-11-01 18:28:51*
%MOMM*%
%LPD*%
G04 APERTURE LIST*
%ADD10R,1.700000X1.700000*%
%ADD11O,1.700000X1.700000*%
%ADD12C,1.400000*%
%ADD13C,0.800000*%
%ADD14C,0.508000*%
%ADD15C,0.254000*%
%ADD16C,0.381000*%
G04 APERTURE END LIST*
D10*
X1270000Y-1270000D03*
D11*
X1270000Y-3810000D03*
X1270000Y-6350000D03*
X1270000Y-8890000D03*
X1270000Y-11430000D03*
X1270000Y-13970000D03*
X1270000Y-16510000D03*
X1270000Y-19050000D03*
X1270000Y-21590000D03*
X1270000Y-24130000D03*
X1270000Y-26670000D03*
X1270000Y-29210000D03*
X1270000Y-31750000D03*
X1270000Y-34290000D03*
X1270000Y-36830000D03*
X1270000Y-39370000D03*
X1270000Y-41910000D03*
X1270000Y-44450000D03*
X1270000Y-46990000D03*
D12*
X13713500Y-54675000D03*
X21973500Y-54675000D03*
X22333500Y-60625000D03*
X13353500Y-60625000D03*
D11*
X24130000Y-1270000D03*
X24130000Y-3810000D03*
X24130000Y-6350000D03*
X24130000Y-8890000D03*
X24130000Y-11430000D03*
X24130000Y-13970000D03*
X24130000Y-16510000D03*
X24130000Y-19050000D03*
X24130000Y-21590000D03*
X24130000Y-24130000D03*
X24130000Y-26670000D03*
X24130000Y-29210000D03*
X24130000Y-31750000D03*
X24130000Y-34290000D03*
X24130000Y-36830000D03*
X24130000Y-39370000D03*
X24130000Y-41910000D03*
X24130000Y-44450000D03*
D10*
X24130000Y-46990000D03*
D13*
X9271000Y-31686500D03*
X10668000Y-30099000D03*
X8445500Y-44450000D03*
X13779500Y-38290500D03*
X15566792Y-34163000D03*
X6350000Y-21526500D03*
X9144000Y-12573000D03*
X17462500Y-6794500D03*
X22797185Y-10096566D03*
X19367500Y-55880000D03*
X16319500Y-56324500D03*
X11620500Y-47688500D03*
X11811000Y-34163000D03*
X11811000Y-34163000D03*
X18382835Y-34236175D03*
X18605500Y-32702500D03*
X3365500Y-32829500D03*
X6096000Y-25654000D03*
X14738489Y-46438963D03*
X17208500Y-49530000D03*
X16192500Y-46228000D03*
X6413500Y-7048500D03*
X6286500Y-9588500D03*
X6413500Y-10858500D03*
X6413500Y-13398500D03*
X7154227Y-14206931D03*
X7026171Y-15250181D03*
X10252010Y-15073367D03*
X10706021Y-16050219D03*
X11303000Y-14605000D03*
X12182489Y-25247422D03*
X12122011Y-30289268D03*
X16700500Y-4826000D03*
X16161002Y-10603599D03*
X13538331Y-15095004D03*
X13995479Y-26218946D03*
X16733804Y-11786972D03*
X16863862Y-12778490D03*
X16383000Y-14287500D03*
X17743115Y-14357577D03*
X19599996Y-16024779D03*
X18910711Y-15297769D03*
X17413142Y-15301580D03*
X16413160Y-15651160D03*
X15811500Y-16510000D03*
X15903510Y-25493341D03*
X14090511Y-16165830D03*
X12614043Y-15938500D03*
X13017500Y-45275500D03*
X9969500Y-44450000D03*
X11807213Y-38321630D03*
X11385176Y-36341427D03*
X16446500Y-28638500D03*
X15176500Y-24574500D03*
X18732500Y-27178000D03*
X15798967Y-30624158D03*
X17145000Y-55597490D03*
X15800136Y-38524693D03*
X15432830Y-37574779D03*
X18161000Y-30797500D03*
X18056435Y-20004576D03*
D14*
X9271000Y-31686500D02*
X10321991Y-30635509D01*
X10268001Y-30581519D02*
X10321991Y-30635509D01*
X10268001Y-30498999D02*
X10268001Y-30581519D01*
X10668000Y-30099000D02*
X10268001Y-30498999D01*
X8445500Y-43624500D02*
X13779500Y-38290500D01*
X8445500Y-44450000D02*
X8445500Y-43624500D01*
X15166793Y-34562999D02*
X15566792Y-34163000D01*
X13779500Y-38290500D02*
X13779500Y-35950292D01*
X13779500Y-35950292D02*
X15166793Y-34562999D01*
X8008228Y-13708772D02*
X9144000Y-12573000D01*
X8008228Y-19172148D02*
X8008228Y-13708772D01*
X19495119Y-6794500D02*
X22797185Y-10096566D01*
X17462500Y-6794500D02*
X19495119Y-6794500D01*
X6749999Y-20430377D02*
X8008228Y-19172148D01*
X6749999Y-21126501D02*
X6749999Y-20430377D01*
X6350000Y-21526500D02*
X6749999Y-21126501D01*
D15*
X18357315Y-56324500D02*
X16319500Y-56324500D01*
X18801815Y-55880000D02*
X18357315Y-56324500D01*
X19367500Y-55880000D02*
X18801815Y-55880000D01*
D14*
X1968500Y-47688500D02*
X1270000Y-46990000D01*
X11620500Y-47688500D02*
X3873500Y-47688500D01*
X3873500Y-42100500D02*
X11811000Y-34163000D01*
X3873500Y-47688500D02*
X3873500Y-42100500D01*
X3873500Y-47688500D02*
X1968500Y-47688500D01*
X18382835Y-34236175D02*
X18382835Y-32925165D01*
X18382835Y-32925165D02*
X18605500Y-32702500D01*
X3765499Y-32429501D02*
X3765499Y-27984501D01*
X3365500Y-32829500D02*
X3765499Y-32429501D01*
X3765499Y-27984501D02*
X6096000Y-25654000D01*
X6096000Y-25654000D02*
X6495999Y-25254001D01*
X9398009Y-22351991D02*
X6096000Y-25654000D01*
X10096500Y-13964955D02*
X9398009Y-14663446D01*
X9398009Y-14663446D02*
X9398009Y-22351991D01*
D15*
X2032000Y-11430000D02*
X1270000Y-11430000D01*
X6413500Y-7048500D02*
X2032000Y-11430000D01*
X6286500Y-9588500D02*
X5270500Y-9588500D01*
X5270500Y-9588500D02*
X4127500Y-10731500D01*
X4127500Y-13652500D02*
X1270000Y-16510000D01*
X4127500Y-10731500D02*
X4127500Y-13652500D01*
X2119999Y-18200001D02*
X1270000Y-19050000D01*
X5391148Y-11880852D02*
X5391148Y-14928852D01*
X6413500Y-10858500D02*
X5391148Y-11880852D01*
X5391148Y-14928852D02*
X2119999Y-18200001D01*
X5845159Y-13966841D02*
X5845159Y-15157663D01*
X3048000Y-22352000D02*
X2119999Y-23280001D01*
X5845159Y-15157663D02*
X3048000Y-17954822D01*
X3048000Y-17954822D02*
X3048000Y-22352000D01*
X6413500Y-13398500D02*
X5845159Y-13966841D01*
X2119999Y-23280001D02*
X1270000Y-24130000D01*
X4514537Y-21202099D02*
X6299170Y-19417466D01*
X4514537Y-23425463D02*
X4514537Y-21202099D01*
X6299170Y-19417466D02*
X6299170Y-14496303D01*
X6588542Y-14206931D02*
X7154227Y-14206931D01*
X1270000Y-26670000D02*
X4514537Y-23425463D01*
X6299170Y-14496303D02*
X6588542Y-14206931D01*
X4968548Y-21390156D02*
X7026171Y-19332533D01*
X4968548Y-25511452D02*
X4968548Y-21390156D01*
X1270000Y-29210000D02*
X4968548Y-25511452D01*
X7026171Y-19332533D02*
X7026171Y-15815866D01*
X7026171Y-15815866D02*
X7026171Y-15250181D01*
X9915511Y-28184489D02*
X9915511Y-22656162D01*
X9979011Y-22592662D02*
X9979011Y-15346366D01*
X9979011Y-15346366D02*
X10252010Y-15073367D01*
X1270000Y-36830000D02*
X9915511Y-28184489D01*
X9915511Y-22656162D02*
X9979011Y-22592662D01*
X10433022Y-22780719D02*
X10433022Y-16323218D01*
X10388521Y-22825220D02*
X10433022Y-22780719D01*
X1270000Y-39370000D02*
X8543999Y-32096001D01*
X8543999Y-32096001D02*
X8543999Y-30956539D01*
X10388521Y-29112017D02*
X10388521Y-22825220D01*
X8543999Y-30956539D02*
X10388521Y-29112017D01*
X10433022Y-16323218D02*
X10706021Y-16050219D01*
X10903001Y-16929201D02*
X10903001Y-29258039D01*
X11395001Y-31784999D02*
X2119999Y-41060001D01*
X11433022Y-16399180D02*
X10903001Y-16929201D01*
X11395001Y-29750039D02*
X11395001Y-31784999D01*
X11303000Y-15170685D02*
X11433022Y-15300707D01*
X11433022Y-15300707D02*
X11433022Y-16399180D01*
X10903001Y-29258039D02*
X11395001Y-29750039D01*
X2119999Y-41060001D02*
X1270000Y-41910000D01*
X11303000Y-14605000D02*
X11303000Y-15170685D01*
X12407473Y-26038091D02*
X12182489Y-25813107D01*
X1270000Y-44450000D02*
X2119999Y-43600001D01*
X12407473Y-29498768D02*
X12407473Y-26038091D01*
X12849012Y-32049024D02*
X12849012Y-29940307D01*
X2119999Y-43600001D02*
X2119999Y-42778037D01*
X12182489Y-25813107D02*
X12182489Y-25247422D01*
X2119999Y-42778037D02*
X12849012Y-32049024D01*
X12849012Y-29940307D02*
X12407473Y-29498768D01*
X11849012Y-30016268D02*
X12122011Y-30289268D01*
X11849012Y-29561982D02*
X11849012Y-30016268D01*
X11413895Y-29126865D02*
X11849012Y-29561982D01*
X11413895Y-17060375D02*
X11413895Y-29126865D01*
X11887032Y-16587238D02*
X11413895Y-17060375D01*
X11887033Y-15513201D02*
X11887032Y-16587238D01*
X12065000Y-15335234D02*
X11887033Y-15513201D01*
X12065000Y-8318500D02*
X12065000Y-15335234D01*
X16700500Y-4826000D02*
X12065000Y-8318500D01*
X13363510Y-25586977D02*
X13595480Y-25818947D01*
X13538331Y-15095004D02*
X13538331Y-15660689D01*
X13538331Y-15660689D02*
X13363510Y-15835510D01*
X13595480Y-25818947D02*
X13995479Y-26218946D01*
X13363510Y-15835510D02*
X13363510Y-25586977D01*
X16561001Y-11003598D02*
X16161002Y-10603599D01*
X16991182Y-11003598D02*
X16561001Y-11003598D01*
X17417584Y-11430000D02*
X16991182Y-11003598D01*
X24130000Y-11430000D02*
X17417584Y-11430000D01*
X16838651Y-11891819D02*
X16733804Y-11786972D01*
X24130000Y-13970000D02*
X22051819Y-11891819D01*
X22051819Y-11891819D02*
X16838651Y-11891819D01*
X22126532Y-15882328D02*
X19022694Y-12778490D01*
X24130000Y-19050000D02*
X22126532Y-17046532D01*
X17429547Y-12778490D02*
X16863862Y-12778490D01*
X22126532Y-17046532D02*
X22126532Y-15882328D01*
X19022694Y-12778490D02*
X17429547Y-12778490D01*
X22571001Y-20031001D02*
X24130000Y-21590000D01*
X22571001Y-18574039D02*
X22571001Y-20031001D01*
X21637552Y-17640590D02*
X22571001Y-18574039D01*
X21637552Y-16344305D02*
X21637552Y-17640590D01*
X19025223Y-13731976D02*
X21637552Y-16344305D01*
X18092076Y-13630576D02*
X17039924Y-13630576D01*
X18193476Y-13731976D02*
X18092076Y-13630576D01*
X17039924Y-13630576D02*
X16383000Y-14287500D01*
X19025223Y-13731976D02*
X18193476Y-13731976D01*
X21053499Y-19398961D02*
X21053499Y-16402320D01*
X21053499Y-16402320D02*
X19008756Y-14357577D01*
X24130000Y-24130000D02*
X21945542Y-21945542D01*
X21945542Y-21945542D02*
X21945542Y-20291004D01*
X21945542Y-20291004D02*
X21053499Y-19398961D01*
X19008756Y-14357577D02*
X18308800Y-14357577D01*
X18308800Y-14357577D02*
X17743115Y-14357577D01*
X21491531Y-24031531D02*
X21491531Y-20479061D01*
X20599488Y-19587018D02*
X20599488Y-17024271D01*
X24130000Y-26670000D02*
X21491531Y-24031531D01*
X19999995Y-16424778D02*
X19599996Y-16024779D01*
X21491531Y-20479061D02*
X20599488Y-19587018D01*
X20599488Y-17024271D02*
X19999995Y-16424778D01*
X24130000Y-29210000D02*
X20920031Y-26000031D01*
X20145478Y-18346275D02*
X18510712Y-16711507D01*
X20145478Y-19902076D02*
X20145478Y-18346275D01*
X18510712Y-16711507D02*
X18510712Y-15697768D01*
X20920031Y-26000031D02*
X20920031Y-20676629D01*
X20920031Y-20676629D02*
X20145478Y-19902076D01*
X18510712Y-15697768D02*
X18910711Y-15297769D01*
X20466020Y-20864686D02*
X19691467Y-20090133D01*
X18182434Y-30070498D02*
X20466021Y-27786911D01*
X19691467Y-18534332D02*
X17413142Y-16256007D01*
X20466021Y-27786911D02*
X20466020Y-20864686D01*
X17812038Y-30070498D02*
X18182434Y-30070498D01*
X18824502Y-31524502D02*
X17812038Y-31524502D01*
X24130000Y-36830000D02*
X18824502Y-31524502D01*
X19691467Y-20090133D02*
X19691467Y-18534332D01*
X17413142Y-15867265D02*
X17413142Y-15301580D01*
X17413142Y-16256007D02*
X17413142Y-15867265D01*
X17433998Y-30448538D02*
X17812038Y-30070498D01*
X17433998Y-31146462D02*
X17433998Y-30448538D01*
X17812038Y-31524502D02*
X17433998Y-31146462D01*
X17655834Y-34585136D02*
X22440698Y-39370000D01*
X17655834Y-32010366D02*
X17655834Y-34585136D01*
X17994377Y-29616487D02*
X17623981Y-29616487D01*
X16979988Y-30260480D02*
X16979987Y-31334519D01*
X19948510Y-27662354D02*
X17994377Y-29616487D01*
X17623981Y-29616487D02*
X16979988Y-30260480D01*
X19237456Y-20278190D02*
X19948510Y-20989244D01*
X19237456Y-18750575D02*
X19237456Y-20278190D01*
X16413160Y-15651160D02*
X16413160Y-15926279D01*
X22440698Y-39370000D02*
X24130000Y-39370000D01*
X16979987Y-31334519D02*
X17655834Y-32010366D01*
X19948510Y-20989244D02*
X19948510Y-27662354D01*
X16413160Y-15926279D02*
X19237456Y-18750575D01*
X23280001Y-41060001D02*
X24130000Y-41910000D01*
X23280001Y-40851371D02*
X23280001Y-41060001D01*
X17201823Y-32198423D02*
X17201823Y-34773193D01*
X19459501Y-21142303D02*
X19459501Y-27509295D01*
X16525977Y-31522575D02*
X17201823Y-32198423D01*
X17435924Y-29162476D02*
X16525978Y-30072422D01*
X17806320Y-29162476D02*
X17435924Y-29162476D01*
X19459501Y-27509295D02*
X17806320Y-29162476D01*
X16525978Y-30072422D02*
X16525977Y-31522575D01*
X18783445Y-20466247D02*
X19459501Y-21142303D01*
X18783445Y-19471470D02*
X18783445Y-20466247D01*
X17201823Y-34773193D02*
X23280001Y-40851371D01*
X18772970Y-19471470D02*
X15811500Y-16510000D01*
X18783445Y-19471470D02*
X18772970Y-19471470D01*
X16747813Y-33571784D02*
X14722489Y-31546457D01*
X14722489Y-25851755D02*
X14090511Y-25219777D01*
X17632934Y-35846372D02*
X16747813Y-34961249D01*
X14090511Y-16731515D02*
X14090511Y-16165830D01*
X14722489Y-31546457D02*
X14722489Y-25851755D01*
X14090511Y-25219777D02*
X14090511Y-16731515D01*
X17632934Y-37952934D02*
X17632934Y-35846372D01*
X24130000Y-44450000D02*
X17632934Y-37952934D01*
X16747813Y-34961249D02*
X16747813Y-33571784D01*
X12614043Y-16504185D02*
X12614043Y-15938500D01*
X12909500Y-16799642D02*
X12614043Y-16504185D01*
X13303023Y-30769059D02*
X13303023Y-29752250D01*
X16293802Y-33759841D02*
X13303023Y-30769059D01*
X24130000Y-46990000D02*
X23026000Y-46990000D01*
X12909500Y-29358727D02*
X12909500Y-16799642D01*
X13303023Y-29752250D02*
X12909500Y-29358727D01*
X23026000Y-46990000D02*
X17178923Y-41142923D01*
X16293802Y-35149306D02*
X16293802Y-33759841D01*
X17178923Y-41142923D02*
X17178923Y-36034428D01*
X17178923Y-36034428D02*
X16293802Y-35149306D01*
D14*
X10795000Y-45275500D02*
X9969500Y-44450000D01*
X13017500Y-45275500D02*
X10795000Y-45275500D01*
X11807213Y-38321630D02*
X11807213Y-36763464D01*
X11807213Y-36763464D02*
X11785175Y-36741426D01*
X11785175Y-36741426D02*
X11385176Y-36341427D01*
D15*
X15176500Y-27368500D02*
X15176500Y-24574500D01*
X16446500Y-28638500D02*
X15176500Y-27368500D01*
X17272000Y-28638500D02*
X16446500Y-28638500D01*
X18732500Y-27178000D02*
X17272000Y-28638500D01*
X17208500Y-55533990D02*
X17145000Y-55597490D01*
X17208500Y-49530000D02*
X17208500Y-55533990D01*
X14738489Y-46438963D02*
X14738489Y-39586340D01*
X15400137Y-38924692D02*
X15800136Y-38524693D01*
X14738489Y-39586340D02*
X15400137Y-38924692D01*
X16112191Y-37868060D02*
X15818911Y-37574779D01*
X16724912Y-45695588D02*
X16724912Y-37868062D01*
X16724912Y-37868062D02*
X16112191Y-37868060D01*
X15818911Y-37574779D02*
X15432830Y-37574779D01*
X16192500Y-46228000D02*
X16724912Y-45695588D01*
X20637500Y-30797500D02*
X23280001Y-33440001D01*
X23280001Y-33440001D02*
X24130000Y-34290000D01*
X18161000Y-30797500D02*
X20637500Y-30797500D01*
X15903510Y-25493341D02*
X18056435Y-23340416D01*
X18056435Y-20570261D02*
X18056435Y-20004576D01*
X18056435Y-23340416D02*
X18056435Y-20570261D01*
D16*
G36*
X23048455Y-547335D02*
G01*
X22928252Y-772220D01*
X22854231Y-1016234D01*
X22829237Y-1270000D01*
X22854231Y-1523766D01*
X22928252Y-1767780D01*
X23048455Y-1992665D01*
X23210222Y-2189778D01*
X23407335Y-2351545D01*
X23632220Y-2471748D01*
X23857216Y-2540000D01*
X23632220Y-2608252D01*
X23407335Y-2728455D01*
X23210222Y-2890222D01*
X23048455Y-3087335D01*
X22928252Y-3312220D01*
X22854231Y-3556234D01*
X22829237Y-3810000D01*
X22854231Y-4063766D01*
X22928252Y-4307780D01*
X23048455Y-4532665D01*
X23210222Y-4729778D01*
X23407335Y-4891545D01*
X23632220Y-5011748D01*
X23857216Y-5080000D01*
X23632220Y-5148252D01*
X23407335Y-5268455D01*
X23210222Y-5430222D01*
X23048455Y-5627335D01*
X22928252Y-5852220D01*
X22854231Y-6096234D01*
X22829237Y-6350000D01*
X22854231Y-6603766D01*
X22928252Y-6847780D01*
X23048455Y-7072665D01*
X23210222Y-7269778D01*
X23407335Y-7431545D01*
X23632220Y-7551748D01*
X23857216Y-7620000D01*
X23632220Y-7688252D01*
X23407335Y-7808455D01*
X23210222Y-7970222D01*
X23048455Y-8167335D01*
X22928252Y-8392220D01*
X22854231Y-8636234D01*
X22829237Y-8890000D01*
X22854231Y-9143766D01*
X22863818Y-9175372D01*
X20013294Y-6324848D01*
X19991422Y-6298197D01*
X19885062Y-6210909D01*
X19763716Y-6146048D01*
X19632049Y-6106107D01*
X19529428Y-6096000D01*
X19529417Y-6096000D01*
X19495119Y-6092622D01*
X19460821Y-6096000D01*
X17937181Y-6096000D01*
X17862521Y-6046114D01*
X17708832Y-5982454D01*
X17545676Y-5950000D01*
X17379324Y-5950000D01*
X17216168Y-5982454D01*
X17062479Y-6046114D01*
X16924163Y-6138534D01*
X16806534Y-6256163D01*
X16714114Y-6394479D01*
X16650454Y-6548168D01*
X16618000Y-6711324D01*
X16618000Y-6877676D01*
X16650454Y-7040832D01*
X16714114Y-7194521D01*
X16806534Y-7332837D01*
X16924163Y-7450466D01*
X17062479Y-7542886D01*
X17216168Y-7606546D01*
X17379324Y-7639000D01*
X17545676Y-7639000D01*
X17708832Y-7606546D01*
X17862521Y-7542886D01*
X17937181Y-7493000D01*
X19205792Y-7493000D01*
X21967621Y-10254830D01*
X21985139Y-10342898D01*
X22048799Y-10496587D01*
X22141219Y-10634903D01*
X22258848Y-10752532D01*
X22397164Y-10844952D01*
X22429872Y-10858500D01*
X17654307Y-10858500D01*
X17415152Y-10619346D01*
X17397249Y-10597531D01*
X17310227Y-10526114D01*
X17210944Y-10473046D01*
X17103216Y-10440367D01*
X17019256Y-10432098D01*
X16991182Y-10429333D01*
X16987456Y-10429700D01*
X16973048Y-10357267D01*
X16909388Y-10203578D01*
X16816968Y-10065262D01*
X16699339Y-9947633D01*
X16561023Y-9855213D01*
X16407334Y-9791553D01*
X16244178Y-9759099D01*
X16077826Y-9759099D01*
X15914670Y-9791553D01*
X15760981Y-9855213D01*
X15622665Y-9947633D01*
X15505036Y-10065262D01*
X15412616Y-10203578D01*
X15348956Y-10357267D01*
X15316502Y-10520423D01*
X15316502Y-10686775D01*
X15348956Y-10849931D01*
X15412616Y-11003620D01*
X15505036Y-11141936D01*
X15622665Y-11259565D01*
X15760981Y-11351985D01*
X15914670Y-11415645D01*
X15969052Y-11426462D01*
X15921758Y-11540640D01*
X15889304Y-11703796D01*
X15889304Y-11870148D01*
X15921758Y-12033304D01*
X15985418Y-12186993D01*
X16077838Y-12325309D01*
X16121693Y-12369164D01*
X16115476Y-12378469D01*
X16051816Y-12532158D01*
X16019362Y-12695314D01*
X16019362Y-12861666D01*
X16051816Y-13024822D01*
X16115476Y-13178511D01*
X16207896Y-13316827D01*
X16325525Y-13434456D01*
X16338312Y-13443000D01*
X16299824Y-13443000D01*
X16136668Y-13475454D01*
X15982979Y-13539114D01*
X15844663Y-13631534D01*
X15727034Y-13749163D01*
X15634614Y-13887479D01*
X15570954Y-14041168D01*
X15538500Y-14204324D01*
X15538500Y-14370676D01*
X15570954Y-14533832D01*
X15634614Y-14687521D01*
X15727034Y-14825837D01*
X15844663Y-14943466D01*
X15898451Y-14979406D01*
X15874823Y-14995194D01*
X15757194Y-15112823D01*
X15664774Y-15251139D01*
X15601114Y-15404828D01*
X15568660Y-15567984D01*
X15568660Y-15697259D01*
X15565168Y-15697954D01*
X15411479Y-15761614D01*
X15273163Y-15854034D01*
X15155534Y-15971663D01*
X15063114Y-16109979D01*
X14999454Y-16263668D01*
X14967000Y-16426824D01*
X14967000Y-16593176D01*
X14999454Y-16756332D01*
X15063114Y-16910021D01*
X15155534Y-17048337D01*
X15273163Y-17165966D01*
X15411479Y-17258386D01*
X15565168Y-17322046D01*
X15728324Y-17354500D01*
X15847778Y-17354500D01*
X17722213Y-19228935D01*
X17656414Y-19256190D01*
X17518098Y-19348610D01*
X17400469Y-19466239D01*
X17308049Y-19604555D01*
X17244389Y-19758244D01*
X17211935Y-19921400D01*
X17211935Y-20087752D01*
X17244389Y-20250908D01*
X17308049Y-20404597D01*
X17400469Y-20542913D01*
X17484936Y-20627380D01*
X17484935Y-23103692D01*
X16021000Y-24567629D01*
X16021000Y-24491324D01*
X15988546Y-24328168D01*
X15924886Y-24174479D01*
X15832466Y-24036163D01*
X15714837Y-23918534D01*
X15576521Y-23826114D01*
X15422832Y-23762454D01*
X15259676Y-23730000D01*
X15093324Y-23730000D01*
X14930168Y-23762454D01*
X14776479Y-23826114D01*
X14662011Y-23902599D01*
X14662011Y-16788633D01*
X14746477Y-16704167D01*
X14838897Y-16565851D01*
X14902557Y-16412162D01*
X14935011Y-16249006D01*
X14935011Y-16082654D01*
X14902557Y-15919498D01*
X14838897Y-15765809D01*
X14746477Y-15627493D01*
X14628848Y-15509864D01*
X14490532Y-15417444D01*
X14343994Y-15356746D01*
X14350377Y-15341336D01*
X14382831Y-15178180D01*
X14382831Y-15011828D01*
X14350377Y-14848672D01*
X14286717Y-14694983D01*
X14194297Y-14556667D01*
X14076668Y-14439038D01*
X13938352Y-14346618D01*
X13784663Y-14282958D01*
X13621507Y-14250504D01*
X13455155Y-14250504D01*
X13291999Y-14282958D01*
X13138310Y-14346618D01*
X12999994Y-14439038D01*
X12882365Y-14556667D01*
X12789945Y-14694983D01*
X12726285Y-14848672D01*
X12693831Y-15011828D01*
X12693831Y-15094000D01*
X12636500Y-15094000D01*
X12636500Y-8603469D01*
X16547725Y-5656656D01*
X16617324Y-5670500D01*
X16783676Y-5670500D01*
X16946832Y-5638046D01*
X17100521Y-5574386D01*
X17238837Y-5481966D01*
X17356466Y-5364337D01*
X17448886Y-5226021D01*
X17512546Y-5072332D01*
X17545000Y-4909176D01*
X17545000Y-4742824D01*
X17512546Y-4579668D01*
X17448886Y-4425979D01*
X17356466Y-4287663D01*
X17238837Y-4170034D01*
X17100521Y-4077614D01*
X16946832Y-4013954D01*
X16783676Y-3981500D01*
X16617324Y-3981500D01*
X16454168Y-4013954D01*
X16300479Y-4077614D01*
X16162163Y-4170034D01*
X16044534Y-4287663D01*
X15952114Y-4425979D01*
X15888454Y-4579668D01*
X15856000Y-4742824D01*
X15856000Y-4746716D01*
X11756508Y-7835376D01*
X11745955Y-7841016D01*
X11711606Y-7869206D01*
X11698679Y-7878945D01*
X11689944Y-7886983D01*
X11658933Y-7912433D01*
X11648587Y-7925040D01*
X11636597Y-7936073D01*
X11612961Y-7968451D01*
X11587516Y-7999456D01*
X11579831Y-8013834D01*
X11570221Y-8026998D01*
X11553352Y-8063371D01*
X11534448Y-8098739D01*
X11529716Y-8114338D01*
X11522858Y-8129126D01*
X11513409Y-8168096D01*
X11501769Y-8206467D01*
X11500171Y-8222689D01*
X11496330Y-8238531D01*
X11494665Y-8278598D01*
X11493500Y-8290427D01*
X11493500Y-8306634D01*
X11491656Y-8351009D01*
X11493500Y-8362825D01*
X11493501Y-13781848D01*
X11386176Y-13760500D01*
X11219824Y-13760500D01*
X11056668Y-13792954D01*
X10902979Y-13856614D01*
X10764663Y-13949034D01*
X10647034Y-14066663D01*
X10554614Y-14204979D01*
X10526453Y-14272965D01*
X10498342Y-14261321D01*
X10335186Y-14228867D01*
X10168834Y-14228867D01*
X10005678Y-14261321D01*
X9851989Y-14324981D01*
X9713673Y-14417401D01*
X9596044Y-14535030D01*
X9503624Y-14673346D01*
X9439964Y-14827035D01*
X9407510Y-14990191D01*
X9407510Y-15156543D01*
X9420131Y-15219991D01*
X9415780Y-15234333D01*
X9404746Y-15346366D01*
X9407512Y-15374450D01*
X9407511Y-22394209D01*
X9384959Y-22436401D01*
X9352280Y-22544129D01*
X9341246Y-22656162D01*
X9344012Y-22684246D01*
X9344011Y-27947766D01*
X2434718Y-34857060D01*
X2471748Y-34787780D01*
X2545769Y-34543766D01*
X2570763Y-34290000D01*
X2545769Y-34036234D01*
X2471748Y-33792220D01*
X2351545Y-33567335D01*
X2189778Y-33370222D01*
X1992665Y-33208455D01*
X1767780Y-33088252D01*
X1542784Y-33020000D01*
X1767780Y-32951748D01*
X1992665Y-32831545D01*
X2189778Y-32669778D01*
X2351545Y-32472665D01*
X2471748Y-32247780D01*
X2545769Y-32003766D01*
X2570763Y-31750000D01*
X2545769Y-31496234D01*
X2471748Y-31252220D01*
X2351545Y-31027335D01*
X2189778Y-30830222D01*
X1992665Y-30668455D01*
X1767780Y-30548252D01*
X1542784Y-30480000D01*
X1767780Y-30411748D01*
X1992665Y-30291545D01*
X2189778Y-30129778D01*
X2351545Y-29932665D01*
X2471748Y-29707780D01*
X2545769Y-29463766D01*
X2570763Y-29210000D01*
X2545769Y-28956234D01*
X2496013Y-28792210D01*
X5352812Y-25935412D01*
X5374615Y-25917519D01*
X5446032Y-25830497D01*
X5499100Y-25731214D01*
X5531779Y-25623486D01*
X5540048Y-25539526D01*
X5540048Y-25539525D01*
X5542813Y-25511452D01*
X5540048Y-25483378D01*
X5540048Y-21777887D01*
X5601614Y-21926521D01*
X5694034Y-22064837D01*
X5811663Y-22182466D01*
X5949979Y-22274886D01*
X6103668Y-22338546D01*
X6266824Y-22371000D01*
X6433176Y-22371000D01*
X6596332Y-22338546D01*
X6750021Y-22274886D01*
X6888337Y-22182466D01*
X7005966Y-22064837D01*
X7098386Y-21926521D01*
X7162046Y-21772832D01*
X7179564Y-21684763D01*
X7219655Y-21644672D01*
X7246301Y-21622804D01*
X7268170Y-21596157D01*
X7268173Y-21596154D01*
X7333590Y-21516445D01*
X7398450Y-21395100D01*
X7399950Y-21390156D01*
X7438392Y-21263431D01*
X7448499Y-21160810D01*
X7448499Y-21160800D01*
X7451877Y-21126502D01*
X7448499Y-21092204D01*
X7448499Y-20719704D01*
X8477890Y-19690314D01*
X8504530Y-19668451D01*
X8526395Y-19641809D01*
X8526402Y-19641802D01*
X8591819Y-19562091D01*
X8627140Y-19496010D01*
X8656680Y-19440745D01*
X8696621Y-19309078D01*
X8706728Y-19206457D01*
X8706728Y-19206446D01*
X8710106Y-19172148D01*
X8706728Y-19137850D01*
X8706728Y-13998099D01*
X9302265Y-13402564D01*
X9390332Y-13385046D01*
X9544021Y-13321386D01*
X9682337Y-13228966D01*
X9799966Y-13111337D01*
X9892386Y-12973021D01*
X9956046Y-12819332D01*
X9988500Y-12656176D01*
X9988500Y-12489824D01*
X9956046Y-12326668D01*
X9892386Y-12172979D01*
X9799966Y-12034663D01*
X9682337Y-11917034D01*
X9544021Y-11824614D01*
X9390332Y-11760954D01*
X9227176Y-11728500D01*
X9060824Y-11728500D01*
X8897668Y-11760954D01*
X8743979Y-11824614D01*
X8605663Y-11917034D01*
X8488034Y-12034663D01*
X8395614Y-12172979D01*
X8331954Y-12326668D01*
X8314436Y-12414735D01*
X7538571Y-13190602D01*
X7511926Y-13212469D01*
X7490058Y-13239115D01*
X7490054Y-13239119D01*
X7424637Y-13318829D01*
X7385577Y-13391905D01*
X7258000Y-13366528D01*
X7258000Y-13315324D01*
X7225546Y-13152168D01*
X7161886Y-12998479D01*
X7069466Y-12860163D01*
X6951837Y-12742534D01*
X6813521Y-12650114D01*
X6659832Y-12586454D01*
X6496676Y-12554000D01*
X6330324Y-12554000D01*
X6167168Y-12586454D01*
X6013479Y-12650114D01*
X5962648Y-12684078D01*
X5962648Y-12117574D01*
X6377223Y-11703000D01*
X6496676Y-11703000D01*
X6659832Y-11670546D01*
X6813521Y-11606886D01*
X6951837Y-11514466D01*
X7069466Y-11396837D01*
X7161886Y-11258521D01*
X7225546Y-11104832D01*
X7258000Y-10941676D01*
X7258000Y-10775324D01*
X7225546Y-10612168D01*
X7161886Y-10458479D01*
X7069466Y-10320163D01*
X6951837Y-10202534D01*
X6900843Y-10168460D01*
X6942466Y-10126837D01*
X7034886Y-9988521D01*
X7098546Y-9834832D01*
X7131000Y-9671676D01*
X7131000Y-9505324D01*
X7098546Y-9342168D01*
X7034886Y-9188479D01*
X6942466Y-9050163D01*
X6824837Y-8932534D01*
X6686521Y-8840114D01*
X6532832Y-8776454D01*
X6369676Y-8744000D01*
X6203324Y-8744000D01*
X6040168Y-8776454D01*
X5886479Y-8840114D01*
X5748163Y-8932534D01*
X5663697Y-9017000D01*
X5298571Y-9017000D01*
X5270499Y-9014235D01*
X5254403Y-9015820D01*
X6377224Y-7893000D01*
X6496676Y-7893000D01*
X6659832Y-7860546D01*
X6813521Y-7796886D01*
X6951837Y-7704466D01*
X7069466Y-7586837D01*
X7161886Y-7448521D01*
X7225546Y-7294832D01*
X7258000Y-7131676D01*
X7258000Y-6965324D01*
X7225546Y-6802168D01*
X7161886Y-6648479D01*
X7069466Y-6510163D01*
X6951837Y-6392534D01*
X6813521Y-6300114D01*
X6659832Y-6236454D01*
X6496676Y-6204000D01*
X6330324Y-6204000D01*
X6167168Y-6236454D01*
X6013479Y-6300114D01*
X5875163Y-6392534D01*
X5757534Y-6510163D01*
X5665114Y-6648479D01*
X5601454Y-6802168D01*
X5569000Y-6965324D01*
X5569000Y-7084776D01*
X2164391Y-10489387D01*
X1992665Y-10348455D01*
X1767780Y-10228252D01*
X1542784Y-10160000D01*
X1767780Y-10091748D01*
X1992665Y-9971545D01*
X2189778Y-9809778D01*
X2351545Y-9612665D01*
X2471748Y-9387780D01*
X2545769Y-9143766D01*
X2570763Y-8890000D01*
X2545769Y-8636234D01*
X2471748Y-8392220D01*
X2351545Y-8167335D01*
X2189778Y-7970222D01*
X1992665Y-7808455D01*
X1767780Y-7688252D01*
X1542784Y-7620000D01*
X1767780Y-7551748D01*
X1992665Y-7431545D01*
X2189778Y-7269778D01*
X2351545Y-7072665D01*
X2471748Y-6847780D01*
X2545769Y-6603766D01*
X2570763Y-6350000D01*
X2545769Y-6096234D01*
X2471748Y-5852220D01*
X2351545Y-5627335D01*
X2189778Y-5430222D01*
X1992665Y-5268455D01*
X1767780Y-5148252D01*
X1542784Y-5080000D01*
X1767780Y-5011748D01*
X1992665Y-4891545D01*
X2189778Y-4729778D01*
X2351545Y-4532665D01*
X2471748Y-4307780D01*
X2545769Y-4063766D01*
X2570763Y-3810000D01*
X2545769Y-3556234D01*
X2471748Y-3312220D01*
X2351545Y-3087335D01*
X2189778Y-2890222D01*
X2106401Y-2821796D01*
X2120000Y-2821880D01*
X2256930Y-2808394D01*
X2388598Y-2768453D01*
X2509944Y-2703592D01*
X2616304Y-2616304D01*
X2703592Y-2509944D01*
X2768453Y-2388598D01*
X2808394Y-2256930D01*
X2821880Y-2120000D01*
X2818500Y-1571625D01*
X2643875Y-1397000D01*
X1397000Y-1397000D01*
X1397000Y-1417000D01*
X1143000Y-1417000D01*
X1143000Y-1397000D01*
X1123000Y-1397000D01*
X1123000Y-1143000D01*
X1143000Y-1143000D01*
X1143000Y-1123000D01*
X1397000Y-1123000D01*
X1397000Y-1143000D01*
X2643875Y-1143000D01*
X2818500Y-968375D01*
X2821575Y-469500D01*
X23112333Y-469500D01*
X23048455Y-547335D01*
X23048455Y-547335D01*
G37*
X23048455Y-547335D02*
X22928252Y-772220D01*
X22854231Y-1016234D01*
X22829237Y-1270000D01*
X22854231Y-1523766D01*
X22928252Y-1767780D01*
X23048455Y-1992665D01*
X23210222Y-2189778D01*
X23407335Y-2351545D01*
X23632220Y-2471748D01*
X23857216Y-2540000D01*
X23632220Y-2608252D01*
X23407335Y-2728455D01*
X23210222Y-2890222D01*
X23048455Y-3087335D01*
X22928252Y-3312220D01*
X22854231Y-3556234D01*
X22829237Y-3810000D01*
X22854231Y-4063766D01*
X22928252Y-4307780D01*
X23048455Y-4532665D01*
X23210222Y-4729778D01*
X23407335Y-4891545D01*
X23632220Y-5011748D01*
X23857216Y-5080000D01*
X23632220Y-5148252D01*
X23407335Y-5268455D01*
X23210222Y-5430222D01*
X23048455Y-5627335D01*
X22928252Y-5852220D01*
X22854231Y-6096234D01*
X22829237Y-6350000D01*
X22854231Y-6603766D01*
X22928252Y-6847780D01*
X23048455Y-7072665D01*
X23210222Y-7269778D01*
X23407335Y-7431545D01*
X23632220Y-7551748D01*
X23857216Y-7620000D01*
X23632220Y-7688252D01*
X23407335Y-7808455D01*
X23210222Y-7970222D01*
X23048455Y-8167335D01*
X22928252Y-8392220D01*
X22854231Y-8636234D01*
X22829237Y-8890000D01*
X22854231Y-9143766D01*
X22863818Y-9175372D01*
X20013294Y-6324848D01*
X19991422Y-6298197D01*
X19885062Y-6210909D01*
X19763716Y-6146048D01*
X19632049Y-6106107D01*
X19529428Y-6096000D01*
X19529417Y-6096000D01*
X19495119Y-6092622D01*
X19460821Y-6096000D01*
X17937181Y-6096000D01*
X17862521Y-6046114D01*
X17708832Y-5982454D01*
X17545676Y-5950000D01*
X17379324Y-5950000D01*
X17216168Y-5982454D01*
X17062479Y-6046114D01*
X16924163Y-6138534D01*
X16806534Y-6256163D01*
X16714114Y-6394479D01*
X16650454Y-6548168D01*
X16618000Y-6711324D01*
X16618000Y-6877676D01*
X16650454Y-7040832D01*
X16714114Y-7194521D01*
X16806534Y-7332837D01*
X16924163Y-7450466D01*
X17062479Y-7542886D01*
X17216168Y-7606546D01*
X17379324Y-7639000D01*
X17545676Y-7639000D01*
X17708832Y-7606546D01*
X17862521Y-7542886D01*
X17937181Y-7493000D01*
X19205792Y-7493000D01*
X21967621Y-10254830D01*
X21985139Y-10342898D01*
X22048799Y-10496587D01*
X22141219Y-10634903D01*
X22258848Y-10752532D01*
X22397164Y-10844952D01*
X22429872Y-10858500D01*
X17654307Y-10858500D01*
X17415152Y-10619346D01*
X17397249Y-10597531D01*
X17310227Y-10526114D01*
X17210944Y-10473046D01*
X17103216Y-10440367D01*
X17019256Y-10432098D01*
X16991182Y-10429333D01*
X16987456Y-10429700D01*
X16973048Y-10357267D01*
X16909388Y-10203578D01*
X16816968Y-10065262D01*
X16699339Y-9947633D01*
X16561023Y-9855213D01*
X16407334Y-9791553D01*
X16244178Y-9759099D01*
X16077826Y-9759099D01*
X15914670Y-9791553D01*
X15760981Y-9855213D01*
X15622665Y-9947633D01*
X15505036Y-10065262D01*
X15412616Y-10203578D01*
X15348956Y-10357267D01*
X15316502Y-10520423D01*
X15316502Y-10686775D01*
X15348956Y-10849931D01*
X15412616Y-11003620D01*
X15505036Y-11141936D01*
X15622665Y-11259565D01*
X15760981Y-11351985D01*
X15914670Y-11415645D01*
X15969052Y-11426462D01*
X15921758Y-11540640D01*
X15889304Y-11703796D01*
X15889304Y-11870148D01*
X15921758Y-12033304D01*
X15985418Y-12186993D01*
X16077838Y-12325309D01*
X16121693Y-12369164D01*
X16115476Y-12378469D01*
X16051816Y-12532158D01*
X16019362Y-12695314D01*
X16019362Y-12861666D01*
X16051816Y-13024822D01*
X16115476Y-13178511D01*
X16207896Y-13316827D01*
X16325525Y-13434456D01*
X16338312Y-13443000D01*
X16299824Y-13443000D01*
X16136668Y-13475454D01*
X15982979Y-13539114D01*
X15844663Y-13631534D01*
X15727034Y-13749163D01*
X15634614Y-13887479D01*
X15570954Y-14041168D01*
X15538500Y-14204324D01*
X15538500Y-14370676D01*
X15570954Y-14533832D01*
X15634614Y-14687521D01*
X15727034Y-14825837D01*
X15844663Y-14943466D01*
X15898451Y-14979406D01*
X15874823Y-14995194D01*
X15757194Y-15112823D01*
X15664774Y-15251139D01*
X15601114Y-15404828D01*
X15568660Y-15567984D01*
X15568660Y-15697259D01*
X15565168Y-15697954D01*
X15411479Y-15761614D01*
X15273163Y-15854034D01*
X15155534Y-15971663D01*
X15063114Y-16109979D01*
X14999454Y-16263668D01*
X14967000Y-16426824D01*
X14967000Y-16593176D01*
X14999454Y-16756332D01*
X15063114Y-16910021D01*
X15155534Y-17048337D01*
X15273163Y-17165966D01*
X15411479Y-17258386D01*
X15565168Y-17322046D01*
X15728324Y-17354500D01*
X15847778Y-17354500D01*
X17722213Y-19228935D01*
X17656414Y-19256190D01*
X17518098Y-19348610D01*
X17400469Y-19466239D01*
X17308049Y-19604555D01*
X17244389Y-19758244D01*
X17211935Y-19921400D01*
X17211935Y-20087752D01*
X17244389Y-20250908D01*
X17308049Y-20404597D01*
X17400469Y-20542913D01*
X17484936Y-20627380D01*
X17484935Y-23103692D01*
X16021000Y-24567629D01*
X16021000Y-24491324D01*
X15988546Y-24328168D01*
X15924886Y-24174479D01*
X15832466Y-24036163D01*
X15714837Y-23918534D01*
X15576521Y-23826114D01*
X15422832Y-23762454D01*
X15259676Y-23730000D01*
X15093324Y-23730000D01*
X14930168Y-23762454D01*
X14776479Y-23826114D01*
X14662011Y-23902599D01*
X14662011Y-16788633D01*
X14746477Y-16704167D01*
X14838897Y-16565851D01*
X14902557Y-16412162D01*
X14935011Y-16249006D01*
X14935011Y-16082654D01*
X14902557Y-15919498D01*
X14838897Y-15765809D01*
X14746477Y-15627493D01*
X14628848Y-15509864D01*
X14490532Y-15417444D01*
X14343994Y-15356746D01*
X14350377Y-15341336D01*
X14382831Y-15178180D01*
X14382831Y-15011828D01*
X14350377Y-14848672D01*
X14286717Y-14694983D01*
X14194297Y-14556667D01*
X14076668Y-14439038D01*
X13938352Y-14346618D01*
X13784663Y-14282958D01*
X13621507Y-14250504D01*
X13455155Y-14250504D01*
X13291999Y-14282958D01*
X13138310Y-14346618D01*
X12999994Y-14439038D01*
X12882365Y-14556667D01*
X12789945Y-14694983D01*
X12726285Y-14848672D01*
X12693831Y-15011828D01*
X12693831Y-15094000D01*
X12636500Y-15094000D01*
X12636500Y-8603469D01*
X16547725Y-5656656D01*
X16617324Y-5670500D01*
X16783676Y-5670500D01*
X16946832Y-5638046D01*
X17100521Y-5574386D01*
X17238837Y-5481966D01*
X17356466Y-5364337D01*
X17448886Y-5226021D01*
X17512546Y-5072332D01*
X17545000Y-4909176D01*
X17545000Y-4742824D01*
X17512546Y-4579668D01*
X17448886Y-4425979D01*
X17356466Y-4287663D01*
X17238837Y-4170034D01*
X17100521Y-4077614D01*
X16946832Y-4013954D01*
X16783676Y-3981500D01*
X16617324Y-3981500D01*
X16454168Y-4013954D01*
X16300479Y-4077614D01*
X16162163Y-4170034D01*
X16044534Y-4287663D01*
X15952114Y-4425979D01*
X15888454Y-4579668D01*
X15856000Y-4742824D01*
X15856000Y-4746716D01*
X11756508Y-7835376D01*
X11745955Y-7841016D01*
X11711606Y-7869206D01*
X11698679Y-7878945D01*
X11689944Y-7886983D01*
X11658933Y-7912433D01*
X11648587Y-7925040D01*
X11636597Y-7936073D01*
X11612961Y-7968451D01*
X11587516Y-7999456D01*
X11579831Y-8013834D01*
X11570221Y-8026998D01*
X11553352Y-8063371D01*
X11534448Y-8098739D01*
X11529716Y-8114338D01*
X11522858Y-8129126D01*
X11513409Y-8168096D01*
X11501769Y-8206467D01*
X11500171Y-8222689D01*
X11496330Y-8238531D01*
X11494665Y-8278598D01*
X11493500Y-8290427D01*
X11493500Y-8306634D01*
X11491656Y-8351009D01*
X11493500Y-8362825D01*
X11493501Y-13781848D01*
X11386176Y-13760500D01*
X11219824Y-13760500D01*
X11056668Y-13792954D01*
X10902979Y-13856614D01*
X10764663Y-13949034D01*
X10647034Y-14066663D01*
X10554614Y-14204979D01*
X10526453Y-14272965D01*
X10498342Y-14261321D01*
X10335186Y-14228867D01*
X10168834Y-14228867D01*
X10005678Y-14261321D01*
X9851989Y-14324981D01*
X9713673Y-14417401D01*
X9596044Y-14535030D01*
X9503624Y-14673346D01*
X9439964Y-14827035D01*
X9407510Y-14990191D01*
X9407510Y-15156543D01*
X9420131Y-15219991D01*
X9415780Y-15234333D01*
X9404746Y-15346366D01*
X9407512Y-15374450D01*
X9407511Y-22394209D01*
X9384959Y-22436401D01*
X9352280Y-22544129D01*
X9341246Y-22656162D01*
X9344012Y-22684246D01*
X9344011Y-27947766D01*
X2434718Y-34857060D01*
X2471748Y-34787780D01*
X2545769Y-34543766D01*
X2570763Y-34290000D01*
X2545769Y-34036234D01*
X2471748Y-33792220D01*
X2351545Y-33567335D01*
X2189778Y-33370222D01*
X1992665Y-33208455D01*
X1767780Y-33088252D01*
X1542784Y-33020000D01*
X1767780Y-32951748D01*
X1992665Y-32831545D01*
X2189778Y-32669778D01*
X2351545Y-32472665D01*
X2471748Y-32247780D01*
X2545769Y-32003766D01*
X2570763Y-31750000D01*
X2545769Y-31496234D01*
X2471748Y-31252220D01*
X2351545Y-31027335D01*
X2189778Y-30830222D01*
X1992665Y-30668455D01*
X1767780Y-30548252D01*
X1542784Y-30480000D01*
X1767780Y-30411748D01*
X1992665Y-30291545D01*
X2189778Y-30129778D01*
X2351545Y-29932665D01*
X2471748Y-29707780D01*
X2545769Y-29463766D01*
X2570763Y-29210000D01*
X2545769Y-28956234D01*
X2496013Y-28792210D01*
X5352812Y-25935412D01*
X5374615Y-25917519D01*
X5446032Y-25830497D01*
X5499100Y-25731214D01*
X5531779Y-25623486D01*
X5540048Y-25539526D01*
X5540048Y-25539525D01*
X5542813Y-25511452D01*
X5540048Y-25483378D01*
X5540048Y-21777887D01*
X5601614Y-21926521D01*
X5694034Y-22064837D01*
X5811663Y-22182466D01*
X5949979Y-22274886D01*
X6103668Y-22338546D01*
X6266824Y-22371000D01*
X6433176Y-22371000D01*
X6596332Y-22338546D01*
X6750021Y-22274886D01*
X6888337Y-22182466D01*
X7005966Y-22064837D01*
X7098386Y-21926521D01*
X7162046Y-21772832D01*
X7179564Y-21684763D01*
X7219655Y-21644672D01*
X7246301Y-21622804D01*
X7268170Y-21596157D01*
X7268173Y-21596154D01*
X7333590Y-21516445D01*
X7398450Y-21395100D01*
X7399950Y-21390156D01*
X7438392Y-21263431D01*
X7448499Y-21160810D01*
X7448499Y-21160800D01*
X7451877Y-21126502D01*
X7448499Y-21092204D01*
X7448499Y-20719704D01*
X8477890Y-19690314D01*
X8504530Y-19668451D01*
X8526395Y-19641809D01*
X8526402Y-19641802D01*
X8591819Y-19562091D01*
X8627140Y-19496010D01*
X8656680Y-19440745D01*
X8696621Y-19309078D01*
X8706728Y-19206457D01*
X8706728Y-19206446D01*
X8710106Y-19172148D01*
X8706728Y-19137850D01*
X8706728Y-13998099D01*
X9302265Y-13402564D01*
X9390332Y-13385046D01*
X9544021Y-13321386D01*
X9682337Y-13228966D01*
X9799966Y-13111337D01*
X9892386Y-12973021D01*
X9956046Y-12819332D01*
X9988500Y-12656176D01*
X9988500Y-12489824D01*
X9956046Y-12326668D01*
X9892386Y-12172979D01*
X9799966Y-12034663D01*
X9682337Y-11917034D01*
X9544021Y-11824614D01*
X9390332Y-11760954D01*
X9227176Y-11728500D01*
X9060824Y-11728500D01*
X8897668Y-11760954D01*
X8743979Y-11824614D01*
X8605663Y-11917034D01*
X8488034Y-12034663D01*
X8395614Y-12172979D01*
X8331954Y-12326668D01*
X8314436Y-12414735D01*
X7538571Y-13190602D01*
X7511926Y-13212469D01*
X7490058Y-13239115D01*
X7490054Y-13239119D01*
X7424637Y-13318829D01*
X7385577Y-13391905D01*
X7258000Y-13366528D01*
X7258000Y-13315324D01*
X7225546Y-13152168D01*
X7161886Y-12998479D01*
X7069466Y-12860163D01*
X6951837Y-12742534D01*
X6813521Y-12650114D01*
X6659832Y-12586454D01*
X6496676Y-12554000D01*
X6330324Y-12554000D01*
X6167168Y-12586454D01*
X6013479Y-12650114D01*
X5962648Y-12684078D01*
X5962648Y-12117574D01*
X6377223Y-11703000D01*
X6496676Y-11703000D01*
X6659832Y-11670546D01*
X6813521Y-11606886D01*
X6951837Y-11514466D01*
X7069466Y-11396837D01*
X7161886Y-11258521D01*
X7225546Y-11104832D01*
X7258000Y-10941676D01*
X7258000Y-10775324D01*
X7225546Y-10612168D01*
X7161886Y-10458479D01*
X7069466Y-10320163D01*
X6951837Y-10202534D01*
X6900843Y-10168460D01*
X6942466Y-10126837D01*
X7034886Y-9988521D01*
X7098546Y-9834832D01*
X7131000Y-9671676D01*
X7131000Y-9505324D01*
X7098546Y-9342168D01*
X7034886Y-9188479D01*
X6942466Y-9050163D01*
X6824837Y-8932534D01*
X6686521Y-8840114D01*
X6532832Y-8776454D01*
X6369676Y-8744000D01*
X6203324Y-8744000D01*
X6040168Y-8776454D01*
X5886479Y-8840114D01*
X5748163Y-8932534D01*
X5663697Y-9017000D01*
X5298571Y-9017000D01*
X5270499Y-9014235D01*
X5254403Y-9015820D01*
X6377224Y-7893000D01*
X6496676Y-7893000D01*
X6659832Y-7860546D01*
X6813521Y-7796886D01*
X6951837Y-7704466D01*
X7069466Y-7586837D01*
X7161886Y-7448521D01*
X7225546Y-7294832D01*
X7258000Y-7131676D01*
X7258000Y-6965324D01*
X7225546Y-6802168D01*
X7161886Y-6648479D01*
X7069466Y-6510163D01*
X6951837Y-6392534D01*
X6813521Y-6300114D01*
X6659832Y-6236454D01*
X6496676Y-6204000D01*
X6330324Y-6204000D01*
X6167168Y-6236454D01*
X6013479Y-6300114D01*
X5875163Y-6392534D01*
X5757534Y-6510163D01*
X5665114Y-6648479D01*
X5601454Y-6802168D01*
X5569000Y-6965324D01*
X5569000Y-7084776D01*
X2164391Y-10489387D01*
X1992665Y-10348455D01*
X1767780Y-10228252D01*
X1542784Y-10160000D01*
X1767780Y-10091748D01*
X1992665Y-9971545D01*
X2189778Y-9809778D01*
X2351545Y-9612665D01*
X2471748Y-9387780D01*
X2545769Y-9143766D01*
X2570763Y-8890000D01*
X2545769Y-8636234D01*
X2471748Y-8392220D01*
X2351545Y-8167335D01*
X2189778Y-7970222D01*
X1992665Y-7808455D01*
X1767780Y-7688252D01*
X1542784Y-7620000D01*
X1767780Y-7551748D01*
X1992665Y-7431545D01*
X2189778Y-7269778D01*
X2351545Y-7072665D01*
X2471748Y-6847780D01*
X2545769Y-6603766D01*
X2570763Y-6350000D01*
X2545769Y-6096234D01*
X2471748Y-5852220D01*
X2351545Y-5627335D01*
X2189778Y-5430222D01*
X1992665Y-5268455D01*
X1767780Y-5148252D01*
X1542784Y-5080000D01*
X1767780Y-5011748D01*
X1992665Y-4891545D01*
X2189778Y-4729778D01*
X2351545Y-4532665D01*
X2471748Y-4307780D01*
X2545769Y-4063766D01*
X2570763Y-3810000D01*
X2545769Y-3556234D01*
X2471748Y-3312220D01*
X2351545Y-3087335D01*
X2189778Y-2890222D01*
X2106401Y-2821796D01*
X2120000Y-2821880D01*
X2256930Y-2808394D01*
X2388598Y-2768453D01*
X2509944Y-2703592D01*
X2616304Y-2616304D01*
X2703592Y-2509944D01*
X2768453Y-2388598D01*
X2808394Y-2256930D01*
X2821880Y-2120000D01*
X2818500Y-1571625D01*
X2643875Y-1397000D01*
X1397000Y-1397000D01*
X1397000Y-1417000D01*
X1143000Y-1417000D01*
X1143000Y-1397000D01*
X1123000Y-1397000D01*
X1123000Y-1143000D01*
X1143000Y-1143000D01*
X1143000Y-1123000D01*
X1397000Y-1123000D01*
X1397000Y-1143000D01*
X2643875Y-1143000D01*
X2818500Y-968375D01*
X2821575Y-469500D01*
X23112333Y-469500D01*
X23048455Y-547335D01*
M02*
