G04 #@! TF.GenerationSoftware,KiCad,Pcbnew,(5.1.4-0-10_14)*
G04 #@! TF.CreationDate,2019-11-01T18:28:51-07:00*
G04 #@! TF.ProjectId,esp32-generic-board,65737033-322d-4676-956e-657269632d62,rev?*
G04 #@! TF.SameCoordinates,Original*
G04 #@! TF.FileFunction,Legend,Top*
G04 #@! TF.FilePolarity,Positive*
%FSLAX46Y46*%
G04 Gerber Fmt 4.6, Leading zero omitted, Abs format (unit mm)*
G04 Created by KiCad (PCBNEW (5.1.4-0-10_14)) date 2019-11-01 18:28:51*
%MOMM*%
%LPD*%
G04 APERTURE LIST*
%ADD10C,0.120000*%
%ADD11C,0.100000*%
%ADD12C,0.150000*%
G04 APERTURE END LIST*
D10*
X-60000Y-48320000D02*
X2600000Y-48320000D01*
X-60000Y-2540000D02*
X-60000Y-48320000D01*
X2600000Y-2540000D02*
X2600000Y-48320000D01*
X-60000Y-2540000D02*
X2600000Y-2540000D01*
X-60000Y-1270000D02*
X-60000Y60000D01*
X-60000Y60000D02*
X1270000Y60000D01*
X21093500Y-52415000D02*
X22593500Y-52415000D01*
X13093500Y-52415000D02*
X13093500Y-53935000D01*
X13093500Y-52415000D02*
X14593500Y-52415000D01*
X22593500Y-55435000D02*
X22593500Y-59675000D01*
X22593500Y-52415000D02*
X22593500Y-53935000D01*
X13093500Y-55435000D02*
X13093500Y-59675000D01*
X25460000Y-48320000D02*
X24130000Y-48320000D01*
X25460000Y-46990000D02*
X25460000Y-48320000D01*
X25460000Y-45720000D02*
X22800000Y-45720000D01*
X22800000Y-45720000D02*
X22800000Y60000D01*
X25460000Y-45720000D02*
X25460000Y60000D01*
X25460000Y60000D02*
X22800000Y60000D01*
X20769078Y-39254500D02*
X20251922Y-39254500D01*
X20769078Y-37834500D02*
X20251922Y-37834500D01*
X5534922Y-28713500D02*
X6052078Y-28713500D01*
X5534922Y-27293500D02*
X6052078Y-27293500D01*
X7037000Y-21824422D02*
X7037000Y-22341578D01*
X8457000Y-21824422D02*
X8457000Y-22341578D01*
X5441422Y-33453000D02*
X5958578Y-33453000D01*
X5441422Y-34873000D02*
X5958578Y-34873000D01*
X9259500Y-21790922D02*
X9259500Y-22308078D01*
X10679500Y-21790922D02*
X10679500Y-22308078D01*
X5536000Y-41255422D02*
X5536000Y-41772578D01*
X4116000Y-41255422D02*
X4116000Y-41772578D01*
X19438500Y-23049500D02*
X19438500Y-20364500D01*
X19438500Y-20364500D02*
X17518500Y-20364500D01*
X17518500Y-20364500D02*
X17518500Y-23049500D01*
X15042000Y-20349500D02*
X15042000Y-23034500D01*
X16962000Y-20349500D02*
X15042000Y-20349500D01*
X16962000Y-23034500D02*
X16962000Y-20349500D01*
X10398000Y-49776000D02*
X2398000Y-49776000D01*
X2398000Y-49776000D02*
X2398000Y-62876000D01*
D11*
X10398000Y-62876000D02*
X2398000Y-62876000D01*
X10398000Y-49776000D02*
X10398000Y-62876000D01*
D10*
X10333000Y-36246500D02*
X9733000Y-36246500D01*
X11033000Y-32796500D02*
X11033000Y-35596500D01*
X9733000Y-32146500D02*
X10333000Y-32146500D01*
X9033000Y-35596500D02*
X9033000Y-32796500D01*
X9033000Y-32846500D02*
G75*
G02X9733000Y-32146500I700000J0D01*
G01*
X10333000Y-32146500D02*
G75*
G02X11033000Y-32846500I0J-700000D01*
G01*
X11033000Y-35546500D02*
G75*
G02X10333000Y-36246500I-700000J0D01*
G01*
X9733000Y-36246500D02*
G75*
G02X9033000Y-35546500I0J700000D01*
G01*
X16029000Y-40977000D02*
X16029000Y-40032000D01*
X16029000Y-40032000D02*
X21309000Y-40032000D01*
X21309000Y-40032000D02*
X21309000Y-40977000D01*
X16029000Y-44367000D02*
X16029000Y-45312000D01*
X16029000Y-45312000D02*
X21309000Y-45312000D01*
X21309000Y-45312000D02*
X21309000Y-44367000D01*
X14775922Y-50153500D02*
X15293078Y-50153500D01*
X14775922Y-51573500D02*
X15293078Y-51573500D01*
X20236922Y-51573500D02*
X20754078Y-51573500D01*
X20236922Y-50153500D02*
X20754078Y-50153500D01*
X19927500Y-22308078D02*
X19927500Y-21790922D01*
X21347500Y-22308078D02*
X21347500Y-21790922D01*
X14553000Y-22293078D02*
X14553000Y-21775922D01*
X13133000Y-22293078D02*
X13133000Y-21775922D01*
X4306500Y-22341578D02*
X4306500Y-21824422D01*
X5726500Y-22341578D02*
X5726500Y-21824422D01*
X6721500Y-29441500D02*
X4921500Y-29441500D01*
X4921500Y-32661500D02*
X7371500Y-32661500D01*
X10817500Y-39209000D02*
X7597500Y-39209000D01*
X11707500Y-43468000D02*
X7597500Y-43468000D01*
D12*
X14397000Y-26361500D02*
X14397000Y-26936500D01*
X20147000Y-26361500D02*
X20147000Y-27011500D01*
X20147000Y-37011500D02*
X20147000Y-36361500D01*
X14397000Y-37011500D02*
X14397000Y-36361500D01*
X14397000Y-26361500D02*
X20147000Y-26361500D01*
X14397000Y-37011500D02*
X20147000Y-37011500D01*
X14397000Y-26936500D02*
X12797000Y-26936500D01*
D10*
X3580000Y-18053500D02*
X3580000Y-18833500D01*
X3580000Y-18833500D02*
X4580000Y-18833500D01*
X21820000Y-18053500D02*
X21820000Y-18833500D01*
X21820000Y-18833500D02*
X20820000Y-18833500D01*
X3580000Y6911500D02*
X21820000Y6911500D01*
X21820000Y6911500D02*
X21820000Y491500D01*
X3580000Y6911500D02*
X3580000Y491500D01*
X3580000Y491500D02*
X3200000Y491500D01*
X13133000Y-41358078D02*
X13133000Y-40840922D01*
X14553000Y-41358078D02*
X14553000Y-40840922D01*
D12*
X17510166Y-50633380D02*
X17510166Y-51347666D01*
X17462547Y-51490523D01*
X17367309Y-51585761D01*
X17224452Y-51633380D01*
X17129214Y-51633380D01*
X18510166Y-51633380D02*
X17938738Y-51633380D01*
X18224452Y-51633380D02*
X18224452Y-50633380D01*
X18129214Y-50776238D01*
X18033976Y-50871476D01*
X17938738Y-50919095D01*
X18503142Y-38711166D02*
X18550761Y-38758785D01*
X18598380Y-38901642D01*
X18598380Y-38996880D01*
X18550761Y-39139738D01*
X18455523Y-39234976D01*
X18360285Y-39282595D01*
X18169809Y-39330214D01*
X18026952Y-39330214D01*
X17836476Y-39282595D01*
X17741238Y-39234976D01*
X17646000Y-39139738D01*
X17598380Y-38996880D01*
X17598380Y-38901642D01*
X17646000Y-38758785D01*
X17693619Y-38711166D01*
X18598380Y-37758785D02*
X18598380Y-38330214D01*
X18598380Y-38044500D02*
X17598380Y-38044500D01*
X17741238Y-38139738D01*
X17836476Y-38234976D01*
X17884095Y-38330214D01*
X5611833Y-26900142D02*
X5564214Y-26947761D01*
X5421357Y-26995380D01*
X5326119Y-26995380D01*
X5183261Y-26947761D01*
X5088023Y-26852523D01*
X5040404Y-26757285D01*
X4992785Y-26566809D01*
X4992785Y-26423952D01*
X5040404Y-26233476D01*
X5088023Y-26138238D01*
X5183261Y-26043000D01*
X5326119Y-25995380D01*
X5421357Y-25995380D01*
X5564214Y-26043000D01*
X5611833Y-26090619D01*
X5992785Y-26090619D02*
X6040404Y-26043000D01*
X6135642Y-25995380D01*
X6373738Y-25995380D01*
X6468976Y-26043000D01*
X6516595Y-26090619D01*
X6564214Y-26185857D01*
X6564214Y-26281095D01*
X6516595Y-26423952D01*
X5945166Y-26995380D01*
X6564214Y-26995380D01*
X7643833Y-24868142D02*
X7596214Y-24915761D01*
X7453357Y-24963380D01*
X7358119Y-24963380D01*
X7215261Y-24915761D01*
X7120023Y-24820523D01*
X7072404Y-24725285D01*
X7024785Y-24534809D01*
X7024785Y-24391952D01*
X7072404Y-24201476D01*
X7120023Y-24106238D01*
X7215261Y-24011000D01*
X7358119Y-23963380D01*
X7453357Y-23963380D01*
X7596214Y-24011000D01*
X7643833Y-24058619D01*
X7977166Y-23963380D02*
X8596214Y-23963380D01*
X8262880Y-24344333D01*
X8405738Y-24344333D01*
X8500976Y-24391952D01*
X8548595Y-24439571D01*
X8596214Y-24534809D01*
X8596214Y-24772904D01*
X8548595Y-24868142D01*
X8500976Y-24915761D01*
X8405738Y-24963380D01*
X8120023Y-24963380D01*
X8024785Y-24915761D01*
X7977166Y-24868142D01*
X5518333Y-36425142D02*
X5470714Y-36472761D01*
X5327857Y-36520380D01*
X5232619Y-36520380D01*
X5089761Y-36472761D01*
X4994523Y-36377523D01*
X4946904Y-36282285D01*
X4899285Y-36091809D01*
X4899285Y-35948952D01*
X4946904Y-35758476D01*
X4994523Y-35663238D01*
X5089761Y-35568000D01*
X5232619Y-35520380D01*
X5327857Y-35520380D01*
X5470714Y-35568000D01*
X5518333Y-35615619D01*
X6375476Y-35853714D02*
X6375476Y-36520380D01*
X6137380Y-35472761D02*
X5899285Y-36187047D01*
X6518333Y-36187047D01*
X9802833Y-24868142D02*
X9755214Y-24915761D01*
X9612357Y-24963380D01*
X9517119Y-24963380D01*
X9374261Y-24915761D01*
X9279023Y-24820523D01*
X9231404Y-24725285D01*
X9183785Y-24534809D01*
X9183785Y-24391952D01*
X9231404Y-24201476D01*
X9279023Y-24106238D01*
X9374261Y-24011000D01*
X9517119Y-23963380D01*
X9612357Y-23963380D01*
X9755214Y-24011000D01*
X9802833Y-24058619D01*
X10707595Y-23963380D02*
X10231404Y-23963380D01*
X10183785Y-24439571D01*
X10231404Y-24391952D01*
X10326642Y-24344333D01*
X10564738Y-24344333D01*
X10659976Y-24391952D01*
X10707595Y-24439571D01*
X10755214Y-24534809D01*
X10755214Y-24772904D01*
X10707595Y-24868142D01*
X10659976Y-24915761D01*
X10564738Y-24963380D01*
X10326642Y-24963380D01*
X10231404Y-24915761D01*
X10183785Y-24868142D01*
X4595833Y-39473142D02*
X4548214Y-39520761D01*
X4405357Y-39568380D01*
X4310119Y-39568380D01*
X4167261Y-39520761D01*
X4072023Y-39425523D01*
X4024404Y-39330285D01*
X3976785Y-39139809D01*
X3976785Y-38996952D01*
X4024404Y-38806476D01*
X4072023Y-38711238D01*
X4167261Y-38616000D01*
X4310119Y-38568380D01*
X4405357Y-38568380D01*
X4548214Y-38616000D01*
X4595833Y-38663619D01*
X5452976Y-38568380D02*
X5262500Y-38568380D01*
X5167261Y-38616000D01*
X5119642Y-38663619D01*
X5024404Y-38806476D01*
X4976785Y-38996952D01*
X4976785Y-39377904D01*
X5024404Y-39473142D01*
X5072023Y-39520761D01*
X5167261Y-39568380D01*
X5357738Y-39568380D01*
X5452976Y-39520761D01*
X5500595Y-39473142D01*
X5548214Y-39377904D01*
X5548214Y-39139809D01*
X5500595Y-39044571D01*
X5452976Y-38996952D01*
X5357738Y-38949333D01*
X5167261Y-38949333D01*
X5072023Y-38996952D01*
X5024404Y-39044571D01*
X4976785Y-39139809D01*
X17803904Y-24963380D02*
X17803904Y-23963380D01*
X18042000Y-23963380D01*
X18184857Y-24011000D01*
X18280095Y-24106238D01*
X18327714Y-24201476D01*
X18375333Y-24391952D01*
X18375333Y-24534809D01*
X18327714Y-24725285D01*
X18280095Y-24820523D01*
X18184857Y-24915761D01*
X18042000Y-24963380D01*
X17803904Y-24963380D01*
X19327714Y-24963380D02*
X18756285Y-24963380D01*
X19042000Y-24963380D02*
X19042000Y-23963380D01*
X18946761Y-24106238D01*
X18851523Y-24201476D01*
X18756285Y-24249095D01*
X15263904Y-24948380D02*
X15263904Y-23948380D01*
X15502000Y-23948380D01*
X15644857Y-23996000D01*
X15740095Y-24091238D01*
X15787714Y-24186476D01*
X15835333Y-24376952D01*
X15835333Y-24519809D01*
X15787714Y-24710285D01*
X15740095Y-24805523D01*
X15644857Y-24900761D01*
X15502000Y-24948380D01*
X15263904Y-24948380D01*
X16216285Y-24043619D02*
X16263904Y-23996000D01*
X16359142Y-23948380D01*
X16597238Y-23948380D01*
X16692476Y-23996000D01*
X16740095Y-24043619D01*
X16787714Y-24138857D01*
X16787714Y-24234095D01*
X16740095Y-24376952D01*
X16168666Y-24948380D01*
X16787714Y-24948380D01*
X6016666Y-47966380D02*
X6016666Y-48680666D01*
X5969047Y-48823523D01*
X5873809Y-48918761D01*
X5730952Y-48966380D01*
X5635714Y-48966380D01*
X6445238Y-48061619D02*
X6492857Y-48014000D01*
X6588095Y-47966380D01*
X6826190Y-47966380D01*
X6921428Y-48014000D01*
X6969047Y-48061619D01*
X7016666Y-48156857D01*
X7016666Y-48252095D01*
X6969047Y-48394952D01*
X6397619Y-48966380D01*
X7016666Y-48966380D01*
X7685380Y-35029833D02*
X8399666Y-35029833D01*
X8542523Y-35077452D01*
X8637761Y-35172690D01*
X8685380Y-35315547D01*
X8685380Y-35410785D01*
X8685380Y-34553642D02*
X7685380Y-34553642D01*
X7685380Y-34172690D01*
X7733000Y-34077452D01*
X7780619Y-34029833D01*
X7875857Y-33982214D01*
X8018714Y-33982214D01*
X8113952Y-34029833D01*
X8161571Y-34077452D01*
X8209190Y-34172690D01*
X8209190Y-34553642D01*
X8685380Y-33029833D02*
X8685380Y-33601261D01*
X8685380Y-33315547D02*
X7685380Y-33315547D01*
X7828238Y-33410785D01*
X7923476Y-33506023D01*
X7971095Y-33601261D01*
X9485380Y-31929833D02*
X9485380Y-31310785D01*
X9866333Y-31644119D01*
X9866333Y-31501261D01*
X9913952Y-31406023D01*
X9961571Y-31358404D01*
X10056809Y-31310785D01*
X10294904Y-31310785D01*
X10390142Y-31358404D01*
X10437761Y-31406023D01*
X10485380Y-31501261D01*
X10485380Y-31786976D01*
X10437761Y-31882214D01*
X10390142Y-31929833D01*
X10485380Y-36510785D02*
X10485380Y-37082214D01*
X10485380Y-36796500D02*
X9485380Y-36796500D01*
X9628238Y-36891738D01*
X9723476Y-36986976D01*
X9771095Y-37082214D01*
X21280380Y-46521666D02*
X21280380Y-46997857D01*
X20280380Y-46997857D01*
X21280380Y-45664523D02*
X21280380Y-46235952D01*
X21280380Y-45950238D02*
X20280380Y-45950238D01*
X20423238Y-46045476D01*
X20518476Y-46140714D01*
X20566095Y-46235952D01*
X12185833Y-51379380D02*
X11852500Y-50903190D01*
X11614404Y-51379380D02*
X11614404Y-50379380D01*
X11995357Y-50379380D01*
X12090595Y-50427000D01*
X12138214Y-50474619D01*
X12185833Y-50569857D01*
X12185833Y-50712714D01*
X12138214Y-50807952D01*
X12090595Y-50855571D01*
X11995357Y-50903190D01*
X11614404Y-50903190D01*
X13138214Y-51379380D02*
X12566785Y-51379380D01*
X12852500Y-51379380D02*
X12852500Y-50379380D01*
X12757261Y-50522238D01*
X12662023Y-50617476D01*
X12566785Y-50665095D01*
X22947333Y-51379380D02*
X22614000Y-50903190D01*
X22375904Y-51379380D02*
X22375904Y-50379380D01*
X22756857Y-50379380D01*
X22852095Y-50427000D01*
X22899714Y-50474619D01*
X22947333Y-50569857D01*
X22947333Y-50712714D01*
X22899714Y-50807952D01*
X22852095Y-50855571D01*
X22756857Y-50903190D01*
X22375904Y-50903190D01*
X23328285Y-50474619D02*
X23375904Y-50427000D01*
X23471142Y-50379380D01*
X23709238Y-50379380D01*
X23804476Y-50427000D01*
X23852095Y-50474619D01*
X23899714Y-50569857D01*
X23899714Y-50665095D01*
X23852095Y-50807952D01*
X23280666Y-51379380D01*
X23899714Y-51379380D01*
X20534333Y-24978380D02*
X20201000Y-24502190D01*
X19962904Y-24978380D02*
X19962904Y-23978380D01*
X20343857Y-23978380D01*
X20439095Y-24026000D01*
X20486714Y-24073619D01*
X20534333Y-24168857D01*
X20534333Y-24311714D01*
X20486714Y-24406952D01*
X20439095Y-24454571D01*
X20343857Y-24502190D01*
X19962904Y-24502190D01*
X20867666Y-23978380D02*
X21486714Y-23978380D01*
X21153380Y-24359333D01*
X21296238Y-24359333D01*
X21391476Y-24406952D01*
X21439095Y-24454571D01*
X21486714Y-24549809D01*
X21486714Y-24787904D01*
X21439095Y-24883142D01*
X21391476Y-24930761D01*
X21296238Y-24978380D01*
X21010523Y-24978380D01*
X20915285Y-24930761D01*
X20867666Y-24883142D01*
X13676333Y-24948380D02*
X13343000Y-24472190D01*
X13104904Y-24948380D02*
X13104904Y-23948380D01*
X13485857Y-23948380D01*
X13581095Y-23996000D01*
X13628714Y-24043619D01*
X13676333Y-24138857D01*
X13676333Y-24281714D01*
X13628714Y-24376952D01*
X13581095Y-24424571D01*
X13485857Y-24472190D01*
X13104904Y-24472190D01*
X14533476Y-24281714D02*
X14533476Y-24948380D01*
X14295380Y-23900761D02*
X14057285Y-24615047D01*
X14676333Y-24615047D01*
X4849833Y-24963380D02*
X4516500Y-24487190D01*
X4278404Y-24963380D02*
X4278404Y-23963380D01*
X4659357Y-23963380D01*
X4754595Y-24011000D01*
X4802214Y-24058619D01*
X4849833Y-24153857D01*
X4849833Y-24296714D01*
X4802214Y-24391952D01*
X4754595Y-24439571D01*
X4659357Y-24487190D01*
X4278404Y-24487190D01*
X5754595Y-23963380D02*
X5278404Y-23963380D01*
X5230785Y-24439571D01*
X5278404Y-24391952D01*
X5373642Y-24344333D01*
X5611738Y-24344333D01*
X5706976Y-24391952D01*
X5754595Y-24439571D01*
X5802214Y-24534809D01*
X5802214Y-24772904D01*
X5754595Y-24868142D01*
X5706976Y-24915761D01*
X5611738Y-24963380D01*
X5373642Y-24963380D01*
X5278404Y-24915761D01*
X5230785Y-24868142D01*
X13612833Y-39122142D02*
X13565214Y-39169761D01*
X13422357Y-39217380D01*
X13327119Y-39217380D01*
X13184261Y-39169761D01*
X13089023Y-39074523D01*
X13041404Y-38979285D01*
X12993785Y-38788809D01*
X12993785Y-38645952D01*
X13041404Y-38455476D01*
X13089023Y-38360238D01*
X13184261Y-38265000D01*
X13327119Y-38217380D01*
X13422357Y-38217380D01*
X13565214Y-38265000D01*
X13612833Y-38312619D01*
X13946166Y-38217380D02*
X14612833Y-38217380D01*
X14184261Y-39217380D01*
M02*
